<?xml version="1.0" standalone="no"?>
<!DOCTYPE svg PUBLIC "-//W3C//DTD SVG 20010904//EN"
 "http://www.w3.org/TR/2001/REC-SVG-20010904/DTD/svg10.dtd">
<svg version="1.0" xmlns="http://www.w3.org/2000/svg"
 width="897.000000pt" height="1500.000000pt" viewBox="0 0 897.000000 1500.000000"
 preserveAspectRatio="xMidYMid meet">

<g transform="translate(0.000000,1500.000000) scale(0.100000,-0.100000)"
fill="#000000" stroke="none">
<path d="M3538 14993 c7 -3 16 -2 19 1 4 3 -2 6 -13 5 -11 0 -14 -3 -6 -6z"/>
<path d="M3620 14990 c20 -5 39 -5 45 1 5 5 -8 9 -35 8 l-45 -1 35 -8z"/>
<path d="M3713 14993 c9 -2 23 -2 30 0 6 3 -1 5 -18 5 -16 0 -22 -2 -12 -5z"/>
<path d="M3797 14983 c-31 -13 -36 -19 -31 -37 9 -31 12 -31 33 -8 10 12 23
22 29 22 5 0 12 9 15 20 6 24 4 24 -46 3z"/>
<path d="M3970 14970 c-13 -8 -12 -10 3 -10 9 0 17 5 17 10 0 12 -1 12 -20 0z"/>
<path d="M3532 14959 c2 -7 10 -15 17 -17 8 -3 12 1 9 9 -2 7 -10 15 -17 17
-8 3 -12 -1 -9 -9z"/>
<path d="M3910 14933 c-19 -13 -37 -29 -39 -35 -4 -11 44 17 68 40 23 23 7 20
-29 -5z"/>
<path d="M3520 14930 c0 -5 5 -10 10 -10 6 0 10 5 10 10 0 6 -4 10 -10 10 -5
0 -10 -4 -10 -10z"/>
<path d="M3495 14910 c-4 -6 -15 -8 -26 -5 -25 8 -24 -3 3 -24 l21 -18 -26 -5
c-20 -4 -27 -1 -27 11 0 10 -8 17 -19 17 -16 0 -17 -4 -10 -18 10 -18 21 -22
48 -19 7 2 10 -2 6 -8 -9 -15 10 -14 23 2 5 6 13 27 17 45 7 32 2 42 -10 22z"/>
<path d="M3767 14812 c-24 -27 -21 -36 4 -11 11 11 19 23 16 25 -2 2 -11 -4
-20 -14z"/>
<path d="M3985 14696 c-27 -18 -67 -49 -89 -69 -30 -29 -44 -36 -65 -31 -25 5
-25 5 -7 -10 11 -9 24 -16 29 -16 4 0 36 24 70 54 34 30 76 66 92 80 41 34 30
32 -30 -8z"/>
<path d="M4313 14688 c1 -6 -9 -17 -22 -24 -13 -7 -28 -20 -33 -28 -5 -9 -18
-16 -29 -16 -11 0 -17 -4 -14 -10 3 -5 1 -10 -5 -10 -7 0 -21 -10 -32 -22
l-20 -23 6 25 c4 22 4 23 -8 8 -7 -10 -18 -18 -24 -18 -6 0 -9 -6 -6 -14 7
-17 -7 -26 -46 -31 -33 -4 -92 -44 -84 -56 3 -5 -2 -6 -10 -3 -23 9 -20 -14 4
-28 25 -16 26 -30 2 -26 -11 2 -31 -12 -50 -33 -18 -21 -43 -40 -57 -43 -14
-4 -25 -13 -25 -21 0 -8 -7 -15 -15 -15 -9 0 -34 -18 -56 -40 -22 -22 -47 -40
-55 -40 -8 0 -14 -4 -14 -8 0 -10 -95 -62 -114 -62 -8 0 -22 -7 -31 -16 -8 -9
-22 -13 -30 -11 -13 6 -47 -2 -89 -19 -14 -5 -17 -4 -12 4 10 17 -44 -8 -66
-30 -10 -10 -23 -18 -29 -18 -6 0 -17 -7 -25 -15 -9 -8 -27 -18 -42 -22 -15
-3 -42 -16 -61 -29 -18 -12 -39 -20 -47 -17 -7 2 -23 -4 -34 -15 l-21 -20 28
-11 c20 -7 22 -10 8 -10 -29 1 -65 -12 -65 -23 0 -22 156 22 237 66 44 25 162
60 171 52 2 -3 -11 -24 -30 -48 -50 -61 -56 -75 -25 -52 15 10 27 22 27 27 0
4 8 7 18 7 15 0 15 -2 -4 -18 -24 -20 -67 -92 -60 -100 7 -7 52 50 48 61 -1 5
2 6 8 2 6 -3 7 -12 3 -18 -11 -19 -47 -70 -58 -83 -5 -6 -17 -22 -25 -34 -8
-12 -20 -28 -27 -35 -7 -8 -8 -16 -2 -22 6 -6 4 -25 -6 -53 -20 -57 -28 -167
-27 -385 0 -71 -1 -148 -4 -170 -3 -22 -5 -119 -6 -215 -1 -96 -4 -157 -6
-135 -6 73 -23 65 -23 -10 1 -38 1 -108 1 -155 0 -47 3 -104 6 -126 3 -23 2
-44 -4 -48 -9 -5 -22 82 -22 150 0 19 -4 34 -8 34 -5 0 -12 -48 -16 -107 -3
-60 -8 -121 -10 -138 -2 -16 -9 -86 -16 -155 -17 -185 -40 -331 -56 -365 -13
-25 -8 -22 31 18 34 38 45 44 45 30 0 -11 -28 -49 -62 -84 -35 -35 -56 -59
-48 -53 8 6 23 14 32 17 15 5 16 3 5 -21 -6 -15 -16 -30 -22 -34 -7 -5 -6 -11
2 -16 8 -5 8 -29 0 -95 -8 -70 -8 -90 2 -97 13 -8 24 -183 14 -227 -9 -41 -21
-24 -15 22 3 30 1 45 -7 45 -7 0 -11 -24 -11 -67 l0 -66 55 57 c64 66 74 57
14 -14 -37 -44 -41 -54 -36 -86 4 -20 3 -58 0 -83 -6 -39 -8 -42 -13 -21 -4
15 -9 -13 -14 -75 -4 -55 -11 -116 -16 -135 -5 -19 -14 -61 -21 -92 -8 -38
-17 -58 -27 -58 -9 0 -12 6 -7 18 4 9 9 53 12 97 3 44 11 89 18 100 7 11 11
38 9 60 -1 22 -4 63 -5 90 -1 31 -4 39 -6 22 -2 -15 -9 -25 -14 -22 -10 7 -13
-1 -24 -49 -5 -26 -4 -28 9 -17 9 8 16 21 17 30 0 12 2 11 8 -4 6 -14 3 -27
-9 -42 -10 -13 -21 -48 -25 -78 -3 -30 -10 -55 -14 -55 -5 0 -13 -26 -19 -57
-7 -32 -13 -67 -16 -78 -8 -40 -6 53 3 130 19 158 22 225 13 225 -5 0 -15 -21
-21 -46 -15 -58 -25 -52 -12 7 5 24 18 49 27 56 17 12 17 14 -2 28 -17 13 -17
14 -1 15 14 0 17 9 17 49 0 65 -17 74 -25 14 -4 -27 -9 -57 -13 -68 -3 -11 -7
-22 -7 -25 -1 -3 -7 -18 -13 -33 -7 -16 -12 -34 -12 -42 0 -8 -4 -16 -9 -19
-4 -3 -4 14 1 37 16 75 27 151 22 156 -15 15 -40 -22 -48 -70 -5 -30 -11 -46
-13 -36 -8 32 -19 17 -43 -55 -13 -40 -25 -66 -27 -57 -2 9 5 38 16 65 19 51
43 141 61 229 5 28 13 61 16 74 5 17 4 22 -4 17 -7 -4 -12 -16 -12 -27 0 -10
-5 -19 -11 -19 -7 0 -9 9 -5 23 4 12 9 46 13 75 3 29 10 55 14 58 5 3 9 10 9
15 0 8 -21 6 -72 -8 -35 -9 -17 14 25 33 29 13 43 26 45 43 3 17 0 21 -10 15
-7 -5 -20 -9 -28 -9 -45 -4 -51 -6 -44 -16 3 -6 18 -8 33 -5 18 4 14 0 -14
-14 -49 -24 -55 -24 -91 -4 l-29 16 38 -7 c59 -10 37 10 -33 29 -61 17 -87 43
-30 31 39 -8 38 0 -1 20 -26 14 -33 14 -42 3 -9 -10 -29 -13 -70 -10 -57 4
-58 4 -41 23 12 14 21 16 30 8 7 -5 14 -6 16 -2 8 16 -50 58 -83 60 -34 3 -34
3 -13 -15 22 -19 27 -63 10 -90 -9 -15 -9 -15 18 -29 11 -6 14 -13 8 -17 -6
-3 -17 -1 -24 6 -26 24 -61 40 -67 31 -3 -5 -15 -13 -26 -18 -19 -8 -19 -9 3
-12 32 -6 28 -33 -6 -33 -16 0 -32 -8 -40 -20 -7 -11 -22 -20 -35 -20 -21 -1
-21 -1 -3 -12 11 -6 28 -11 39 -12 14 -1 23 -11 28 -30 5 -17 6 -32 3 -35 -3
-3 -7 5 -11 17 -3 13 -13 22 -22 21 -37 -3 -51 2 -63 28 -7 16 -26 32 -43 37
-17 6 -48 23 -69 38 -32 22 -36 28 -19 28 11 0 26 -7 33 -15 22 -26 22 -9 1
26 -14 23 -21 28 -21 16 0 -16 -2 -16 -25 -1 -14 9 -25 21 -25 28 0 6 -9 17
-21 24 -13 9 -18 19 -14 32 4 14 -4 24 -35 41 -22 12 -40 26 -40 30 0 15 -82
84 -111 94 -28 10 -37 33 -10 27 7 -2 10 1 7 6 -3 5 -17 12 -31 14 -22 5 -25
2 -25 -23 0 -16 -4 -29 -10 -29 -16 0 -12 -19 10 -42 11 -12 20 -25 20 -30 0
-14 -20 -8 -27 8 -3 9 -13 14 -24 11 -15 -4 -19 1 -19 24 0 16 6 50 13 76 9
37 10 47 0 50 -7 3 -13 11 -13 19 0 8 6 11 15 8 20 -8 19 10 0 26 -11 9 -14
22 -10 42 9 40 -8 35 -39 -12 -14 -22 -28 -40 -29 -40 -2 0 -4 13 -4 29 0 17
3 29 7 28 11 -3 57 56 63 83 13 55 32 115 38 120 3 3 9 15 13 26 l7 22 -41
-20 c-31 -16 -39 -25 -34 -37 13 -31 16 -61 8 -78 -5 -13 -9 -6 -14 27 -4 25
-10 52 -14 61 -5 12 3 22 31 39 37 22 66 44 161 125 26 23 60 49 77 60 25 16
27 19 11 25 -16 5 -16 7 -2 19 8 7 20 10 26 6 5 -3 10 -1 10 5 0 14 25 73 45
110 8 14 20 36 27 50 7 14 39 51 71 82 31 32 57 61 57 64 0 3 14 17 30 31 17
13 30 34 30 44 0 11 10 34 23 51 15 21 18 32 10 35 -18 7 7 43 30 43 20 0 67
42 67 60 0 6 -4 9 -8 6 -4 -2 -9 9 -10 25 -2 19 2 28 8 24 5 -3 10 -13 10 -21
0 -26 15 -14 17 14 7 89 -3 132 -29 132 -6 0 -3 -11 6 -25 19 -28 20 -35 6
-35 -5 0 -10 6 -10 14 0 7 -6 19 -14 26 -8 6 -13 17 -10 24 6 14 -40 31 -56
21 -12 -8 -80 21 -80 34 0 19 104 88 159 106 55 18 91 45 91 68 0 19 46 59
120 102 36 22 82 51 103 66 21 15 52 31 69 34 31 7 33 20 14 66 -6 13 11 29
73 70 61 41 76 56 64 63 -9 5 -31 2 -57 -8 -54 -21 -69 -20 -91 4 -17 19 -17
21 9 55 26 34 26 35 6 35 -31 0 -111 -49 -103 -63 10 -18 57 -81 64 -87 4 -3
10 -16 14 -30 8 -26 -5 -12 -105 115 -25 32 -74 88 -110 124 -36 36 -83 89
-105 118 -40 52 -83 83 -82 60 1 -30 -17 -77 -30 -77 -8 0 -12 -4 -8 -9 3 -5
-5 -13 -17 -16 -13 -4 -46 -22 -75 -42 -30 -20 -57 -32 -64 -27 -8 4 -9 3 -5
-4 4 -7 2 -12 -5 -12 -6 0 -9 -8 -6 -19 3 -13 1 -18 -8 -15 -13 5 -35 -10
-103 -73 -19 -18 -44 -33 -54 -33 -11 0 -33 -13 -48 -30 -15 -16 -32 -30 -37
-30 -25 0 -63 -27 -63 -45 0 -13 -3 -16 -8 -8 -11 18 -52 4 -52 -18 0 -10 -4
-20 -8 -23 -5 -3 -7 -20 -5 -38 3 -29 2 -31 -9 -15 -7 10 -21 28 -30 39 -24
28 -23 46 0 25 24 -22 35 -21 28 1 -3 9 -6 33 -8 52 -2 37 -23 70 -44 70 -7 0
-14 5 -16 12 -4 10 -12 10 -39 1 -56 -19 -144 -57 -172 -76 -17 -11 -36 -15
-51 -11 -13 3 -27 1 -30 -5 -4 -6 -16 -11 -27 -11 -10 0 -19 -1 -19 -3 0 -1
-4 -18 -10 -37 l-9 -35 20 28 c21 28 39 35 39 16 0 -14 -85 -91 -112 -101 -10
-4 -18 -14 -18 -23 0 -8 -9 -15 -19 -15 -26 0 -83 -49 -77 -66 3 -8 -1 -14 -9
-14 -8 0 -15 -5 -15 -11 0 -5 5 -7 12 -3 7 4 8 3 4 -4 -4 -7 -13 -12 -21 -12
-15 0 -61 -68 -51 -77 3 -3 14 4 24 16 13 17 26 22 47 19 27 -4 28 -5 10 -13
-11 -5 -43 -32 -71 -62 -36 -38 -58 -53 -77 -53 -23 0 -27 -4 -27 -29 0 -18
-11 -41 -30 -61 -16 -18 -30 -37 -30 -44 0 -6 -4 -5 -9 3 -14 21 -71 -27 -65
-54 2 -11 1 -14 -2 -7 -8 16 -24 15 -24 -2 0 -8 -20 -33 -45 -57 -25 -24 -45
-49 -45 -55 0 -7 -5 -16 -12 -20 -6 -4 -8 -3 -4 4 3 6 2 13 -4 17 -5 3 -10 1
-10 -4 0 -6 -5 -11 -12 -11 -6 0 0 13 15 28 15 15 27 34 27 41 0 8 8 20 18 27
16 13 16 14 -5 20 -26 7 -30 26 -9 43 11 9 15 6 20 -14 6 -24 36 -36 36 -15 0
6 -6 10 -13 10 -21 0 -8 55 19 81 13 12 24 27 24 33 1 6 28 31 60 55 67 50
200 179 200 194 0 5 18 31 41 58 53 63 27 66 -30 3 -30 -33 -47 -45 -61 -41
-11 3 -20 1 -20 -4 0 -13 -68 -44 -77 -36 -3 4 2 14 13 22 10 8 13 15 7 15
-15 0 -153 -109 -153 -120 0 -4 -10 -10 -21 -13 -14 -4 -20 -11 -16 -21 7 -17
-32 -46 -61 -46 -11 0 -31 -11 -46 -25 -36 -34 -63 -47 -71 -36 -3 6 -20 1
-40 -10 -19 -11 -39 -18 -45 -14 -6 4 -27 -7 -48 -24 -75 -63 -111 -96 -112
-106 0 -5 -18 -22 -40 -37 -37 -25 -70 -68 -53 -68 9 0 56 43 96 89 15 17 33
31 40 31 8 0 29 18 49 39 35 39 119 86 141 78 7 -2 -14 -16 -45 -30 -32 -14
-58 -31 -58 -37 0 -17 -69 -82 -80 -75 -11 7 -23 -4 -64 -57 -16 -21 -35 -38
-42 -38 -8 0 -14 -7 -14 -16 0 -11 -6 -15 -19 -11 -14 3 -21 -2 -25 -18 -3
-13 -9 -31 -13 -41 -4 -12 -3 -15 6 -10 7 5 17 19 22 34 7 18 13 22 21 14 15
-15 -28 -75 -50 -68 -11 4 -33 -9 -60 -34 -39 -36 -56 -60 -32 -45 5 3 10 -3
10 -14 0 -13 7 -21 18 -22 13 0 12 -2 -6 -9 -12 -5 -27 -21 -32 -34 -5 -14
-19 -30 -30 -36 -12 -6 -19 -17 -17 -25 3 -7 -11 -27 -31 -45 -47 -41 -64 -77
-59 -120 3 -25 -3 -46 -20 -73 -18 -29 -21 -42 -13 -52 8 -9 8 -15 0 -20 -5
-3 -10 -15 -10 -27 0 -11 -9 -31 -20 -45 -17 -22 -20 -41 -20 -145 0 -65 5
-139 11 -163 8 -31 8 -53 1 -73 -9 -27 -8 -29 10 -24 19 4 19 1 13 -83 -7 -99
0 -145 21 -145 10 0 13 -6 10 -17 -8 -30 -9 -87 -1 -105 4 -9 4 -21 1 -26 -3
-6 0 -12 7 -15 7 -2 13 -17 15 -33 1 -15 7 -31 12 -34 6 -4 19 -29 29 -56 13
-37 15 -54 7 -67 -8 -12 -6 -25 6 -49 9 -18 22 -51 27 -73 9 -33 8 -42 -4 -51
-14 -10 -13 -14 10 -32 14 -11 25 -29 25 -41 0 -12 4 -21 10 -21 5 0 8 -26 7
-59 -2 -47 0 -58 10 -49 10 8 12 2 11 -24 -1 -24 6 -42 20 -56 23 -23 30 -62
12 -62 -13 0 -13 -40 0 -60 8 -13 10 -12 10 3 0 9 5 17 10 17 10 0 14 -20 12
-52 -1 -10 3 -18 8 -18 5 0 7 -6 4 -14 -3 -7 7 -23 22 -35 20 -16 24 -24 16
-34 -9 -10 -6 -26 8 -64 10 -28 16 -60 13 -72 -3 -11 0 -28 7 -36 6 -8 9 -18
6 -23 -3 -6 1 -15 9 -22 8 -7 12 -17 9 -22 -7 -11 11 -52 35 -81 13 -15 13
-20 2 -26 -8 -5 -10 -14 -6 -21 6 -9 10 -9 16 1 8 12 11 11 19 -1 6 -10 5 -17
-4 -20 -11 -4 -9 -16 10 -55 13 -27 23 -58 24 -67 0 -10 4 -18 10 -18 5 0 7
-7 4 -15 -4 -8 -3 -23 2 -32 4 -10 8 -21 8 -25 1 -3 4 -10 8 -14 5 -4 8 -15 8
-24 0 -10 7 -23 15 -30 9 -7 15 -20 14 -29 -1 -9 1 -24 6 -33 4 -10 5 -24 2
-32 -3 -8 3 -26 14 -39 10 -14 19 -31 19 -39 0 -8 5 -6 11 5 8 14 8 22 0 30
-14 14 -15 40 -1 32 6 -3 10 1 10 9 0 9 7 16 16 16 9 0 23 8 30 18 13 16 13
16 14 -1 0 -10 -7 -20 -15 -23 -16 -6 -20 -29 -7 -37 4 -2 2 -3 -5 -1 -20 5
-21 -5 -7 -72 8 -36 11 -70 8 -76 -3 -5 3 -16 15 -24 12 -8 21 -20 21 -25 0
-6 -14 -1 -30 11 -26 19 -43 16 -23 -4 13 -13 32 -101 22 -104 -5 -2 -9 -12
-9 -22 0 -24 44 -32 64 -11 25 25 18 -1 -9 -34 -19 -22 -27 -27 -33 -17 -12
17 -39 5 -46 -20 -3 -13 1 -26 11 -33 12 -9 14 -21 10 -44 -5 -24 -2 -36 14
-52 15 -15 18 -24 10 -32 -17 -17 -13 -62 9 -90 22 -28 26 -47 9 -47 -5 0 -8
-4 -5 -8 3 -5 6 -26 7 -48 2 -21 8 -48 15 -59 6 -11 15 -56 18 -100 6 -60 12
-85 27 -101 18 -19 19 -27 11 -58 -8 -27 -7 -43 3 -64 7 -15 16 -47 18 -72 8
-75 19 -120 28 -120 13 0 11 64 -2 77 -8 8 -8 17 0 31 6 11 13 57 17 103 4 46
11 89 16 96 5 7 9 22 8 35 -4 41 0 59 10 53 6 -4 8 -11 4 -16 -3 -5 -1 -16 6
-24 8 -10 7 -22 -4 -50 -13 -29 -14 -46 -5 -83 5 -26 7 -74 4 -107 -4 -33 -7
-110 -9 -171 -1 -88 1 -111 11 -107 7 3 13 10 13 17 0 6 5 3 11 -7 5 -9 7 -21
4 -26 -3 -6 -6 -38 -6 -73 -1 -34 -7 -71 -14 -81 -14 -20 -9 -93 7 -113 12
-16 12 -92 -1 -133 -9 -28 -8 -40 5 -59 12 -18 15 -46 12 -123 -2 -75 0 -100
10 -104 9 -3 12 -14 7 -34 -3 -16 -2 -32 3 -35 10 -6 14 10 32 134 5 41 22
149 36 240 14 91 25 186 25 212 0 26 5 62 10 80 10 34 30 168 30 202 0 18 0
18 14 0 7 -10 11 -23 7 -28 -10 -17 -5 -71 7 -69 14 4 14 -10 -1 -25 -9 -9 -9
-12 0 -12 16 0 15 -19 -1 -50 -27 -53 -28 -61 -4 -57 12 2 17 2 11 0 -7 -2
-15 -14 -18 -26 -9 -36 -7 -42 8 -21 8 10 18 16 22 12 4 -4 2 -14 -5 -22 -6
-7 -13 -28 -14 -45 -1 -22 -7 -31 -19 -31 -23 0 -23 -9 -1 -25 14 -11 15 -19
5 -70 -7 -32 -12 -73 -12 -92 0 -19 -7 -44 -15 -57 -10 -14 -18 -54 -20 -95
-2 -49 -10 -83 -24 -107 -23 -39 -26 -48 -11 -39 11 7 14 -8 3 -19 -8 -8 -7
-91 1 -104 3 -5 1 -24 -5 -43 -6 -19 -10 -65 -10 -103 1 -39 -4 -75 -10 -83
-16 -18 -3 -29 16 -13 12 10 15 10 15 -3 0 -8 -6 -17 -13 -20 -16 -6 -21 -194
-5 -203 5 -3 2 -14 -8 -25 -13 -14 -14 -22 -5 -33 8 -10 9 -21 0 -42 -18 -49
-20 -104 -4 -104 8 0 15 -4 15 -10 0 -5 -7 -10 -15 -10 -16 0 -39 -36 -31 -48
5 -8 -9 -80 -21 -112 -15 -39 -14 -70 3 -70 13 0 14 -3 5 -13 -6 -8 -13 -30
-15 -51 -3 -20 -9 -42 -13 -49 -4 -6 -8 -70 -8 -141 -1 -91 -5 -131 -13 -134
-7 -2 -12 -15 -12 -30 0 -25 1 -25 15 -6 14 18 14 18 15 -4 0 -13 -16 -43 -36
-68 -41 -49 -53 -111 -21 -106 15 3 16 -2 11 -25 -4 -15 -10 -30 -13 -33 -10
-8 -7 -44 4 -52 6 -5 5 -12 -3 -20 -6 -6 -12 -17 -12 -24 0 -6 -7 -29 -17 -50
-9 -22 -15 -57 -14 -79 2 -29 -5 -51 -22 -76 -15 -22 -21 -41 -17 -50 9 -16
-6 -125 -20 -151 -14 -26 -12 -30 9 -18 25 13 30 3 19 -37 -10 -39 -25 -43
-34 -8 -3 14 -10 22 -15 19 -15 -9 -10 -36 9 -50 14 -11 15 -16 5 -33 -17 -27
-33 -100 -24 -106 13 -7 5 -64 -11 -82 -8 -10 -16 -38 -17 -63 -1 -25 -9 -70
-16 -101 -19 -71 -24 -205 -9 -202 8 1 10 -33 8 -114 -3 -91 -1 -114 8 -105
18 18 27 14 21 -9 -3 -11 -14 -26 -24 -32 -11 -7 -19 -17 -19 -24 0 -17 30
-17 31 0 0 6 6 -6 13 -28 8 -26 9 -44 3 -53 -6 -7 -7 -43 -4 -87 6 -68 5 -75
-14 -89 -23 -16 -53 -66 -39 -66 5 0 21 11 36 25 15 14 30 23 33 20 7 -8 -69
-75 -85 -75 -6 0 -19 -11 -28 -25 -9 -13 -30 -32 -46 -40 -17 -9 -30 -21 -30
-28 0 -6 -12 -20 -25 -30 l-25 -18 2 59 c1 47 6 62 21 71 24 15 34 7 17 -14
-7 -9 -10 -18 -6 -22 8 -8 46 36 46 53 0 7 18 27 40 46 34 28 40 40 44 82 2
26 9 53 15 59 14 14 14 64 0 69 -6 2 -5 14 5 33 17 33 11 49 -9 22 -8 -12 -15
-14 -20 -8 -3 6 -9 11 -14 11 -10 0 -32 -87 -25 -104 3 -8 -5 -34 -19 -58 -14
-24 -27 -56 -30 -73 -4 -16 -4 -24 -1 -17 6 13 24 17 24 5 0 -5 -7 -17 -15
-27 -11 -15 -17 -17 -29 -7 -10 8 -16 9 -21 1 -3 -5 -1 -10 5 -10 7 0 10 -6 8
-12 -3 -7 -11 -13 -18 -13 -18 0 -22 51 -4 66 8 6 14 19 14 28 0 10 13 38 30
64 22 35 26 47 15 47 -8 0 -15 7 -15 15 0 8 4 15 8 15 12 0 32 46 25 54 -16
16 -43 4 -48 -21 -4 -16 -8 -35 -10 -43 -5 -24 -45 -133 -56 -155 -6 -12 -8
-34 -5 -50 3 -18 0 -35 -9 -45 -9 -10 -16 -48 -20 -100 -4 -63 -11 -92 -25
-112 -15 -20 -16 -26 -5 -22 23 9 18 -14 -6 -26 -11 -7 -18 -14 -15 -17 3 -4
-5 -25 -19 -49 -14 -23 -25 -52 -25 -63 0 -11 -10 -28 -23 -38 -15 -12 -27
-38 -35 -74 -7 -31 -22 -65 -32 -74 -11 -10 -20 -28 -20 -40 0 -11 -4 -25 -10
-31 -5 -5 -11 -25 -13 -44 -3 -24 -11 -38 -26 -45 -17 -8 -21 -17 -18 -37 3
-22 -1 -28 -15 -28 -10 0 -18 -7 -18 -15 0 -8 -7 -15 -15 -15 -8 0 -15 -4 -15
-10 0 -5 5 -10 11 -10 7 0 9 -11 6 -26 -6 -31 19 -84 39 -84 15 0 40 -24 101
-93 17 -21 36 -37 41 -37 5 0 12 -7 16 -15 3 -8 12 -15 21 -15 8 0 15 -5 15
-11 0 -6 8 -8 19 -4 14 4 23 0 31 -14 6 -11 25 -23 45 -27 20 -3 35 -12 35
-20 0 -8 8 -14 18 -14 10 0 22 -4 27 -9 6 -5 28 -14 50 -21 22 -7 68 -25 103
-41 34 -16 71 -29 82 -29 11 0 20 -4 20 -9 0 -5 20 -12 45 -15 24 -4 47 -11
50 -17 4 -5 24 -9 46 -9 32 0 39 -3 39 -20 0 -22 10 -26 27 -9 14 14 47 4 38
-11 -4 -6 9 -10 31 -10 41 0 104 -19 104 -32 0 -5 12 -5 26 -2 16 4 25 3 21
-3 -3 -5 -3 -13 1 -18 9 -13 49 -35 61 -35 6 0 22 -11 37 -25 15 -14 37 -25
50 -25 12 0 36 -11 52 -25 17 -14 35 -25 42 -25 7 0 26 -10 43 -22 48 -34 95
-58 115 -58 10 0 29 -13 44 -30 14 -16 35 -30 47 -30 11 0 22 -4 26 -9 3 -5
35 -25 71 -43 36 -18 77 -48 90 -66 14 -18 30 -30 35 -27 5 4 16 0 24 -9 9 -9
11 -17 5 -21 -5 -3 -7 -19 -4 -34 5 -23 2 -30 -15 -36 -22 -7 -30 -48 -11 -60
17 -10 11 -62 -10 -97 -24 -40 -26 -90 -4 -122 10 -17 12 -26 4 -31 -7 -4 1
-20 20 -45 16 -21 30 -42 30 -47 0 -39 189 -136 320 -165 52 -11 60 -13 80
-21 8 -3 22 -5 30 -6 30 0 140 -26 140 -33 0 -3 26 -12 58 -19 31 -7 61 -16
66 -21 6 -4 20 -8 32 -8 12 0 33 -9 47 -20 14 -11 33 -20 44 -20 10 0 57 -9
105 -21 103 -25 108 -30 158 -174 18 -50 38 -105 46 -123 8 -17 21 -49 30 -70
44 -105 138 -282 150 -282 8 0 14 -7 14 -15 0 -8 5 -15 11 -15 5 0 7 -5 4 -10
-4 -6 -2 -17 5 -25 7 -9 8 -15 0 -20 -5 -3 -10 0 -10 7 0 8 -7 23 -14 34 -12
15 -11 8 2 -28 11 -31 20 -44 26 -38 6 6 14 10 20 10 6 0 5 -5 -2 -12 -16 -16
-15 -28 3 -28 8 0 15 -9 15 -19 0 -11 4 -22 9 -26 6 -3 16 -19 24 -35 13 -25
13 -31 1 -41 -11 -9 -14 -7 -14 9 0 12 -4 24 -10 27 -5 3 -10 3 -10 -2 0 -12
35 -101 43 -109 4 -4 7 -22 7 -40 0 -18 3 -34 8 -36 5 -2 67 -98 89 -140 2 -4
-3 -5 -11 -2 -9 3 -16 9 -16 13 0 4 -7 16 -15 27 -14 18 -15 17 -9 -11 4 -16
14 -39 23 -49 11 -14 12 -17 2 -11 -11 6 -13 4 -8 -9 4 -10 7 -22 7 -27 0 -5
339 -9 845 -9 l845 0 0 69 c0 92 30 260 80 455 44 170 55 200 71 190 15 -9
114 -25 189 -31 36 -3 70 -9 76 -14 6 -5 25 -10 42 -12 18 -2 35 -7 39 -10 3
-4 23 -7 43 -7 20 0 40 -3 44 -8 4 -4 22 -7 39 -8 89 -3 209 -25 430 -80 54
-13 108 -24 120 -24 13 0 32 -6 42 -14 11 -8 24 -12 31 -9 6 2 14 -2 17 -10 5
-14 61 -32 82 -27 6 1 30 3 55 4 25 2 54 6 66 9 41 14 87 145 85 246 -1 36 1
42 12 32 16 -13 27 -5 27 19 0 29 -49 120 -65 120 -8 0 -15 5 -15 11 0 21 54
4 68 -21 13 -24 13 -24 8 9 -4 19 -14 43 -23 53 -18 20 -4 25 16 5 11 -10 13
-9 8 4 -5 15 11 156 31 276 4 29 16 61 25 71 22 24 22 52 1 52 -12 0 -15 6
-10 23 3 13 8 49 12 81 6 53 9 57 21 41 13 -18 13 -18 15 1 0 10 0 27 0 37 -1
10 1 16 6 14 4 -3 7 29 8 71 1 200 4 236 16 224 9 -9 17 -3 35 23 13 19 23 42
23 52 0 10 9 35 20 56 11 20 20 45 20 56 0 10 7 24 15 31 8 7 13 15 10 19 -6
10 22 101 37 118 10 12 9 17 -5 24 -21 12 -23 33 -2 25 17 -6 21 19 5 29 -8 5
-7 11 1 21 7 8 9 27 5 48 -4 20 -2 37 4 41 5 3 8 16 6 28 -15 71 -17 99 -7 92
6 -3 11 -17 11 -31 0 -14 4 -22 10 -19 6 3 10 24 10 46 0 22 8 70 17 106 12
49 13 68 5 71 -7 2 -12 16 -11 30 0 24 1 25 9 7 8 -19 9 -19 9 2 1 12 -4 25
-9 28 -7 4 -7 12 0 25 5 10 7 40 3 67 -6 44 -5 47 10 34 15 -12 17 -11 17 7 0
12 -5 24 -10 27 -6 4 -8 10 -5 15 3 5 1 12 -5 15 -7 5 -5 17 7 38 16 27 18 46
13 122 -4 55 -2 108 6 138 7 30 8 63 3 90 -12 61 -11 115 2 119 9 3 9 10 0 27
-7 12 -15 43 -17 68 -2 25 -11 55 -19 66 -8 12 -15 33 -15 47 1 24 1 24 15 6
28 -37 18 35 -10 76 -29 42 -35 79 -10 58 13 -11 14 -8 9 21 -3 19 -8 45 -11
59 -3 14 -7 40 -9 58 -2 18 -10 47 -19 64 -8 17 -15 38 -15 47 0 13 2 14 15 0
20 -19 54 -145 65 -239 5 -41 10 -77 11 -80 5 -12 18 114 22 206 2 56 7 106
10 111 3 5 2 45 -2 89 -5 43 -4 83 0 88 14 15 11 30 -11 53 -14 16 -16 22 -6
26 10 4 11 20 4 74 -5 37 -14 78 -20 90 -17 33 -5 37 23 7 13 -14 24 -39 25
-57 1 -18 5 -57 9 -87 4 -30 8 -70 8 -88 0 -17 4 -32 8 -32 5 0 6 -6 3 -14 -3
-7 -6 -69 -7 -137 -1 -68 -5 -129 -9 -134 -13 -21 0 -66 26 -90 14 -13 26 -29
26 -35 0 -16 -10 -12 -30 13 -24 29 -31 20 -36 -45 -2 -29 -8 -54 -14 -56 -6
-2 -10 -34 -10 -75 1 -69 2 -74 39 -114 l38 -43 -1 43 c-1 23 -7 52 -14 64
-16 28 -15 33 3 33 8 0 15 -7 15 -15 0 -8 5 -15 11 -15 11 0 9 16 -7 69 -6 20
-4 23 8 18 23 -8 38 33 39 106 0 34 4 83 8 109 4 26 4 45 -1 42 -4 -3 -8 4 -8
15 0 14 5 19 15 15 19 -8 21 26 3 45 -11 11 -10 13 5 8 10 -4 16 -3 13 1 -2 4
0 48 6 97 7 64 6 91 -2 93 -13 5 -3 71 15 92 7 8 15 40 19 70 10 83 13 102 24
138 6 19 7 32 1 32 -5 0 -9 9 -9 20 0 11 4 20 10 20 10 0 6 62 -6 81 -4 6 -1
14 5 18 7 5 14 44 18 91 4 58 2 81 -5 76 -6 -4 -17 2 -24 14 -19 29 -28 25
-28 -15 0 -19 -5 -35 -11 -35 -14 0 -3 63 18 103 8 16 16 61 19 100 2 40 5 83
7 96 1 13 -3 26 -9 28 -15 5 -29 -87 -18 -119 6 -21 5 -22 -10 -8 -13 10 -16
24 -13 49 4 32 12 66 17 81 1 3 1 15 0 28 l-2 23 25 -25 c14 -14 28 -31 31
-38 3 -7 3 -2 0 12 -3 14 -7 36 -9 50 -2 14 -6 33 -10 43 -4 9 -3 17 3 17 6 0
8 10 4 22 -4 16 -2 20 10 15 13 -5 14 -1 5 24 -9 22 -8 36 3 62 7 17 14 56 14
85 0 28 3 52 7 52 3 0 4 11 2 24 -3 16 -15 27 -32 32 -24 7 -22 8 19 15 68 11
348 11 355 -1 8 -12 97 -13 149 0 25 5 52 22 72 44 38 41 44 44 37 16 -6 -24
-5 -24 38 -3 42 21 155 93 145 93 -10 0 21 55 40 71 16 12 17 12 11 -3 -3 -10
-2 -18 3 -18 6 0 10 4 10 9 0 5 7 11 15 15 31 12 14 -22 -20 -38 -56 -27 -50
-37 7 -11 102 46 143 68 181 97 35 28 36 31 20 43 -10 7 -15 17 -11 21 4 4 14
1 22 -5 9 -8 16 -8 20 -2 4 5 2 12 -4 16 -6 4 -7 11 -3 18 11 18 9 138 -3 192
-7 28 -13 40 -13 28 -1 -12 -5 -25 -11 -28 -6 -4 -7 5 -4 23 3 16 0 40 -7 53
-7 13 -12 44 -11 69 2 30 -1 40 -7 31 -16 -24 -41 -5 -41 31 1 33 1 33 14 9 9
-16 15 -20 21 -12 4 7 0 20 -9 30 -9 10 -16 25 -16 34 0 9 -5 19 -11 23 -6 3
-8 15 -6 25 3 11 -2 34 -11 52 -9 17 -17 39 -19 47 -1 8 -7 16 -12 18 -6 2
-11 11 -11 20 0 10 -7 30 -15 46 -17 33 -18 36 -7 36 5 0 17 -18 27 -40 10
-22 24 -45 32 -51 7 -6 13 -19 13 -29 0 -19 39 -72 40 -54 0 7 18 38 40 70 23
33 53 77 67 99 14 22 43 63 64 90 20 28 44 67 53 88 14 35 14 41 0 62 -8 13
-22 26 -30 29 -8 3 -14 11 -14 18 0 9 3 9 12 0 7 -7 20 -12 30 -12 10 0 18 -5
18 -11 0 -12 21 -8 23 5 1 5 -6 10 -16 12 -23 3 -23 3 -31 32 -8 25 11 32 20
7 9 -23 23 -18 34 11 6 14 14 22 20 19 5 -3 10 -2 10 4 0 5 -4 12 -9 16 -13 7
11 87 27 93 13 4 13 2 -4 -73 -5 -20 -5 -20 7 0 7 11 12 41 12 67 0 27 3 48 8
48 5 0 9 14 9 30 0 17 -4 30 -10 30 -5 0 -10 -7 -10 -16 0 -8 -4 -12 -10 -9
-5 3 -10 17 -10 30 0 13 5 27 10 30 21 13 10 32 -15 27 -20 -3 -25 -1 -24 14
4 43 -2 64 -17 64 -10 0 -14 -5 -10 -15 18 -44 18 -51 2 -31 -9 11 -16 28 -16
37 0 9 -16 27 -36 38 -20 12 -34 24 -31 27 3 3 23 -6 46 -20 22 -14 44 -26 48
-26 15 0 51 -43 47 -55 -4 -9 1 -12 13 -11 10 2 19 10 21 19 2 11 -1 15 -10
12 -13 -5 -43 53 -33 64 3 2 5 -1 5 -7 0 -7 7 -12 15 -12 8 0 15 -6 15 -12 1
-8 6 -6 14 4 17 23 26 13 26 -28 0 -18 4 -35 9 -38 10 -7 21 41 21 98 0 22 6
59 14 81 23 70 27 105 11 105 -9 0 -12 6 -8 16 3 9 6 25 7 37 1 11 7 22 14 25
9 3 11 -4 7 -25 -5 -24 -5 -25 5 -10 7 11 10 30 7 43 -3 16 1 25 13 29 9 3 17
11 18 18 1 6 6 37 10 67 5 35 12 54 20 52 14 -2 16 14 2 23 -5 3 -10 19 -10
35 0 16 -5 32 -10 35 -6 4 -8 15 -5 26 4 10 2 19 -3 19 -14 0 -115 100 -108
107 3 4 11 2 17 -4 6 -6 18 -9 26 -6 15 6 -6 22 -58 43 -15 6 -29 20 -32 31
-4 15 -14 19 -47 19 -40 0 -100 25 -100 42 0 11 18 10 25 -2 3 -5 12 -10 18
-10 7 0 0 10 -15 21 -16 12 -25 26 -21 34 6 18 -8 20 -24 4 -8 -8 -17 -5 -32
10 -12 12 -25 21 -31 21 -5 0 -20 10 -33 22 -14 13 -37 33 -52 46 -15 12 -25
25 -22 29 4 3 13 0 22 -7 9 -7 19 -10 23 -6 9 10 -29 37 -46 34 -19 -4 -85 59
-106 99 -19 37 -20 43 -6 43 6 0 10 -6 10 -14 0 -16 38 -66 51 -66 15 0 10 15
-11 38 -11 12 -20 29 -20 38 0 9 -11 30 -25 46 -14 16 -23 34 -19 39 3 5 -11
31 -30 58 -20 27 -39 63 -42 80 -4 17 -13 36 -20 42 -8 6 -14 16 -14 22 0 6 6
2 14 -9 21 -28 30 -10 12 25 -9 16 -16 36 -16 44 0 8 -7 20 -15 27 -9 7 -15
29 -15 51 0 21 -4 41 -10 44 -5 3 -10 16 -10 28 l0 22 18 -21 c18 -24 70 -45
57 -24 -4 6 -18 16 -32 21 -14 5 -23 12 -19 16 3 3 -5 21 -19 38 -15 21 -23
41 -20 56 3 12 0 28 -6 35 -5 6 -9 16 -8 20 4 22 -2 44 -12 44 -6 0 -8 -17 -4
-47 4 -32 3 -43 -4 -33 -13 21 -21 80 -10 80 14 0 10 26 -6 40 -8 7 -15 19
-15 26 0 8 -12 33 -26 55 -14 23 -23 44 -19 47 6 6 20 -10 28 -33 3 -5 8 -7
12 -3 8 8 -8 36 -49 83 -14 17 -26 33 -26 38 0 14 19 7 29 -10 5 -10 13 -14
17 -10 11 10 -53 136 -90 176 -28 30 -28 32 -7 21 l24 -12 -23 31 c-24 35 -21
52 6 30 15 -12 16 -11 9 11 -7 23 -31 49 -47 50 -3 0 -16 20 -28 45 -12 25
-29 52 -37 61 -9 8 -12 18 -9 22 4 3 22 -11 41 -33 35 -42 58 -42 35 0 -10 18
-10 29 -3 36 15 15 23 0 28 -53 2 -26 21 -74 44 -116 22 -40 45 -89 52 -109 6
-21 16 -43 20 -49 5 -6 11 -24 13 -40 6 -44 15 -62 37 -67 12 -3 17 -11 13
-20 -3 -8 -1 -18 5 -22 6 -3 11 -1 11 4 0 6 5 11 10 11 6 0 10 -9 10 -19 0
-11 5 -23 11 -27 16 -9 8 65 -11 101 -8 17 -14 46 -14 65 2 43 -14 100 -28
100 -6 0 -8 9 -5 20 3 13 0 20 -9 20 -17 0 -19 17 -2 22 13 5 -40 128 -55 128
-5 0 -6 4 -2 9 6 10 -31 87 -46 97 -5 3 -9 14 -9 24 0 11 -11 29 -24 42 -28
27 -41 64 -26 73 12 7 30 -34 23 -52 -3 -7 0 -13 6 -13 16 0 14 57 -3 67 -7 4
-15 31 -18 61 -6 58 -28 97 -28 48 0 -15 4 -25 10 -21 6 4 10 -8 10 -30 l0
-36 -25 18 c-13 10 -23 23 -21 29 5 13 -49 96 -86 134 -14 14 -42 38 -62 53
-49 38 -38 48 14 13 22 -14 43 -26 46 -26 9 0 28 -25 66 -84 31 -48 32 -49 42
-26 8 17 7 25 -1 27 -7 3 -15 21 -19 41 -3 20 -13 42 -20 48 -8 7 -14 16 -13
20 1 5 1 20 0 33 l-1 24 -25 -23 c-21 -19 -25 -21 -25 -7 0 9 5 17 10 17 6 0
8 11 4 25 -4 15 -2 25 5 25 6 0 11 5 11 11 0 6 -7 8 -15 5 -11 -4 -19 3 -27
22 -6 15 -10 31 -9 36 1 4 -10 23 -24 41 -14 19 -25 38 -25 44 0 5 -13 19 -30
31 -16 12 -30 29 -30 38 -1 17 -22 52 -33 52 -3 0 -2 -12 2 -27 4 -16 6 -33 4
-39 -2 -6 8 -16 22 -22 27 -13 27 -10 16 -154 -1 -5 -8 -8 -16 -8 -12 0 -13 3
-3 19 9 15 8 24 -5 45 -15 23 -15 26 -2 26 10 0 15 10 15 28 0 25 -4 29 -29
29 -31 0 -61 18 -61 36 0 5 9 2 20 -8 17 -16 20 -16 20 -2 0 8 2 22 5 29 4 10
-7 20 -32 32 -49 22 -59 20 -55 -9 5 -34 -13 -31 -32 5 -12 26 -12 30 0 30 8
0 14 2 14 4 0 9 -67 74 -85 81 -20 8 -20 8 -1 13 11 2 24 -2 30 -10 14 -19 79
-33 74 -16 -3 7 -18 17 -35 21 -18 6 -43 26 -59 48 -16 21 -33 39 -37 39 -5 0
-32 20 -60 45 -55 48 -81 53 -29 5 18 -16 32 -34 32 -39 0 -14 -27 -14 -36 0
-3 6 -17 8 -30 5 -15 -4 -24 -2 -24 5 0 8 -12 10 -35 6 -19 -3 -37 -1 -40 4
-4 5 3 9 14 9 11 0 23 5 26 10 3 6 17 10 31 10 13 0 24 5 24 10 0 18 -29 23
-61 10 -37 -16 -88 -15 -103 0 -8 9 -2 11 24 9 50 -3 70 0 70 9 0 11 -46 36
-68 37 -45 3 -52 6 -52 20 0 18 5 19 29 3 15 -9 25 -9 43 -1 21 11 22 12 2 12
-11 1 -24 5 -30 10 -12 13 -147 -4 -152 -18 -4 -13 -22 -15 -22 -3 0 5 17 17
37 28 20 10 38 25 41 32 5 17 -38 15 -62 -3 -21 -16 -47 -20 -44 -7 4 21 -17
61 -38 71 -31 14 -64 14 -64 1 0 -5 15 -10 34 -10 36 0 52 -12 41 -30 -5 -8
-11 -8 -20 0 -7 6 -44 12 -83 12 -52 2 -69 5 -65 15 3 8 14 11 28 7 15 -4 24
0 28 10 5 12 0 16 -23 16 -16 0 -32 5 -36 12 -5 8 9 9 55 5 40 -4 60 -3 56 3
-3 6 -13 10 -21 10 -21 0 -17 20 7 28 l20 8 -20 18 c-12 11 -21 23 -21 28 0 5
-13 28 -29 52 -20 29 -28 50 -24 67 4 21 0 28 -24 37 -15 6 -37 12 -48 14 -12
2 -20 11 -20 23 0 32 -12 43 -42 37 -26 -5 -27 -4 -13 12 13 16 12 20 -3 31
-9 7 -17 16 -17 21 0 4 5 3 12 -4 17 -17 28 -15 21 4 -6 16 -52 39 -60 30 -3
-3 2 -19 11 -37 22 -43 20 -46 -8 -20 -13 13 -27 38 -31 58 -5 27 -13 38 -40
49 -19 8 -43 14 -53 14 -11 0 -26 7 -33 17 -13 15 -11 16 13 10 23 -6 25 -4
21 14 -3 12 -11 18 -19 15 -17 -7 -18 6 -2 22 19 19 27 14 36 -20 7 -28 13
-33 42 -36 39 -4 90 -37 90 -58 0 -8 7 -14 16 -14 23 0 74 -39 74 -56 0 -8 5
-14 10 -14 6 0 10 -7 10 -15 0 -8 4 -14 9 -12 5 1 16 -5 23 -14 7 -9 29 -19
48 -23 27 -5 32 -4 22 6 -7 7 -12 22 -12 34 0 13 -4 26 -10 29 -5 3 -10 17
-10 30 0 14 -12 34 -31 49 -17 14 -28 30 -24 35 3 5 1 12 -5 16 -15 9 -52 86
-45 93 3 4 10 0 15 -8 6 -8 10 -10 10 -4 0 19 -48 64 -68 64 -11 0 -25 7 -32
15 -7 9 -19 14 -27 11 -7 -3 -13 -1 -13 4 0 15 23 12 47 -5 21 -15 41 -5 29
14 -4 5 -1 11 5 13 6 2 -11 21 -37 42 -36 28 -42 36 -24 31 14 -4 28 -13 32
-19 4 -6 11 -7 15 -2 4 5 2 11 -4 13 -7 3 -13 13 -13 22 0 10 -9 30 -20 44
-11 14 -20 35 -20 46 0 12 -6 21 -15 21 -12 0 -14 -7 -9 -27 l7 -28 -31 30
c-26 27 -58 102 -47 113 9 10 23 -10 29 -43 6 -28 11 -35 31 -35 23 0 23 1 9
28 -7 15 -14 33 -14 40 0 6 -5 12 -11 12 -12 0 -119 101 -119 113 0 5 23 -8
52 -28 l52 -38 -31 39 c-17 22 -43 50 -57 63 -14 14 -26 32 -26 41 0 27 -61
112 -76 106 -14 -5 -54 30 -54 48 0 5 9 0 20 -12 21 -22 50 -30 50 -13 0 6 -5
13 -10 16 -6 4 -8 10 -5 15 7 11 -25 50 -41 50 -15 0 -26 28 -14 35 6 4 10 1
10 -5 0 -7 7 -10 15 -6 8 3 19 -2 24 -12 9 -15 10 -15 11 -1 0 9 -7 19 -15 23
-8 3 -15 12 -15 21 0 8 -7 15 -15 15 -13 0 -35 55 -35 88 0 6 -5 12 -11 12 -7
0 -9 12 -7 30 3 23 1 30 -9 26 -7 -3 -13 1 -13 8 0 7 -11 24 -23 37 -13 13
-27 36 -30 51 -4 14 -27 47 -51 72 -24 25 -47 53 -49 63 -3 10 -8 28 -12 40
-5 19 -3 22 11 16 12 -4 15 -2 12 8 -3 8 -10 13 -15 12 -6 -1 -23 24 -39 55
-16 31 -34 63 -41 70 -6 6 -15 21 -18 32 -3 11 -11 20 -16 20 -5 0 -9 7 -9 15
0 17 -16 20 -25 5 -3 -5 -12 -10 -18 -10 -7 1 -1 10 12 21 13 11 22 21 20 22
-47 35 -59 47 -48 47 8 0 25 -7 37 -16 12 -8 22 -11 22 -5 0 5 -13 19 -30 31
-16 12 -30 27 -30 34 0 7 -11 23 -25 36 -14 13 -41 53 -61 89 -20 36 -40 68
-44 71 -4 3 -12 15 -18 27 -9 16 -9 22 1 26 8 3 5 10 -10 21 -12 9 -30 32 -39
51 -9 19 -22 35 -30 35 -18 0 -64 69 -57 86 3 9 -1 14 -12 14 -12 0 -15 5 -10
20 4 13 2 20 -6 20 -7 0 -21 7 -31 17 -11 9 -18 11 -18 5 0 -23 -17 -12 -43
29 -15 22 -27 45 -27 50 0 5 -8 9 -18 9 -10 0 -27 7 -38 15 -22 17 -12 20 18
4 11 -6 22 -8 25 -5 12 11 -31 46 -69 56 -21 6 -38 15 -38 20 0 14 -78 95 -85
88 -3 -3 4 -15 16 -27 36 -33 2 -25 -43 10 -24 20 -35 35 -28 39 6 4 1 11 -15
18 -27 13 -32 27 -12 35 8 4 9 6 0 6 -6 1 -19 -6 -28 -15 -11 -12 -19 -14 -27
-6 -7 7 -4 12 11 17 12 3 21 11 21 17 0 5 -7 7 -15 4 -18 -7 -48 8 -88 44 -18
16 -27 19 -25 10 2 -8 -7 -19 -19 -25 -13 -5 -23 -14 -23 -19 0 -8 18 -5 53 9
13 5 17 2 17 -12 0 -11 11 -26 25 -33 14 -7 25 -22 25 -33 0 -13 5 -17 15 -13
11 4 21 -9 37 -44 13 -27 29 -50 36 -50 8 0 13 -9 11 -22 -3 -31 9 -57 39 -90
13 -14 21 -31 18 -37 -4 -6 -3 -11 2 -11 5 0 12 -8 16 -17 3 -10 9 -24 12 -31
5 -11 3 -11 -15 0 -12 7 -24 22 -28 33 -3 11 -16 34 -29 51 -13 17 -24 37 -24
45 -1 10 -5 8 -15 -5 -11 -15 -18 -17 -26 -9 -8 8 -5 14 10 22 12 7 21 18 21
25 0 14 -48 63 -58 58 -4 -2 -9 4 -10 14 -3 10 0 14 7 10 6 -4 11 -2 11 3 0 6
-19 19 -42 28 -23 9 -36 19 -30 21 33 11 -6 42 -81 66 -11 4 -17 13 -15 23 5
22 -22 44 -42 34 -9 -4 -38 5 -70 21 -54 27 -56 32 -12 28 27 -2 29 16 3 25
-12 4 -18 12 -14 21 7 19 -5 18 -25 -2 -12 -12 -27 -15 -59 -10 l-43 6 17 -28
c12 -20 4 -15 -30 17 -32 31 -43 48 -37 56 12 14 3 25 -21 25 -9 0 -20 6 -22
13 -4 7 -8 3 -12 -10 -8 -24 -16 -28 -29 -16 -4 4 -23 6 -42 4 -19 -1 -34 2
-34 8 0 6 5 11 11 11 5 0 8 4 5 9 -4 5 -22 5 -44 0 -22 -5 -50 -6 -63 -4 -17
3 -33 -4 -56 -27 -43 -41 -51 -32 -15 18 61 84 64 91 47 97 -8 4 -14 1 -12 -5z
m57 -141 c8 -3 0 -4 -17 -4 -18 1 -33 5 -33 9 0 9 24 16 30 8 3 -4 12 -10 20
-13z m83 7 c9 -4 17 -10 17 -15 0 -14 -13 -10 -40 12 -14 11 -18 18 -10 15 8
-3 23 -9 33 -12z m-123 -34 c0 -5 -7 -10 -15 -10 -8 0 -15 5 -15 10 0 6 7 10
15 10 8 0 15 -4 15 -10z m215 0 c7 -12 -2 -12 -30 0 -19 8 -19 9 2 9 12 1 25
-3 28 -9z m-50 -30 c-3 -5 -12 -7 -20 -3 -21 7 -19 13 6 13 11 0 18 -4 14 -10z
m-64 -35 c84 -27 133 -55 96 -55 -10 0 -30 6 -45 14 -28 14 -102 30 -102 23 0
-3 40 -18 90 -33 83 -27 108 -45 78 -57 -10 -4 -9 -8 2 -16 11 -8 6 -9 -22 -6
-21 3 -38 1 -38 -4 0 -9 57 -27 73 -23 4 1 7 -6 7 -17 0 -18 -2 -18 -60 -4
-47 12 -75 13 -123 6 l-62 -9 45 -13 c25 -7 57 -19 72 -27 14 -8 33 -14 42
-14 21 0 117 -54 142 -80 10 -11 28 -29 38 -40 11 -11 18 -20 15 -20 -2 0 -47
16 -99 35 -86 31 -126 38 -90 15 8 -6 10 -10 4 -10 -5 0 -20 9 -32 20 -12 11
-25 20 -29 20 -5 0 -24 11 -43 23 -19 13 -47 27 -61 30 -16 4 -26 13 -25 23 1
18 -29 42 -40 31 -4 -4 1 -14 12 -22 17 -13 17 -14 2 -15 -9 0 -20 5 -23 10
-3 6 -21 10 -38 10 -61 0 -62 17 -1 23 90 10 151 23 134 30 -8 3 -37 13 -65
21 l-50 16 65 -4 c36 -3 56 -2 45 1 -11 3 -24 9 -30 13 -5 4 -25 11 -42 15
-18 3 -33 11 -33 17 0 6 9 8 20 5 27 -7 36 10 10 18 -11 3 -20 11 -20 16 0 6
-4 7 -10 4 -5 -3 -7 0 -4 8 3 8 0 18 -5 22 -22 13 -1 22 57 24 40 1 85 -6 143
-24z m457 -64 c3 -8 -1 -12 -9 -9 -7 2 -15 10 -17 17 -3 8 1 12 9 9 7 -2 15
-10 17 -17z m52 -71 c0 -5 -7 -10 -15 -10 -8 0 -15 5 -15 10 0 6 7 10 15 10 8
0 15 -4 15 -10z m64 -36 c9 -3 16 -12 16 -20 0 -12 -4 -12 -20 -2 -30 19 -27
34 4 22z m-510 -24 c66 -11 146 -39 146 -51 0 -4 -21 -1 -47 7 -27 8 -73 19
-103 25 -30 6 -59 15 -64 20 -12 11 -6 11 68 -1z m710 -49 c10 -11 16 -26 14
-34 -2 -9 -11 -2 -25 19 -24 37 -17 46 11 15z m56 -2 c0 -6 -4 -7 -10 -4 -5 3
-10 11 -10 16 0 6 5 7 10 4 6 -3 10 -11 10 -16z m-159 -24 c-1 -15 -24 -12
-29 3 -3 9 2 13 12 10 10 -1 17 -7 17 -13z m-893 -46 c29 -10 65 -27 79 -39
33 -26 18 -26 -30 0 -21 11 -41 19 -45 16 -4 -2 -40 11 -81 29 -71 32 -82 57
-11 28 19 -8 59 -23 88 -34z m152 41 c0 -5 -2 -10 -4 -10 -3 0 -8 5 -11 10 -3
6 -1 10 4 10 6 0 11 -4 11 -10z m-1840 -20 c0 -5 -2 -10 -4 -10 -3 0 -8 5 -11
10 -3 6 -1 10 4 10 6 0 11 -4 11 -10z m1317 -50 c-5 -21 7 -27 19 -9 8 13 51
3 71 -16 8 -8 11 -15 6 -15 -5 0 -14 5 -20 11 -13 13 -59 8 -56 -6 1 -5 15
-12 30 -13 15 -2 31 -9 35 -15 6 -9 8 -9 8 1 0 20 81 3 113 -25 16 -12 35 -23
42 -23 8 0 30 -9 50 -20 39 -22 49 -25 41 -11 -3 4 6 6 20 3 19 -3 22 -7 12
-13 -10 -6 -9 -11 7 -22 10 -8 25 -13 32 -10 17 7 17 -14 1 -21 -7 -3 0 -2 16
1 25 5 28 3 23 -11 -6 -14 -3 -16 14 -11 14 5 19 3 15 -4 -6 -10 42 -41 64
-41 19 0 142 -76 184 -113 27 -25 34 -36 25 -41 -8 -3 -3 -3 9 0 20 5 23 3 19
-13 -4 -13 8 -28 50 -58 30 -22 67 -45 82 -51 14 -6 49 -37 76 -69 28 -32 61
-68 74 -79 14 -12 32 -28 41 -37 10 -9 28 -19 41 -23 42 -11 61 -33 62 -70 1
-20 5 -36 9 -36 5 0 8 -17 8 -37 -3 -137 12 -387 29 -494 26 -157 25 -306 -2
-320 -9 -6 -17 -18 -17 -27 0 -15 2 -15 10 -2 5 8 10 10 10 5 0 -10 -46 -84
-59 -95 -8 -7 -50 -58 -81 -100 -14 -18 -40 -51 -57 -73 -18 -21 -33 -43 -33
-48 0 -6 -9 -20 -20 -32 -14 -14 -17 -23 -9 -26 6 -2 16 4 21 13 5 9 20 16 33
16 18 0 23 4 18 16 -6 16 12 34 35 34 6 0 12 -10 12 -22 0 -33 15 -54 26 -37
4 7 3 14 -4 17 -7 2 -12 8 -12 13 0 4 7 6 15 3 9 -4 15 0 15 10 0 13 5 12 26
-7 14 -12 30 -22 35 -22 5 0 14 -7 20 -15 8 -13 11 -13 20 3 16 28 29 20 23
-15 -4 -23 -3 -29 4 -19 15 21 25 -4 24 -65 0 -41 3 -52 14 -47 8 3 14 14 14
26 0 40 12 7 16 -44 3 -29 0 -57 -7 -65 -8 -10 -7 -21 5 -45 13 -25 13 -35 4
-47 -7 -8 -13 -48 -14 -91 -1 -42 -7 -98 -12 -126 -8 -36 -7 -52 1 -57 8 -5 6
-12 -5 -25 -9 -10 -17 -29 -17 -43 -1 -60 -14 -110 -27 -110 -8 0 -14 -4 -14
-10 0 -5 7 -10 15 -10 8 0 15 -4 15 -10 0 -14 -23 -13 -38 2 -7 7 -12 22 -12
35 0 13 -4 23 -10 23 -5 0 -10 6 -10 13 0 8 -24 26 -52 41 -29 15 -71 39 -93
52 -22 14 -59 34 -83 45 -24 11 -46 29 -50 39 -4 10 -29 37 -55 60 -26 24 -60
66 -74 94 -14 28 -39 68 -56 89 -36 47 -31 58 8 17 16 -17 36 -30 45 -30 9 0
21 -5 28 -12 9 -9 12 -9 12 0 0 15 -36 52 -50 52 -5 0 -10 7 -10 15 0 8 -5 15
-11 15 -6 0 -9 6 -6 13 2 6 9 12 14 12 6 0 14 3 17 6 4 4 -4 5 -16 4 -13 -1
-23 -4 -23 -5 0 -1 -11 -4 -25 -5 -14 -2 -61 -12 -104 -24 -114 -30 -217 -29
-283 4 -51 26 -91 68 -115 119 -6 15 -55 58 -107 96 -53 38 -110 83 -127 102
-60 64 -214 276 -234 321 -13 29 -30 114 -45 232 -26 194 -43 251 -88 293 -14
13 -31 37 -38 53 -10 25 -9 32 7 51 21 23 130 78 156 78 16 0 34 17 26 25 -2
3 -15 6 -29 7 -13 2 -26 6 -29 10 -8 10 -61 -3 -54 -13 3 -5 -8 -9 -23 -9 -39
0 -61 -19 -65 -55 -3 -29 -4 -29 -15 -8 -7 12 -15 57 -18 100 -3 43 -12 127
-21 188 -21 146 -5 241 57 332 16 23 29 47 29 53 0 7 11 21 25 32 14 11 23 23
20 28 -3 5 0 12 8 17 7 4 23 22 36 38 12 17 31 35 41 40 23 13 120 102 120
110 0 4 12 20 27 36 15 16 28 37 28 46 0 14 7 17 33 15 20 -2 32 1 32 9 0 6
-8 9 -20 6 -22 -6 -26 3 -9 20 16 16 43 -12 36 -37z m103 31 c0 -5 -9 -7 -20
-4 -11 3 -20 7 -20 9 0 2 9 4 20 4 11 0 20 -4 20 -9z m435 -17 l30 -25 -32 15
c-17 9 -35 20 -38 26 -11 18 10 10 40 -16z m895 6 c0 -5 -7 -10 -16 -10 -8 0
-12 5 -9 10 3 6 10 10 16 10 5 0 9 -4 9 -10z m65 -20 c3 -5 1 -10 -4 -10 -6 0
-11 5 -11 10 0 6 2 10 4 10 3 0 8 -4 11 -10z m-1307 -20 c4 -12 2 -13 -9 -4
-8 7 -23 14 -34 17 -13 4 -9 5 9 4 16 -1 32 -9 34 -17z m407 10 c3 -5 -1 -10
-9 -10 -9 0 -16 5 -16 10 0 6 4 10 9 10 6 0 13 -4 16 -10z m125 0 c8 -5 11
-10 5 -10 -5 0 -17 5 -25 10 -8 5 -10 10 -5 10 6 0 17 -5 25 -10z m580 0 c0
-5 -4 -10 -10 -10 -5 0 -10 5 -10 10 0 6 5 10 10 10 6 0 10 -4 10 -10z m-1012
-27 c19 -8 32 -17 28 -20 -7 -8 -94 25 -102 39 -7 11 16 5 74 -19z m-388 7 c0
-5 -4 -10 -10 -10 -5 0 -10 5 -10 10 0 6 5 10 10 10 6 0 10 -4 10 -10z m510
-5 c14 -8 21 -14 15 -14 -5 0 -21 6 -35 14 -14 8 -20 14 -15 14 6 0 21 -6 35
-14z m231 -2 c13 -15 12 -15 -8 -4 -24 12 -29 21 -14 21 5 0 15 -7 22 -17z
m69 -3 c20 -6 21 -8 5 -8 -11 0 -29 3 -40 8 -25 11 1 11 35 0z m120 -26 c0 -2
-7 -4 -15 -4 -8 0 -15 4 -15 10 0 5 7 7 15 4 8 -4 15 -8 15 -10z m504 0 c5
-14 4 -15 -9 -4 -17 14 -19 20 -6 20 5 0 12 -7 15 -16z m231 6 c3 -5 1 -10 -4
-10 -6 0 -11 5 -11 10 0 6 2 10 4 10 3 0 8 -4 11 -10z m-1192 -7 c-7 -2 -21
-2 -30 0 -10 3 -4 5 12 5 17 0 24 -2 18 -5z m364 -9 c-3 -3 -12 -4 -19 -1 -8
3 -5 6 6 6 11 1 17 -2 13 -5z m-1192 -14 c-3 -5 -12 -10 -18 -10 -7 0 -6 4 3
10 19 12 23 12 15 0z m1010 -11 c30 -11 55 -25 55 -31 0 -5 -3 -8 -7 -6 -5 2
-32 12 -60 23 -29 11 -53 23 -53 27 0 11 2 11 65 -13z m-2090 1 c3 -5 1 -10
-4 -10 -6 0 -11 5 -11 10 0 6 2 10 4 10 3 0 8 -4 11 -10z m2948 -43 c9 -8 17
-23 17 -33 0 -15 -7 -11 -35 19 -18 20 -39 37 -44 37 -6 0 -11 5 -11 10 0 11
40 -8 73 -33z m-1692 3 c-13 -11 -31 -20 -40 -20 -9 1 0 9 19 19 46 24 50 25
21 1z m1064 4 c19 -16 19 -16 -5 -9 -31 9 -50 25 -29 25 7 0 23 -8 34 -16z
m895 12 c0 -3 -4 -8 -10 -11 -5 -3 -10 -1 -10 4 0 6 5 11 10 11 6 0 10 -2 10
-4z m-950 -48 c10 -6 7 -7 -10 -2 -14 3 -32 11 -40 16 -10 6 -7 7 10 2 14 -3
32 -11 40 -16z m-2320 2 c0 -5 -2 -10 -4 -10 -3 0 -8 5 -11 10 -3 6 -1 10 4
10 6 0 11 -4 11 -10z m2490 -10 c13 -8 13 -10 -2 -10 -9 0 -20 5 -23 10 -8 13
5 13 25 0z m-315 -15 c17 -7 23 -14 15 -14 -8 0 -28 6 -45 14 -16 7 -23 14
-15 14 8 0 29 -6 45 -14z m155 -6 c19 -5 50 -10 68 -11 17 0 32 -4 32 -9 0 -5
-10 -9 -22 -8 -36 0 -168 25 -175 33 -10 10 59 7 97 -5z m796 -8 c-7 -11 -66
-20 -66 -10 0 4 12 10 28 12 15 2 31 5 35 6 5 0 6 -3 3 -8z m-99 -59 l2 -47
-14 31 c-8 17 -11 41 -8 53 8 32 16 17 20 -37z m143 38 c0 -5 -2 -10 -4 -10
-3 0 -8 5 -11 10 -3 6 -1 10 4 10 6 0 11 -4 11 -10z m-685 -10 c-3 -5 -14 -10
-23 -9 -14 0 -13 2 3 9 27 11 27 11 20 0z m663 -22 c7 -10 21 -18 31 -18 17 0
76 -78 67 -88 -8 -8 -37 20 -47 44 -4 13 -17 24 -29 26 -12 2 -31 19 -43 37
-22 36 -5 35 21 -1z m-3283 12 c-3 -5 -11 -10 -16 -10 -6 0 -7 5 -4 10 3 6 11
10 16 10 6 0 7 -4 4 -10z m-267 -47 c5 -18 -23 -16 -39 3 -11 14 -10 15 11 12
13 -1 25 -9 28 -15z m2882 7 c0 -5 -4 -10 -10 -10 -5 0 -10 5 -10 10 0 6 5 10
10 10 6 0 10 -4 10 -10z m-2965 -18 c15 -4 10 -8 -20 -13 -23 -4 -45 -3 -52 3
-10 8 -13 6 -13 -6 0 -15 -16 -21 -52 -18 -10 1 -18 -4 -18 -11 -1 -11 -81
-77 -95 -77 -18 0 0 32 29 49 19 12 41 32 50 45 10 16 22 23 35 19 10 -2 21 0
25 5 6 11 81 14 111 4z m3025 -2 c12 -8 11 -10 -7 -10 -12 0 -25 5 -28 10 -8
13 15 13 35 0z m47 -6 c-3 -3 -12 -4 -19 -1 -8 3 -5 6 6 6 11 1 17 -2 13 -5z
m793 -15 c0 -6 -4 -7 -10 -4 -5 3 -10 11 -10 16 0 6 5 7 10 4 6 -3 10 -11 10
-16z m-328 -29 c9 -22 13 -40 9 -40 -13 0 -31 24 -31 42 0 10 -5 18 -11 18 -5
0 -7 5 -4 10 11 18 20 11 37 -30z m-3756 2 c-8 -9 -19 -13 -22 -9 -10 9 16 38
28 31 6 -4 4 -13 -6 -22z m274 18 c0 -5 -13 -10 -29 -10 -16 0 -38 -3 -48 -6
-12 -5 -15 -4 -8 4 18 19 85 28 85 12z m3611 -20 c10 -6 19 -16 19 -22 0 -7
-7 -5 -17 4 -10 9 -24 13 -32 10 -8 -3 -11 0 -7 7 9 14 12 14 37 1z m-3611
-10 c0 -5 -5 -10 -11 -10 -5 0 -7 5 -4 10 3 6 8 10 11 10 2 0 4 -4 4 -10z
m1605 -20 c-10 -11 -25 -20 -34 -20 -11 0 -6 8 14 24 35 28 47 25 20 -4z
m2125 -45 c48 -50 30 -55 -22 -6 -27 25 -37 41 -27 41 8 0 30 -16 49 -35z
m-3900 5 c0 -5 -5 -10 -11 -10 -5 0 -7 5 -4 10 3 6 8 10 11 10 2 0 4 -4 4 -10z
m3650 0 c0 -5 -2 -10 -4 -10 -3 0 -8 5 -11 10 -3 6 -1 10 4 10 6 0 11 -4 11
-10z m196 -11 c19 -22 19 -22 -3 -8 -13 8 -23 17 -23 21 0 12 6 9 26 -13z
m-601 -27 c-3 -3 -11 0 -18 7 -9 10 -8 11 6 5 10 -3 15 -9 12 -12z m-3435 -8
c0 -3 -7 -12 -15 -20 -16 -17 -18 -14 -9 10 6 15 24 23 24 10z m4116 -26 c19
-13 40 -40 49 -63 22 -59 19 -76 -6 -30 -11 22 -39 57 -61 78 -45 41 -33 50
18 15z m-4165 -15 c-12 -20 -14 -14 -5 12 4 9 9 14 11 11 3 -2 0 -13 -6 -23z
m3908 -5 c-2 -26 8 -73 23 -104 5 -12 8 -30 6 -40 -4 -16 -7 -14 -16 9 -7 16
-12 38 -12 50 0 13 -7 32 -15 44 -10 15 -12 24 -4 28 6 4 8 13 5 21 -3 8 -1
14 5 14 6 0 9 -10 8 -22z m224 -21 c-7 -11 -23 2 -23 19 0 12 2 12 14 2 8 -7
12 -16 9 -21z m-2868 13 c-3 -5 -12 -10 -18 -10 -7 0 -6 4 3 10 19 12 23 12
15 0z m-1328 -14 c-3 -7 0 -19 6 -26 9 -10 8 -12 -6 -7 -13 5 -21 0 -29 -18
-18 -40 -28 -29 -11 13 20 49 22 52 35 52 5 0 8 -6 5 -14z m43 -16 c0 -5 -5
-10 -11 -10 -5 0 -7 5 -4 10 3 6 8 10 11 10 2 0 4 -4 4 -10z m4420 -42 c0 -6
-7 -5 -15 2 -8 7 -15 17 -15 22 0 6 7 5 15 -2 8 -7 15 -17 15 -22z m-211 -12
c9 -10 9 -16 1 -21 -6 -4 -12 -5 -13 -4 -2 2 -9 12 -16 22 -11 14 -11 17 2 17
8 0 20 -6 26 -14z m191 -16 c0 -5 -2 -10 -4 -10 -3 0 -8 5 -11 10 -3 6 -1 10
4 10 6 0 11 -4 11 -10z m-134 -47 c-4 -4 -11 -1 -16 7 -16 25 -11 35 7 17 9
-9 13 -20 9 -24z m34 -3 c0 -5 -5 -10 -11 -10 -5 0 -7 5 -4 10 3 6 8 10 11 10
2 0 4 -4 4 -10z m14 -56 c7 -18 0 -34 -15 -34 -6 0 -7 5 -4 10 4 6 1 17 -5 25
-10 12 -9 15 3 15 8 0 18 -7 21 -16z m-344 -48 c0 -18 -17 8 -24 34 l-7 25 15
-25 c9 -14 15 -29 16 -34z m-3020 -6 c0 -5 -6 -10 -14 -10 -8 0 -18 5 -21 10
-3 6 3 10 14 10 12 0 21 -4 21 -10z m119 -84 c8 -13 11 -30 8 -38 -2 -7 -8 -2
-12 15 -4 15 -11 27 -16 27 -5 0 -9 5 -9 10 0 18 16 10 29 -14z m-1365 -60
c-3 -9 -10 -16 -15 -16 -5 0 -4 9 3 20 14 22 21 20 12 -4z m1436 -10 c0 -8 -4
-18 -10 -21 -5 -3 -10 3 -10 14 0 12 5 21 10 21 6 0 10 -6 10 -14z m-1500 -10
c0 -11 -19 -15 -25 -6 -3 5 1 10 9 10 9 0 16 -2 16 -4z m-210 -50 c0 -3 -4 -8
-10 -11 -5 -3 -10 -1 -10 4 0 6 5 11 10 11 6 0 10 -2 10 -4z m-305 -47 c-2
-25 -35 -49 -35 -25 0 12 25 46 34 46 1 0 2 -9 1 -21z m315 8 c0 -2 -10 -12
-22 -23 l-23 -19 19 23 c18 21 26 27 26 19z m1654 -21 c-6 -17 -34 -30 -34
-16 0 5 8 14 18 19 22 13 22 13 16 -3z m3566 -6 c0 -5 -2 -10 -4 -10 -3 0 -8
5 -11 10 -3 6 -1 10 4 10 6 0 11 -4 11 -10z m31 -46 l24 -27 -27 18 c-16 9
-28 21 -28 26 0 14 5 11 31 -17z m-5601 12 c0 -3 -4 -8 -10 -11 -5 -3 -10 -1
-10 4 0 6 5 11 10 11 6 0 10 -2 10 -4z m322 -68 c-7 -7 -12 -8 -12 -2 0 14 12
26 19 19 2 -3 -1 -11 -7 -17z m3 -48 c-3 -5 -12 -10 -18 -10 -7 0 -6 4 3 10
19 12 23 12 15 0z m1566 -18 c-11 -20 -41 -48 -41 -38 0 6 41 56 47 56 2 0 -1
-8 -6 -18z m3356 12 c-3 -3 -12 -4 -19 -1 -8 3 -5 6 6 6 11 1 17 -2 13 -5z
m-27 -39 c11 -13 10 -14 -4 -9 -9 3 -16 10 -16 15 0 13 6 11 20 -6z m-5365 -7
c-11 -6 -23 -17 -28 -24 -7 -13 -37 -9 -37 5 0 9 42 28 65 29 l20 1 -20 -11z
m415 -11 c0 -2 -10 -12 -22 -23 l-23 -19 19 23 c18 21 26 27 26 19z m1570 -11
c0 -7 -12 -16 -27 -19 l-28 -5 24 19 c28 23 31 23 31 5z m3466 -31 c9 -19 14
-40 12 -47 -4 -10 -48 72 -48 89 0 13 22 -13 36 -42z m429 -12 c4 -16 2 -23
-8 -23 -9 0 -14 11 -15 31 -1 34 11 29 23 -8z m-50 16 c11 -16 1 -19 -13 -3
-7 8 -8 14 -3 14 5 0 13 -5 16 -11z m70 -79 c3 -5 1 -10 -4 -10 -6 0 -11 5
-11 10 0 6 2 10 4 10 3 0 8 -4 11 -10z m-395 -36 c0 -14 -3 -14 -15 -4 -8 7
-15 14 -15 16 0 2 7 4 15 4 8 0 15 -7 15 -16z m-2503 -31 c-3 -10 -5 -4 -5 12
0 17 2 24 5 18 2 -7 2 -21 0 -30z m2887 -12 c-6 -6 -11 1 -18 29 l-7 25 15
-25 c8 -14 12 -27 10 -29z m-4063 6 c-10 -9 -11 -8 -5 6 3 10 9 15 12 12 3 -3
0 -11 -7 -18z m3657 -52 c-3 -3 -9 2 -12 12 -6 14 -5 15 5 6 7 -7 10 -15 7
-18z m-2468 -11 c0 -8 -4 -14 -10 -14 -5 0 -10 9 -10 21 0 11 5 17 10 14 6 -3
10 -13 10 -21z m-3140 -4 c0 -5 -9 -10 -20 -10 -11 0 -20 5 -20 10 0 6 9 10
20 10 11 0 20 -4 20 -10z m-48 -22 c3 -54 -4 -74 -22 -63 -8 5 -5 11 7 21 17
12 17 13 1 14 -19 0 -22 8 -12 34 9 23 24 19 26 -6z m5798 2 c0 -5 -10 -10
-22 -10 -19 0 -20 2 -8 10 19 13 30 13 30 0z m-2616 -129 c3 -47 10 -89 16
-95 12 -12 13 -43 1 -48 -5 -1 -10 -37 -12 -78 -1 -41 -6 -80 -10 -85 -5 -6
-13 -41 -19 -78 -13 -81 -27 -120 -40 -112 -6 4 -4 19 5 41 8 19 17 70 19 112
3 42 10 78 16 80 15 5 12 22 -5 22 -15 0 -23 21 -28 78 -2 17 -7 35 -10 39 -4
3 -6 29 -6 57 1 48 2 49 8 16 4 -20 11 -42 16 -50 11 -17 11 -20 14 -80 1 -34
4 -41 11 -30 6 8 10 69 9 140 -1 145 -1 165 5 159 3 -2 7 -42 10 -88z m2641
69 c3 -5 1 -10 -4 -10 -6 0 -11 5 -11 10 0 6 2 10 4 10 3 0 8 -4 11 -10z m64
-103 c7 -23 22 -50 34 -59 12 -10 17 -18 11 -18 -18 0 -50 43 -64 87 -7 23
-19 44 -26 47 -8 3 -14 11 -14 17 0 26 48 -34 59 -74z m-5879 63 c0 -5 -5 -10
-11 -10 -5 0 -7 5 -4 10 3 6 8 10 11 10 2 0 4 -4 4 -10z m6178 -25 c-3 -3 -9
2 -12 12 -6 14 -5 15 5 6 7 -7 10 -15 7 -18z m-6198 -25 c0 -5 -2 -10 -4 -10
-3 0 -8 5 -11 10 -3 6 -1 10 4 10 6 0 11 -4 11 -10z m5943 -129 c15 -8 27 -18
27 -23 0 -16 -59 22 -70 45 -9 18 -9 20 2 7 7 -8 25 -21 41 -29z m74 7 c-3 -8
-6 -5 -6 6 -1 11 2 17 5 13 3 -3 4 -12 1 -19z m-2 -37 c10 -17 -12 -21 -25 -6
-10 12 -10 15 3 15 9 0 18 -4 22 -9z m-6105 -32 c-7 -11 -14 -18 -17 -15 -3 3
0 12 7 21 18 21 23 19 10 -6z m6162 -39 c12 -11 19 -22 16 -25 -2 -3 -15 6
-28 20 -28 30 -18 34 12 5z m-2937 -62 c-7 -81 -21 -145 -33 -152 -8 -5 5 117
15 144 3 8 5 25 4 37 -2 23 5 43 16 43 3 0 2 -33 -2 -72z m2833 34 c6 -18 -15
-14 -22 4 -4 10 -1 14 6 12 6 -2 14 -10 16 -16z m178 -49 c-6 -6 -46 20 -46
30 0 4 11 0 25 -9 14 -9 24 -19 21 -21z m-1328 2 c-3 -3 -9 2 -12 12 -6 14 -5
15 5 6 7 -7 10 -15 7 -18z m-1519 -12 c0 -16 2 -55 5 -88 10 -110 11 -295 2
-292 -19 6 -25 60 -25 206 0 135 5 201 14 201 2 0 4 -12 4 -27z m2811 -9 c0
-16 -16 -19 -25 -4 -8 13 4 32 16 25 5 -4 9 -13 9 -21z m300 1 c10 -12 10 -15
-4 -15 -9 0 -16 7 -16 15 0 8 2 15 4 15 2 0 9 -7 16 -15z m-310 -49 c-6 -6
-17 -3 -30 9 -30 27 -24 37 10 17 18 -10 26 -20 20 -26z m60 24 c0 -5 -5 -10
-11 -10 -5 0 -7 5 -4 10 3 6 8 10 11 10 2 0 4 -4 4 -10z m72 -54 c10 -11 18
-25 18 -31 0 -5 -8 0 -18 12 -9 11 -26 23 -36 25 -11 1 -21 8 -23 15 -7 19 40
3 59 -21z m-2982 -15 c0 -11 3 -27 7 -37 5 -13 3 -15 -7 -9 -10 6 -11 0 -7
-26 17 -91 20 -169 7 -184 -10 -12 -10 -15 4 -15 9 0 16 -7 16 -15 0 -8 -4
-15 -9 -15 -5 0 -11 -10 -13 -22 l-3 -23 -14 23 c-17 32 -27 277 -12 315 12
31 31 36 31 8z m2932 3 c30 -14 64 -61 53 -72 -2 -3 -7 3 -11 12 -3 9 -10 16
-15 16 -5 0 -17 7 -26 15 -10 8 -27 21 -38 29 -26 20 -4 20 37 0z m238 -3 c0
-5 -9 -7 -20 -4 -11 3 -20 7 -20 9 0 2 9 4 20 4 11 0 20 -4 20 -9z m-275 -41
c12 -19 -12 -10 -31 11 -19 22 -19 22 3 10 12 -6 25 -16 28 -21z m149 -15 c22
-21 24 -25 9 -25 -10 0 -26 12 -36 25 -23 32 -8 32 27 0z m-101 -9 c4 -10 1
-13 -9 -9 -15 6 -19 23 -5 23 5 0 11 -7 14 -14z m84 -41 c28 -13 57 -32 65
-42 7 -10 30 -27 51 -37 20 -11 37 -23 37 -28 0 -11 -3 -10 -36 7 -16 8 -36
15 -45 15 -9 0 -22 11 -29 25 -7 13 -23 28 -34 31 -26 8 -65 36 -66 47 0 10 0
10 57 -18z m-92 -3 c-3 -3 -11 0 -18 7 -9 10 -8 11 6 5 10 -3 15 -9 12 -12z
m-40 -2 c3 -5 2 -10 -4 -10 -5 0 -13 5 -16 10 -3 6 -2 10 4 10 5 0 13 -4 16
-10z m344 -16 c3 -16 1 -17 -13 -5 -19 16 -21 34 -3 29 6 -3 14 -13 16 -24z
m-251 -3 c11 -7 11 -9 0 -13 -8 -3 -22 0 -33 8 -18 14 -18 14 1 14 10 0 25 -4
32 -9z m-3108 -11 c0 -5 -5 -10 -11 -10 -5 0 -7 5 -4 10 3 6 8 10 11 10 2 0 4
-4 4 -10z m3280 -9 c5 -11 22 -21 37 -23 23 -2 25 -4 10 -10 -12 -5 -27 2 -50
22 -17 16 -27 30 -20 30 7 0 17 -9 23 -19z m59 -87 c8 -18 17 -24 27 -20 20 8
44 -10 44 -32 0 -13 -3 -12 -19 2 -11 10 -31 19 -45 20 -14 0 -26 6 -26 13 0
6 -3 18 -6 27 -10 27 12 18 25 -10z m-6542 -6 c-3 -8 -6 -5 -6 6 -1 11 2 17 5
13 3 -3 4 -12 1 -19z m1783 -2 c0 -23 -16 -27 -17 -5 -1 10 2 19 8 19 5 0 9
-6 9 -14z m4608 -28 c-5 -15 -23 -11 -26 6 -2 11 2 14 13 10 9 -4 14 -11 13
-16z m-47 -10 c11 -21 11 -22 -4 -9 -10 7 -17 17 -17 22 0 15 9 10 21 -13z
m86 6 c-3 -3 -12 -4 -19 -1 -8 3 -5 6 6 6 11 1 17 -2 13 -5z m-4667 -35 c0 -5
-4 -9 -10 -9 -5 0 -10 7 -10 16 0 8 5 12 10 9 6 -3 10 -10 10 -16z m1640 -9
c0 -10 5 -22 10 -25 12 -7 13 -48 3 -59 -8 -8 -9 -10 -12 -43 -2 -16 -3 -15
-10 2 -5 11 -5 32 -1 46 5 15 4 31 0 35 -8 8 -14 47 -11 67 2 16 21 -5 21 -23z
m3277 -53 c0 -23 -27 -22 -28 1 0 9 -2 33 -4 52 l-4 35 18 -36 c10 -20 18 -43
18 -52z m-3354 -6 c3 -12 -2 -26 -11 -33 -13 -11 -15 -10 -9 4 3 9 1 18 -5 20
-7 3 -9 12 -5 22 8 21 23 14 30 -13z m43 -85 c-8 -113 -21 -203 -35 -236 -9
-22 -10 -20 -6 15 2 22 7 87 10 145 8 135 15 181 27 173 7 -3 8 -40 4 -97z
m-798 21 c3 -40 -15 -50 -38 -22 -9 10 -9 15 -1 15 6 0 11 12 11 26 0 40 25
23 28 -19z m587 3 c3 -5 1 -10 -4 -10 -6 0 -11 5 -11 10 0 6 2 10 4 10 3 0 8
-4 11 -10z m-995 -51 c0 -6 -7 -6 -20 1 -11 6 -20 15 -20 21 0 6 7 6 20 -1 11
-6 20 -15 20 -21z m295 1 c10 -11 13 -20 7 -20 -6 0 -16 9 -22 20 -6 11 -9 20
-7 20 2 0 12 -9 22 -20z m962 -17 c-3 -10 -5 -4 -5 12 0 17 2 24 5 18 2 -7 2
-21 0 -30z m3199 20 c10 -10 20 -25 22 -33 2 -8 15 -27 30 -42 14 -16 22 -28
17 -28 -14 0 -65 52 -65 67 0 7 -13 19 -30 28 -16 9 -30 18 -30 20 0 12 39 3
56 -12z m-4236 3 c0 -3 -4 -8 -10 -11 -5 -3 -10 -1 -10 4 0 6 5 11 10 11 6 0
10 -2 10 -4z m173 -57 c4 1 7 -1 7 -4 0 -3 0 -9 0 -15 0 -5 -3 -10 -7 -10 -11
0 -32 48 -25 55 4 3 9 -1 12 -10 3 -9 9 -16 13 -16z m-309 6 c3 -8 1 -15 -4
-15 -6 0 -10 7 -10 15 0 8 2 15 4 15 2 0 6 -7 10 -15z m453 9 c-3 -3 -12 -4
-19 -1 -8 3 -5 6 6 6 11 1 17 -2 13 -5z m-487 -14 c0 -5 -4 -10 -10 -10 -5 0
-10 5 -10 10 0 6 5 10 10 10 6 0 10 -4 10 -10z m228 -20 c7 -11 9 -20 4 -20
-4 0 -13 9 -20 20 -7 11 -9 20 -4 20 4 0 13 -9 20 -20z m4268 -72 c3 -5 4 -11
1 -14 -7 -7 -57 14 -57 24 0 12 48 3 56 -10z m-7 -57 c-13 -4 -69 19 -69 29 0
5 18 1 40 -8 21 -9 35 -19 29 -21z m-1664 -121 c0 -13 -6 -25 -12 -27 -9 -3
-13 6 -13 27 0 21 4 30 13 28 6 -3 12 -15 12 -28z m-4898 -66 c-3 -3 -12 -4
-19 -1 -8 3 -5 6 6 6 11 1 17 -2 13 -5z m6816 -11 c-7 -2 -19 -2 -25 0 -7 3
-2 5 12 5 14 0 19 -2 13 -5z m84 -139 c-3 -3 -12 -4 -19 -1 -8 3 -5 6 6 6 11
1 17 -2 13 -5z m-4267 -19 c0 -8 -4 -15 -10 -15 -5 0 -7 7 -4 15 4 8 8 15 10
15 2 0 4 -7 4 -15z m4536 1 c10 -8 17 -17 14 -19 -3 -3 -16 3 -29 14 -27 22
-15 26 15 5z m-36 -26 c0 -13 -11 -13 -30 0 -12 8 -11 10 8 10 12 0 22 -4 22
-10z m-2570 -32 c0 -7 5 -42 11 -78 6 -36 14 -110 19 -165 5 -55 12 -116 14
-135 5 -34 5 -34 -3 -4 -4 17 -11 36 -15 42 -4 7 -9 35 -11 64 -6 66 -12 115
-25 198 -12 82 -12 90 0 90 6 0 10 -6 10 -12z m-1617 -43 c-3 -9 -8 -14 -10
-11 -3 3 -2 9 2 15 9 16 15 13 8 -4z m1327 -90 c0 -8 -4 -15 -10 -15 -5 0 -7
7 -4 15 4 8 8 15 10 15 2 0 4 -7 4 -15z m103 -135 c6 -123 3 -111 -18 75 -5
48 -4 67 3 60 6 -5 13 -66 15 -135z m-876 88 c-3 -7 -5 -2 -5 12 0 14 2 19 5
13 2 -7 2 -19 0 -25z m954 -90 c6 -11 15 -49 20 -85 5 -36 18 -86 29 -111 23
-50 50 -191 50 -255 0 -70 -10 -45 -62 156 -7 26 -16 47 -21 47 -5 0 -6 -10
-2 -22 6 -22 5 -22 -9 -4 -9 10 -13 22 -11 27 3 4 -4 30 -14 57 -26 65 -15 75
15 14 27 -56 31 -32 9 43 -9 28 -13 59 -11 70 3 11 -1 38 -9 60 -8 22 -14 60
-13 85 l0 45 9 -53 c5 -29 14 -63 20 -74z m-215 60 c-7 -24 -23 -65 -38 -93
-14 -27 -31 -68 -38 -90 -29 -90 -52 -145 -60 -140 -12 7 0 41 86 250 32 79
51 115 59 115 1 0 -3 -19 -9 -42z m3089 12 c-17 -19 -35 -19 -35 0 0 5 6 7 14
4 8 -3 17 -1 21 5 3 6 9 11 12 11 3 0 -2 -9 -12 -20z m-2775 -23 c0 -18 -2
-19 -10 -7 -13 20 -13 43 0 35 6 -3 10 -16 10 -28z m-991 -144 c1 -44 -16 -22
-33 40 -29 106 -28 125 3 52 17 -38 30 -80 30 -92z m-719 117 c0 -5 -5 -10
-11 -10 -5 0 -7 5 -4 10 3 6 8 10 11 10 2 0 4 -4 4 -10z m1230 -10 c0 -5 -5
-10 -11 -10 -5 0 -7 5 -4 10 3 6 8 10 11 10 2 0 4 -4 4 -10z m452 -81 c34
-127 48 -193 47 -234 -1 -31 -7 -16 -25 65 -14 58 -31 128 -38 155 -25 91 -28
111 -16 99 6 -6 20 -45 32 -85z m-823 7 c-1 -22 -7 -47 -12 -53 -5 -7 -6 -13
-2 -13 4 0 2 -7 -5 -15 -10 -12 -10 -21 -2 -38 5 -12 13 -30 16 -40 3 -10 11
-15 17 -12 6 4 8 13 5 21 -3 8 -1 14 5 14 13 0 99 80 99 92 0 11 33 48 42 48
5 0 8 -7 8 -15 0 -8 -4 -15 -10 -15 -5 0 -19 -18 -30 -40 -11 -22 -25 -40 -30
-40 -16 0 -11 -17 6 -24 12 -4 15 -2 10 9 -3 8 -1 15 5 15 5 0 15 14 20 30 6
17 15 30 21 30 6 0 7 -8 3 -17 -15 -40 -18 -76 -6 -69 13 9 10 -22 -20 -154
l-18 -85 4 95 4 95 -18 -75 -19 -75 -1 69 c-1 59 2 73 21 93 18 19 19 23 5 17
-9 -3 -24 -1 -31 5 -12 10 -15 8 -18 -11 -2 -18 -9 -22 -28 -21 -21 2 -23 1
-10 -10 8 -6 16 -21 17 -33 2 -16 -3 -20 -20 -18 -12 1 -25 3 -29 3 -12 1 -9
31 3 31 5 0 7 4 4 10 -7 12 -47 -29 -83 -85 l-27 -40 -13 95 c-7 52 -17 102
-21 110 -4 8 -5 23 -1 34 5 14 9 10 18 -21 7 -22 12 -52 12 -67 0 -16 5 -26
15 -26 18 0 19 -12 4 -27 -7 -7 -9 -19 -5 -29 5 -14 9 -13 25 8 28 35 47 106
33 120 -15 15 -15 29 0 65 13 34 15 39 16 81 1 21 6 31 13 27 6 -4 9 -26 8
-49z m3811 39 c0 -8 -6 -15 -14 -15 -20 0 -29 17 -14 23 22 9 28 7 28 -8z
m-3717 -20 c4 -8 2 -17 -3 -20 -6 -4 -10 3 -10 14 0 25 6 27 13 6z m3727 -20
c0 -8 -4 -15 -9 -15 -13 0 -22 16 -14 24 11 11 23 6 23 -9z m-3576 -79 c-3
-14 -10 -26 -15 -26 -4 0 -3 14 3 31 12 36 22 33 12 -5z m440 -11 c3 -8 1 -15
-4 -15 -6 0 -10 7 -10 15 0 8 2 15 4 15 2 0 6 -7 10 -15z m3166 5 c0 -5 -2
-10 -4 -10 -3 0 -8 5 -11 10 -3 6 -1 10 4 10 6 0 11 -4 11 -10z m-45 -14 c11
-7 24 -14 30 -14 5 0 11 -5 13 -11 6 -17 -9 -13 -53 14 -22 14 -33 25 -25 25
9 0 24 -6 35 -14z m-3115 -49 c0 -18 7 -42 15 -53 17 -23 19 -34 5 -34 -5 0
-10 7 -10 15 0 8 -7 15 -16 15 -14 0 -16 -8 -10 -51 7 -51 26 -116 51 -174 20
-47 28 -68 32 -90 6 -35 25 -75 33 -70 12 7 19 -18 26 -93 4 -49 3 -63 -5 -52
-6 8 -11 27 -11 41 0 15 -7 40 -15 55 -8 16 -15 25 -15 20 0 -6 -7 -1 -15 10
-8 10 -15 14 -15 8 0 -6 7 -17 15 -24 8 -7 15 -20 15 -29 0 -9 4 -21 9 -26 12
-12 22 -75 21 -125 -1 -45 -10 -53 -10 -9 0 19 -9 54 -20 78 -11 24 -20 48
-20 53 0 6 -18 46 -40 90 -22 44 -40 86 -40 92 0 6 -13 26 -28 43 -26 28 -28
33 -16 59 11 26 12 27 13 7 1 -13 1 -26 0 -29 0 -4 3 -10 8 -13 5 -3 25 -39
43 -78 21 -47 39 -73 49 -73 14 1 14 2 -2 14 -10 8 -17 18 -15 22 2 9 -19 78
-49 161 -9 24 -20 40 -24 37 -12 -7 0 138 12 151 5 5 9 26 9 47 0 21 5 38 10
38 6 0 10 -15 10 -33z m-407 -42 c-3 -9 -8 -14 -10 -11 -3 3 -2 9 2 15 9 16
15 13 8 -4z m3637 -5 c0 -5 -2 -10 -4 -10 -3 0 -8 5 -11 10 -3 6 -1 10 4 10 6
0 11 -4 11 -10z m-3657 -35 c-3 -9 -8 -14 -10 -11 -3 3 -2 9 2 15 9 16 15 13
8 -4z m-224 -46 c-6 -12 -9 -37 -6 -55 6 -35 -6 -47 -17 -18 -12 31 -6 73 12
83 24 14 24 14 11 -10z m-64 1 c3 -5 1 -10 -4 -10 -6 0 -11 5 -11 10 0 6 2 10
4 10 3 0 8 -4 11 -10z m778 -120 c43 -119 53 -168 33 -151 -8 7 -14 24 -14 39
1 15 -10 52 -24 82 -35 76 -57 151 -40 135 6 -5 26 -53 45 -105z m-883 91 c0
-8 -41 -47 -96 -91 -10 -9 -38 -38 -61 -65 -23 -28 -42 -44 -43 -36 0 14 178
200 193 201 4 0 7 -4 7 -9z m4046 -45 c-4 -16 0 -30 10 -40 15 -15 12 -36 -6
-36 -12 0 -23 56 -15 80 9 28 18 25 11 -4z m-4041 4 c-3 -5 -12 -10 -18 -10
-7 0 -6 4 3 10 19 12 23 12 15 0z m-510 -40 c0 -22 -3 -40 -7 -40 -5 0 -8 18
-8 40 0 22 3 40 8 40 4 0 7 -18 7 -40z m4505 25 c0 -8 -4 -15 -10 -15 -5 0
-10 7 -10 15 0 8 5 15 10 15 6 0 10 -7 10 -15z m-3785 -64 c3 -5 1 -12 -5 -16
-5 -3 -10 1 -10 9 0 18 6 21 15 7z m3895 -12 c0 -5 -4 -9 -10 -9 -5 0 -10 7
-10 16 0 8 5 12 10 9 6 -3 10 -10 10 -16z m-111 -44 c0 -5 -6 -1 -14 9 -8 11
-15 27 -15 35 1 17 29 -26 29 -44z m-3022 23 c-3 -8 -6 -5 -6 6 -1 11 2 17 5
13 3 -3 4 -12 1 -19z m-230 -10 c-3 -8 -6 -5 -6 6 -1 11 2 17 5 13 3 -3 4 -12
1 -19z m-1242 3 c3 -5 1 -12 -5 -16 -5 -3 -10 1 -10 9 0 18 6 21 15 7z m1230
-53 c91 -166 107 -208 110 -291 l3 -82 -21 65 c-12 36 -31 81 -42 100 -35 64
-65 145 -59 162 3 10 2 18 -2 18 -14 0 -33 -36 -34 -62 0 -15 -4 -30 -10 -33
-15 -9 -12 20 7 79 9 28 18 57 20 65 4 16 11 11 28 -21z m45 11 c0 -6 -4 -7
-10 -4 -5 3 -10 11 -10 16 0 6 5 7 10 4 6 -3 10 -11 10 -16z m3277 -44 c-2
-54 -9 -60 -22 -17 -4 14 -2 22 5 22 6 0 8 5 5 10 -7 11 0 40 9 40 3 0 4 -25
3 -55z m83 20 c13 -14 21 -27 18 -30 -2 -3 -17 9 -33 25 -16 17 -24 30 -19 30
6 0 21 -11 34 -25z m-4340 -15 c0 -5 -5 -10 -11 -10 -5 0 -7 5 -4 10 3 6 8 10
11 10 2 0 4 -4 4 -10z m1008 -41 c-3 -8 -7 -3 -11 10 -4 17 -3 21 5 13 5 -5 8
-16 6 -23z m-3931 -1 c-3 -8 -6 -5 -6 6 -1 11 2 17 5 13 3 -3 4 -12 1 -19z
m2848 -29 c-6 -17 -45 -43 -52 -35 -3 3 8 16 23 30 31 26 38 27 29 5z m1113
-32 c7 -16 8 -26 3 -23 -5 3 -14 20 -20 38 -13 38 0 26 17 -15z m-1505 3 c9
-16 12 -32 7 -35 -6 -4 -30 44 -30 61 0 12 11 0 23 -26z m901 -47 c-4 -91 -5
-93 -16 -53 -10 36 -11 107 -2 122 13 21 21 -7 18 -69z m490 32 c4 -19 11 -35
15 -35 11 0 39 -72 33 -88 -5 -16 -32 -16 -32 1 0 7 5 18 12 25 9 9 9 12 0 12
-7 0 -12 6 -12 13 0 7 -12 25 -26 40 -20 22 -23 31 -14 42 6 8 8 20 4 26 -4 7
-3 9 3 6 6 -4 14 -23 17 -42z m3486 -1 c0 -22 -2 -23 -20 -12 -12 8 -15 15 -8
19 6 4 8 15 4 24 -5 15 -4 16 9 5 8 -7 15 -23 15 -36z m-3483 -75 c14 -19 7
-52 -11 -46 -6 2 -13 14 -14 28 -2 13 -19 44 -38 68 -19 24 -34 49 -34 54 0 9
72 -68 97 -104z m-128 57 c-3 -3 -11 5 -18 17 -13 21 -12 21 5 5 10 -10 16
-20 13 -22z m-3762 -8 c-3 -8 -6 -5 -6 6 -1 11 2 17 5 13 3 -3 4 -12 1 -19z
m2527 -34 c3 -9 6 -23 6 -32 -1 -12 -5 -10 -15 8 -8 14 -14 28 -15 33 0 13 18
7 24 -9z m1249 -1 c-3 -7 -9 -13 -13 -13 -4 0 -10 6 -13 13 -3 7 3 13 13 13
10 0 16 -6 13 -13z m3622 6 c10 -14 1 -21 -19 -13 -9 3 -13 10 -10 15 7 12 21
11 29 -2z m-4032 -104 c4 -30 3 -44 -2 -35 -5 8 -12 42 -15 75 -7 70 7 37 17
-40z m4062 66 c3 -5 1 -12 -5 -16 -5 -3 -10 1 -10 9 0 18 6 21 15 7z m-3681
-26 c-4 -8 0 -17 8 -20 16 -6 16 -7 19 -86 1 -31 -3 -65 -9 -75 -12 -21 -13
-20 -18 46 -1 19 -5 64 -9 99 -5 44 -4 61 3 57 6 -4 9 -13 6 -21z m87 -17 c7
-18 17 -36 22 -39 11 -8 -1 -109 -13 -109 -4 0 -11 -10 -15 -22 -4 -15 -8 -18
-12 -10 -3 7 -1 18 5 25 22 28 30 98 13 122 -15 22 -30 65 -22 65 5 0 14 -15
22 -32z m123 -22 c6 -26 6 -27 -9 -12 -10 9 -14 24 -11 33 8 20 11 16 20 -21z
m3473 14 c-3 -10 0 -21 6 -23 5 -1 8 -10 5 -17 -3 -10 -10 -5 -21 16 -16 30
-14 44 6 44 5 0 7 -9 4 -20z m-3727 -38 c0 -9 7 -30 15 -46 16 -31 27 -196 13
-196 -4 0 -8 7 -8 15 0 8 -5 15 -11 15 -6 0 -8 -9 -4 -22 l6 -23 -19 22 c-31
35 -75 184 -63 214 9 23 10 22 10 -10 1 -41 39 -124 52 -115 6 4 6 10 1 17
-21 26 -30 84 -19 120 11 36 27 41 27 9z m209 -18 c7 -26 10 -49 7 -51 -6 -7
-23 27 -31 65 -11 51 11 38 24 -14z m-89 -5 c0 -5 -4 -9 -10 -9 -5 0 -10 7
-10 16 0 8 5 12 10 9 6 -3 10 -10 10 -16z m277 -36 c-3 -10 -5 -2 -5 17 0 19
2 27 5 18 2 -10 2 -26 0 -35z m-1572 -13 c14 -27 23 -50 20 -50 -7 0 -55 78
-55 90 0 20 10 9 35 -40z m4895 40 c0 -5 -2 -10 -4 -10 -3 0 -8 5 -11 10 -3 6
-1 10 4 10 6 0 11 -4 11 -10z m-4769 -23 c-10 -9 -11 -8 -5 6 3 10 9 15 12 12
3 -3 0 -11 -7 -18z m4625 -4 c-10 -10 -19 5 -10 18 6 11 8 11 12 0 2 -7 1 -15
-2 -18z m189 -4 c9 -17 14 -38 10 -46 -6 -16 -17 -11 -22 10 -13 57 -15 67 -9
67 3 0 13 -14 21 -31z m-3573 -72 c4 -34 10 -78 14 -97 4 -24 3 -32 -4 -25 -9
9 -32 139 -32 182 0 39 15 -4 22 -60z m3418 48 c0 -8 -2 -15 -4 -15 -2 0 -6 7
-10 15 -3 8 -1 15 4 15 6 0 10 -7 10 -15z m-3393 -27 c-3 -8 -6 -5 -6 6 -1 11
2 17 5 13 3 -3 4 -12 1 -19z m3437 -33 c3 -8 1 -15 -3 -15 -5 0 -11 7 -15 15
-3 8 -1 15 3 15 5 0 11 -7 15 -15z m-4484 -16 c0 -6 -4 -7 -10 -4 -5 3 -10 -1
-10 -9 0 -9 -4 -16 -8 -16 -10 0 -52 -35 -52 -43 0 -3 -16 -28 -35 -56 -20
-31 -32 -59 -29 -69 4 -13 3 -14 -4 -4 -7 10 -32 -19 -97 -110 -48 -68 -103
-151 -123 -186 -44 -81 -53 -74 -11 9 28 58 174 287 190 299 3 3 20 25 38 50
49 69 133 160 143 154 4 -3 8 -10 8 -15z m307 -31 c-3 -7 -5 -2 -5 12 0 14 2
19 5 13 2 -7 2 -19 0 -25z m52 20 c-1 -22 -27 -84 -28 -67 -2 29 11 79 20 79
5 0 9 -6 8 -12z m366 -77 c-7 -7 -74 69 -74 84 0 6 18 -10 40 -34 21 -24 37
-47 34 -50z m3720 79 c3 -5 1 -10 -4 -10 -6 0 -11 5 -11 10 0 6 2 10 4 10 3 0
8 -4 11 -10z m-4745 -41 c-7 -11 -14 -18 -17 -15 -3 3 0 12 7 21 18 21 23 19
10 -6z m69 -50 c-11 -30 -25 -71 -30 -93 -11 -42 -38 -98 -39 -78 0 7 4 20 9
30 5 9 17 46 27 82 18 67 42 125 50 118 2 -2 -6 -29 -17 -59z m845 45 c3 -8 2
-12 -4 -9 -6 3 -10 10 -10 16 0 14 7 11 14 -7z m-662 -22 c-11 -27 -41 -66
-46 -61 -5 5 43 79 50 79 2 0 0 -8 -4 -18z m994 -34 c0 -48 -2 -53 -22 -53
-16 0 -20 3 -12 12 5 7 8 20 6 30 -4 17 -18 -7 -49 -84 -7 -19 -29 -33 -29
-20 0 4 30 97 37 117 4 8 7 20 7 25 1 6 11 9 23 7 12 -2 24 2 28 8 10 16 11
13 11 -42z m35 25 c-12 -20 -14 -14 -5 12 4 9 9 14 11 11 3 -2 0 -13 -6 -23z
m-714 -45 c-19 -40 -26 -76 -31 -148 -3 -52 -5 -96 -6 -97 0 -2 -4 -3 -10 -3
-11 0 -4 131 11 197 9 43 48 117 56 109 3 -3 -6 -29 -20 -58z m113 47 c0 -8
-4 -15 -10 -15 -5 0 -7 7 -4 15 4 8 8 15 10 15 2 0 4 -7 4 -15z m-669 -22 c-8
-15 -10 -15 -11 -2 0 17 10 32 18 25 2 -3 -1 -13 -7 -23z m375 -27 c-8 -19
-24 -75 -36 -123 -12 -49 -24 -95 -27 -103 -4 -8 -7 -17 -8 -20 -1 -3 -9 -21
-18 -40 l-17 -35 2 50 c2 28 -1 56 -5 63 -11 16 1 72 15 72 6 0 8 -9 5 -20 -3
-11 -4 -20 -2 -20 6 0 35 63 35 75 0 20 64 159 68 147 1 -5 -4 -26 -12 -46z
m59 37 c-11 -29 -56 -184 -70 -241 -18 -74 -29 -78 -20 -7 9 82 72 265 91 265
3 0 3 -8 -1 -17z m66 -24 c-9 -22 -10 -22 -10 -3 -1 11 2 24 6 27 12 12 14 0
4 -24z m580 7 c15 -13 34 -26 41 -29 7 -2 10 -8 5 -12 -11 -12 -74 20 -87 45
-15 28 4 26 41 -4z m-1125 -68 c-9 -18 -16 -56 -16 -90 0 -65 -17 -145 -32
-154 -6 -4 -8 2 -4 14 13 38 23 122 16 122 -4 0 -5 12 -2 28 2 15 2 25 0 22
-3 -3 -43 -78 -88 -167 -46 -90 -86 -161 -88 -158 -13 12 110 269 164 342 17
23 37 57 45 75 10 24 15 28 17 16 2 -10 -4 -32 -12 -50z m675 35 c7 -18 6 -30
-1 -37 -7 -7 -10 -3 -10 12 0 12 -4 22 -10 22 -5 0 -7 7 -4 15 8 21 13 19 25
-12z m39 -11 c0 -7 -4 -10 -10 -7 -5 3 -10 16 -10 28 0 18 2 19 10 7 5 -8 10
-21 10 -28z m616 3 c1 -14 -2 -25 -7 -25 -5 0 -9 11 -9 25 0 33 15 33 16 0z
m-526 -41 c0 -13 -4 -25 -9 -28 -5 -4 -7 3 -4 14 7 28 -14 25 -23 -2 -11 -36
-56 -129 -60 -125 -4 4 14 53 46 123 20 45 50 55 50 18z m-92 -9 c-6 -13 -15
-22 -20 -19 -5 3 -2 15 8 25 23 25 26 24 12 -6z m162 21 c0 -3 -4 -8 -10 -11
-5 -3 -10 -1 -10 4 0 6 5 11 10 11 6 0 10 -2 10 -4z m-213 -32 c-9 -9 -28 6
-21 18 4 6 10 6 17 -1 6 -6 8 -13 4 -17z m490 20 c-3 -3 -12 -4 -19 -1 -8 3
-5 6 6 6 11 1 17 -2 13 -5z m3723 -24 c0 -5 -2 -10 -4 -10 -3 0 -8 5 -11 10
-3 6 -1 10 4 10 6 0 11 -4 11 -10z m-4214 -121 c-27 -81 -35 -67 -11 21 9 35
11 58 5 64 -6 6 -10 15 -10 20 0 6 9 1 21 -10 l20 -21 -25 -74z m4234 81 c0
-5 -2 -10 -4 -10 -3 0 -8 5 -11 10 -3 6 -1 10 4 10 6 0 11 -4 11 -10z m-4369
-27 c-8 -15 -10 -15 -11 -2 0 17 10 32 18 25 2 -3 -1 -13 -7 -23z m4353 1 c9
-24 7 -28 -9 -14 -17 14 -20 30 -6 30 5 0 12 -7 15 -16z m26 -55 c0 -6 -4 -7
-10 -4 -5 3 -10 11 -10 16 0 6 5 7 10 4 6 -3 10 -11 10 -16z m-4960 -8 c0 -6
-4 -13 -10 -16 -5 -3 -10 1 -10 9 0 9 5 16 10 16 6 0 10 -4 10 -9z m-26 -53
c-14 -46 -76 -170 -81 -164 -5 5 77 185 85 186 2 0 0 -10 -4 -22z m179 -105
c-33 -65 -70 -144 -83 -176 -28 -72 -37 -67 -15 8 26 92 13 82 -30 -22 -24
-58 -38 -45 -15 14 23 60 80 162 80 145 0 -7 -5 -22 -11 -34 -6 -11 -8 -22 -5
-25 3 -3 15 17 28 43 49 101 97 178 106 169 3 -2 -22 -58 -55 -122z m-35 30
c-28 -49 -32 -53 -23 -23 6 22 33 60 41 60 2 0 -6 -17 -18 -37z m115 -43 c-3
-12 -8 -19 -11 -16 -5 6 5 36 12 36 2 0 2 -9 -1 -20z m-286 -42 c-3 -8 -6 -5
-6 6 -1 11 2 17 5 13 3 -3 4 -12 1 -19z m209 -10 c-3 -26 -32 -119 -51 -163
-7 -16 -15 -37 -18 -45 -3 -9 -6 -4 -6 11 -1 38 60 219 74 219 2 0 2 -10 1
-22z m-2366 -54 c0 -8 -4 -12 -10 -9 -5 3 -10 10 -10 16 0 5 5 9 10 9 6 0 10
-7 10 -16z m7262 -18 c3 -14 1 -31 -3 -38 -6 -8 -9 1 -9 25 0 42 6 48 12 13z
m-7382 4 c0 -5 -4 -10 -10 -10 -5 0 -10 5 -10 10 0 6 5 10 10 10 6 0 10 -4 10
-10z m2351 -147 c-8 -15 -10 -15 -11 -2 0 17 10 32 18 25 2 -3 -1 -13 -7 -23z
m5111 -97 c9 -18 8 -19 -3 -6 -8 8 -21 20 -29 27 -13 11 -13 12 3 7 10 -4 22
-16 29 -28z m-7122 -150 c0 -7 -8 -20 -17 -27 -15 -12 -16 -12 -10 4 4 10 7
23 7 28 0 5 5 9 10 9 6 0 10 -6 10 -14z m0 -70 c0 -3 -4 -8 -10 -11 -5 -3 -10
-1 -10 4 0 6 5 11 10 11 6 0 10 -2 10 -4z m7276 -74 c-8 -8 -46 29 -46 44 0 7
11 2 26 -13 14 -14 23 -28 20 -31z m101 -78 c11 -11 28 -24 39 -31 18 -11 18
-12 -3 -12 -13 -1 -32 8 -42 18 -13 13 -22 16 -29 9 -7 -7 -20 -3 -41 11 -17
13 -31 24 -31 26 0 12 91 -6 107 -21z m103 -54 c0 -5 -4 -10 -10 -10 -5 0 -10
5 -10 10 0 6 5 10 10 10 6 0 10 -4 10 -10z m-26 -15 c3 -8 1 -15 -3 -15 -5 0
-11 7 -15 15 -3 8 -1 15 3 15 5 0 11 -7 15 -15z m-29 -23 c-3 -3 -11 0 -18 7
-9 10 -8 11 6 5 10 -3 15 -9 12 -12z m165 -89 c0 -18 -3 -17 -31 13 l-24 26
28 -13 c15 -7 27 -18 27 -26z m40 -38 c0 -8 -4 -15 -9 -15 -5 0 -11 7 -15 15
-3 9 0 15 9 15 8 0 15 -7 15 -15z m-7660 -305 c0 -5 -5 -10 -11 -10 -5 0 -7 5
-4 10 3 6 8 10 11 10 2 0 4 -4 4 -10z m7767 -22 c-3 -8 -6 -5 -6 6 -1 11 2 17
5 13 3 -3 4 -12 1 -19z m-61 -145 c-10 -10 -19 5 -10 18 6 11 8 11 12 0 2 -7
1 -15 -2 -18z m23 -20 c0 -5 -4 -17 -9 -28 -8 -18 -9 -17 -9 8 -1 15 4 27 9
27 6 0 10 -3 9 -7z m-248 -235 c10 -13 18 -30 18 -38 0 -9 -9 -4 -24 15 -24
29 -31 45 -19 45 3 0 14 -10 25 -22z m75 -63 c15 -29 16 -37 5 -47 -11 -11
-13 -10 -9 3 3 8 -3 26 -13 40 -20 26 -24 39 -11 39 5 0 17 -16 28 -35z m-36
-58 c0 -5 -4 -5 -10 -2 -5 3 -10 14 -10 23 0 15 2 15 10 2 5 -8 10 -19 10 -23z
m80 -19 c0 -5 -4 -8 -10 -8 -5 0 -10 10 -10 23 0 18 2 19 10 7 5 -8 10 -18 10
-22z m21 -45 c-8 -15 -10 -15 -11 -2 0 17 10 32 18 25 2 -3 -1 -13 -7 -23z
m-41 -58 c0 -8 -4 -15 -10 -15 -5 0 -10 7 -10 15 0 8 5 15 10 15 6 0 10 -7 10
-15z m-106 -126 c-6 -11 -24 -2 -24 11 0 5 7 7 15 4 8 -4 12 -10 9 -15z m16
-63 c0 -3 -4 -8 -10 -11 -5 -3 -10 -1 -10 4 0 6 5 11 10 11 6 0 10 -2 10 -4z
m-331 -171 c0 -5 -4 -3 -9 5 -5 8 -9 22 -9 30 0 16 17 -16 18 -35z m30 -45
c11 -24 11 -24 -3 -6 -9 11 -16 24 -16 30 0 12 5 7 19 -24z m-7322 -162 c-3
-8 -6 -5 -6 6 -1 11 2 17 5 13 3 -3 4 -12 1 -19z m5912 -399 c95 -43 290 -230
334 -322 33 -66 31 -85 -14 -185 -16 -35 -31 -79 -35 -98 -3 -19 -15 -39 -26
-45 -23 -13 -37 -4 -20 13 17 17 15 28 -3 22 -10 -4 -15 0 -15 11 0 11 -5 15
-16 11 -9 -3 -33 6 -57 23 -23 15 -48 26 -55 24 -8 -3 -10 1 -5 13 5 14 2 16
-19 11 -18 -5 -28 -2 -32 8 -3 8 -13 15 -23 15 -10 0 -56 20 -103 45 -47 25
-100 52 -118 60 -23 11 -32 21 -28 31 3 8 2 12 -4 9 -5 -3 -15 2 -22 10 -7 9
-28 30 -45 47 -18 17 -33 35 -33 40 0 4 11 21 24 36 73 84 114 135 139 172 27
41 73 69 112 69 11 0 40 -9 64 -20z m1207 -145 c0 -73 -24 -226 -39 -241 -17
-16 -19 12 -5 57 9 28 13 50 10 50 -12 0 -53 -80 -47 -90 3 -6 2 -10 -4 -10
-5 0 -17 -7 -26 -16 -9 -9 -19 -13 -23 -9 -4 3 1 11 11 16 9 6 17 19 17 29 0
10 5 22 11 26 6 3 8 15 6 26 -5 19 19 76 38 90 6 5 5 11 -4 17 -8 5 -10 14 -6
22 6 9 10 7 16 -9 5 -12 13 -22 18 -22 11 0 18 79 10 120 -5 21 -3 30 5 27 7
-2 11 -34 12 -83z m344 -113 c0 -12 -20 -25 -27 -18 -7 7 6 27 18 27 5 0 9 -4
9 -9z m-65 -51 c-3 -5 -10 -10 -16 -10 -5 0 -9 5 -9 10 0 6 7 10 16 10 8 0 12
-4 9 -10z m-338 -92 c13 -22 12 -37 -4 -50 -14 -11 -15 -10 -8 12 7 24 7 24
-9 5 -8 -11 -16 -26 -16 -32 0 -19 -20 -16 -20 3 0 19 31 74 42 74 4 0 10 -6
15 -12z m-98 -25 c-11 -19 -160 -123 -174 -123 -12 0 68 69 80 70 6 0 30 16
55 35 53 40 53 40 39 18z m-7103 -210 c-10 -10 -19 5 -10 18 6 11 8 11 12 0 2
-7 1 -15 -2 -18z m6459 -68 c-11 -90 -24 -130 -48 -151 l-26 -22 22 -7 c19 -6
20 -8 4 -12 -10 -3 -24 0 -31 6 -8 6 -22 8 -31 4 -29 -10 -8 15 25 32 33 17
60 62 60 100 0 14 5 25 11 25 5 0 7 5 4 11 -4 6 -13 8 -21 5 -17 -6 -18 6 -3
21 9 9 6 19 -10 42 l-22 31 35 -23 c33 -20 35 -25 31 -62z m-45 -65 c0 -5 -5
-10 -11 -10 -5 0 -7 5 -4 10 3 6 8 10 11 10 2 0 4 -4 4 -10z m-89 -368 c-35
-116 -38 -129 -47 -210 -8 -82 -21 -162 -23 -138 -1 15 -4 16 -15 7 -8 -7 -12
-20 -9 -30 3 -10 0 -22 -6 -25 -6 -4 -11 -16 -11 -27 0 -12 -4 -17 -11 -14 -6
4 -7 14 -4 24 14 31 27 86 26 108 0 12 4 25 9 28 6 3 10 26 10 50 0 24 4 46 9
49 4 3 11 27 15 53 3 27 19 89 36 138 17 51 30 112 30 141 0 73 14 77 18 4 2
-46 -4 -85 -27 -158z m-6408 14 c6 -15 -1 -26 -15 -26 -4 0 -8 9 -8 20 0 23
15 27 23 6z m6524 -308 c-3 -8 -6 -5 -6 6 -1 11 2 17 5 13 3 -3 4 -12 1 -19z
m53 1 c0 -6 -4 -7 -10 -4 -5 3 -10 11 -10 16 0 6 5 7 10 4 6 -3 10 -11 10 -16z
m-10 -50 c0 -6 -4 -7 -10 -4 -5 3 -10 11 -10 16 0 6 5 7 10 4 6 -3 10 -11 10
-16z m-67 -39 c-7 -28 -13 -25 -13 6 0 14 4 23 9 20 5 -3 7 -15 4 -26z m-133
-20 c0 -12 9 -39 21 -61 11 -23 17 -44 13 -47 -4 -4 -9 -1 -11 6 -3 7 -11 18
-18 25 -17 18 -30 97 -16 97 6 0 11 -9 11 -20z m-110 -135 c-13 -41 -27 -75
-32 -75 -11 0 -10 18 2 25 6 3 10 17 10 30 0 29 30 108 38 100 3 -3 -5 -39
-18 -80z m340 55 c0 -5 -4 -10 -10 -10 -5 0 -10 5 -10 10 0 6 5 10 10 10 6 0
10 -4 10 -10z m-380 -154 c0 -3 -4 -8 -10 -11 -5 -3 -10 -1 -10 4 0 6 5 11 10
11 6 0 10 -2 10 -4z m290 -207 c0 -6 -4 -7 -10 -4 -5 3 -10 11 -10 16 0 6 5 7
10 4 6 -3 10 -11 10 -16z m-6620 -24 c0 -8 -9 -15 -20 -15 -25 0 -26 17 -2 23
9 3 18 5 20 6 1 0 2 -6 2 -14z m-149 -348 c-10 -9 -11 -8 -5 6 3 10 9 15 12
12 3 -3 0 -11 -7 -18z m6717 -18 c25 -19 44 -77 21 -63 -6 3 -8 12 -5 20 3 8
0 14 -7 14 -7 0 -20 9 -30 20 -31 36 -19 41 21 9z m-6742 -95 c-4 -9 -9 -15
-11 -12 -3 3 -3 13 1 22 4 9 9 15 11 12 3 -3 3 -13 -1 -22z m6725 -6 c11 -21
11 -22 -4 -9 -10 7 -17 17 -17 22 0 15 9 10 21 -13z m-6741 -75 c0 -10 -7 -27
-15 -37 -8 -11 -15 -28 -15 -38 0 -10 -5 -18 -10 -18 -12 0 -3 49 11 65 5 5 9
17 9 27 0 10 5 18 10 18 6 0 10 -8 10 -17z m6670 -303 c0 -5 -4 -10 -10 -10
-5 0 -10 5 -10 10 0 6 5 10 10 10 6 0 10 -4 10 -10z m-6851 -123 c-2 -1 -11
-8 -20 -15 -13 -10 -19 -9 -29 3 -11 13 -8 15 20 15 19 0 31 -1 29 -3z m111
-36 c0 -10 -30 -24 -37 -17 -3 3 -2 9 2 15 8 13 35 15 35 2z m-150 -16 c0 -17
-2 -18 -24 -9 -23 9 -20 24 4 24 11 0 20 -7 20 -15z m-10 -45 c0 -5 -2 -10 -4
-10 -3 0 -8 5 -11 10 -3 6 -1 10 4 10 6 0 11 -4 11 -10z m6537 -1652 c-3 -8
-6 -5 -6 6 -1 11 2 17 5 13 3 -3 4 -12 1 -19z m-161 -165 c-7 -7 -36 60 -35
79 0 7 10 -7 21 -30 11 -24 17 -46 14 -49z m62 -170 c20 -39 21 -73 1 -73 -4
0 -6 7 -2 15 3 9 -2 23 -10 33 -24 26 -38 72 -31 96 7 20 7 20 14 -4 4 -14 17
-44 28 -67z m42 -73 c0 -5 -2 -10 -4 -10 -3 0 -8 5 -11 10 -3 6 -1 10 4 10 6
0 11 -4 11 -10z m-24 -60 c8 0 14 -4 14 -10 0 -14 -11 -12 -34 5 -11 9 -15 18
-10 27 7 10 9 9 12 -4 2 -10 10 -18 18 -18z m-22 -126 c9 -23 7 -36 -3 -30
-12 8 -21 46 -11 46 4 0 11 -7 14 -16z m-24 -174 c0 -5 -4 -10 -10 -10 -5 0
-10 5 -10 10 0 6 5 10 10 10 6 0 10 -4 10 -10z m-4 -47 c-10 -10 -19 5 -10 18
6 11 8 11 12 0 2 -7 1 -15 -2 -18z"/>
<path d="M4322 14238 c3 -7 18 -15 34 -19 16 -3 43 -13 61 -22 37 -19 47 -21
38 -7 -8 13 -72 45 -108 54 -21 5 -28 3 -25 -6z"/>
<path d="M4530 14160 c8 -5 20 -10 25 -10 6 0 3 5 -5 10 -8 5 -19 10 -25 10
-5 0 -3 -5 5 -10z"/>
<path d="M4610 14120 c0 -5 7 -10 16 -10 8 0 12 5 9 10 -3 6 -10 10 -16 10 -5
0 -9 -4 -9 -10z"/>
<path d="M3980 14020 c0 -5 5 -10 10 -10 6 0 10 5 10 10 0 6 -4 10 -10 10 -5
0 -10 -4 -10 -10z"/>
<path d="M4135 13400 c-3 -5 -17 -10 -30 -10 -13 0 -27 -5 -31 -11 -5 -8 -9
-8 -14 1 -5 9 -22 1 -59 -26 -28 -21 -51 -42 -51 -47 0 -5 -7 -6 -16 -3 -12 5
-14 1 -8 -17 9 -32 11 -33 47 -18 18 8 95 36 172 63 108 38 159 51 225 55 124
9 72 21 -92 22 -81 1 -139 -3 -143 -9z"/>
<path d="M4150 13292 c-71 -8 -108 -59 -108 -152 0 -29 1 -31 8 -14 5 12 13
25 19 29 14 8 14 -25 1 -59 -12 -33 2 -41 26 -15 12 13 18 32 16 52 l-3 32 26
-29 26 -29 35 19 c33 18 41 37 35 82 -2 11 6 12 31 7 18 -4 38 -11 43 -15 10
-8 89 22 98 38 3 4 -51 8 -120 10 -100 2 -130 0 -149 -13 -13 -8 -28 -15 -34
-15 -22 0 -8 17 31 40 37 20 50 22 118 17 45 -3 70 -2 61 3 -19 10 -111 17
-160 12z m30 -102 c0 -5 -2 -10 -4 -10 -3 0 -8 5 -11 10 -3 6 -1 10 4 10 6 0
11 -4 11 -10z m40 -14 c0 -2 -7 -9 -15 -16 -13 -11 -14 -10 -9 4 5 14 24 23
24 12z m-45 -34 c-3 -3 -11 0 -18 7 -9 10 -8 11 6 5 10 -3 15 -9 12 -12z"/>
<path d="M3579 13072 c-42 -19 -72 -53 -71 -82 0 -17 -5 -30 -11 -30 -7 0 -4
-5 6 -11 9 -5 17 -18 17 -28 0 -17 29 -51 43 -51 4 0 7 7 7 16 0 11 6 14 20 9
23 -7 60 2 60 16 0 5 -12 7 -27 4 l-28 -6 28 16 c20 12 27 23 27 46 0 29 2 31
28 25 15 -4 41 -9 57 -12 l30 -4 -32 15 c-37 17 -151 26 -175 13 -12 -6 -18
-5 -18 2 0 19 64 50 105 51 32 0 36 2 20 9 -24 10 -64 11 -86 2z m51 -108 c0
-8 -4 -12 -10 -9 -5 3 -10 10 -10 16 0 5 5 9 10 9 6 0 10 -7 10 -16z"/>
<path d="M3706 13045 c10 -8 24 -14 29 -14 6 0 1 6 -9 14 -11 8 -24 15 -30 15
-5 0 -1 -7 10 -15z"/>
<path d="M3770 12967 c0 -9 -7 -17 -15 -17 -8 0 -15 -4 -15 -10 0 -14 13 -12
36 4 15 12 17 17 7 27 -11 11 -13 10 -13 -4z"/>
<path d="M4148 12596 c-24 -21 -33 -23 -92 -19 -69 6 -116 -11 -116 -42 0 -19
14 -19 30 0 9 11 32 15 81 15 65 0 72 2 107 35 41 38 33 48 -10 11z"/>
<path d="M3956 12482 c-3 -5 8 -6 25 -4 16 2 29 6 29 8 0 8 -49 4 -54 -4z"/>
<path d="M4460 12472 c0 -5 -24 -14 -52 -21 -29 -8 -62 -19 -73 -25 -11 -6
-40 -12 -65 -13 -64 -2 -128 -18 -195 -47 -31 -14 -63 -26 -69 -26 -21 0 -106
-59 -106 -73 0 -8 16 -25 35 -38 19 -13 35 -29 35 -35 0 -5 15 -27 34 -47 29
-32 39 -37 77 -36 24 1 54 4 66 7 21 7 96 61 149 108 l24 22 -25 0 c-14 0 -28
-4 -31 -9 -3 -5 -13 -9 -24 -9 -10 0 -20 -7 -24 -15 -3 -8 -12 -15 -20 -15 -9
0 -31 -9 -51 -20 -42 -23 -45 -24 -45 -7 0 12 23 27 123 79 31 17 57 34 57 38
0 5 -26 -5 -57 -21 -31 -16 -63 -29 -72 -29 -8 0 -22 -7 -32 -16 -23 -21 -76
-21 -97 -1 -15 16 -15 18 3 32 11 8 36 20 55 26 19 7 51 23 70 35 19 13 41 24
49 24 8 0 23 8 33 17 16 14 22 15 40 4 11 -7 17 -8 13 -2 -8 14 39 35 60 27
12 -4 15 -13 11 -31 l-6 -25 40 21 c52 27 115 129 80 129 -5 0 -10 -4 -10 -8z
m-50 -66 c0 -16 -18 -31 -27 -22 -8 8 5 36 17 36 5 0 10 -6 10 -14z m-270 -64
c0 -4 -13 -13 -30 -19 -16 -6 -30 -8 -30 -4 0 4 12 12 28 18 15 6 28 11 30 12
1 1 2 -3 2 -7z m-119 -160 c-7 -2 -18 1 -23 6 -8 8 -4 9 13 5 13 -4 18 -8 10
-11z"/>
<path d="M3900 12460 c0 -5 5 -10 10 -10 6 0 10 5 10 10 0 6 -4 10 -10 10 -5
0 -10 -4 -10 -10z"/>
<path d="M4290 12320 c0 -21 7 -25 27 -12 9 6 7 11 -7 20 -17 11 -20 10 -20
-8z"/>
<path d="M5167 11853 c-4 -3 -7 -18 -6 -32 1 -26 1 -25 10 3 9 31 7 41 -4 29z"/>
<path d="M4320 9509 c0 -5 5 -7 10 -4 6 3 10 8 10 11 0 2 -4 4 -10 4 -5 0 -10
-5 -10 -11z"/>
<path d="M8025 5890 c-7 -12 2 -30 16 -30 12 0 12 27 0 35 -5 3 -12 1 -16 -5z"/>
<path d="M3790 14626 c0 -9 5 -16 10 -16 6 0 10 4 10 9 0 6 -4 13 -10 16 -5 3
-10 -1 -10 -9z"/>
<path d="M3460 14580 c0 -5 5 -10 10 -10 6 0 10 5 10 10 0 6 -4 10 -10 10 -5
0 -10 -4 -10 -10z"/>
<path d="M4650 14561 c0 -6 -7 -11 -17 -11 -35 0 -3 -12 45 -16 54 -5 79 10
34 20 -15 4 -35 9 -44 12 -10 3 -18 1 -18 -5z"/>
<path d="M3768 14553 c6 -2 18 -2 25 0 6 3 1 5 -13 5 -14 0 -19 -2 -12 -5z"/>
<path d="M4920 14471 c0 -9 30 -24 36 -18 2 1 -6 8 -16 15 -11 7 -20 8 -20 3z"/>
<path d="M4842 14459 c2 -6 7 -10 11 -10 4 1 15 1 25 1 14 0 15 2 2 10 -20 13
-43 13 -38 -1z"/>
<path d="M3665 14380 c4 -6 11 -8 16 -5 14 9 11 15 -7 15 -8 0 -12 -5 -9 -10z"/>
<path d="M5170 14312 c0 -14 11 -21 26 -15 8 3 11 9 8 14 -7 11 -34 12 -34 1z"/>
<path d="M5323 14203 c9 -9 20 -13 24 -9 4 4 1 11 -7 16 -25 16 -35 11 -17 -7z"/>
<path d="M5452 14080 c7 -10 14 -18 15 -16 6 6 -9 36 -18 36 -5 0 -4 -9 3 -20z"/>
<path d="M1638 13940 c-9 -17 -13 -30 -8 -30 5 0 12 9 15 20 3 11 11 20 16 20
5 0 9 5 9 10 0 19 -15 10 -32 -20z"/>
<path d="M1731 13950 c-7 -4 -12 -12 -10 -18 3 -7 10 -6 22 3 20 14 9 29 -12
15z"/>
<path d="M1786 13932 c-3 -6 -24 -13 -45 -17 -22 -4 -45 -13 -52 -21 -6 -8
-23 -14 -38 -14 -15 0 -32 -5 -38 -11 -6 -6 -26 -12 -45 -13 -21 -1 -33 -7
-33 -16 0 -8 -4 -21 -8 -27 -5 -9 -3 -13 7 -13 9 0 15 3 15 8 -3 18 2 33 9 28
13 -8 121 23 179 51 29 14 60 22 69 19 15 -6 15 -4 3 11 -7 10 -14 19 -15 21
-1 2 -5 -1 -8 -6z"/>
<path d="M1575 13890 c-3 -5 -1 -10 4 -10 6 0 11 5 11 10 0 6 -2 10 -4 10 -3
0 -8 -4 -11 -10z"/>
<path d="M1428 13806 c-10 -7 -18 -16 -18 -20 0 -11 21 -6 36 8 26 27 13 36
-18 12z"/>
<path d="M1383 13768 c-18 -22 -45 -80 -40 -85 3 -2 17 16 32 42 26 43 30 71
8 43z"/>
<path d="M1420 13720 c-9 -6 -10 -10 -3 -10 6 0 15 5 18 10 8 12 4 12 -15 0z"/>
<path d="M5750 13674 c0 -7 9 -22 20 -35 25 -31 26 -12 0 21 -11 14 -20 20
-20 14z"/>
<path d="M5922 13385 c6 -14 13 -24 14 -22 6 6 -9 47 -17 47 -5 0 -3 -11 3
-25z"/>
<path d="M789 13347 c-19 -12 -49 -29 -67 -38 -29 -13 -31 -17 -18 -28 13 -11
19 -9 38 12 13 13 33 27 45 31 11 4 26 13 33 21 6 8 18 11 26 8 8 -3 14 -1 14
4 0 17 -37 12 -71 -10z"/>
<path d="M5950 13343 c0 -4 5 -15 10 -23 8 -13 10 -13 10 2 0 9 -4 20 -10 23
-5 3 -10 3 -10 -2z"/>
<path d="M985 13235 c-21 -25 -44 -45 -52 -45 -15 0 -18 -16 -4 -24 10 -7 107
101 99 110 -3 2 -22 -16 -43 -41z"/>
<path d="M1050 13240 c-12 -16 -18 -30 -13 -30 5 0 17 14 26 30 10 17 16 30
13 30 -2 0 -14 -13 -26 -30z"/>
<path d="M6040 13134 c0 -16 69 -104 82 -104 6 0 2 10 -9 23 -24 27 -39 46
-58 72 -8 11 -15 15 -15 9z"/>
<path d="M3290 12861 c0 -12 5 -21 10 -21 6 0 10 6 10 14 0 8 -4 18 -10 21 -5
3 -10 -3 -10 -14z"/>
<path d="M192 12741 c-12 -10 -22 -26 -22 -35 0 -9 -7 -16 -15 -16 -10 0 -15
-10 -15 -26 0 -26 2 -25 35 17 19 24 35 49 35 56 0 6 6 14 13 16 7 3 7 6 1 6
-6 1 -21 -7 -32 -18z"/>
<path d="M3262 12620 c0 -14 2 -19 5 -12 2 6 2 18 0 25 -3 6 -5 1 -5 -13z"/>
<path d="M6330 12557 c0 -7 11 -24 26 -38 18 -17 23 -19 18 -6 -3 9 -10 17
-15 17 -5 0 -9 6 -9 14 0 8 -4 18 -10 21 -5 3 -10 0 -10 -8z"/>
<path d="M50 12463 c0 -25 1 -26 20 -8 21 19 18 35 -6 35 -9 0 -14 -10 -14
-27z"/>
<path d="M26 12364 c-4 -10 -1 -14 6 -12 15 5 23 28 10 28 -5 0 -13 -7 -16
-16z"/>
<path d="M1881 12074 c0 -11 3 -14 6 -6 3 7 2 16 -1 19 -3 4 -6 -2 -5 -13z"/>
<path d="M2091 11744 c0 -11 3 -14 6 -6 3 7 2 16 -1 19 -3 4 -6 -2 -5 -13z"/>
<path d="M6530 11730 c0 -5 7 -10 15 -10 8 0 15 5 15 10 0 6 -7 10 -15 10 -8
0 -15 -4 -15 -10z"/>
<path d="M2630 11690 c0 -5 5 -10 11 -10 5 0 7 5 4 10 -3 6 -8 10 -11 10 -2 0
-4 -4 -4 -10z"/>
<path d="M3120 11626 c0 -19 -3 -43 -6 -53 -6 -16 -4 -15 8 2 23 31 31 85 13
85 -10 0 -15 -11 -15 -34z"/>
<path d="M2298 11643 c7 -3 16 -2 19 1 4 3 -2 6 -13 5 -11 0 -14 -3 -6 -6z"/>
<path d="M2236 11628 c46 -76 114 -147 114 -120 0 19 -96 132 -113 132 -4 0
-5 -6 -1 -12z"/>
<path d="M2466 11631 c14 -13 62 -22 68 -12 3 5 -8 11 -25 15 -44 8 -55 8 -43
-3z"/>
<path d="M2327 11613 c-4 -3 2 -13 14 -21 18 -12 22 -12 34 4 7 11 11 21 9 24
-3 2 -9 -2 -14 -10 -7 -11 -12 -11 -23 -2 -7 7 -17 9 -20 5z"/>
<path d="M2495 11590 c3 -5 10 -10 16 -10 5 0 9 5 9 10 0 6 -7 10 -16 10 -8 0
-12 -4 -9 -10z"/>
<path d="M2982 11560 c0 -14 2 -19 5 -12 2 6 2 18 0 25 -3 6 -5 1 -5 -13z"/>
<path d="M6790 11521 c0 -6 5 -13 10 -16 6 -3 10 1 10 9 0 9 -4 16 -10 16 -5
0 -10 -4 -10 -9z"/>
<path d="M2967 11508 c-3 -9 -8 -45 -11 -80 l-6 -63 15 70 c14 67 16 107 2 73z"/>
<path d="M6760 11465 c0 -12 32 -54 45 -59 10 -3 7 6 -8 29 -20 31 -37 45 -37
30z"/>
<path d="M3134 11429 c-3 -6 -1 -16 5 -22 8 -8 11 -5 11 11 0 24 -5 28 -16 11z"/>
<path d="M2989 11423 c0 -5 -2 -19 -4 -33 -13 -76 -14 -105 -5 -83 12 29 24
123 16 123 -3 0 -6 -3 -7 -7z"/>
<path d="M3041 11362 c-15 -27 -24 -122 -11 -122 10 0 22 48 15 60 -3 5 -1 19
5 30 6 12 10 29 8 38 -3 14 -6 13 -17 -6z"/>
<path d="M2960 11220 c0 -13 5 -18 15 -14 8 4 15 12 15 20 0 8 -7 14 -15 14
-8 0 -15 -9 -15 -20z"/>
<path d="M6933 11233 c9 -2 25 -2 35 0 9 3 1 5 -18 5 -19 0 -27 -2 -17 -5z"/>
<path d="M3140 11124 c0 -27 4 -43 10 -39 6 3 10 24 10 46 0 21 -4 39 -10 39
-5 0 -10 -21 -10 -46z"/>
<path d="M7310 11056 c0 -2 8 -10 18 -17 15 -13 16 -12 3 4 -13 16 -21 21 -21
13z"/>
<path d="M7438 10949 c11 -10 74 -20 68 -10 -3 5 -22 11 -41 13 -19 2 -32 1
-27 -3z"/>
<path d="M7470 10900 c0 -5 5 -10 10 -10 6 0 10 5 10 10 0 6 -4 10 -10 10 -5
0 -10 -4 -10 -10z"/>
<path d="M7520 10904 c0 -10 59 -68 64 -63 7 6 -43 69 -55 69 -5 0 -9 -2 -9
-6z"/>
<path d="M7490 10820 c0 -13 51 -50 68 -50 12 0 10 6 -7 24 -23 25 -61 41 -61
26z"/>
<path d="M7689 10712 c5 -9 19 -26 31 -37 l22 -20 -22 38 c-22 37 -50 55 -31
19z"/>
<path d="M7786 10581 c-4 -7 -5 -15 -2 -18 9 -9 19 4 14 18 -4 11 -6 11 -12 0z"/>
<path d="M7820 10519 c0 -5 5 -7 10 -4 6 3 10 8 10 11 0 2 -4 4 -10 4 -5 0
-10 -5 -10 -11z"/>
<path d="M8150 9378 c0 -7 5 -20 10 -28 8 -12 10 -11 10 7 0 12 -4 25 -10 28
-5 3 -10 0 -10 -7z"/>
<path d="M8130 9316 c0 -9 5 -16 10 -16 6 0 10 4 10 9 0 6 -4 13 -10 16 -5 3
-10 -1 -10 -9z"/>
<path d="M8170 9281 c0 -5 5 -13 10 -16 6 -3 10 -2 10 4 0 5 -4 13 -10 16 -5
3 -10 2 -10 -4z"/>
<path d="M8148 9218 c5 -22 41 -88 47 -88 2 0 -2 16 -8 35 -6 19 -14 35 -19
35 -4 0 -8 6 -8 14 0 8 -4 17 -9 20 -5 4 -6 -4 -3 -16z"/>
<path d="M8200 9098 c0 -9 5 -20 11 -23 17 -11 18 -2 3 19 -12 17 -14 17 -14
4z"/>
<path d="M8242 9011 c2 -14 9 -26 16 -29 17 -5 15 10 -3 34 -15 18 -15 18 -13
-5z"/>
<path d="M8189 8987 c6 -6 11 -23 11 -37 0 -28 25 -70 42 -70 6 0 3 11 -6 25
-10 14 -16 34 -15 43 3 32 -1 40 -22 45 -17 4 -19 3 -10 -6z"/>
<path d="M8300 8961 c0 -5 5 -13 10 -16 6 -3 10 -2 10 4 0 5 -4 13 -10 16 -5
3 -10 2 -10 -4z"/>
<path d="M8240 8959 c0 -3 9 -22 19 -42 18 -34 20 -36 26 -17 4 12 5 22 3 23
-1 1 -13 11 -25 21 -13 11 -23 17 -23 15z"/>
<path d="M8321 8914 c0 -11 3 -14 6 -6 3 7 2 16 -1 19 -3 4 -6 -2 -5 -13z"/>
<path d="M8309 8866 c12 -14 12 -19 2 -25 -9 -6 -4 -14 18 -30 31 -22 44 -14
16 9 -12 10 -13 16 -4 27 14 16 12 18 -21 28 -23 7 -24 6 -11 -9z"/>
<path d="M8280 8810 c0 -5 6 -13 14 -17 8 -4 15 -17 18 -28 2 -11 10 -20 17
-20 8 0 16 -6 19 -12 2 -7 -2 -13 -9 -13 -7 0 -4 -6 7 -14 10 -8 16 -18 12
-21 -9 -10 29 -85 43 -85 6 0 7 5 4 10 -3 6 0 10 7 10 8 0 22 -22 32 -49 9
-27 24 -57 32 -67 14 -18 14 -18 5 3 -6 12 -11 30 -11 41 0 11 -11 35 -24 55
-14 20 -24 47 -23 61 1 14 -2 25 -8 25 -5 0 -10 -8 -10 -18 0 -11 -3 -22 -7
-26 -8 -8 -16 21 -22 71 -4 39 -13 54 -29 49 -7 -3 -20 8 -29 25 -16 29 -38
40 -38 20z"/>
<path d="M8230 8790 c0 -5 4 -10 9 -10 4 0 7 -12 5 -27 -2 -18 -1 -20 3 -8 3
11 10 23 17 28 8 5 7 10 -4 17 -19 13 -30 13 -30 0z"/>
<path d="M8390 8761 c0 -6 4 -13 10 -16 6 -3 7 1 4 9 -7 18 -14 21 -14 7z"/>
<path d="M8406 8557 c3 -10 9 -15 12 -12 3 3 0 11 -7 18 -10 9 -11 8 -5 -6z"/>
<path d="M8400 8490 c0 -5 7 -10 15 -10 8 0 15 5 15 10 0 6 -7 10 -15 10 -8 0
-15 -4 -15 -10z"/>
<path d="M8545 8330 c3 -5 11 -10 16 -10 6 0 7 5 4 10 -3 6 -11 10 -16 10 -6
0 -7 -4 -4 -10z"/>
<path d="M8591 8307 c2 -1 15 -11 29 -22 l25 -20 -19 23 c-11 12 -24 22 -29
22 -6 0 -8 -1 -6 -3z"/>
<path d="M8671 8223 c-13 -14 -12 -18 4 -29 27 -20 33 -17 27 11 -6 32 -14 37
-31 18z"/>
<path d="M8745 7260 c-3 -5 -1 -10 4 -10 6 0 11 5 11 10 0 6 -2 10 -4 10 -3 0
-8 -4 -11 -10z"/>
<path d="M8535 6640 c-3 -11 -11 -20 -16 -20 -5 0 -9 -5 -9 -10 0 -6 -5 -16
-10 -23 -6 -7 -32 -43 -59 -80 l-49 -69 20 -51 c11 -29 26 -63 33 -77 7 -14
16 -42 20 -62 4 -20 14 -39 22 -42 12 -5 14 -1 8 21 -11 46 -11 48 7 47 15 -2
17 4 12 40 -4 22 -7 43 -6 46 0 23 3 30 12 25 16 -10 12 22 -5 39 -19 18 -19
27 0 52 15 18 15 18 9 -8 -4 -18 -2 -28 6 -28 7 0 11 19 9 58 -1 31 2 81 6
110 8 52 2 70 -10 32z"/>
<path d="M7340 4902 c0 -5 7 -17 15 -28 15 -19 20 -8 9 20 -6 17 -24 22 -24 8z"/>
<path d="M550 4350 c0 -23 13 -26 29 -6 9 11 8 15 -5 20 -23 9 -24 8 -24 -14z"/>
<path d="M635 4360 c-3 -5 -1 -10 4 -10 6 0 11 5 11 10 0 6 -2 10 -4 10 -3 0
-8 -4 -11 -10z"/>
<path d="M7131 3486 c10 -17 19 -40 19 -51 1 -20 22 -55 34 -55 3 0 6 14 6 30
0 17 -4 30 -10 30 -5 0 -10 11 -10 24 0 17 -9 29 -29 39 l-29 15 19 -32z"/>
<path d="M7140 3371 c0 -5 6 -14 14 -20 12 -10 13 -8 9 8 -5 21 -23 30 -23 12z"/>
<path d="M7160 3300 c0 -5 5 -10 11 -10 5 0 7 5 4 10 -3 6 -8 10 -11 10 -2 0
-4 -4 -4 -10z"/>
<path d="M7140 3235 c0 -8 5 -15 10 -15 6 0 10 7 10 15 0 8 -4 15 -10 15 -5 0
-10 -7 -10 -15z"/>
<path d="M1809 2155 c-9 -8 2 -56 11 -50 5 3 11 1 15 -5 8 -13 25 -13 25 -1 0
15 -44 63 -51 56z"/>
<path d="M1832 2025 c-24 -49 -28 -80 -12 -90 6 -3 10 2 10 11 0 10 9 27 19
38 22 23 32 77 16 83 -6 2 -21 -17 -33 -42z"/>
<path d="M1888 1944 c-5 -4 -8 -16 -8 -28 0 -14 3 -17 11 -9 6 6 9 19 7 28 -1
9 -6 13 -10 9z"/>
<path d="M6890 1825 c0 -8 5 -15 10 -15 6 0 10 7 10 15 0 8 -4 15 -10 15 -5 0
-10 -7 -10 -15z"/>
<path d="M6877 1723 c-4 -3 -7 -20 -6 -37 l1 -31 9 34 c10 33 8 47 -4 34z"/>
<path d="M6860 1634 c0 -8 5 -12 10 -9 6 4 8 11 5 16 -9 14 -15 11 -15 -7z"/>
</g>
</svg>
