<?xml version="1.0" standalone="no"?>
<!DOCTYPE svg PUBLIC "-//W3C//DTD SVG 20010904//EN"
 "http://www.w3.org/TR/2001/REC-SVG-20010904/DTD/svg10.dtd">
<svg version="1.0" xmlns="http://www.w3.org/2000/svg"
 width="897.000000pt" height="1500.000000pt" viewBox="0 0 897.000000 1500.000000"
 preserveAspectRatio="xMidYMid meet">

<g transform="translate(0.000000,1500.000000) scale(0.100000,-0.100000)"
fill="#000000" stroke="none">
<path d="M3718 14993 c6 -2 18 -2 25 0 6 3 1 5 -13 5 -14 0 -19 -2 -12 -5z"/>
<path d="M3935 14950 c-3 -6 1 -7 9 -4 18 7 21 14 7 14 -6 0 -13 -4 -16 -10z"/>
<path d="M3889 14909 l-24 -20 28 17 c15 9 27 18 27 20 0 8 -8 4 -31 -17z"/>
<path d="M3770 14815 c-7 -9 -8 -15 -2 -15 5 0 12 7 16 15 3 8 4 15 2 15 -2 0
-9 -7 -16 -15z"/>
<path d="M4101 14814 c-7 -8 -11 -17 -9 -20 3 -2 13 5 23 16 10 11 14 20 9 20
-5 -1 -15 -8 -23 -16z"/>
<path d="M3985 14695 c-59 -40 -119 -95 -111 -102 3 -3 16 4 28 15 37 34 109
91 126 101 9 5 15 12 12 14 -3 3 -27 -10 -55 -28z"/>
<path d="M4305 14667 c-5 -7 -16 -23 -22 -35 -11 -18 -10 -20 3 -15 8 3 21 18
30 34 15 29 8 39 -11 16z"/>
<path d="M4244 14601 c5 -8 -26 -22 -40 -18 -3 1 -10 -6 -15 -15 -6 -10 -19
-18 -29 -18 -11 0 -20 -7 -20 -15 0 -17 -68 -54 -94 -52 -11 1 -21 -4 -23 -11
-3 -7 1 -10 11 -6 23 9 20 -1 -13 -37 -16 -17 -34 -29 -39 -25 -6 4 -8 -2 -4
-16 3 -14 2 -19 -7 -14 -6 4 -22 -5 -37 -24 -23 -27 -74 -61 -89 -60 -3 0 -21
-14 -40 -31 -19 -17 -44 -37 -57 -44 -13 -6 -41 -22 -63 -35 -22 -13 -68 -38
-102 -56 -34 -17 -60 -34 -58 -36 3 -2 -14 -3 -37 -2 -23 1 -35 -1 -28 -6 9
-5 3 -13 -19 -26 -30 -18 -47 -42 -36 -53 4 -3 15 5 26 19 11 14 17 18 14 9
-5 -13 0 -15 25 -11 16 2 30 1 30 -3 0 -5 -16 -28 -36 -52 -20 -24 -33 -47
-30 -50 3 -4 6 -1 6 5 0 7 6 12 14 12 8 0 17 8 20 17 6 15 8 15 16 3 14 -22
12 -31 -6 -28 -11 2 -25 -12 -40 -41 -29 -54 -24 -63 12 -25 28 31 26 26 -21
-46 -17 -25 -36 -49 -42 -53 -7 -4 -13 -15 -13 -22 0 -8 -5 -15 -10 -15 -7 0
-8 -6 -2 -16 6 -12 3 -34 -9 -69 -10 -28 -18 -69 -19 -91 0 -21 -2 -124 -4
-229 -2 -104 -6 -262 -8 -350 -2 -88 -1 -171 2 -185 4 -14 3 -36 -1 -50 -6
-22 -7 -21 -8 10 -1 19 -6 42 -11 50 -6 10 -9 -52 -8 -182 2 -108 -1 -200 -5
-204 -4 -4 -8 7 -8 24 -1 18 -3 37 -4 42 -1 6 -3 35 -4 65 0 33 -5 55 -12 55
-21 0 4 -241 28 -272 5 -7 11 -37 12 -67 1 -30 4 -58 7 -63 3 -4 1 -8 -5 -8
-11 0 -19 25 -24 75 -2 17 -7 36 -11 43 -4 7 -10 38 -14 70 -6 55 -7 53 -18
-58 -6 -63 -7 -119 -2 -124 4 -6 8 -15 8 -20 0 -6 -5 -4 -11 4 -8 11 -9 4 -6
-27 3 -24 2 -45 -3 -48 -4 -2 -10 -30 -15 -62 -19 -154 -25 -185 -38 -201 -5
-7 -7 -15 -5 -18 3 -3 22 14 42 37 28 33 36 38 36 23 0 -11 -20 -40 -45 -66
-47 -49 -55 -64 -31 -55 12 5 12 1 0 -29 -11 -26 -12 -39 -4 -49 8 -10 8 -15
0 -20 -6 -4 -10 -22 -8 -40 1 -19 -1 -37 -5 -41 -11 -12 -8 -82 4 -86 8 -3 12
-45 12 -126 1 -67 4 -122 8 -122 4 0 19 14 34 31 14 17 28 29 31 26 4 -3 -13
-28 -36 -56 -37 -43 -42 -55 -40 -93 4 -64 1 -112 -6 -105 -4 3 -6 33 -5 67 0
33 -3 60 -8 60 -4 0 -8 -57 -7 -127 1 -144 -27 -315 -57 -348 -10 -12 -1 139
13 200 5 22 11 56 14 75 l6 35 -25 -30 c-14 -16 -24 -34 -23 -40 2 -16 -14
-89 -22 -100 -13 -17 -30 -89 -31 -138 -1 -26 -5 -44 -9 -40 -4 4 -4 42 1 83
4 41 8 101 8 132 1 47 -2 56 -14 52 -11 -5 -13 -2 -9 10 3 9 12 16 20 16 10 0
14 10 12 31 -2 27 -4 28 -15 13 -7 -9 -14 -22 -16 -28 -2 -6 -7 -9 -10 -6 -4
3 0 30 8 60 8 30 13 56 11 57 -13 13 -43 -73 -71 -199 -9 -43 -20 -78 -24 -78
-4 0 3 42 16 92 12 51 27 127 33 170 5 42 12 89 16 105 6 25 5 26 -9 13 -14
-14 -48 -142 -48 -182 0 -9 -7 -19 -16 -22 -11 -5 -14 -2 -9 10 3 9 8 34 11
57 5 37 4 39 -6 17 -6 -14 -15 -38 -20 -55 -21 -78 -53 -159 -57 -146 -5 16
24 132 44 179 8 18 25 75 37 127 17 78 19 101 10 126 -9 24 -9 37 3 64 9 23
12 49 8 75 -4 27 -3 40 5 40 6 0 11 4 11 9 0 5 -16 5 -37 0 -21 -4 -40 -6 -43
-3 -7 8 31 34 50 34 17 0 40 18 40 32 0 14 -20 8 -40 -12 -11 -11 -28 -20 -38
-20 -10 0 -23 -5 -30 -12 -9 -9 -15 -9 -24 0 -7 7 -25 12 -41 12 -18 0 -26 4
-21 11 4 7 23 9 48 6 39 -5 40 -5 16 8 -14 8 -37 14 -51 15 -15 0 -38 9 -52
20 -30 24 -87 38 -87 22 0 -6 5 -14 10 -17 6 -3 10 -21 10 -40 0 -31 -2 -33
-35 -32 -35 1 -35 1 -16 21 26 28 18 76 -12 76 -20 0 -20 1 3 25 27 28 24 37
-8 28 -16 -4 -22 -13 -22 -32 0 -15 -6 -33 -12 -39 -17 -17 8 -34 37 -26 l20
6 -20 -15 c-18 -14 -23 -14 -53 5 -32 20 -35 20 -65 4 l-32 -16 41 6 c28 3 45
1 49 -7 6 -9 1 -10 -19 -5 -19 5 -26 3 -26 -9 0 -9 -9 -15 -22 -15 -20 0 -68
-38 -68 -53 0 -3 12 -7 28 -9 23 -3 27 -8 30 -38 2 -31 1 -33 -11 -17 -8 9
-22 17 -31 17 -28 0 -56 20 -66 46 -5 13 -15 24 -21 24 -7 0 -5 -9 5 -24 10
-16 12 -27 6 -31 -6 -3 -14 4 -19 17 -10 27 -87 93 -116 101 -18 4 -17 5 3 6
22 1 21 3 -17 49 -22 26 -39 56 -38 67 1 12 -5 21 -18 23 -11 2 -44 30 -74 61
-30 31 -72 64 -93 73 -21 9 -38 24 -38 33 0 8 -5 15 -11 15 -7 0 -9 -10 -7
-25 3 -14 1 -25 -3 -25 -14 0 -10 -27 6 -40 8 -7 15 -22 15 -34 l-1 -21 -18
23 c-23 26 -43 29 -39 5 3 -19 -9 -43 -21 -43 -7 0 6 97 23 175 5 22 4 25 -3
10 -8 -18 -9 -19 -16 -2 -4 9 -4 29 1 45 4 15 6 32 4 37 -1 6 -2 24 -2 40 0
17 -2 23 -5 15 -6 -17 -54 -70 -62 -70 -3 0 -6 18 -6 39 0 34 3 40 20 38 16
-2 20 3 18 26 -2 27 12 38 20 15 2 -7 6 -1 9 15 3 15 1 27 -3 27 -5 0 -9 12
-9 28 0 51 -11 73 -31 67 -31 -10 -22 1 29 34 26 17 63 45 83 63 20 18 45 39
55 46 18 12 18 13 -3 8 -16 -3 -23 1 -23 10 0 8 6 14 13 12 6 -1 22 3 35 10
12 7 22 10 22 6 0 -4 15 10 33 31 17 22 40 47 49 56 9 10 14 20 11 23 -3 3 2
17 11 30 9 14 16 32 16 41 0 8 6 15 13 15 13 0 57 52 57 67 0 4 14 22 32 40
18 18 26 33 19 33 -10 0 -11 3 -2 13 6 8 9 16 6 19 -5 5 2 13 94 103 44 43 48
50 31 53 -22 4 -24 10 -10 32 9 13 11 13 20 0 7 -12 12 -9 21 18 6 17 15 32
20 32 5 0 9 6 9 13 0 6 13 23 29 37 26 21 30 33 34 85 3 48 0 66 -17 90 -11
17 -25 33 -30 37 -18 12 -20 -1 -3 -19 18 -21 33 -73 20 -73 -4 0 -19 19 -32
43 -23 43 -59 66 -125 83 -38 9 -32 24 12 24 41 1 78 22 67 40 -3 6 -3 9 2 8
18 -5 52 14 67 37 15 23 55 37 41 15 -8 -13 4 -13 43 1 20 7 34 21 41 40 6 17
25 44 42 60 17 16 27 29 21 29 -12 0 -54 -48 -79 -90 -17 -29 -43 -41 -43 -20
0 6 6 10 14 10 8 0 18 12 24 28 14 39 49 73 115 111 67 38 86 37 27 -3 -22
-14 -40 -29 -40 -32 0 -6 44 19 126 72 27 19 67 41 88 49 29 12 36 20 31 33
-18 42 -16 51 12 69 15 10 36 25 46 34 17 16 17 17 -7 17 -16 0 -26 -7 -30
-20 -4 -16 -10 -19 -29 -14 -22 5 -24 3 -20 -17 7 -28 -36 21 -153 176 -20 26
-41 47 -48 47 -6 0 -40 36 -76 80 -77 96 -95 114 -110 105 -6 -4 -2 -13 12
-25 21 -17 21 -19 4 -20 -12 0 -16 -5 -13 -15 8 -19 -58 -73 -106 -86 -24 -6
-41 -18 -47 -32 -7 -20 -9 -20 -15 -4 -9 21 -30 23 -21 2 3 -9 -3 -19 -14 -25
-21 -11 -28 -40 -9 -40 5 0 7 -5 3 -11 -4 -7 -10 -7 -16 -1 -7 7 -18 6 -35 -5
-13 -9 -27 -13 -31 -9 -4 4 0 12 8 16 37 22 44 29 38 36 -10 10 -68 -39 -63
-53 3 -7 -2 -13 -10 -13 -8 0 -15 -4 -15 -10 0 -5 7 -10 16 -10 8 0 12 -4 9
-10 -3 -5 -17 -10 -30 -10 -13 0 -30 -7 -39 -15 -8 -8 -19 -15 -25 -15 -6 0
-11 -4 -11 -10 0 -5 -6 -7 -14 -4 -7 3 -29 -1 -47 -9 -19 -8 -38 -14 -44 -15
-5 0 -12 -11 -15 -23 -7 -27 -40 -50 -47 -31 -3 6 -9 12 -15 12 -7 0 -6 -5 1
-14 10 -11 8 -16 -5 -24 -13 -7 -15 -17 -11 -41 8 -40 -3 -39 -28 2 -11 18
-30 36 -43 42 -13 6 -20 16 -17 24 4 11 -3 12 -35 7 -46 -7 -54 7 -12 23 24 9
22 10 -23 8 -27 -1 -53 -6 -56 -10 -4 -5 -18 -10 -33 -10 -14 -1 -26 -5 -26
-9 0 -4 -18 -20 -40 -34 -23 -15 -39 -33 -36 -40 6 -16 -20 -51 -30 -41 -23
23 -10 54 45 106 54 52 45 53 -13 2 l-29 -26 7 28 c7 30 7 31 -27 18 -13 -5
-27 -19 -30 -31 -5 -20 -4 -21 12 -6 21 19 31 20 31 4 0 -6 -20 -30 -45 -54
-25 -23 -45 -47 -45 -55 0 -7 14 0 31 17 18 16 30 25 27 19 -2 -5 -11 -25 -18
-42 -11 -26 -19 -32 -34 -27 -15 5 -18 3 -12 -11 7 -20 -23 -47 -64 -55 -14
-3 -29 -15 -35 -28 -5 -12 -13 -22 -17 -22 -13 0 -9 -30 5 -30 6 -1 0 -7 -15
-15 -28 -16 -108 -93 -108 -106 0 -4 -9 -11 -20 -14 -11 -3 -20 -13 -20 -21 0
-8 -7 -14 -15 -14 -8 0 -15 -6 -15 -12 0 -7 -13 -27 -28 -45 -15 -17 -35 -46
-45 -63 -11 -21 -22 -30 -32 -26 -10 3 -15 -1 -15 -14 0 -10 -4 -22 -10 -25
-5 -3 -10 3 -10 14 0 12 -4 21 -10 21 -5 0 -10 -4 -10 -10 0 -5 -20 -29 -45
-53 -25 -25 -45 -51 -45 -59 0 -14 -89 -108 -103 -108 -4 0 -7 7 -7 16 0 10 6
14 15 10 8 -3 15 -2 15 3 0 4 15 25 34 45 36 38 35 50 -2 16 -12 -11 -26 -20
-32 -20 -5 0 -10 -8 -10 -17 0 -13 -3 -14 -11 -6 -9 9 -8 16 5 28 12 12 13 21
6 35 -13 25 -13 30 4 30 16 0 38 24 30 33 -4 3 -17 -1 -30 -10 -44 -29 -24 2
41 64 36 34 64 68 63 75 -2 7 4 12 13 10 9 -1 22 5 29 13 11 13 10 14 -5 9
-13 -5 -16 -3 -13 7 2 8 15 15 27 17 14 2 21 9 17 17 -3 9 0 12 10 8 9 -3 36
12 67 38 78 66 187 171 187 182 0 8 17 32 61 85 17 20 5 23 -20 6 -12 -9 -26
-26 -31 -39 -6 -15 -20 -26 -42 -30 -18 -4 -40 -13 -48 -20 -21 -18 -70 -30
-70 -17 0 6 8 16 18 21 9 6 12 11 7 11 -16 0 -85 -60 -85 -75 0 -8 -7 -11 -18
-8 -11 3 -25 -7 -40 -26 -12 -17 -29 -31 -37 -31 -18 0 -20 -17 -2 -23 14 -5
-45 -37 -68 -37 -12 0 -15 -6 -10 -21 6 -18 4 -19 -12 -11 -12 7 -25 7 -34 1
-11 -7 -10 -9 5 -9 21 0 17 -10 -6 -14 -32 -5 -57 -18 -61 -30 -3 -7 -29 -22
-57 -32 -42 -15 -52 -24 -57 -46 -3 -16 -12 -28 -21 -28 -8 0 -12 -3 -9 -7 4
-3 -3 -11 -16 -17 -12 -6 -26 -25 -31 -41 -10 -31 -82 -102 -93 -92 -3 4 5 16
19 27 14 11 28 30 31 42 6 21 5 21 -21 -5 -15 -15 -36 -35 -47 -43 -13 -10
-16 -17 -8 -20 8 -4 7 -14 -5 -37 -20 -37 -41 -56 -63 -57 -9 0 -22 -7 -29
-15 -14 -17 0 -21 16 -5 8 8 15 6 24 -5 10 -12 10 -15 -4 -15 -9 0 -21 -9 -28
-20 -7 -11 -21 -20 -30 -20 -23 0 -23 -16 -2 -24 10 -4 23 1 31 11 13 15 13
14 0 -7 -10 -16 -23 -24 -36 -23 -12 2 -21 -2 -21 -7 0 -5 -16 -25 -35 -45
-37 -36 -35 -42 9 -26 22 9 25 7 31 -19 4 -20 2 -35 -8 -44 -7 -8 -13 -30 -12
-50 1 -39 -6 -44 -25 -21 -16 19 -26 12 -46 -30 -9 -19 -24 -35 -33 -35 -30
-1 -91 -100 -61 -100 6 0 10 6 10 13 0 7 6 22 14 32 14 19 15 19 35 1 11 -10
18 -23 15 -27 -9 -15 -24 -10 -24 8 0 14 -2 15 -12 4 -11 -11 -11 -14 0 -18 6
-3 12 -11 12 -19 0 -8 -6 -11 -17 -7 -13 5 -15 2 -10 -11 4 -11 0 -24 -10 -34
-15 -16 -16 -15 -11 11 4 22 3 25 -8 16 -8 -6 -14 -20 -14 -31 0 -10 -9 -28
-20 -40 -24 -26 -26 -58 -5 -58 9 0 15 9 15 23 0 23 17 47 33 47 6 0 5 -5 0
-12 -6 -7 -13 -31 -16 -53 -4 -23 -15 -46 -28 -56 -19 -14 -20 -21 -14 -82 4
-39 12 -65 18 -64 6 1 13 -6 15 -15 2 -13 -1 -16 -12 -12 -9 3 -16 2 -16 -2 0
-15 17 -36 26 -32 14 5 22 -70 11 -111 -9 -32 -8 -44 6 -65 9 -14 17 -42 17
-63 0 -34 -1 -36 -15 -17 -14 18 -14 18 -15 -8 0 -17 5 -28 14 -28 7 0 16 -9
19 -20 3 -11 2 -20 -1 -20 -4 0 -5 -29 -4 -66 3 -44 8 -64 15 -61 7 2 12 10
12 17 0 7 6 15 13 18 14 4 17 -14 3 -22 -5 -4 -5 -20 2 -41 5 -19 14 -32 19
-29 5 3 6 15 2 26 -4 14 -2 18 5 14 6 -4 11 -15 11 -25 0 -10 7 -24 15 -31 11
-9 13 -16 5 -24 -5 -5 -10 -18 -10 -29 0 -10 -5 -15 -10 -12 -6 3 -8 21 -5 38
6 29 5 31 -10 16 -15 -14 -15 -20 -1 -60 9 -24 16 -54 16 -66 0 -13 4 -23 10
-23 5 0 14 -9 20 -21 10 -19 10 -20 -8 -10 -19 10 -19 9 -12 -17 5 -15 13 -43
18 -62 5 -22 14 -35 24 -34 13 1 15 -6 11 -38 -5 -33 -3 -37 11 -32 17 7 20
-7 7 -41 -5 -11 -3 -37 5 -60 7 -22 15 -56 18 -77 6 -35 20 -48 64 -57 4 -1
-2 -8 -12 -16 -18 -14 -18 -18 -6 -70 7 -30 17 -55 23 -55 5 0 6 -7 3 -16 -9
-22 14 -50 25 -32 5 8 9 -10 9 -43 0 -31 7 -73 15 -93 8 -20 12 -36 8 -36 -4
0 -2 -5 5 -12 7 -7 12 -24 12 -39 0 -15 5 -31 10 -34 6 -4 8 -11 5 -16 -4 -5
1 -12 9 -15 10 -4 16 -18 16 -36 0 -17 9 -46 21 -64 12 -21 18 -41 14 -54 -4
-11 -2 -20 4 -20 6 0 11 -9 11 -20 0 -11 10 -30 23 -42 22 -23 31 -68 16 -78
-8 -5 11 -73 31 -115 6 -11 14 -42 19 -68 5 -27 14 -54 21 -60 10 -9 11 -7 5
12 -4 12 -8 39 -9 60 -1 20 -5 42 -10 49 -4 7 -6 16 -3 19 3 3 11 -4 18 -15
10 -16 17 -18 37 -11 20 8 23 6 20 -8 -2 -10 -11 -17 -21 -17 -16 2 -23 -16
-11 -28 9 -10 44 4 44 17 0 11 20 25 35 25 8 0 -19 -65 -28 -72 -7 -4 -6 -12
3 -22 16 -20 6 -33 -14 -17 -12 10 -13 9 -9 -9 3 -13 11 -19 19 -16 9 3 14 -2
14 -14 0 -14 -5 -18 -16 -13 -13 5 -15 -1 -8 -43 4 -26 13 -54 20 -62 8 -7 14
-21 14 -29 0 -14 -3 -14 -20 2 -19 18 -20 17 -20 -2 0 -11 7 -34 16 -52 9 -18
17 -43 18 -57 1 -25 10 -31 21 -14 12 19 33 11 28 -10 -3 -11 -12 -20 -20 -20
-11 0 -14 -8 -11 -30 3 -16 1 -30 -4 -30 -4 0 -8 5 -8 12 0 9 -3 9 -12 0 -7
-7 -21 -12 -32 -12 -19 0 -19 -1 -1 -13 12 -10 16 -22 13 -40 -3 -18 -1 -27 7
-27 17 0 28 -46 16 -68 -12 -23 -9 -45 9 -68 10 -11 15 -37 14 -70 -1 -30 2
-51 7 -49 4 3 6 -6 5 -20 -4 -41 9 -100 22 -98 15 4 15 -21 2 -67 -8 -29 -7
-37 7 -48 14 -10 18 -27 18 -72 0 -35 4 -60 10 -60 6 0 11 -10 11 -22 0 -13 1
-41 3 -63 l3 -40 14 33 c8 19 17 68 19 109 3 42 9 81 13 87 5 6 8 26 6 45 -1
19 3 70 10 113 12 75 28 110 43 95 3 -4 -1 -13 -10 -20 -15 -11 -15 -15 -2
-41 12 -23 12 -27 1 -23 -10 4 -14 -8 -15 -55 -1 -34 3 -66 9 -72 6 -8 4 -22
-6 -40 -11 -23 -13 -51 -8 -138 4 -60 11 -111 15 -114 5 -3 1 -16 -7 -30 -21
-31 -14 -142 10 -159 12 -9 14 -28 9 -106 -3 -52 -9 -99 -14 -104 -9 -13 0
-95 12 -95 10 0 24 -42 19 -55 -7 -19 -5 -375 3 -375 4 0 7 -17 7 -37 0 -47
11 -36 14 14 1 21 7 63 14 93 17 80 52 342 58 430 3 41 12 97 21 123 8 26 13
54 10 61 -3 7 1 44 8 82 7 38 16 99 20 136 3 37 11 71 17 74 7 5 9 0 6 -14 -4
-15 -2 -19 8 -15 17 6 17 7 -2 -50 -12 -36 -13 -51 -5 -61 8 -10 9 -16 1 -21
-17 -11 -11 -25 12 -25 16 0 19 -3 11 -11 -6 -6 -9 -18 -6 -25 3 -8 1 -14 -5
-14 -5 0 -13 -7 -16 -16 -3 -8 -2 -13 3 -10 5 3 11 -14 13 -39 2 -25 0 -46 -4
-47 -3 -2 -10 -15 -13 -30 -6 -22 -4 -28 10 -28 12 0 15 -5 10 -21 -4 -11 -7
-40 -7 -64 -1 -24 -5 -42 -10 -39 -13 8 -10 -10 4 -24 10 -10 10 -15 -2 -22
-9 -6 -14 -21 -12 -44 2 -20 0 -41 -5 -48 -4 -7 -9 -33 -10 -57 -2 -24 -13
-56 -24 -72 -23 -33 -9 -39 23 -9 12 11 26 20 31 20 11 0 -18 -37 -44 -57 -10
-7 -21 -43 -29 -88 -7 -42 -16 -78 -21 -80 -4 -3 -4 -18 1 -34 7 -24 5 -29 -6
-24 -9 3 -14 -2 -14 -17 0 -11 4 -19 8 -16 5 3 6 -9 4 -26 -3 -19 1 -34 9 -39
12 -8 12 -11 -1 -19 -12 -8 -12 -10 5 -10 18 0 18 -2 -5 -20 -14 -10 -22 -22
-18 -26 4 -4 14 -1 23 6 10 8 15 9 15 2 0 -6 -9 -16 -20 -22 -14 -8 -20 -21
-20 -48 0 -20 -4 -52 -9 -69 l-9 -32 24 15 c27 18 31 8 10 -21 -8 -11 -12 -25
-9 -31 2 -7 -2 -32 -10 -56 -8 -23 -12 -47 -9 -53 4 -5 7 -29 7 -53 0 -26 6
-47 15 -52 11 -7 11 -11 2 -23 -13 -15 -16 -49 -10 -97 2 -16 -2 -25 -12 -25
-8 0 -16 -8 -18 -17 -3 -13 3 -18 20 -18 21 -1 22 -2 5 -14 -9 -7 -17 -20 -17
-28 0 -8 -5 -19 -11 -25 -8 -8 -8 -13 0 -17 17 -11 13 -26 -6 -19 -9 4 -14 2
-12 -3 3 -5 11 -21 19 -36 7 -16 10 -31 7 -34 -11 -12 -36 17 -30 34 4 13 3
14 -5 3 -11 -15 -4 -53 8 -46 20 12 15 -54 -7 -85 -12 -18 -20 -37 -17 -41 3
-5 1 -17 -4 -26 -5 -10 -12 -30 -16 -45 -5 -22 -3 -25 14 -21 15 4 17 9 10 23
-13 25 0 33 20 13 13 -15 14 -23 6 -48 -6 -16 -19 -39 -28 -49 -22 -24 -22
-32 -2 -40 11 -4 15 -14 12 -31 -3 -14 -1 -25 3 -25 5 0 9 -5 9 -10 0 -7 -6
-7 -19 0 -13 7 -22 7 -26 0 -3 -5 1 -10 9 -10 21 0 20 -10 -2 -26 -16 -12 -16
-13 1 -19 9 -4 23 -2 31 4 11 9 13 6 14 -15 0 -14 -3 -21 -7 -16 -10 16 -28 1
-41 -33 -24 -62 -19 -117 5 -63 12 26 35 36 35 14 0 -9 -4 -16 -10 -16 -5 0
-10 -5 -10 -11 0 -5 6 -7 13 -4 6 4 3 -1 -7 -9 -11 -9 -26 -16 -34 -16 -7 0
-10 -4 -7 -10 3 -5 -2 -22 -12 -36 -10 -17 -18 -49 -19 -82 -1 -29 -7 -59 -13
-65 -8 -8 -6 -16 6 -29 13 -14 13 -18 2 -18 -8 0 -20 -9 -27 -20 -10 -16 -10
-20 2 -20 8 0 16 7 20 15 8 23 28 18 21 -5 -4 -12 -2 -20 6 -20 8 0 8 -4 -2
-16 -8 -10 -22 -13 -38 -10 -14 3 -20 3 -13 0 6 -3 12 -12 12 -20 0 -8 5 -14
11 -14 5 0 7 -5 4 -10 -5 -8 -11 -7 -20 0 -11 9 -17 4 -30 -25 -19 -47 -19
-48 5 -35 24 13 27 -2 7 -40 -11 -21 -11 -27 2 -36 12 -10 12 -14 -2 -35 -23
-31 -21 -38 5 -31 21 5 22 4 8 -11 -41 -45 -43 -49 -30 -57 10 -6 8 -13 -9
-31 -24 -26 -26 -42 -8 -57 18 -15 29 -15 38 -1 4 8 11 10 15 6 11 -11 -28
-48 -44 -42 -24 9 -32 -5 -17 -28 14 -21 13 -24 -15 -40 -31 -19 -49 -72 -35
-104 6 -14 10 -10 15 17 3 19 12 45 19 58 15 29 35 29 25 0 -6 -20 -5 -21 10
-9 9 8 19 11 23 8 8 -9 -17 -37 -33 -37 -8 0 -14 -7 -14 -15 0 -8 -9 -24 -20
-35 -11 -11 -20 -27 -20 -37 0 -14 2 -15 18 -1 37 32 46 32 25 -3 -16 -25 -19
-39 -12 -52 8 -14 6 -17 -12 -17 -17 0 -19 3 -10 14 8 9 8 16 2 20 -13 9 -18
-3 -19 -44 -1 -25 -8 -41 -26 -55 -34 -27 -33 -39 4 -31 32 6 42 -8 11 -17
-25 -6 -36 -106 -13 -123 11 -8 12 -13 3 -18 -13 -9 -5 -46 13 -59 6 -5 1 -5
-12 -2 -21 6 -22 4 -16 -22 3 -15 13 -39 21 -52 12 -18 12 -25 3 -31 -9 -6 -9
-13 1 -31 7 -13 15 -34 16 -47 3 -20 1 -23 -19 -17 -13 3 -18 3 -13 -2 6 -4
17 -17 25 -27 14 -18 13 -19 -2 -13 -15 5 -16 3 -6 -19 9 -20 9 -30 -1 -47
-12 -18 -11 -22 5 -34 19 -14 19 -15 0 -28 -18 -14 -18 -16 -3 -33 19 -21 21
-49 7 -88 -8 -21 -8 -29 2 -36 7 -4 9 -8 3 -9 -5 -1 -14 -2 -20 -3 -5 0 -19
-7 -30 -13 -14 -9 -17 -15 -8 -21 7 -4 12 -16 11 -27 0 -11 3 -28 7 -39 7 -15
5 -17 -13 -11 -25 7 -29 -7 -7 -28 12 -13 12 -17 -4 -31 -25 -23 -31 -20 -27
14 4 32 -19 44 -30 16 -3 -8 -12 -12 -19 -10 -7 3 -16 0 -20 -5 -3 -6 -10 -9
-15 -6 -14 9 -60 -14 -60 -30 0 -8 -9 -15 -21 -15 -12 0 -17 4 -13 11 11 18
11 98 -1 102 -6 3 -4 12 6 23 11 13 14 27 8 44 -6 21 -7 22 -8 4 -1 -11 -6
-25 -11 -30 -11 -11 -25 -89 -35 -194 -3 -35 -11 -67 -18 -72 -6 -4 -12 -11
-12 -15 -1 -4 -13 -27 -28 -50 -15 -24 -27 -48 -27 -55 0 -12 -16 -65 -34
-110 -6 -15 -13 -22 -17 -16 -4 6 -12 -6 -19 -26 -6 -19 -9 -40 -5 -46 3 -5 0
-19 -8 -31 -11 -15 -16 -17 -21 -7 -3 7 -3 1 0 -14 4 -20 1 -30 -15 -40 -12
-7 -21 -23 -21 -35 0 -12 -9 -27 -21 -34 -16 -8 -20 -18 -17 -40 4 -22 1 -29
-13 -29 -22 0 -32 -25 -29 -75 2 -45 18 -68 60 -85 16 -7 32 -21 35 -31 4 -10
12 -19 20 -19 7 0 15 -7 19 -15 3 -8 12 -15 21 -15 8 0 15 -7 15 -14 0 -18 60
-66 82 -66 9 0 21 -6 27 -13 19 -24 99 -60 120 -54 13 3 21 0 21 -8 0 -7 15
-18 33 -25 17 -7 55 -23 83 -36 104 -47 218 -84 262 -84 24 0 35 -5 39 -18 3
-14 12 -17 34 -14 17 3 29 0 29 -7 0 -6 11 -11 24 -11 13 0 46 -6 72 -14 27
-8 81 -22 119 -30 69 -15 70 -16 18 -12 -29 2 -53 -1 -53 -5 0 -5 19 -18 43
-29 23 -12 53 -27 67 -35 14 -8 39 -20 55 -28 17 -8 53 -27 80 -42 87 -49 160
-84 172 -85 7 0 17 -9 23 -20 6 -11 23 -23 38 -27 15 -3 43 -18 63 -33 20 -14
57 -34 82 -45 25 -10 48 -27 50 -37 3 -10 13 -21 24 -24 32 -10 83 -38 83 -45
0 -4 -7 -10 -16 -13 -13 -5 -15 -15 -11 -41 3 -20 1 -35 -5 -37 -8 -3 -8 -10
-1 -23 8 -14 6 -26 -6 -49 -28 -49 -34 -85 -16 -92 13 -5 14 -15 5 -54 0 -3
-10 6 -20 19 -22 26 -27 11 -10 -33 5 -15 11 -42 13 -61 4 -31 37 -83 60 -93
4 -2 7 -10 7 -18 0 -8 6 -14 14 -14 7 0 19 -6 25 -14 14 -17 113 -70 151 -81
14 -4 39 -13 55 -20 17 -7 68 -21 115 -30 161 -32 173 -35 184 -44 10 -8 70
-27 164 -51 18 -4 38 -12 45 -18 24 -18 217 -61 217 -48 0 2 -18 54 -39 114
-22 61 -37 113 -34 116 14 13 24 5 18 -14 -4 -12 0 -31 9 -45 9 -13 16 -29 16
-36 0 -6 13 -39 28 -73 16 -33 35 -80 42 -103 7 -24 21 -50 32 -59 10 -10 18
-27 18 -40 0 -13 5 -26 10 -29 6 -3 10 -21 10 -39 0 -20 8 -40 20 -51 23 -21
80 -128 80 -150 0 -8 7 -15 16 -15 13 0 13 -2 -2 -17 -15 -15 -15 -18 -3 -21
8 -1 24 -23 34 -47 15 -34 24 -43 37 -39 13 4 16 1 12 -10 -4 -10 0 -16 10
-17 9 -1 21 -3 26 -4 6 -1 15 -3 21 -4 7 -1 9 -12 6 -30 -4 -21 -2 -31 9 -35
8 -3 14 -11 13 -18 -5 -27 14 -107 26 -112 16 -6 25 -54 11 -60 -6 -3 -1 -8
11 -11 18 -6 22 -12 17 -31 -3 -13 -2 -24 4 -24 5 0 9 -15 7 -32 -1 -18 2 -41
7 -51 6 -11 10 -43 10 -73 0 -32 6 -57 13 -62 15 -9 45 -66 45 -86 0 -8 5 -27
12 -41 l11 -25 809 0 808 0 0 68 c0 78 19 199 50 327 12 50 24 99 25 110 6 32
44 168 56 197 9 21 15 25 28 19 17 -9 39 -13 181 -35 47 -7 92 -15 100 -18 35
-13 126 -31 169 -33 25 -2 46 -4 46 -5 0 -1 38 -8 85 -16 123 -19 151 -24 190
-34 19 -5 85 -21 145 -35 166 -39 188 -46 209 -63 14 -13 34 -16 85 -14 125 4
121 1 162 132 26 84 35 201 12 172 -11 -16 -12 -16 -13 1 0 9 0 20 0 25 1 4
12 6 25 4 14 -2 25 -1 25 3 0 18 -31 75 -40 75 -7 0 -30 12 -51 28 -34 23 -39
31 -35 55 3 16 1 27 -5 27 -8 0 -9 11 -5 32 8 40 12 44 31 28 10 -8 15 -9 15
-1 0 6 -4 11 -9 11 -13 0 -45 125 -38 149 3 12 1 24 -4 27 -13 8 -39 73 -39
97 0 12 -12 34 -27 49 -36 38 -22 36 17 -2 18 -17 35 -43 40 -58 5 -15 20 -58
35 -97 14 -38 33 -92 41 -120 9 -27 20 -55 25 -61 5 -6 6 -14 2 -17 -3 -4 1
-7 10 -7 10 0 17 -5 17 -11 0 -5 5 -7 11 -4 6 4 8 9 6 12 -3 2 2 25 9 50 8 25
14 61 14 79 0 18 4 36 10 39 5 3 9 31 9 63 -1 76 1 91 12 97 14 9 11 68 -7
110 -17 41 -14 54 6 30 12 -14 15 -11 26 21 7 20 10 43 7 50 -3 8 2 17 11 20
12 4 16 20 17 58 0 28 4 60 8 71 7 18 -1 59 -20 97 -13 25 -11 31 7 24 13 -5
15 -1 9 21 -15 63 -22 113 -14 113 4 0 13 -18 19 -40 17 -63 57 -48 79 30 7
25 20 53 29 63 13 15 14 22 4 37 -15 25 -15 30 2 30 13 0 31 51 27 78 -1 8 2
19 8 25 5 7 8 43 7 80 -2 47 1 67 8 64 14 -6 19 160 5 168 -5 4 -9 -3 -9 -15
0 -12 -4 -19 -9 -16 -11 7 -12 86 -1 86 5 0 12 16 16 35 3 19 10 35 15 35 5 0
9 7 9 15 0 8 5 15 10 15 6 0 10 -7 10 -15 0 -8 5 -15 10 -15 12 0 13 37 1 44
-4 3 -6 16 -4 29 3 13 -2 44 -10 68 -18 54 -12 82 13 52 15 -19 16 -15 14 72
-1 50 -5 102 -9 115 -4 13 -3 25 4 30 9 5 9 20 0 59 -11 50 -4 88 8 43 3 -12
9 -22 14 -22 12 0 12 37 0 44 -5 3 -11 24 -13 46 -3 35 -1 39 14 34 12 -3 18
0 18 10 0 9 -4 16 -10 16 -6 0 -10 30 -10 70 0 39 4 70 9 70 12 0 11 89 -1 96
-4 3 -5 16 -2 29 3 13 -2 37 -12 56 -10 20 -18 61 -20 100 -1 36 -10 83 -20
105 -21 49 -27 77 -14 69 5 -3 10 -12 10 -19 0 -8 7 -19 15 -26 12 -10 13 -6
8 27 -3 21 -12 45 -19 54 -17 19 -18 33 -3 24 15 -10 0 62 -22 107 -25 49 -25
62 0 48 11 -5 26 -29 34 -52 34 -95 57 -186 58 -223 1 -39 2 -39 11 13 8 43 7
57 -6 77 -19 29 -20 39 -3 32 9 -3 13 12 15 56 2 34 7 68 12 77 5 9 5 22 -1
31 -5 7 -9 37 -9 66 0 28 -4 55 -10 58 -5 3 -10 13 -10 22 0 13 3 13 15 3 16
-13 20 -3 9 24 -3 9 -10 14 -15 11 -8 -6 -30 56 -22 64 2 3 10 -4 18 -15 13
-18 14 -16 14 21 1 58 -15 114 -39 148 -16 21 -19 31 -10 37 11 7 13 73 2 93
-7 15 -32 -15 -32 -39 0 -15 -6 -24 -15 -24 -9 0 -15 -6 -14 -12 6 -32 -12
-88 -60 -189 -17 -36 -31 -69 -31 -73 0 -12 -64 -115 -72 -116 -11 0 5 43 29
78 13 19 23 40 23 47 0 7 7 18 15 25 9 7 15 20 14 29 -3 24 12 71 22 71 5 0 9
12 9 28 1 15 7 38 15 52 8 14 14 37 15 51 0 15 6 32 14 38 8 6 16 26 19 44 3
18 10 50 15 72 6 22 12 56 15 75 2 19 9 48 16 65 7 16 13 55 14 87 1 38 6 57
13 54 12 -5 40 72 30 81 -3 4 1 11 10 17 22 17 7 48 -20 41 -11 -2 -15 -2 -8
1 6 3 12 12 12 20 0 8 5 13 11 12 11 -3 18 27 20 79 1 13 16 33 35 48 19 14
41 39 49 56 17 31 14 35 -16 19 -28 -15 -23 -5 14 30 29 29 30 31 8 25 -20 -6
-23 -4 -18 9 4 9 10 22 13 30 3 8 -4 24 -15 35 -35 35 -23 43 20 14 l41 -27
-6 -65 c-7 -68 -17 -93 -49 -128 -18 -20 -18 -23 -4 -23 21 0 22 -16 1 -24
-25 -9 -34 -7 -34 9 0 9 -6 12 -15 9 -11 -5 -13 -10 -5 -19 16 -19 3 -139 -26
-229 -14 -44 -32 -130 -39 -191 -8 -60 -17 -125 -21 -144 -4 -22 -2 -36 5 -41
7 -4 16 -22 21 -41 4 -19 14 -49 22 -68 11 -28 11 -35 0 -39 -10 -3 -7 -8 7
-19 16 -11 19 -18 11 -32 -5 -10 -8 -20 -5 -22 21 -22 35 -360 20 -491 -7 -55
-5 -60 19 -79 14 -11 26 -29 26 -40 0 -25 -17 -25 -25 1 -3 11 -13 20 -22 20
-23 0 -10 -23 28 -48 19 -13 37 -33 41 -45 4 -12 4 14 1 58 -3 44 -5 87 -5 95
3 41 16 86 28 96 11 9 11 21 -2 74 -8 34 -12 65 -9 68 3 3 5 1 5 -5 0 -6 6
-13 14 -16 11 -4 13 9 12 66 0 40 -5 76 -11 80 -6 6 -6 10 2 14 9 3 11 19 8
46 -3 27 -2 33 3 18 6 -19 9 -21 19 -10 6 8 13 32 16 54 3 22 10 61 15 88 8
43 7 47 -10 47 -13 0 -18 6 -16 18 2 9 10 16 18 15 12 -2 15 13 16 74 1 47 6
79 13 81 19 6 12 21 -24 56 -43 42 -49 82 -23 149 20 53 23 70 8 47 -8 -12
-10 -11 -10 7 0 12 5 25 11 28 7 5 5 13 -6 25 -20 22 -22 60 -6 118 7 24 9 52
6 62 -4 14 -2 20 9 20 9 0 16 -7 16 -16 0 -8 4 -12 10 -9 5 3 9 23 8 43 -1 57
9 149 18 164 5 7 9 50 10 95 1 78 0 82 -22 87 -46 12 -23 21 59 24 333 10 349
12 389 61 10 12 24 21 33 21 8 0 35 20 59 45 25 25 50 45 56 45 5 0 10 13 10
30 0 23 4 28 16 23 13 -5 15 -2 10 14 -4 13 2 37 15 63 17 33 19 44 9 50 -10
6 -10 12 2 29 17 23 28 18 28 -13 0 -17 2 -18 10 -6 15 22 9 111 -7 117 -8 3
-11 13 -8 23 3 10 1 21 -5 25 -5 3 -10 12 -10 20 0 23 20 68 27 61 3 -3 0 -18
-8 -32 -12 -23 -11 -27 6 -40 10 -8 16 -17 12 -20 -3 -4 0 -13 8 -21 29 -29 9
-293 -24 -326 -6 -6 -11 -23 -11 -38 0 -15 -4 -31 -10 -34 -15 -9 -12 -25 4
-19 8 3 17 1 21 -5 5 -10 49 10 65 29 3 4 13 9 22 13 9 3 33 31 53 62 30 47
39 55 57 50 12 -4 24 -2 28 5 6 9 13 8 32 -4 22 -15 24 -14 24 4 0 15 -5 18
-18 14 -10 -3 -18 -1 -18 4 0 16 36 20 60 7 22 -12 22 -13 4 -23 -10 -6 -14
-12 -8 -12 6 0 24 10 38 21 21 17 24 24 15 30 -11 6 -7 15 14 37 15 15 27 38
27 49 0 12 7 29 17 38 12 13 16 32 14 78 -3 71 -7 82 -27 66 -21 -17 -25 -8
-14 30 7 26 6 39 -5 55 -8 11 -15 35 -15 53 0 20 -5 32 -12 31 -21 -5 -37 41
-25 73 10 24 8 31 -7 42 -14 11 -16 18 -8 33 7 14 3 33 -18 79 -16 33 -34 75
-41 93 -8 17 -20 32 -27 32 -9 0 -11 7 -7 19 3 11 -5 37 -20 64 -14 25 -21 48
-17 51 5 3 26 -27 46 -66 21 -40 48 -91 62 -115 13 -24 24 -49 24 -56 0 -7 7
-21 15 -31 15 -20 15 -20 30 0 8 10 24 38 36 62 11 23 26 45 33 50 7 4 26 29
41 56 23 40 26 52 17 67 -15 24 -4 25 14 2 13 -17 13 -17 14 0 0 9 9 26 20 37
19 19 19 20 0 30 -21 11 -28 40 -10 40 6 0 10 -7 10 -15 0 -15 12 -20 22 -9 8
7 -21 64 -33 64 -5 0 -9 7 -9 15 0 14 3 13 25 -2 13 -10 25 -26 25 -35 0 -10
4 -18 9 -18 13 0 -5 61 -21 72 -7 4 -17 9 -23 11 -5 2 -2 11 8 21 9 10 17 24
17 32 0 20 16 17 39 -7 21 -23 36 -11 26 21 -4 12 -2 20 5 20 7 0 10 7 6 15
-3 8 -1 15 4 15 6 0 10 9 10 19 0 11 14 40 31 65 17 25 27 50 24 56 -10 16
-25 1 -25 -26 0 -25 -14 -32 -26 -12 -4 6 -2 14 4 16 7 2 12 19 12 39 0 23 -4
33 -12 30 -7 -2 -12 -14 -10 -25 2 -12 -2 -22 -7 -22 -6 0 -11 9 -11 20 0 13
-5 18 -15 14 -10 -4 -15 0 -15 13 0 11 -7 28 -15 39 -16 21 -19 34 -7 34 4 0
18 -16 31 -36 13 -19 27 -31 30 -27 3 4 15 8 25 8 11 0 21 6 24 13 2 7 -6 12
-23 12 -29 0 -65 36 -75 74 -3 12 -15 23 -25 25 -22 4 -35 19 -35 40 0 11 4
11 18 -2 10 -10 25 -17 33 -17 9 0 34 -16 57 -36 42 -36 55 -35 27 2 -19 24
-19 36 0 60 15 18 15 18 13 -11 -4 -39 20 -44 55 -11 29 27 35 20 15 -15 -10
-17 -10 -23 -1 -26 9 -3 11 -14 7 -31 -4 -15 -3 -24 1 -20 4 4 9 38 12 75 2
37 9 86 15 108 16 53 19 85 9 85 -5 0 -12 -15 -17 -32 l-8 -33 -4 35 c-2 19
-8 38 -14 41 -7 4 -8 14 -3 25 8 17 9 17 12 -3 5 -28 23 -30 24 -3 2 23 3 29
14 53 5 13 11 15 20 7 11 -9 12 -7 8 9 -3 13 0 23 10 27 15 5 26 37 33 94 17
134 18 127 -5 135 -15 4 -20 12 -16 24 3 12 -12 35 -50 74 -57 58 -66 74 -39
63 14 -5 15 -4 4 9 -7 8 -19 15 -26 15 -8 0 -19 11 -24 25 -8 21 -14 24 -35
19 -41 -10 -165 61 -127 73 6 3 12 12 12 20 0 13 -2 13 -16 2 -14 -11 -18 -11
-29 4 -7 9 -17 17 -22 17 -6 0 -24 12 -41 28 -63 55 -85 72 -90 67 -3 -3 3
-15 14 -27 11 -13 2 -9 -23 11 -48 37 -58 49 -48 59 4 4 14 -3 22 -15 9 -13
19 -23 24 -23 18 0 8 20 -29 57 -44 43 -85 107 -75 116 12 13 23 7 23 -13 0
-11 5 -20 10 -20 6 0 10 10 10 22 0 22 -45 77 -64 79 -14 1 -71 69 -59 69 5 0
22 -14 37 -31 39 -44 44 -28 9 29 -16 26 -35 63 -41 82 -7 18 -20 42 -29 52
-18 20 -4 25 16 6 11 -11 12 -8 6 12 -22 74 -53 123 -41 63 3 -16 2 -35 -4
-43 -7 -11 -10 0 -10 38 0 28 -4 52 -10 52 -5 0 -10 7 -10 15 0 9 6 12 15 9
17 -7 21 21 5 31 -5 3 -10 20 -10 36 0 19 4 28 11 23 7 -4 6 2 -1 17 -7 13
-19 27 -26 32 -8 5 -11 19 -7 42 6 37 -11 50 -20 15 -7 -28 -26 -25 -37 8 -5
15 -16 40 -25 55 -11 22 -12 32 -3 47 10 16 9 22 -10 38 -12 11 -22 22 -22 26
0 11 18 6 34 -10 23 -22 19 -5 -8 43 -26 45 -19 70 8 31 9 -12 18 -19 21 -16
3 3 -14 29 -39 57 -28 34 -42 59 -39 70 3 11 0 22 -6 25 -14 9 -15 36 -1 36 5
0 14 -17 20 -39 5 -21 17 -44 25 -51 22 -19 19 -6 -22 73 -45 89 -83 131 -83
92 0 -8 -4 -15 -10 -15 -11 0 -13 11 -4 34 3 9 12 16 20 16 11 0 11 5 2 25 -6
14 -15 25 -20 25 -4 0 -8 5 -8 12 0 9 3 9 12 0 7 -7 18 -12 25 -12 23 0 14 18
-17 37 -17 10 -33 29 -37 43 -3 14 -17 40 -30 58 -18 23 -24 42 -20 60 3 15 0
36 -5 46 -8 15 -8 21 1 24 6 2 11 12 11 23 0 10 5 19 11 19 8 0 10 -21 7 -68
-5 -64 -3 -71 23 -103 26 -31 28 -32 29 -12 0 12 -10 32 -22 44 l-23 21 23 -7
c15 -4 22 -2 22 6 0 19 21 -4 25 -27 2 -11 4 -19 5 -19 1 0 3 -15 5 -33 3 -32
36 -110 60 -142 7 -8 22 -42 35 -75 13 -33 27 -65 32 -71 5 -6 6 -18 3 -26 -3
-7 1 -22 8 -32 13 -17 14 -17 31 8 19 29 13 71 -9 62 -10 -3 -15 12 -20 55 -4
32 -10 59 -14 59 -3 0 -12 13 -19 29 -13 30 -7 81 10 81 6 0 8 -7 4 -15 -5
-13 21 -51 30 -42 6 6 -20 67 -28 67 -4 0 -8 6 -8 14 0 7 -7 19 -15 26 -8 7
-15 22 -15 35 0 30 -40 88 -66 95 -12 3 -34 20 -49 38 -21 25 -23 31 -8 26 10
-4 28 -18 39 -30 23 -25 34 -30 34 -15 0 16 -46 61 -62 61 -7 0 -18 15 -23 33
-7 23 -15 32 -30 30 -11 -1 -23 4 -27 10 -11 18 -10 87 2 87 11 0 13 -12 10
-47 -1 -15 4 -23 14 -23 9 0 16 -4 16 -10 0 -5 7 -10 15 -10 8 0 15 -5 15 -12
0 -9 3 -9 13 1 10 10 7 17 -15 35 -16 12 -28 30 -28 40 0 35 -76 128 -144 176
-19 14 -36 31 -36 38 0 15 9 11 56 -25 17 -13 35 -23 40 -23 8 0 60 -67 85
-110 8 -13 10 -13 19 0 7 11 5 18 -6 27 -9 6 -16 27 -17 47 -1 33 -27 63 -27
30 0 -8 -4 -13 -10 -9 -6 4 -6 15 0 31 6 14 10 35 10 47 -1 22 -1 22 -16 2 -8
-11 -12 -25 -10 -32 3 -7 1 -15 -4 -18 -6 -4 -15 6 -20 21 -8 19 -8 29 0 34
12 7 2 70 -11 70 -5 0 -9 -12 -9 -26 0 -16 -5 -24 -12 -21 -16 5 -11 37 7 56
11 11 8 24 -21 80 -20 36 -48 76 -64 89 -17 14 -27 29 -23 37 3 10 -1 15 -12
15 -21 0 -11 -38 17 -61 18 -14 28 -65 15 -86 -3 -5 -2 -15 3 -23 9 -14 -7
-60 -21 -60 -15 0 -21 22 -9 30 11 7 10 13 -3 34 -21 31 -21 36 -2 36 9 0 15
9 15 24 0 28 -15 43 -24 24 -5 -10 -7 -10 -12 0 -3 6 -11 12 -17 12 -6 0 -18
7 -28 15 -15 14 -18 14 -32 0 -20 -19 -37 -19 -37 0 0 8 6 12 15 9 9 -4 16 3
21 20 7 27 19 32 44 16 9 -6 11 -10 3 -10 -7 0 -10 -7 -7 -15 10 -24 24 -17
24 11 0 19 -8 28 -35 40 -46 19 -48 18 -41 -11 5 -20 3 -25 -13 -25 -10 0 -21
8 -25 18 -3 9 -9 23 -12 30 -3 7 1 12 11 12 12 0 8 10 -17 40 -18 22 -41 40
-50 40 -10 0 -18 7 -18 16 0 11 6 14 20 9 23 -7 25 -2 9 26 -5 11 -18 19 -27
18 -9 -2 -31 5 -48 14 -18 9 -50 19 -73 23 -23 4 -44 10 -46 15 -3 4 -21 5
-40 2 -23 -4 -35 -2 -35 6 0 6 8 11 19 11 10 0 24 6 31 14 6 8 17 13 25 10 7
-3 16 -1 19 5 10 15 -33 24 -50 10 -24 -20 -100 -17 -121 4 -17 18 -16 18 38
12 37 -5 59 -3 63 4 4 6 0 11 -8 11 -9 0 -16 5 -16 11 0 7 -13 10 -33 7 -36
-4 -57 10 -57 38 0 14 -8 16 -52 11 -29 -4 -54 -11 -56 -17 -5 -13 -22 -13
-22 -1 0 6 18 20 40 32 59 34 35 49 -30 19 -27 -13 -53 -20 -57 -16 -4 4 -1
11 6 15 8 5 10 14 6 21 -6 9 -9 9 -16 -1 -7 -11 -11 -10 -22 5 -11 15 -27 18
-88 18 -41 0 -82 4 -90 10 -11 7 -9 9 9 5 15 -3 22 0 22 9 0 16 16 19 25 4 9
-15 25 -12 25 4 0 9 -12 12 -40 11 -22 -1 -40 0 -40 2 0 15 30 30 53 26 41 -8
32 6 -18 28 -25 11 -45 27 -45 35 0 11 9 9 37 -11 42 -28 65 -31 81 -12 8 10
6 22 -9 46 -10 17 -23 30 -27 27 -10 -6 -72 48 -72 63 0 5 -13 19 -30 31 -16
12 -30 25 -30 30 0 13 43 -1 68 -23 18 -17 25 -18 35 -8 9 10 7 16 -12 32 -13
10 -33 19 -45 19 -29 0 -52 15 -37 25 9 5 9 10 0 21 -14 17 -39 19 -39 2 0 -6
-7 -4 -18 5 -10 10 -24 17 -30 17 -7 0 -12 9 -12 20 0 11 -6 23 -14 26 -8 3
-12 12 -9 20 6 17 -36 35 -65 28 -14 -4 -21 0 -25 15 -3 12 -4 21 -2 21 1 0
21 -7 45 -15 30 -10 40 -11 38 -3 -3 7 -29 20 -60 29 -60 18 -105 44 -91 52 5
3 15 2 23 -4 27 -16 46 -10 22 7 -12 8 -20 20 -17 25 4 5 -1 9 -10 9 -10 0
-31 12 -49 26 -27 23 -31 25 -34 10 -3 -14 -7 -15 -18 -5 -40 33 23 35 84 3
25 -13 47 -24 50 -24 12 0 -25 33 -52 46 -64 31 -101 54 -113 71 -24 32 -13
34 24 4 35 -29 53 -32 53 -10 0 6 -4 7 -10 4 -5 -3 -10 1 -10 9 0 9 -6 16 -13
16 -7 0 -19 9 -27 20 -8 11 -19 20 -25 20 -18 1 -72 56 -78 81 -5 20 -1 18 26
-14 18 -20 35 -37 40 -37 12 0 8 18 -9 34 -14 15 -14 16 4 16 27 0 45 -25 37
-49 -5 -16 -3 -20 10 -15 11 4 14 13 9 28 -8 25 -70 103 -87 109 -7 2 -9 8 -5
12 4 4 14 2 22 -4 8 -7 20 -10 25 -7 5 4 12 2 16 -4 3 -5 1 -10 -5 -10 -24 0
11 -38 50 -54 45 -18 54 -30 15 -20 -14 3 -25 2 -25 -3 0 -16 51 -63 69 -63
12 0 25 -14 35 -35 9 -19 24 -35 32 -35 9 0 18 -9 21 -20 3 -11 12 -20 19 -20
8 0 14 -4 14 -10 0 -5 -7 -10 -16 -10 -18 0 -84 67 -84 86 0 7 -10 16 -22 20
-13 3 -31 13 -41 22 -13 11 -20 13 -29 4 -8 -8 1 -16 34 -32 39 -18 70 -53 72
-83 1 -4 19 -18 41 -30 22 -12 49 -32 60 -43 11 -12 43 -34 72 -49 28 -14 54
-33 57 -42 4 -9 13 -13 22 -9 19 7 38 -11 46 -42 6 -23 6 -23 -13 -6 -11 10
-32 20 -47 21 l-27 4 30 -25 c17 -14 38 -28 48 -32 12 -3 17 -13 14 -23 -3
-11 2 -17 15 -18 13 -1 18 3 14 15 -15 51 -17 72 -8 72 6 0 14 -9 17 -20 7
-23 25 -27 25 -5 0 8 -13 24 -30 37 -16 12 -30 30 -30 40 0 10 -4 18 -9 18 -5
0 -16 19 -25 41 -9 23 -20 39 -23 35 -9 -8 -33 14 -33 31 0 10 4 11 19 3 24
-12 31 -13 31 -2 0 11 -49 34 -60 27 -4 -3 -13 2 -20 10 -7 8 -19 15 -26 15
-8 0 -14 5 -14 10 0 14 26 13 50 -2 10 -7 23 -8 27 -4 4 5 2 11 -4 13 -7 3
-13 9 -13 14 0 6 5 7 11 3 7 -4 10 -1 7 7 -2 7 -22 22 -44 34 -35 18 -39 24
-36 54 2 23 7 31 18 27 18 -7 17 -5 -1 30 -10 20 -15 23 -15 12 0 -46 -54 7
-82 80 -22 56 -21 53 -3 46 29 -11 15 13 -36 61 -27 26 -48 49 -46 52 3 2 22
-6 43 -18 l39 -21 -30 33 c-16 19 -33 35 -37 37 -4 2 -14 26 -23 53 -10 28
-23 53 -31 56 -8 3 -14 11 -14 19 0 8 -5 14 -11 14 -6 0 -9 -7 -5 -15 3 -9 0
-15 -10 -15 -9 0 -14 5 -12 12 2 6 -6 21 -19 34 -31 31 -29 44 7 44 l31 0 -18
24 c-10 14 -26 27 -35 29 -10 3 -18 15 -18 26 0 12 -4 21 -10 21 -14 0 -13
-33 1 -47 6 -6 9 -17 6 -25 -3 -7 -11 2 -21 24 -18 42 -21 72 -6 63 5 -3 18
-2 27 4 16 8 15 11 -9 21 -29 14 -40 56 -27 105 6 22 5 26 -8 21 -9 -4 -21 1
-28 11 -8 10 -17 15 -21 11 -4 -4 -1 -14 6 -23 7 -9 10 -18 7 -22 -4 -3 -12 6
-18 21 -11 23 -10 29 5 44 16 16 17 16 22 -6 4 -12 10 -22 15 -22 16 0 10 16
-16 40 -14 13 -25 31 -25 40 0 25 -78 117 -105 124 -22 6 -54 61 -41 73 3 3 6
0 6 -8 0 -9 7 -24 16 -35 14 -18 15 -16 9 25 -3 23 -16 62 -30 85 -13 22 -33
59 -45 81 -36 70 -48 81 -70 67 -31 -19 -35 -14 -10 13 l23 24 -24 20 c-13 11
-27 20 -31 21 -5 0 -8 5 -8 11 0 6 7 8 15 5 8 -3 22 -9 30 -12 8 -3 15 -1 15
4 0 6 -8 13 -18 16 -10 3 -23 19 -29 36 -13 34 -38 42 -28 9 5 -15 3 -20 -6
-17 -8 3 -14 20 -15 41 -1 21 -12 53 -28 77 -14 22 -26 42 -26 45 0 4 -14 24
-32 46 -24 29 -29 42 -20 48 9 5 7 13 -9 27 -12 10 -25 29 -30 42 -5 12 -16
22 -26 22 -11 0 -14 -3 -7 -8 6 -4 13 -16 16 -27 3 -11 9 -28 13 -37 4 -11 3
-18 -3 -18 -6 0 -13 10 -17 23 -3 12 -10 31 -15 42 -4 11 -13 35 -20 53 -7 17
-29 50 -50 71 -25 26 -35 42 -28 49 6 6 6 12 -2 17 -7 4 -16 2 -20 -5 -5 -8
-15 -1 -31 22 -12 18 -29 37 -36 41 -7 4 -13 15 -13 22 0 8 -8 15 -18 15 -10
0 -29 12 -43 27 l-24 27 38 -22 c29 -17 37 -18 37 -7 0 17 -32 36 -75 45 -16
3 -30 10 -30 16 0 17 -69 97 -73 85 -2 -7 4 -18 14 -26 11 -7 16 -16 12 -20
-8 -8 -109 65 -103 75 2 4 -5 16 -17 26 -16 14 -22 16 -25 6 -4 -10 -8 -10
-19 -1 -19 16 -18 29 4 29 9 1 2 7 -17 16 -35 15 -61 13 -61 -5 0 -5 9 -11 21
-14 11 -3 23 -15 26 -26 3 -12 11 -21 19 -21 7 0 24 -22 36 -50 13 -27 29 -50
36 -50 6 0 12 -11 12 -24 0 -14 5 -28 10 -31 6 -4 7 -11 4 -17 -3 -5 10 -27
31 -48 21 -21 34 -43 30 -50 -4 -6 -1 -18 6 -26 16 -19 4 -30 -16 -14 -11 9
-15 9 -15 1 0 -6 8 -14 18 -18 9 -3 26 -13 36 -22 18 -15 19 -15 13 17 -4 17
-2 32 2 32 14 0 19 -23 10 -46 -13 -35 1 -165 22 -213 14 -32 16 -47 8 -52 -7
-4 -8 -16 -4 -29 5 -16 4 -21 -6 -18 -8 3 -17 24 -21 47 -4 24 -12 49 -17 55
-7 9 -7 16 0 23 6 6 6 19 -1 38 -6 16 -9 39 -5 52 4 18 -1 26 -26 38 -17 9
-28 19 -25 23 4 3 12 0 18 -6 22 -22 27 -12 10 18 -9 17 -24 32 -32 35 -17 6
-54 74 -45 83 3 4 10 0 15 -8 13 -21 12 -3 -1 21 -7 14 -16 18 -30 14 -10 -4
-19 -2 -19 4 0 6 -13 17 -30 26 -16 9 -30 20 -30 26 0 8 5 7 16 -1 12 -11 18
-10 35 6 19 20 19 21 1 42 -11 12 -24 22 -29 22 -18 0 -35 27 -23 35 7 4 1 12
-15 21 -35 18 -40 18 -25 -1 18 -22 4 -31 -25 -15 -22 12 -23 15 -10 30 12 13
12 19 2 30 -10 12 -9 12 6 1 9 -8 21 -11 25 -7 8 9 -26 36 -45 36 -7 0 -13 4
-13 9 0 5 -22 12 -50 16 -33 5 -50 12 -50 21 0 17 12 18 28 2 18 -18 25 -3 11
21 -9 14 -17 17 -25 10 -8 -6 -21 -4 -40 6 -16 8 -41 20 -56 25 -36 12 -38 35
-3 26 29 -7 34 10 6 19 -11 3 -37 5 -58 4 -22 -2 -45 1 -53 6 -10 6 -12 4 -7
-8 4 -10 10 -25 14 -34 3 -10 -16 5 -44 32 -32 33 -46 54 -41 62 5 7 4 14 -3
19 -6 4 -16 0 -21 -9 -7 -13 -14 -14 -34 -7 -14 6 -41 10 -61 10 -27 0 -34 3
-29 15 6 17 -29 21 -53 6 -7 -5 -25 -5 -40 -1 -22 6 -32 1 -63 -28 -41 -39
-59 -38 -33 1 14 22 14 25 0 31 -9 3 -14 2 -11 -3z m190 -36 c3 -8 15 -15 26
-15 11 0 20 -4 20 -10 0 -5 -9 -10 -20 -10 -11 0 -20 4 -20 9 0 5 -9 11 -20
14 -11 3 -20 10 -20 16 0 16 27 13 34 -4z m-84 -5 c0 -5 7 -7 15 -4 8 3 22 -2
32 -12 17 -17 17 -18 0 -11 -10 4 -35 7 -54 7 -30 0 -34 2 -23 15 14 17 30 20
30 5z m201 -41 c23 -11 39 -23 36 -26 -7 -7 -87 29 -87 39 0 12 7 10 51 -13z
m-211 1 c0 -5 -12 -10 -26 -10 -14 0 -23 4 -19 10 3 6 15 10 26 10 10 0 19 -4
19 -10z m162 -29 c11 -11 7 -12 -22 -6 -46 9 -60 23 -21 21 17 -1 36 -7 43
-15z m-54 -42 c64 -21 93 -37 123 -69 22 -22 37 -45 34 -50 -4 -6 3 -10 13
-10 24 0 75 -39 52 -40 -9 0 -20 4 -25 9 -12 11 -65 3 -65 -10 0 -5 6 -9 13
-9 7 0 22 -7 33 -16 18 -15 17 -15 -16 -10 -32 4 -33 4 -10 -6 79 -33 77 -31
54 -35 -12 -2 -48 5 -80 15 -79 26 -134 35 -134 23 0 -6 18 -15 41 -21 51 -14
180 -90 173 -102 -4 -5 2 -16 12 -23 22 -16 4 -20 -24 -6 -24 14 -163 65 -185
68 -26 4 -125 63 -107 63 9 0 33 -9 55 -20 44 -22 55 -24 55 -10 0 10 -68 42
-114 54 -23 6 -27 4 -23 -8 4 -9 3 -16 -2 -16 -5 0 -11 9 -14 20 -3 11 -16 24
-29 29 -22 8 -21 9 12 15 19 3 46 7 60 9 19 2 9 8 -40 24 l-65 22 60 -4 60 -4
-62 21 c-35 12 -63 28 -63 35 0 8 7 10 18 6 15 -6 15 -5 3 10 -7 9 -17 14 -22
11 -5 -3 -9 6 -9 20 0 20 -5 26 -22 26 -29 0 -16 11 24 19 53 11 127 1 216
-30z m489 -135 c-3 -4 -14 -3 -24 0 -15 6 -15 8 -3 16 16 10 39 -4 27 -16z
m28 -4 c3 -5 1 -10 -4 -10 -6 0 -11 5 -11 10 0 6 2 10 4 10 3 0 8 -4 11 -10z
m-709 -55 c17 -13 15 -13 -21 -4 -59 15 -63 17 -29 18 16 1 39 -6 50 -14z
m956 -50 c19 -22 24 -55 8 -55 -5 0 -10 6 -10 13 0 7 -17 33 -37 57 -36 42
-36 43 -8 24 17 -10 38 -28 47 -39z m-492 15 c0 -5 -2 -10 -4 -10 -3 0 -8 5
-11 10 -3 6 -1 10 4 10 6 0 11 -4 11 -10z m550 -21 c0 -5 -7 -6 -15 -3 -8 4
-15 13 -15 21 0 13 3 13 15 3 8 -7 15 -16 15 -21z m-165 -10 c4 -6 5 -13 2
-16 -8 -7 -47 7 -47 18 0 13 37 11 45 -2z m-331 -31 c-3 -4 -14 -3 -25 2 -11
6 -17 15 -14 20 4 6 14 5 25 -2 10 -7 16 -16 14 -20z m-601 -8 c42 -16 80 -30
85 -30 5 0 15 -7 22 -15 16 -19 3 -19 -30 0 -14 8 -33 14 -43 15 -23 0 -147
60 -125 60 9 0 50 -13 91 -30z m-339 -44 c-3 -9 -13 -16 -21 -16 -8 0 -11 -5
-8 -10 5 -8 11 -8 20 0 9 7 16 6 25 -5 7 -8 25 -15 41 -15 16 0 29 -5 29 -12
0 -8 3 -9 10 -2 14 14 82 3 87 -13 3 -9 -5 -11 -29 -7 -28 4 -30 3 -15 -6 10
-7 28 -10 39 -7 11 3 28 2 37 -3 48 -25 130 -50 147 -44 13 4 15 3 6 -3 -10
-8 -5 -16 22 -36 19 -15 42 -27 51 -27 9 0 13 -5 9 -11 -4 -8 1 -9 16 -4 15 5
20 4 16 -4 -6 -9 61 -51 83 -51 19 0 210 -128 211 -142 0 -3 -10 -4 -22 -1
-32 8 97 -94 150 -119 24 -11 46 -26 49 -34 8 -20 127 -139 147 -147 9 -4 16
-11 16 -17 0 -5 7 -10 15 -10 8 0 15 -5 15 -11 0 -5 4 -8 9 -5 14 9 61 -18 56
-32 -3 -8 2 -21 11 -29 11 -12 14 -27 10 -52 -3 -19 -1 -40 4 -46 9 -11 29
-127 30 -169 0 -10 -5 -16 -12 -13 -16 5 -15 -119 1 -198 49 -246 30 -432 -53
-517 -12 -12 -47 -54 -76 -93 -30 -38 -62 -79 -72 -90 -25 -27 -68 -94 -68
-105 0 -6 9 -10 20 -10 11 0 20 7 20 15 0 9 9 15 23 15 13 0 28 5 34 11 9 9
16 8 28 -5 21 -20 85 -22 85 -2 0 8 -8 17 -17 19 -17 4 -17 5 0 6 10 0 20 -6
23 -14 4 -8 10 -12 15 -9 5 3 9 -2 9 -12 0 -12 6 -15 21 -11 14 4 23 -1 29
-16 7 -17 9 -18 9 -5 1 10 7 15 14 12 15 -6 20 -93 5 -111 -8 -11 -7 -12 6 -7
9 3 16 11 17 18 1 6 2 26 4 44 1 18 5 36 9 39 6 6 11 -45 7 -81 0 -10 3 -24 8
-30 6 -7 5 -29 -2 -59 -8 -38 -8 -53 2 -69 10 -16 10 -23 -1 -35 -7 -9 -13
-48 -14 -97 -1 -44 -6 -102 -11 -128 -7 -33 -7 -48 0 -51 7 -2 4 -12 -6 -27
-9 -14 -14 -33 -11 -46 3 -12 1 -25 -5 -28 -6 -4 -11 -23 -11 -42 0 -26 -4
-34 -17 -34 -16 -1 -16 -2 2 -16 11 -9 15 -18 9 -20 -6 -3 -9 -17 -6 -33 4
-30 -25 -71 -50 -71 -9 0 -9 3 1 9 11 7 12 23 7 72 -7 57 -11 66 -52 105 -24
24 -53 46 -64 49 -11 3 -20 13 -20 21 0 8 -5 14 -12 14 -6 0 -25 10 -42 23
-17 13 -46 29 -63 36 -18 8 -33 17 -33 22 0 5 -29 38 -65 74 -36 35 -65 71
-65 81 0 9 -13 33 -28 53 -42 54 -45 60 -22 54 11 -3 20 -9 20 -13 0 -5 14
-13 30 -19 24 -8 30 -7 30 3 0 8 -7 16 -15 20 -8 3 -15 18 -16 33 0 24 -1 25
-9 8 -8 -19 -8 -19 -16 -1 -5 14 -1 24 16 38 l23 19 -34 -5 c-43 -6 -65 -11
-163 -36 -185 -47 -306 -17 -378 95 -29 45 -65 79 -141 136 -100 75 -131 108
-264 284 -83 111 -100 149 -113 251 -7 49 -18 134 -25 189 -15 115 -38 180
-76 212 -14 12 -32 36 -39 53 -11 27 -10 33 6 52 19 21 117 69 167 82 35 8 27
22 -22 37 -31 9 -45 8 -72 -3 -19 -9 -46 -20 -61 -26 -20 -8 -28 -19 -28 -37
0 -14 -4 -25 -10 -25 -11 0 -17 32 -31 185 -6 66 -13 123 -15 127 -2 3 -5 40
-5 82 -1 89 27 183 72 245 16 23 29 45 29 50 0 5 11 18 25 29 14 11 25 25 25
32 0 12 149 160 162 160 12 0 83 104 80 117 -3 13 8 17 40 14 9 -1 20 3 24 10
5 9 1 10 -14 7 -24 -7 -28 2 -10 20 15 15 41 -19 32 -42z m1432 18 c-5 -14 -9
-15 -19 -5 -9 9 -9 14 3 21 18 11 24 6 16 -16z m-890 1 c10 -8 15 -14 9 -14
-5 0 -19 6 -29 14 -11 8 -15 15 -10 15 6 0 19 -7 30 -15z m139 -5 c3 -5 -4 -6
-15 -3 -11 3 -22 9 -25 13 -3 5 4 6 15 3 11 -3 22 -9 25 -13z m850 -48 c-6 -6
-65 51 -65 62 0 6 16 -5 35 -24 19 -18 33 -36 30 -38z m-1368 32 c-3 -3 -12
-4 -19 -1 -8 3 -5 6 6 6 11 1 17 -2 13 -5z m-257 -24 c0 -5 -4 -10 -10 -10 -5
0 -10 5 -10 10 0 6 5 10 10 10 6 0 10 -4 10 -10z m380 -6 l35 -14 -35 6 c-40
7 -76 24 -50 23 8 0 31 -7 50 -15z m1200 6 c0 -5 -4 -10 -10 -10 -5 0 -10 5
-10 10 0 6 5 10 10 10 6 0 10 -4 10 -10z m-775 -10 c3 -5 2 -10 -4 -10 -5 0
-13 5 -16 10 -3 6 -2 10 4 10 5 0 13 -4 16 -10z m120 -20 c3 -5 -1 -10 -9 -10
-9 0 -16 5 -16 10 0 6 4 10 9 10 6 0 13 -4 16 -10z m745 0 c0 -5 -4 -10 -9
-10 -6 0 -13 5 -16 10 -3 6 1 10 9 10 9 0 16 -4 16 -10z m-1197 -7 c-7 -2 -19
-2 -25 0 -7 3 -2 5 12 5 14 0 19 -2 13 -5z m195 -40 c18 -9 31 -17 29 -20 -6
-5 -117 37 -117 44 0 8 49 -6 88 -24z m202 -23 c8 -5 11 -10 5 -10 -5 0 -17 5
-25 10 -8 5 -10 10 -5 10 6 0 17 -5 25 -10z m-2290 -10 c0 -5 -5 -10 -11 -10
-5 0 -7 5 -4 10 3 6 8 10 11 10 2 0 4 -4 4 -10z m1225 -10 c-3 -5 -12 -10 -18
-10 -7 0 -6 4 3 10 19 12 23 12 15 0z m1794 -28 c-12 -2 -26 2 -30 10 -16 24
-9 27 21 10 27 -16 28 -17 9 -20z m141 6 c0 -12 -6 -9 -26 13 -19 22 -19 22 4
8 12 -8 22 -17 22 -21z m-290 12 c0 -5 -7 -7 -15 -4 -8 4 -15 8 -15 10 0 2 7
4 15 4 8 0 15 -4 15 -10z m-620 -10 c8 -5 11 -10 5 -10 -5 0 -17 5 -25 10 -8
5 -10 10 -5 10 6 0 17 -5 25 -10z m213 -27 c15 -7 27 -16 27 -19 0 -2 -13 2
-30 11 -16 8 -36 15 -44 15 -8 0 -18 5 -22 11 -8 13 25 4 69 -18z m-348 -4
c15 -14 -7 -10 -35 7 l-25 15 25 -7 c14 -3 29 -10 35 -15z m1100 1 c10 -11 13
-20 7 -20 -7 0 -12 5 -12 10 0 6 -10 15 -22 20 -15 6 -17 9 -7 9 9 1 24 -8 34
-19z m-916 -12 c13 -4 22 -10 20 -13 -5 -5 -141 24 -148 31 -8 8 98 -6 128
-18z m771 3 c3 -1 -1 -5 -8 -10 -10 -6 -6 -14 18 -32 32 -24 63 -54 95 -91 12
-14 14 -23 6 -31 -11 -11 -45 22 -57 56 -4 12 -12 17 -25 14 -14 -4 -24 5 -40
33 -15 27 -30 40 -47 42 -46 5 -37 27 10 23 24 -1 45 -3 48 -4z m-715 -11 c3
-5 -1 -10 -9 -10 -9 0 -16 5 -16 10 0 6 4 10 9 10 6 0 13 -4 16 -10z m750 -10
c3 -5 2 -10 -4 -10 -5 0 -13 5 -16 10 -3 6 -2 10 4 10 5 0 13 -4 16 -10z
m-638 -86 c-3 -3 -12 -4 -19 -1 -8 3 -5 6 6 6 11 1 17 -2 13 -5z m639 -11 c-4
-10 2 -25 14 -38 16 -17 18 -25 9 -30 -7 -5 -15 -1 -21 8 -5 9 -15 14 -23 11
-20 -8 -19 15 1 44 18 26 29 29 20 5z m-3806 -63 c0 -5 -5 -10 -11 -10 -5 0
-7 5 -4 10 3 6 8 10 11 10 2 0 4 -4 4 -10z m1797 -7 c-9 -9 -20 -13 -24 -9 -4
4 -1 11 7 16 25 16 35 11 17 -7z m2129 -11 c-4 -12 3 -27 18 -41 14 -13 22
-29 20 -35 -3 -7 4 -21 16 -31 11 -10 20 -24 20 -32 0 -14 28 -63 42 -73 8 -6
28 -57 28 -71 0 -17 -21 -9 -45 17 -14 15 -22 30 -20 35 8 12 -28 89 -42 89
-7 0 -13 7 -13 16 0 9 -13 21 -30 27 -37 14 -39 27 -2 27 27 0 26 1 -20 45
l-47 45 40 0 c34 0 39 -3 35 -18z m-131 -2 c3 -5 1 -10 -4 -10 -6 0 -11 5 -11
10 0 6 2 10 4 10 3 0 8 -4 11 -10z m281 -18 c-4 -3 -14 2 -24 12 -16 18 -16
18 6 6 13 -6 21 -14 18 -18z m-204 -7 c16 -14 23 -25 16 -25 -8 0 -25 11 -38
25 -13 14 -20 25 -16 25 5 0 21 -11 38 -25z m-3846 0 c-26 -19 -42 -19 -26 0
7 8 20 15 29 15 13 -1 13 -3 -3 -15z m118 -7 c-3 -5 -12 -4 -20 3 -19 16 -18
18 6 12 11 -3 17 -9 14 -15z m3131 -26 c-3 -3 -11 0 -18 7 -9 10 -8 11 6 5 10
-3 15 -9 12 -12z m430 -3 c11 -17 -1 -21 -15 -4 -8 9 -8 15 -2 15 6 0 14 -5
17 -11z m160 2 c3 -5 1 -12 -5 -16 -5 -3 -10 1 -10 9 0 18 6 21 15 7z m250
-39 c-8 -8 -25 17 -25 38 0 9 6 6 16 -8 9 -13 13 -26 9 -30z m-3836 -8 c3 -16
1 -17 -13 -5 -19 16 -21 34 -3 29 6 -3 14 -13 16 -24z m3420 13 c6 -8 8 -17 5
-20 -8 -7 17 -107 27 -107 9 0 0 -41 -13 -56 -5 -7 -2 -26 7 -47 8 -20 15 -51
15 -69 0 -19 7 -44 16 -57 16 -22 15 -23 -2 -19 -22 4 -45 89 -48 173 -1 28
-5 56 -9 63 -5 6 -6 16 -3 21 4 5 1 22 -6 38 -12 30 -17 93 -7 93 4 0 12 -6
18 -13z m-3794 -17 c-3 -5 -11 -10 -16 -10 -6 0 -7 5 -4 10 3 6 11 10 16 10 6
0 7 -4 4 -10z m4023 -26 c-10 -10 -28 6 -28 24 0 15 1 15 17 -1 9 -9 14 -19
11 -23z m-3733 16 c3 -5 2 -10 -4 -10 -5 0 -13 5 -16 10 -3 6 -2 10 4 10 5 0
13 -4 16 -10z m3765 -49 c0 -10 6 -24 14 -31 14 -11 12 -40 -3 -40 -9 0 -31
51 -31 72 0 10 5 18 10 18 6 0 10 -8 10 -19z m-4410 -41 c0 -5 -4 -10 -10 -10
-5 0 -10 5 -10 10 0 6 5 10 10 10 6 0 10 -4 10 -10z m210 6 c0 -3 -4 -8 -10
-11 -5 -3 -10 -1 -10 4 0 6 5 11 10 11 6 0 10 -2 10 -4z m4415 -16 c3 -5 -1
-10 -9 -10 -8 0 -18 5 -21 10 -3 6 1 10 9 10 8 0 18 -4 21 -10z m-4670 -20 c3
-5 -3 -10 -15 -10 -12 0 -18 5 -15 10 3 6 10 10 15 10 5 0 12 -4 15 -10z m-75
-10 c0 -5 -2 -10 -4 -10 -3 0 -8 5 -11 10 -3 6 -1 10 4 10 6 0 11 -4 11 -10z
m4570 -21 c0 -6 -4 -7 -10 -4 -5 3 -10 11 -10 16 0 6 5 7 10 4 6 -3 10 -11 10
-16z m-4625 -19 c-3 -5 -13 -10 -21 -10 -8 0 -14 5 -14 10 0 6 9 10 21 10 11
0 17 -4 14 -10z m4719 -82 c-1 -24 2 -48 7 -54 6 -8 2 -13 -13 -17 -29 -8 -29
-7 -18 33 8 27 6 38 -8 54 -9 11 -11 16 -4 12 14 -9 17 10 2 19 -6 4 -8 11 -4
16 4 6 13 4 23 -5 12 -11 17 -29 15 -58z m-4704 41 c0 -9 -40 -16 -62 -11 -32
6 -19 17 22 17 22 1 40 -2 40 -6z m4625 -9 c3 -5 2 -10 -4 -10 -5 0 -13 5 -16
10 -3 6 -2 10 4 10 5 0 13 -4 16 -10z m-44 -27 c13 -16 12 -17 -3 -4 -10 7
-18 15 -18 17 0 8 8 3 21 -13z m-4656 -3 c-3 -5 -12 -10 -18 -10 -7 0 -6 4 3
10 19 12 23 12 15 0z m295 6 c0 -3 -4 -8 -10 -11 -5 -3 -10 -1 -10 4 0 6 5 11
10 11 6 0 10 -2 10 -4z m4520 -36 c0 -5 -2 -10 -4 -10 -3 0 -8 5 -11 10 -3 6
-1 10 4 10 6 0 11 -4 11 -10z m-3346 -65 c-7 -16 -24 -21 -24 -6 0 8 7 13 27
20 1 1 0 -6 -3 -14z m3311 -6 c11 -17 -1 -21 -15 -4 -8 9 -8 15 -2 15 6 0 14
-5 17 -11z m-4625 -60 c-12 -16 -25 -28 -27 -25 -8 8 25 56 38 56 6 0 1 -14
-11 -31z m4281 -6 c-10 -17 -10 -16 -11 3 0 23 13 41 18 25 2 -6 -1 -18 -7
-28z m169 22 c20 -24 6 -28 -15 -5 -10 11 -13 20 -8 20 6 0 16 -7 23 -15z
m-4865 -5 c-3 -5 -14 -10 -23 -10 -15 0 -15 2 -2 10 20 13 33 13 25 0z m5099
-6 c9 -24 7 -28 -9 -14 -17 14 -20 30 -6 30 5 0 12 -7 15 -16z m-13 -49 c10
-11 16 -21 15 -23 -4 -4 -76 66 -76 74 0 8 37 -22 61 -51z m-5026 15 c4 -6 -6
-10 -22 -10 -22 0 -25 2 -13 10 19 12 27 12 35 0z m4642 -58 c-14 -18 -15 -12
-9 28 5 33 6 33 12 10 4 -14 2 -31 -3 -38z m453 48 c0 -5 -4 -10 -10 -10 -5 0
-10 5 -10 10 0 6 5 10 10 10 6 0 10 -4 10 -10z m-3340 -20 c0 -5 -4 -10 -10
-10 -5 0 -10 5 -10 10 0 6 5 10 10 10 6 0 10 -4 10 -10z m3240 0 c0 -5 -2 -10
-4 -10 -3 0 -8 5 -11 10 -3 6 -1 10 4 10 6 0 11 -4 11 -10z m-5125 -40 c-3 -5
-11 -10 -16 -10 -6 0 -7 5 -4 10 3 6 11 10 16 10 6 0 7 -4 4 -10z m4800 1 c3
-5 1 -12 -5 -16 -5 -3 -10 1 -10 9 0 18 6 21 15 7z m215 -12 c0 -14 -17 -10
-23 5 -4 10 -1 13 9 9 7 -3 14 -9 14 -14z m-5070 1 c0 -5 -4 -10 -10 -10 -5 0
-10 5 -10 10 0 6 5 10 10 10 6 0 10 -4 10 -10z m405 -20 c-10 -11 -23 -20 -28
-20 -6 0 0 11 13 25 27 29 42 25 15 -5z m5105 -16 c0 -7 10 -20 22 -28 12 -9
18 -19 14 -23 -5 -5 -11 -2 -13 5 -3 6 -11 12 -18 12 -7 0 -18 14 -24 31 -14
41 -14 44 4 29 8 -7 15 -18 15 -26z m-5332 2 c-7 -8 -15 -12 -17 -11 -5 6 10
25 20 25 5 0 4 -6 -3 -14z m7 -45 c-3 -12 -10 -21 -15 -21 -4 0 -3 11 3 24 14
29 22 27 12 -3z m4905 19 c8 -5 11 -10 5 -10 -5 0 -17 5 -25 10 -8 5 -10 10
-5 10 6 0 17 -5 25 -10z m57 -82 c-7 -4 -1 -11 14 -17 17 -6 35 -29 53 -65 15
-31 31 -58 37 -61 5 -4 9 -14 9 -23 0 -9 14 -23 30 -30 17 -8 30 -18 30 -23 0
-5 -11 -2 -24 6 -13 9 -29 14 -36 13 -15 -4 -58 73 -69 122 -5 25 -12 34 -24
32 -9 -1 -21 8 -28 20 -6 13 -20 33 -31 45 -30 32 -12 45 21 14 18 -16 25 -29
18 -33z m168 53 c3 -5 1 -12 -5 -16 -5 -3 -10 1 -10 9 0 18 6 21 15 7z m145
-12 c0 -6 -4 -7 -10 -4 -5 3 -10 11 -10 16 0 6 5 7 10 4 6 -3 10 -11 10 -16z
m-5315 -18 c-3 -6 -11 -11 -17 -11 -6 0 -6 6 2 15 14 17 26 13 15 -4z m-261
-6 c-4 -8 -11 -15 -16 -15 -6 0 -5 6 2 15 7 8 14 15 16 15 2 0 1 -7 -2 -15z
m96 -4 c0 -5 -7 -12 -16 -15 -24 -9 -28 -7 -14 9 14 17 30 20 30 6z m293 -26
c-10 -13 -31 -29 -47 -35 -25 -9 -33 -7 -52 11 -13 12 -28 18 -36 14 -7 -3 -4
1 6 9 24 19 37 20 34 4 -5 -22 47 -20 73 1 33 28 44 26 22 -4z m4802 -15 c3
-5 2 -10 -4 -10 -5 0 -13 5 -16 10 -3 6 -2 10 4 10 5 0 13 -4 16 -10z m-5205
-16 c0 -8 -4 -12 -10 -9 -5 3 -10 10 -10 16 0 5 5 9 10 9 6 0 10 -7 10 -16z
m5300 -48 c0 -12 -43 18 -48 34 -3 8 5 6 21 -6 15 -10 27 -23 27 -28z m-5327
9 c-5 -13 -23 -22 -23 -11 0 15 14 35 21 31 4 -3 6 -12 2 -20z m67 11 c0 -3
-4 -8 -10 -11 -5 -3 -10 -1 -10 4 0 6 5 11 10 11 6 0 10 -2 10 -4z m5699 -34
c11 11 13 10 7 0 -4 -7 -2 -20 5 -28 6 -8 9 -17 6 -21 -4 -3 -16 6 -28 21 -11
14 -27 33 -35 40 -8 8 -14 18 -14 23 1 4 11 -4 23 -20 19 -22 25 -25 36 -15z
m-5514 18 c4 -7 13 -6 26 1 30 15 36 2 11 -21 -23 -22 -42 -26 -42 -10 0 6
-10 10 -21 10 -18 0 -19 2 -9 15 14 17 26 19 35 5z m95 -20 c-45 -39 -65 -38
-22 0 18 17 38 30 45 30 6 -1 -4 -14 -23 -30z m-380 -5 c11 -13 10 -14 -4 -9
-9 3 -16 10 -16 15 0 13 6 11 20 -6z m223 -11 c3 -3 3 -12 0 -19 -6 -17 -33
-8 -33 11 0 14 21 19 33 8z m54 -29 c0 -8 -4 -12 -9 -9 -4 3 -8 0 -8 -7 0 -7
-2 -10 -5 -7 -7 7 5 38 14 38 4 0 8 -7 8 -15z m-176 -47 c16 -20 18 -20 19 -5
0 20 20 24 20 3 0 -13 -28 -43 -33 -35 -37 52 -42 79 -6 37z m139 17 c0 -6
-63 -64 -70 -65 -3 0 -5 11 -5 25 0 18 4 23 16 20 10 -3 19 1 23 10 5 14 36
22 36 10z m-310 -15 c0 -5 -4 -10 -10 -10 -5 0 -10 5 -10 10 0 6 5 10 10 10 6
0 10 -4 10 -10z m1930 0 c0 -5 -5 -10 -11 -10 -5 0 -7 5 -4 10 3 6 8 10 11 10
2 0 4 -4 4 -10z m-1832 -27 c6 -19 -25 -16 -32 3 -4 11 -1 14 11 12 9 -2 18
-9 21 -15z m5467 -29 c37 -49 24 -55 -20 -9 -39 42 -41 45 -21 45 7 0 26 -16
41 -36z m-5348 0 c3 -11 -52 -49 -87 -59 -22 -7 -22 -6 -9 8 9 8 24 16 35 18
10 2 23 14 29 27 10 22 26 25 32 6z m1674 -13 c-6 -10 -17 -23 -25 -31 -21
-17 -21 3 0 35 18 28 40 24 25 -4z m1156 -18 c-3 -10 -5 -4 -5 12 0 17 2 24 5
18 2 -7 2 -21 0 -30z m-2917 17 c0 -5 -12 -10 -27 -9 -25 0 -26 1 -8 9 27 12
35 12 35 0z m5407 -15 c8 -9 13 -18 11 -21 -3 -2 -13 5 -23 16 -21 23 -11 27
12 5z m-5464 -45 c-3 -11 -9 -20 -14 -20 -10 0 -12 24 -2 33 13 13 21 7 16
-13z m5471 -16 c23 -50 14 -53 -18 -4 -17 27 -22 40 -13 40 7 0 21 -16 31 -36z
m46 16 c0 -5 -2 -10 -4 -10 -3 0 -8 5 -11 10 -3 6 -1 10 4 10 6 0 11 -4 11
-10z m-2530 -15 c0 -8 -4 -15 -10 -15 -5 0 -10 7 -10 15 0 8 5 15 10 15 6 0
10 -7 10 -15z m2570 5 c0 -5 -4 -10 -10 -10 -5 0 -10 5 -10 10 0 6 5 10 10 10
6 0 10 -4 10 -10z m-5490 -9 c0 -5 -7 -12 -16 -15 -14 -5 -15 -4 -4 9 14 17
20 19 20 6z m1650 -11 c0 -5 -4 -10 -10 -10 -5 0 -10 5 -10 10 0 6 5 10 10 10
6 0 10 -4 10 -10z m3882 2 c2 -4 19 -18 38 -31 19 -12 26 -20 15 -16 -11 4
-45 12 -75 17 -30 5 -59 14 -65 20 -7 8 -5 9 7 5 10 -4 28 -2 40 3 29 11 36
12 40 2z m-5572 -32 c0 -4 -11 -7 -25 -6 -24 1 -31 7 -19 18 7 8 44 -2 44 -12z
m27 -42 c-3 -8 -6 -5 -6 6 -1 11 2 17 5 13 3 -3 4 -12 1 -19z m2927 -64 c3
-45 10 -94 16 -110 8 -20 8 -30 1 -32 -6 -2 -11 -30 -11 -62 0 -33 -6 -79 -14
-102 -8 -24 -16 -65 -19 -93 -6 -56 -27 -116 -34 -98 -3 7 0 27 6 45 6 18 13
64 15 101 2 37 10 74 16 82 8 10 11 63 10 167 -2 178 -2 193 5 187 2 -3 7 -41
9 -85z m2586 76 c0 -5 -4 -10 -9 -10 -6 0 -13 5 -16 10 -3 6 1 10 9 10 9 0 16
-4 16 -10z m82 -35 c27 -33 58 -91 58 -109 0 -6 8 -19 18 -28 27 -26 42 -46
42 -57 0 -6 9 -15 20 -21 30 -16 25 -32 -7 -24 -36 9 -72 32 -100 64 -30 34
-20 38 17 6 31 -26 50 -33 50 -19 0 4 -21 28 -47 53 -34 32 -48 53 -50 75 0
16 -6 31 -12 33 -6 2 -11 9 -11 17 0 7 -7 18 -15 25 -8 7 -15 17 -15 22 0 14
25 -4 52 -37z m-91 -2 c13 -15 12 -15 -8 -4 -24 12 -29 21 -14 21 5 0 15 -7
22 -17z m34 7 c3 -5 1 -10 -4 -10 -6 0 -11 5 -11 10 0 6 2 10 4 10 3 0 8 -4
11 -10z m392 -20 c1 -17 0 -30 -3 -30 -7 0 -22 44 -17 53 9 16 18 6 20 -23z
m-6167 6 c0 -16 -19 -25 -37 -19 -19 7 -16 21 5 26 29 8 32 7 32 -7z m40 4 c0
-5 -4 -10 -10 -10 -5 0 -10 5 -10 10 0 6 5 10 10 10 6 0 10 -4 10 -10z m5870
-12 c0 -5 -9 -4 -20 2 -11 6 -20 12 -20 14 0 2 9 2 20 -1 11 -3 20 -9 20 -15z
m-215 2 c3 -5 1 -10 -4 -10 -6 0 -11 5 -11 10 0 6 2 10 4 10 3 0 8 -4 11 -10z
m-5625 -12 c0 -7 -4 -19 -9 -27 -8 -12 -12 -12 -25 -2 -20 17 -20 31 0 31 8 0
12 -4 9 -10 -3 -5 -1 -10 4 -10 6 0 11 7 11 15 0 8 2 15 5 15 3 0 5 -6 5 -12z
m5740 -20 c0 -13 -23 -5 -28 10 -2 7 2 10 12 6 9 -3 16 -11 16 -16z m-80 2 c0
-5 -4 -10 -10 -10 -5 0 -10 5 -10 10 0 6 5 10 10 10 6 0 10 -4 10 -10z m60
-30 c0 -5 -5 -10 -11 -10 -5 0 -7 5 -4 10 3 6 8 10 11 10 2 0 4 -4 4 -10z
m390 0 c0 -5 -2 -10 -4 -10 -3 0 -8 5 -11 10 -3 6 -1 10 4 10 6 0 11 -4 11
-10z m-6187 -19 c3 -14 1 -18 -9 -14 -15 6 -18 16 -7 26 9 10 10 9 16 -12z
m5957 -22 c0 -6 -4 -7 -10 -4 -5 3 -10 11 -10 16 0 6 5 7 10 4 6 -3 10 -11 10
-16z m-5981 -35 c6 4 11 0 11 -8 0 -20 -36 -21 -43 -2 -7 18 4 30 14 15 4 -6
12 -8 18 -5z m5859 -23 c3 -8 -1 -12 -9 -9 -7 2 -15 10 -17 17 -3 8 1 12 9 9
7 -2 15 -10 17 -17z m172 0 c0 -6 -4 -13 -10 -16 -5 -3 -10 1 -10 9 0 9 5 16
10 16 6 0 10 -4 10 -9z m69 -39 c1 -7 -3 -10 -9 -7 -5 3 -10 18 -9 33 0 24 1
25 9 7 5 -11 9 -26 9 -33z m-6091 16 c-6 -18 -25 -20 -31 -3 -5 10 0 15 14 15
12 0 19 -5 17 -12z m3109 -10 c-3 -8 -6 -5 -6 6 -1 11 2 17 5 13 3 -3 4 -12 1
-19z m2770 -4 c-9 -9 -28 6 -21 18 4 6 10 6 17 -1 6 -6 8 -13 4 -17z m308 -12
c-7 -8 -35 7 -35 18 0 6 7 6 20 -2 10 -7 17 -14 15 -16z m-123 -9 c10 -9 18
-23 18 -31 0 -10 -7 -7 -25 9 -37 36 -31 57 7 22z m73 -3 c3 -5 -1 -10 -10
-10 -9 0 -13 5 -10 10 3 6 8 10 10 10 2 0 7 -4 10 -10z m-6171 -17 c3 -10 8
-22 11 -28 3 -5 -6 -10 -20 -10 -17 0 -24 4 -20 13 3 8 5 20 5 28 0 20 16 17
24 -3z m5956 -13 c0 -5 -4 -10 -10 -10 -5 0 -10 5 -10 10 0 6 5 10 10 10 6 0
10 -4 10 -10z m95 -10 c3 -5 2 -10 -4 -10 -5 0 -13 5 -16 10 -3 6 -2 10 4 10
5 0 13 -4 16 -10z m130 -11 c11 -17 -1 -21 -15 -4 -8 9 -8 15 -2 15 6 0 14 -5
17 -11z m62 -11 c-3 -8 -6 -5 -6 6 -1 11 2 17 5 13 3 -3 4 -12 1 -19z m-4560
-10 c-3 -8 -6 -5 -6 6 -1 11 2 17 5 13 3 -3 4 -12 1 -19z m1473 -85 c-14 -110
-34 -147 -25 -49 3 38 9 74 13 80 3 6 5 21 3 33 -1 13 1 28 5 35 15 23 16 -11
4 -99z m-3200 90 c-1 -11 -26 -43 -34 -43 -10 0 -7 20 7 35 13 16 27 19 27 8z
m6040 -23 c6 -11 7 -20 2 -20 -5 0 -17 9 -27 20 -16 18 -16 20 -2 20 9 0 21
-9 27 -20z m85 0 c3 -5 -1 -10 -10 -10 -9 0 -13 5 -10 10 3 6 8 10 10 10 2 0
7 -4 10 -10z m125 -11 c0 -5 -4 -9 -10 -9 -5 0 -10 7 -10 16 0 8 5 12 10 9 6
-3 10 -10 10 -16z m50 11 c0 -5 -2 -10 -4 -10 -3 0 -8 5 -11 10 -3 6 -1 10 4
10 6 0 11 -4 11 -10z m-2933 -52 c-3 -8 -6 -5 -6 6 -1 11 2 17 5 13 3 -3 4
-12 1 -19z m-3374 -8 c-6 -24 -23 -37 -23 -18 0 12 18 38 26 38 1 0 0 -9 -3
-20z m6012 0 c3 -5 1 -10 -4 -10 -6 0 -11 5 -11 10 0 6 2 10 4 10 3 0 8 -4 11
-10z m-4305 -10 c0 -5 -4 -10 -10 -10 -5 0 -10 5 -10 10 0 6 5 10 10 10 6 0
10 -4 10 -10z m1676 -77 c9 -150 8 -293 -1 -290 -14 5 -17 33 -20 210 -1 103
1 155 8 148 5 -5 11 -36 13 -68z m1664 37 c0 -5 -4 -10 -10 -10 -5 0 -10 5
-10 10 0 6 5 10 10 10 6 0 10 -4 10 -10z m64 -5 c-4 -8 -8 -15 -10 -15 -2 0
-4 7 -4 15 0 8 4 15 10 15 5 0 7 -7 4 -15z m1036 -34 c0 -10 -8 -7 -25 9 -14
13 -25 27 -25 32 0 15 49 -26 50 -41z m290 39 c0 -5 -2 -10 -4 -10 -3 0 -8 5
-11 10 -3 6 -1 10 4 10 6 0 11 -4 11 -10z m-95 -10 c3 -5 1 -10 -4 -10 -6 0
-11 5 -11 10 0 6 2 10 4 10 3 0 8 -4 11 -10z m-6285 -10 c0 -5 -4 -10 -10 -10
-5 0 -10 5 -10 10 0 6 5 10 10 10 6 0 10 -4 10 -10z m3266 -72 c0 -35 3 -91 7
-125 5 -40 4 -70 -3 -83 -9 -16 -8 -20 5 -20 8 0 15 -7 15 -15 0 -8 -4 -15
-10 -15 -5 0 -10 -10 -10 -22 l0 -22 -15 21 c-21 29 -32 242 -16 301 17 60 29
52 27 -20z m3174 42 c0 -5 -9 -9 -20 -7 -31 5 -36 17 -7 17 15 0 27 -4 27 -10z
m-4800 -44 c0 -3 -4 -8 -10 -11 -5 -3 -10 -1 -10 4 0 6 5 11 10 11 6 0 10 -2
10 -4z m-1610 -10 c0 -3 -4 -8 -10 -11 -5 -3 -10 -1 -10 4 0 6 5 11 10 11 6 0
10 -2 10 -4z m6390 -27 c0 -14 -17 -10 -23 5 -4 10 -1 13 9 9 7 -3 14 -9 14
-14z m-300 -9 c0 -5 -4 -10 -10 -10 -5 0 -10 5 -10 10 0 6 5 10 10 10 6 0 10
-4 10 -10z m312 -55 c11 -14 30 -25 44 -25 13 0 24 -4 24 -10 0 -19 -46 -10
-73 15 -25 24 -35 45 -21 45 3 0 15 -11 26 -25z m-6458 -10 c-4 -8 -10 -15
-15 -15 -5 0 -9 7 -9 15 0 8 7 15 15 15 9 0 12 -6 9 -15z m6244 -46 c-2 -20
-5 -18 -15 15 -11 36 -11 38 3 24 9 -8 14 -26 12 -39z m312 -9 c0 -13 -1 -13
-10 0 -5 8 -10 22 -10 30 0 13 1 13 10 0 5 -8 10 -22 10 -30z m-2038 8 c-7 -7
-12 -8 -12 -2 0 14 12 26 19 19 2 -3 -1 -11 -7 -17z m1792 -64 c9 -8 16 -23
16 -32 0 -13 -5 -11 -20 8 -29 37 -26 55 4 24z m-4577 -51 c-11 -10 -26 8 -20
23 5 15 7 14 15 -1 6 -9 7 -19 5 -22z m63 27 c0 -5 -2 -10 -4 -10 -3 0 -8 5
-11 10 -3 6 -1 10 4 10 6 0 11 -4 11 -10z m1580 -36 c0 -13 5 -24 10 -24 6 0
10 -11 10 -24 0 -14 -4 -28 -10 -31 -5 -3 -10 -18 -11 -33 0 -24 -1 -25 -8 -7
-5 11 -4 30 0 43 6 14 5 31 -1 42 -13 24 -13 73 0 65 6 -3 10 -17 10 -31z
m-1360 -18 c0 -6 -7 -2 -15 8 -8 11 -15 25 -15 30 0 6 7 2 15 -8 8 -11 15 -25
15 -30z m4366 8 c15 -4 21 -13 20 -30 -1 -25 -16 -34 -16 -10 0 7 -10 21 -22
29 -24 17 -17 21 18 11z m-3082 -63 c-9 -10 -36 28 -29 39 6 9 12 6 21 -11 7
-13 10 -26 8 -28z m43 -55 c-10 -138 -19 -206 -30 -213 -10 -6 -4 188 9 268
12 71 27 30 21 -55z m-3322 25 c-12 -12 -26 19 -19 40 7 24 7 24 15 -5 5 -17
6 -32 4 -35z m6475 -6 c0 -8 5 -15 11 -15 5 0 7 -5 3 -12 -5 -7 -11 -5 -21 7
-16 22 -17 35 -3 35 6 0 10 -7 10 -15z m-3360 -16 c0 -6 -4 -7 -10 -4 -5 3
-10 11 -10 16 0 6 5 7 10 4 6 -3 10 -11 10 -16z m-1008 -26 c27 -24 22 -36 -7
-17 -14 9 -25 20 -25 25 0 14 11 11 32 -8z m306 -5 c14 -14 16 -28 2 -28 -5 0
-14 9 -20 20 -12 22 -1 27 18 8z m-78 -8 c0 -5 -7 -10 -16 -10 -8 0 -12 5 -9
10 3 6 10 10 16 10 5 0 9 -4 9 -10z m4165 -10 c3 -5 1 -10 -4 -10 -6 0 -11 5
-11 10 0 6 2 10 4 10 3 0 8 -4 11 -10z m-3975 -42 c0 -6 -9 -22 -21 -36 l-21
-27 3 25 c2 14 0 31 -5 38 -4 7 -5 20 -2 29 6 14 9 14 26 -2 11 -10 20 -22 20
-27z m-150 2 c29 -30 38 -50 23 -50 -5 0 -17 14 -28 30 -11 16 -23 30 -27 30
-5 0 -8 5 -8 10 0 16 9 12 40 -20z m304 12 c3 -5 -8 -6 -25 -4 -16 2 -29 6
-29 8 0 8 49 4 54 -4z m-514 -12 c0 -5 -7 -10 -15 -10 -8 0 -15 5 -15 10 0 6
7 10 15 10 8 0 15 -4 15 -10z m200 -40 c0 -5 -4 -10 -10 -10 -5 0 -10 5 -10
10 0 6 5 10 10 10 6 0 10 -4 10 -10z m4298 -46 c17 -5 15 -24 -3 -24 -20 0
-65 22 -65 32 0 7 30 4 68 -8z m-4163 -14 c3 -5 1 -10 -4 -10 -6 0 -11 5 -11
10 0 6 2 10 4 10 3 0 8 -4 11 -10z m2380 -70 c3 -5 1 -10 -4 -10 -6 0 -11 5
-11 10 0 6 2 10 4 10 3 0 8 -4 11 -10z m-4782 -65 c-3 -9 -8 -14 -10 -11 -3 3
-2 9 2 15 9 16 15 13 8 -4z m4778 -22 c36 -32 55 -63 39 -63 -5 0 -10 6 -10
13 0 8 -10 19 -23 26 -21 11 -54 51 -42 51 3 0 19 -12 36 -27z m1869 -13 c0
-5 -4 -10 -10 -10 -5 0 -10 5 -10 10 0 6 5 10 10 10 6 0 10 -4 10 -10z m-145
-40 c3 -5 1 -10 -4 -10 -6 0 -11 5 -11 10 0 6 2 10 4 10 3 0 8 -4 11 -10z
m335 -34 c0 -2 -16 -6 -35 -8 -19 -2 -35 0 -35 4 0 4 16 8 35 8 19 0 35 -2 35
-4z m-27 -33 c-7 -2 -19 -2 -25 0 -7 3 -2 5 12 5 14 0 19 -2 13 -5z m7 -47 c0
-3 -4 -8 -10 -11 -5 -3 -10 -1 -10 4 0 6 5 11 10 11 6 0 10 -2 10 -4z m-6720
-50 c0 -3 -4 -8 -10 -11 -5 -3 -10 -1 -10 4 0 6 5 11 10 11 6 0 10 -2 10 -4z
m6835 -16 c14 0 16 -3 8 -11 -7 -7 -17 -8 -29 -1 -11 5 -25 7 -31 5 -7 -3 -13
1 -13 7 0 8 8 10 23 6 12 -3 31 -6 42 -6z m191 -35 c10 -8 14 -15 7 -15 -19 0
-43 11 -43 21 0 13 14 11 36 -6z m-2552 -132 c9 -60 16 -128 16 -153 0 -25 5
-63 11 -85 14 -53 18 -125 7 -131 -4 -3 -8 13 -8 35 0 22 -5 52 -11 68 -6 15
-12 52 -14 82 -2 30 -8 84 -14 120 -15 98 -20 171 -12 171 5 0 16 -48 25 -107z
m2486 91 c0 -8 -5 -12 -10 -9 -6 4 -8 11 -5 16 9 14 15 11 15 -7z m-6960 -19
c0 -8 -4 -15 -10 -15 -5 0 -10 7 -10 15 0 8 5 15 10 15 6 0 10 -7 10 -15z
m7030 -5 c0 -5 -2 -10 -4 -10 -3 0 -8 5 -11 10 -3 6 -1 10 4 10 6 0 11 -4 11
-10z m40 -4 c0 -3 -4 -8 -10 -11 -5 -3 -10 -1 -10 4 0 6 5 11 10 11 6 0 10 -2
10 -4z m5 -76 c3 -5 1 -10 -4 -10 -6 0 -11 5 -11 10 0 6 2 10 4 10 3 0 8 -4
11 -10z m55 6 c0 -3 -4 -8 -10 -11 -5 -3 -10 -1 -10 4 0 6 5 11 10 11 6 0 10
-2 10 -4z m20 -36 c0 -13 -20 -13 -40 0 -12 8 -9 10 13 10 15 0 27 -4 27 -10z
m-2877 -84 c6 -86 -8 -66 -18 24 -5 42 -4 62 3 55 5 -5 12 -41 15 -79z m54 27
c-3 -10 -5 -2 -5 17 0 19 2 27 5 18 2 -10 2 -26 0 -35z m-4277 2 c0 -5 -5 -3
-10 5 -5 8 -10 20 -10 25 0 6 5 3 10 -5 5 -8 10 -19 10 -25z m4090 -5 c0 -5
-5 -10 -11 -10 -5 0 -7 5 -4 10 3 6 8 10 11 10 2 0 4 -4 4 -10z m-683 -162 c3
-17 1 -28 -6 -28 -6 0 -11 10 -11 23 0 12 -9 46 -20 75 -11 29 -20 62 -20 75
0 23 49 -99 57 -145z m992 135 c0 -25 -1 -26 -9 -8 -12 27 -12 35 0 35 6 0 10
-12 9 -27z m2721 -8 c0 -5 -5 -3 -10 5 -5 8 -10 20 -10 25 0 6 5 3 10 -5 5 -8
10 -19 10 -25z m-3065 -54 c-15 -28 -40 -91 -56 -139 -17 -47 -35 -94 -39
-102 -17 -29 2 64 21 106 10 22 19 44 19 48 0 24 64 156 72 148 5 -5 -1 -29
-17 -61z m247 12 c7 -9 7 -13 -1 -13 -14 0 -31 41 -23 55 4 6 8 1 10 -10 2
-11 9 -26 14 -32z m165 -15 c-3 -7 -5 -2 -5 12 0 14 2 19 5 13 2 -7 2 -19 0
-25z m-84 -88 c14 -52 29 -117 32 -145 3 -27 8 -60 11 -72 2 -13 0 -23 -4 -23
-8 0 -30 90 -52 210 -5 25 -13 58 -19 73 -13 33 -15 75 -3 62 5 -6 20 -53 35
-105z m-840 48 c-3 -16 -10 -28 -15 -28 -6 0 -7 7 -4 16 3 9 6 28 6 42 1 20 3
23 9 12 5 -8 7 -27 4 -42z m3815 41 c-2 -3 3 -14 11 -23 12 -15 12 -19 -1 -33
-14 -14 -17 -13 -23 8 -4 13 -13 27 -19 32 -8 5 -6 10 4 17 15 10 34 9 28 -1z
m-3721 -31 c-3 -8 -6 -5 -6 6 -1 11 2 17 5 13 3 -3 4 -12 1 -19z m3627 -10
c-6 -10 -44 9 -44 21 0 5 11 4 24 -2 13 -7 22 -15 20 -19z m-2920 -121 c41
-89 74 -293 58 -352 -8 -27 -9 -23 -16 33 -4 35 -18 96 -32 135 -13 40 -24 80
-24 89 0 9 -6 21 -14 25 -16 9 -46 77 -45 102 0 9 9 -3 19 -25 19 -44 47 -72
37 -38 -37 124 -38 133 -25 156 11 21 13 19 20 -35 4 -32 14 -72 22 -90z
m-117 86 c-3 -10 -5 -2 -5 17 0 19 2 27 5 18 2 -10 2 -26 0 -35z m-507 29 c0
-5 -9 -17 -20 -27 -11 -10 -20 -24 -20 -32 0 -7 -9 -22 -20 -33 -12 -12 -18
-25 -15 -30 11 -19 21 -10 39 35 19 46 43 64 30 23 -21 -71 -52 -101 -79 -78
-8 7 -16 9 -16 4 -1 -5 -2 -15 -3 -21 0 -7 -4 -13 -8 -13 -33 0 -38 2 -38 14
0 8 29 43 65 79 36 36 65 70 65 76 0 6 5 11 10 11 6 0 10 -4 10 -8z m-182 -44
c-9 -7 -19 -24 -21 -38 -4 -22 -4 -21 -6 6 -1 34 5 44 28 44 13 0 13 -2 -1
-12z m-3472 -10 c11 -18 12 -48 2 -54 -4 -3 -8 6 -8 20 0 14 -4 26 -10 26 -5
0 -10 5 -10 10 0 14 17 12 26 -2z m7277 -32 c31 -16 57 -32 57 -37 0 -5 -3 -9
-6 -9 -9 0 -66 32 -86 48 -9 8 -22 11 -27 7 -6 -3 -11 1 -11 10 0 9 3 15 8 13
4 -2 33 -17 65 -32z m-3562 -9 c-10 -9 -11 -8 -5 6 3 10 9 15 12 12 3 -3 0
-11 -7 -18z m452 -18 c-8 -29 -13 -23 -13 14 0 22 3 28 9 18 5 -7 6 -22 4 -32z
m-804 -9 c0 -10 -3 -8 -9 5 -12 27 -12 43 0 25 5 -8 9 -22 9 -30z m-3338 -37
c-9 -16 -10 -14 -11 12 0 21 3 26 11 18 8 -8 8 -16 0 -30z m3622 0 c-10 -66
-26 -123 -33 -123 -10 0 -1 67 12 94 7 14 7 17 -3 14 -7 -2 -19 -26 -25 -52
-17 -65 -23 -67 -21 -9 2 42 7 54 32 76 38 33 43 33 38 0z m-173 -6 c0 -15
-50 -90 -56 -85 -2 3 5 23 16 46 11 22 20 46 20 52 0 6 5 8 10 5 6 -3 10 -12
10 -18z m-100 -2 c0 -8 -4 -15 -10 -15 -5 0 -10 7 -10 15 0 8 5 15 10 15 6 0
10 -7 10 -15z m803 -6 c3 -12 0 -22 -9 -26 -8 -3 -14 -19 -14 -37 0 -44 18
-99 80 -251 5 -11 11 -27 14 -35 4 -8 4 7 1 34 -3 27 -9 54 -14 60 -14 19 -53
136 -45 136 3 0 17 -26 30 -57 71 -160 103 -342 77 -440 -6 -24 -7 -40 -2 -37
13 8 10 -45 -5 -85 -9 -25 -15 -31 -20 -22 -5 8 -4 16 3 20 6 4 9 14 6 22 -3
8 -9 41 -14 74 -14 90 -35 156 -78 242 -21 43 -38 80 -38 83 0 3 -10 19 -21
35 -12 17 -20 38 -18 48 4 27 14 34 14 11 0 -24 68 -154 81 -154 5 0 9 1 9 3
0 14 -73 203 -79 205 -11 4 -2 134 10 147 5 5 9 17 9 27 0 25 16 23 23 -3z
m-668 -9 c3 -5 -1 -10 -9 -10 -9 0 -16 5 -16 10 0 6 4 10 9 10 6 0 13 -4 16
-10z m-121 -47 c-4 -15 -2 -28 6 -33 10 -6 9 -12 -1 -31 -14 -27 -16 -24 -22
48 -3 40 -1 50 9 46 9 -3 12 -14 8 -30z m110 6 c-6 -11 -24 -2 -24 11 0 5 7 7
15 4 8 -4 12 -10 9 -15z m249 -4 c-3 -9 -8 -14 -10 -11 -3 3 -2 9 2 15 9 16
15 13 8 -4z m3590 -22 l17 -38 -25 30 c-26 31 -31 45 -17 45 5 0 16 -17 25
-37z m-68 -13 c3 -5 1 -10 -4 -10 -6 0 -11 5 -11 10 0 6 2 10 4 10 3 0 8 -4
11 -10z m-3751 -46 c-1 -25 -4 -47 -7 -50 -9 -9 -19 54 -12 76 11 35 21 22 19
-26z m-164 7 c0 -8 -23 -29 -101 -96 -13 -11 -37 -35 -52 -54 -15 -18 -31 -31
-34 -27 -7 7 165 183 180 185 4 1 7 -3 7 -8z m257 -43 c-2 -13 -4 -5 -4 17 -1
22 1 32 4 23 2 -10 2 -28 0 -40z m3753 32 c0 -5 -2 -10 -4 -10 -3 0 -8 5 -11
10 -3 6 -1 10 4 10 6 0 11 -4 11 -10z m-7255 -40 c3 -5 1 -10 -4 -10 -6 0 -11
5 -11 10 0 6 2 10 4 10 3 0 8 -4 11 -10z m2740 -30 c1 -22 -3 -40 -7 -40 -4 0
-8 18 -8 40 0 22 3 40 8 40 4 0 7 -18 7 -40z m4505 26 c0 -8 -4 -18 -10 -21
-5 -3 -10 3 -10 14 0 12 5 21 10 21 6 0 10 -6 10 -14z m-7225 -55 c3 -5 1 -12
-5 -16 -5 -3 -10 1 -10 9 0 18 6 21 15 7z m7225 -65 c0 -28 -17 -8 -25 29 -7
29 -7 29 8 10 9 -11 17 -29 17 -39z m57 8 c-7 -7 -37 7 -37 18 0 5 4 7 9 3 5
-3 13 0 18 7 5 10 8 8 11 -5 2 -10 2 -21 -1 -23z m-4552 7 c3 -5 1 -12 -5 -16
-5 -3 -10 1 -10 9 0 18 6 21 15 7z m-2589 -47 c-8 -8 -25 -14 -38 -14 -22 0
-21 1 7 19 33 20 53 18 31 -5z m3818 -4 c111 -202 118 -221 120 -313 0 -49 -1
-90 -4 -92 -3 -2 -7 8 -8 22 -3 42 -34 135 -58 173 -11 19 -27 53 -34 75 -7
22 -17 45 -22 52 -5 7 -7 21 -3 33 7 21 -10 29 -18 8 -11 -31 -14 1 -4 34 12
39 14 40 31 8z m-3844 -79 c0 -21 -3 -23 -32 -17 -37 7 -49 17 -29 24 7 2 20
13 29 23 19 21 32 9 32 -30z m3919 9 c0 -10 -3 -8 -9 5 -12 27 -12 43 0 25 5
-8 9 -22 9 -30z m3181 30 c0 -5 -2 -10 -4 -10 -3 0 -8 5 -11 10 -3 6 -1 10 4
10 6 0 11 -4 11 -10z m110 0 c0 -5 -4 -10 -10 -10 -5 0 -10 5 -10 10 0 6 5 10
10 10 6 0 10 -4 10 -10z m-5 -30 c3 -5 1 -10 -4 -10 -6 0 -11 5 -11 10 0 6 2
10 4 10 3 0 8 -4 11 -10z m-4364 -18 c-13 -24 -50 -56 -57 -49 -3 3 9 19 28
36 39 36 42 37 29 13z m959 -6 c0 -8 -4 -18 -10 -21 -5 -3 -10 3 -10 14 0 12
5 21 10 21 6 0 10 -6 10 -14z m3468 -17 c-3 -8 -7 -3 -11 10 -4 17 -3 21 5 13
5 -5 8 -16 6 -23z m54 -42 c1 -24 6 -37 15 -37 7 0 13 -7 13 -15 0 -8 -9 -15
-20 -15 -11 0 -20 6 -20 13 0 6 -7 24 -14 39 -9 16 -11 30 -5 33 5 4 5 13 -1
25 -16 30 -12 36 10 14 12 -12 21 -35 22 -57z m-3983 -29 c-1 -71 -2 -78 -10
-48 -16 58 -15 130 1 130 6 0 10 -33 9 -82z m619 32 c6 -16 9 -30 7 -30 -5 0
-35 56 -35 65 0 15 19 -8 28 -35z m-115 -82 c29 -40 35 -57 13 -39 -8 6 -20
10 -27 9 -8 -2 -15 8 -17 22 -2 14 -16 41 -32 61 -16 20 -27 39 -24 42 6 6 40
-32 87 -95z m-9 85 c3 -10 17 -36 30 -58 39 -62 31 -62 -20 -1 -25 31 -42 61
-39 66 9 15 22 12 29 -7z m3326 -44 c0 -6 -4 -7 -10 -4 -5 3 -10 11 -10 16 0
6 5 7 10 4 6 -3 10 -11 10 -16z m-4687 -19 c3 -11 1 -20 -4 -20 -5 0 -9 2 -9
4 0 2 -3 11 -6 20 -3 9 -2 16 4 16 5 0 12 -9 15 -20z m835 -85 c0 -25 -2 -24
-9 10 -10 51 -10 92 1 50 4 -16 8 -43 8 -60z m3986 69 c3 -8 2 -12 -4 -9 -6 3
-10 10 -10 16 0 14 7 11 14 -7z m-3586 -86 c14 -18 18 -74 7 -118 l-9 -35 -8
55 c-12 89 -19 191 -9 148 4 -20 13 -43 19 -50z m3624 60 c-7 -7 -12 -8 -12
-2 0 14 12 26 19 19 2 -3 -1 -11 -7 -17z m-3528 -132 c-6 -35 -44 -95 -44 -70
0 6 3 14 7 18 4 3 12 23 19 43 11 32 10 42 -7 79 -28 62 -22 78 7 19 19 -39
23 -59 18 -89z m3530 75 c-6 -6 -24 19 -24 34 1 6 7 1 15 -9 8 -11 12 -22 9
-25z m-3430 12 c3 -10 9 -25 12 -33 4 -8 -3 -5 -15 7 -22 23 -28 43 -12 43 5
0 11 -8 15 -17z m-55 -25 c19 -52 22 -68 12 -68 -9 0 -31 59 -31 83 0 15 11 6
19 -15z m3361 12 c0 -5 -4 -10 -9 -10 -6 0 -13 5 -16 10 -3 6 1 10 9 10 9 0
16 -4 16 -10z m-3560 -17 c0 -10 6 -30 14 -44 17 -32 29 -140 17 -157 -6 -10
-10 -8 -14 9 -4 16 -10 20 -16 14 -14 -14 -2 -57 15 -51 7 3 17 -1 23 -7 7
-10 3 -12 -16 -11 -30 1 -58 35 -66 79 -3 17 -12 47 -20 68 -7 21 -12 51 -9
65 5 24 7 23 13 -15 9 -48 35 -103 49 -103 6 0 10 7 10 15 0 8 -4 15 -8 15
-10 0 -30 72 -24 88 2 7 8 9 13 6 6 -3 7 5 3 20 -4 16 -2 26 5 26 6 0 11 -8
11 -17z m107 -25 c-3 -8 -6 -5 -6 6 -1 11 2 17 5 13 3 -3 4 -12 1 -19z m3613
-8 c0 -5 -4 -10 -10 -10 -5 0 -10 5 -10 10 0 6 5 10 10 10 6 0 10 -4 10 -10z
m-4903 -27 c18 -38 8 -41 -12 -4 -8 17 -12 31 -8 31 5 0 14 -12 20 -27z m1366
-18 c4 -8 2 -17 -3 -20 -6 -4 -10 3 -10 14 0 25 6 27 13 6z m3429 -47 c4 -51
2 -66 -6 -57 -7 8 -13 109 -5 109 4 0 9 -24 11 -52z m-45 10 c-3 -8 -6 -5 -6
6 -1 11 2 17 5 13 3 -3 4 -12 1 -19z m-4407 -37 c0 -5 -14 -22 -31 -39 -40
-39 -110 -152 -102 -165 3 -6 1 -7 -5 -3 -13 8 -163 -197 -226 -312 -42 -75
-44 -57 -3 24 55 110 213 335 316 451 49 56 51 58 51 44z m1041 -115 c-9 -18
-10 -17 -10 14 -1 19 -3 53 -6 75 -4 34 -2 32 11 -14 11 -40 12 -61 5 -75z
m3559 99 c0 -8 -4 -15 -10 -15 -5 0 -7 7 -4 15 4 8 8 15 10 15 2 0 4 -7 4 -15z
m-3880 -64 c0 -5 6 -12 13 -14 6 -3 7 -6 1 -6 -11 -1 -74 72 -74 86 0 4 14 -6
30 -24 17 -18 30 -36 30 -42z m-371 5 c-9 -8 -10 -7 -5 7 3 10 7 26 7 35 1 9
4 6 6 -7 3 -13 -1 -28 -8 -35z m-647 2 c-7 -7 -12 -8 -12 -2 0 14 12 26 19 19
2 -3 -1 -11 -7 -17z m82 -25 c-17 -57 -36 -81 -25 -31 8 33 28 78 35 78 2 0
-2 -21 -10 -47z m164 -17 c-13 -20 -27 -36 -31 -36 -9 0 -3 11 27 52 28 40 32
27 4 -16z m1003 7 c-6 -12 -6 -25 0 -34 5 -7 9 -20 9 -27 0 -16 -24 -10 -26 6
-1 7 -2 17 -3 22 -3 23 -19 7 -31 -30 -7 -22 -21 -47 -32 -56 -22 -21 -22 -20
2 51 21 62 37 88 50 80 4 -3 14 2 21 11 16 20 24 2 10 -23z m40 14 c-10 -9
-11 -8 -5 6 3 10 9 15 12 12 3 -3 0 -11 -7 -18z m-610 -10 c-10 -9 -11 -8 -5
6 3 10 9 15 12 12 3 -3 0 -11 -7 -18z m-660 -14 c-12 -20 -14 -14 -5 12 4 9 9
14 11 11 3 -2 0 -13 -6 -23z m365 -54 c-13 -35 -29 -91 -35 -124 -7 -33 -15
-67 -18 -75 -4 -8 -7 -17 -8 -20 -8 -23 -18 -40 -25 -40 -9 0 -20 103 -13 129
7 26 23 28 23 4 0 -12 5 -9 15 11 8 15 15 33 15 38 0 6 6 24 14 41 8 18 22 51
32 75 28 66 28 35 0 -39z m65 50 c-5 -13 -20 -62 -34 -109 -13 -47 -32 -107
-40 -135 l-16 -50 5 55 c6 62 32 152 64 223 21 48 40 61 21 16z m127 -16 c-22
-52 -38 -75 -38 -55 0 17 43 102 51 102 5 0 -1 -21 -13 -47z m566 -16 c3 4 6
1 6 -5 0 -16 -5 -15 -45 3 -18 9 -38 28 -44 42 -11 25 -10 24 32 -10 25 -20
47 -33 51 -30z m3661 53 c3 -5 1 -10 -4 -10 -6 0 -11 5 -11 10 0 6 2 10 4 10
3 0 8 -4 11 -10z m-4831 -92 c-11 -20 -18 -62 -20 -113 -3 -76 -16 -135 -30
-135 -3 0 -3 8 1 18 4 9 9 41 12 71 4 43 2 52 -8 46 -11 -6 -12 -5 -1 6 13 14
17 43 4 35 -4 -2 -43 -77 -87 -165 -80 -160 -112 -208 -75 -108 29 77 121 257
148 288 12 15 32 49 44 76 14 30 23 42 26 31 2 -9 -4 -31 -14 -50z m676 48 c0
-11 -19 -15 -25 -6 -3 5 1 10 9 10 9 0 16 -2 16 -4z m35 -5 c3 -5 1 -12 -5
-16 -5 -3 -10 1 -10 9 0 18 6 21 15 7z m621 -38 c-11 -11 -24 9 -18 29 l5 22
9 -24 c5 -12 6 -25 4 -27z m59 -2 c-3 -6 -11 -11 -16 -11 -5 0 -4 6 3 14 14
16 24 13 13 -3z m-855 5 c0 -3 -4 -8 -10 -11 -5 -3 -10 -1 -10 4 0 6 5 11 10
11 6 0 10 -2 10 -4z m267 -28 c-3 -8 -6 -5 -6 6 -1 11 2 17 5 13 3 -3 4 -12 1
-19z m-96 -15 c-8 -15 -10 -15 -11 -2 0 17 10 32 18 25 2 -3 -1 -13 -7 -23z
m-644 -5 c-3 -8 -6 -5 -6 6 -1 11 2 17 5 13 3 -3 4 -12 1 -19z m513 2 c0 -11
-4 -20 -10 -20 -5 0 -10 9 -10 20 0 11 5 20 10 20 6 0 10 -9 10 -20z m180 -25
c-6 -15 -13 -26 -15 -23 -3 2 1 19 8 37 6 17 13 28 15 23 1 -5 -2 -22 -8 -37z
m636 -2 c-10 -10 -19 5 -10 18 6 11 8 11 12 0 2 -7 1 -15 -2 -18z m-1343 -13
c-3 -12 -8 -19 -11 -16 -5 6 5 36 12 36 2 0 2 -9 -1 -20z m614 -82 c-25 -84
-35 -76 -12 10 8 33 12 68 9 79 -5 17 -5 17 9 0 13 -15 12 -26 -6 -89z m-88
61 c-13 -26 -23 -18 -14 10 3 12 11 19 16 16 5 -4 5 -14 -2 -26z m-45 -4 c-4
-8 -8 -15 -10 -15 -2 0 -4 7 -4 15 0 8 4 15 10 15 5 0 7 -7 4 -15z m38 -60
c-5 -27 -22 -45 -22 -23 0 25 12 58 20 53 4 -2 5 -16 2 -30z m-622 -4 c0 -6
-4 -13 -10 -16 -5 -3 -10 1 -10 9 0 9 5 16 10 16 6 0 10 -4 10 -9z m147 -168
c-30 -59 -62 -130 -72 -156 -35 -94 -42 -61 -8 37 20 59 126 252 130 239 2 -6
-20 -60 -50 -120z m-221 5 c-25 -51 -46 -86 -46 -78 0 18 84 191 88 180 2 -5
-17 -50 -42 -102z m-2106 92 c0 -5 -4 -10 -10 -10 -5 0 -10 5 -10 10 0 6 5 10
10 10 6 0 10 -4 10 -10z m7154 -16 c3 -8 2 -12 -4 -9 -6 3 -10 10 -10 16 0 14
7 11 14 -7z m-4856 -41 c-28 -49 -32 -53 -23 -23 6 22 33 60 41 60 2 0 -6 -17
-18 -37z m4902 17 c0 -5 -4 -10 -9 -10 -6 0 -13 5 -16 10 -3 6 1 10 9 10 9 0
16 -4 16 -10z m-25 -70 c3 -5 1 -10 -4 -10 -6 0 -11 5 -11 10 0 6 2 10 4 10 3
0 8 -4 11 -10z m-4913 -32 c-7 -7 -12 -20 -12 -30 0 -10 -4 -18 -9 -18 -5 0
-12 -13 -16 -30 -8 -37 -44 -110 -45 -90 0 34 76 197 88 186 3 -4 0 -12 -6
-18z m73 -15 c-5 -31 -30 -112 -50 -158 -7 -16 -15 -37 -19 -45 -9 -22 0 49
12 90 5 19 14 46 20 60 5 14 11 30 12 35 3 14 20 45 25 45 2 0 2 -12 0 -27z
m4909 -169 c5 -14 4 -15 -9 -4 -17 14 -19 20 -6 20 5 0 12 -7 15 -16z m-5034
-34 c0 -5 -5 -10 -11 -10 -5 0 -7 5 -4 10 3 6 8 10 11 10 2 0 4 -4 4 -10z
m-2020 -137 c0 -19 -3 -24 -10 -17 -6 6 -8 18 -4 27 9 24 14 21 14 -10z m7250
-309 c0 -8 -4 -12 -10 -9 -5 3 -10 10 -10 16 0 5 5 9 10 9 6 0 10 -7 10 -16z
m45 -5 c4 -5 19 -8 34 -4 20 4 32 0 47 -17 12 -13 30 -28 40 -35 18 -11 18
-12 -2 -12 -11 -1 -29 5 -39 13 -11 8 -25 12 -32 9 -14 -5 -73 33 -73 48 0 12
17 11 25 -2z m-7223 -81 c-7 -7 -12 -8 -12 -2 0 14 12 26 19 19 2 -3 -1 -11
-7 -17z m7398 -40 l21 -43 -31 35 c-31 35 -37 50 -20 50 5 0 19 -19 30 -42z
m-106 -2 c-6 -15 -24 -23 -24 -11 0 8 24 34 28 30 1 -1 0 -10 -4 -19z m61 14
c3 -5 -1 -10 -9 -10 -9 0 -16 5 -16 10 0 6 4 10 9 10 6 0 13 -4 16 -10z m170
-100 c3 -11 13 -20 21 -20 8 0 14 -7 14 -15 0 -8 -3 -15 -6 -15 -6 0 -94 90
-94 97 0 12 60 -30 65 -47z m145 -145 c0 -5 -5 -3 -10 5 -5 8 -10 20 -10 25 0
6 5 3 10 -5 5 -8 10 -19 10 -25z m20 -35 c0 -5 -5 -10 -11 -10 -5 0 -7 5 -4
10 3 6 8 10 11 10 2 0 4 -4 4 -10z m7 -42 c-3 -8 -6 -5 -6 6 -1 11 2 17 5 13
3 -3 4 -12 1 -19z m-28 -132 l-2 -31 -4 30 c-3 17 -10 37 -16 45 -10 13 -10
13 6 1 10 -8 16 -25 16 -45z m-49 -26 c0 -5 -5 -10 -11 -10 -5 0 -7 5 -4 10 3
6 8 10 11 10 2 0 4 -4 4 -10z m-7740 -164 c0 -3 -4 -8 -10 -11 -5 -3 -10 -1
-10 4 0 6 5 11 10 11 6 0 10 -2 10 -4z m7504 -218 c34 -44 20 -60 -16 -18 -15
19 -28 38 -28 42 0 17 20 6 44 -24z m46 12 c0 -5 -4 -10 -10 -10 -5 0 -10 5
-10 10 0 6 5 10 10 10 6 0 10 -4 10 -10z m-95 -70 c3 -5 1 -10 -4 -10 -6 0
-11 5 -11 10 0 6 2 10 4 10 3 0 8 -4 11 -10z m88 -60 c3 -11 2 -20 -3 -20 -8
0 -20 24 -20 41 0 17 17 1 23 -21z m28 -73 c-8 -8 -11 -7 -11 4 0 9 3 19 7 23
4 4 9 2 11 -4 3 -7 -1 -17 -7 -23z m32 -39 c-6 -30 -23 -39 -23 -13 0 13 21
46 27 41 1 0 -1 -13 -4 -28z m-105 -137 c3 -8 -1 -12 -9 -9 -7 2 -15 10 -17
17 -3 8 1 12 9 9 7 -2 15 -10 17 -17z m-436 -65 c10 -19 10 -20 -6 -7 -9 8
-22 24 -28 35 -10 19 -10 20 6 7 9 -8 22 -24 28 -35z m86 -111 c-3 -3 -9 2
-12 12 -6 14 -5 15 5 6 7 -7 10 -15 7 -18z m272 -125 c0 -5 -5 -10 -11 -10 -5
0 -7 5 -4 10 3 6 8 10 11 10 2 0 4 -4 4 -10z m-170 -159 c0 -11 -6 -9 -19 9
-11 13 -17 29 -14 34 8 11 33 -22 33 -43z m10 -51 c0 -5 -2 -10 -4 -10 -3 0
-8 5 -11 10 -3 6 -1 10 4 10 6 0 11 -4 11 -10z m-7345 -31 c4 -11 4 -23 1 -26
-10 -10 -35 18 -29 33 8 20 21 17 28 -7z m7400 -179 c3 -5 2 -10 -4 -10 -5 0
-13 5 -16 10 -3 6 -2 10 4 10 5 0 13 -4 16 -10z m-1492 -132 c91 -49 265 -220
306 -301 38 -74 37 -92 -9 -193 -15 -33 -30 -76 -34 -95 -3 -19 -15 -42 -27
-52 -26 -23 -46 -11 -23 14 16 18 16 19 -4 19 -12 0 -22 5 -22 10 0 6 -3 9 -7
8 -5 -1 -27 10 -50 25 -24 15 -49 27 -57 27 -10 0 -13 6 -9 16 5 14 1 15 -26
9 -24 -5 -31 -3 -29 7 2 8 -5 12 -17 11 -11 -1 -22 1 -25 5 -4 6 -96 55 -196
105 -23 12 -34 23 -30 32 4 10 -1 15 -14 15 -11 0 -20 4 -20 10 0 5 -16 24
-35 41 -19 18 -35 35 -35 38 0 3 27 40 61 81 33 41 75 95 92 121 55 84 115 97
210 47z m1541 -62 c-3 -9 -10 -16 -15 -16 -6 0 -5 9 1 21 13 24 24 20 14 -5z
m-7474 4 c0 -5 -4 -10 -10 -10 -5 0 -10 5 -10 10 0 6 5 10 10 10 6 0 10 -4 10
-10z m7440 -90 c0 -5 -5 -10 -11 -10 -5 0 -7 5 -4 10 3 6 8 10 11 10 2 0 4 -4
4 -10z m-7469 -74 c-6 -15 -18 -26 -28 -25 -12 0 -13 2 -5 6 7 3 18 16 23 30
5 14 12 24 15 21 2 -3 0 -17 -5 -32z m7459 -50 c0 -11 -19 -15 -25 -6 -3 5 1
10 9 10 9 0 16 -2 16 -4z m-7455 -16 c3 -5 -1 -10 -9 -10 -9 0 -16 5 -16 10 0
6 4 10 9 10 6 0 13 -4 16 -10z m6352 -141 c-8 -19 -21 -40 -29 -46 -9 -8 -5 6
10 37 27 56 41 62 19 9z m-6397 -139 c0 -5 -4 -10 -10 -10 -5 0 -10 5 -10 10
0 6 5 10 10 10 6 0 10 -4 10 -10z m6125 -30 c3 -5 1 -10 -4 -10 -6 0 -11 5
-11 10 0 6 2 10 4 10 3 0 8 -4 11 -10z m-6118 -32 c-3 -7 -5 -2 -5 12 0 14 2
19 5 13 2 -7 2 -19 0 -25z m3 -102 c0 -3 -4 -8 -10 -11 -5 -3 -10 -1 -10 4 0
6 5 11 10 11 6 0 10 -2 10 -4z m-29 -39 c-13 -13 -26 -3 -16 12 3 6 11 8 17 5
6 -4 6 -10 -1 -17z m-41 -67 c0 -5 -7 -10 -15 -10 -8 0 -15 5 -15 10 0 6 7 10
15 10 8 0 15 -4 15 -10z m6275 -130 c3 -5 2 -10 -4 -10 -5 0 -13 5 -16 10 -3
6 -2 10 4 10 5 0 13 -4 16 -10z m185 -191 c0 -5 -4 -9 -10 -9 -5 0 -10 7 -10
16 0 8 5 12 10 9 6 -3 10 -10 10 -16z m-25 -139 c3 -5 1 -10 -4 -10 -6 0 -11
5 -11 10 0 6 2 10 4 10 3 0 8 -4 11 -10z m33 -85 c25 -51 26 -55 13 -55 -5 0
-20 23 -33 50 -15 30 -20 50 -13 50 6 0 21 -20 33 -45z m-43 -71 c-8 -16 -15
-39 -15 -51 0 -35 -17 -36 -24 -2 -9 46 -7 59 7 59 7 0 14 14 15 31 4 47 15
57 24 22 6 -21 3 -40 -7 -59z m45 -9 c10 -12 10 -15 -4 -15 -9 0 -16 7 -16 15
0 8 2 15 4 15 2 0 9 -7 16 -15z m-8 -241 c-6 -35 -12 -29 -12 14 0 23 3 32 9
24 4 -7 6 -24 3 -38z m-53 -246 c22 -45 22 -52 -1 -43 -15 6 -41 85 -28 85 5
0 17 -19 29 -42z m-219 -60 c0 -6 -7 -5 -15 2 -8 7 -15 17 -15 22 0 6 7 5 15
-2 8 -7 15 -17 15 -22z m-6235 -58 c-3 -5 -11 -10 -16 -10 -6 0 -7 5 -4 10 3
6 11 10 16 10 6 0 7 -4 4 -10z m-56 -19 c8 -5 11 -16 6 -30 -8 -27 -25 -28
-18 -1 4 14 0 20 -11 20 -9 0 -16 5 -16 10 0 12 20 13 39 1z m6371 -76 c0 -8
-4 -15 -10 -15 -5 0 -10 7 -10 15 0 8 5 15 10 15 6 0 10 -7 10 -15z m-6466
-100 c3 -8 16 -11 33 -8 l28 5 -38 -37 c-35 -34 -40 -36 -54 -22 -14 13 -13
16 6 22 11 3 21 11 21 16 0 12 -3 12 -36 -6 -26 -13 -29 -13 -35 3 -4 9 -2 22
3 29 12 15 66 14 72 -2z m86 5 c0 -5 -5 -10 -11 -10 -5 0 -7 5 -4 10 3 6 8 10
11 10 2 0 4 -4 4 -10z m6470 0 c0 -5 -2 -10 -4 -10 -3 0 -8 5 -11 10 -3 6 -1
10 4 10 6 0 11 -4 11 -10z m-6687 -44 c-6 -29 -53 -78 -53 -55 0 20 40 77 56
79 1 0 -1 -11 -3 -24z m177 -58 c0 -7 -4 -19 -9 -27 -8 -12 -12 -12 -25 -2
-24 20 -19 41 9 41 14 0 25 -6 25 -12z m-229 -94 c-9 -21 -9 -29 0 -34 8 -6 8
-9 0 -14 -18 -11 -13 -26 7 -19 15 6 15 5 4 -10 -8 -9 -11 -20 -8 -25 3 -6 -2
-9 -11 -8 -10 0 -19 -7 -21 -18 -2 -11 0 -16 7 -12 19 12 12 -1 -22 -38 -60
-65 -61 -49 -7 92 6 17 17 32 22 32 6 0 8 11 4 24 -8 34 11 83 26 68 9 -9 8
-18 -1 -38z m37 -191 c-2 -10 -16 -21 -33 -24 -23 -5 -25 -7 -7 -8 27 -1 30
-21 3 -21 -11 0 -23 -4 -26 -10 -3 -5 -1 -10 4 -10 6 0 11 -4 11 -10 0 -14
-37 -13 -46 2 -4 6 -2 14 4 16 7 2 12 11 12 20 -1 14 -4 13 -19 -5 -22 -26
-41 -30 -41 -8 0 8 5 15 10 15 12 0 73 41 78 53 2 4 15 7 29 7 18 0 24 -5 21
-17z m-198 -33 c0 -5 -4 -10 -10 -10 -5 0 -10 5 -10 10 0 6 5 10 10 10 6 0 10
-4 10 -10z m36 -97 c-10 -10 -19 5 -10 18 6 11 8 11 12 0 2 -7 1 -15 -2 -18z
m54 -3 c0 -5 -2 -10 -4 -10 -3 0 -8 5 -11 10 -3 6 -1 10 4 10 6 0 11 -4 11
-10z m60 -4 c0 -3 -4 -8 -10 -11 -5 -3 -10 -1 -10 4 0 6 5 11 10 11 6 0 10 -2
10 -4z m-90 -26 c9 -16 8 -18 -5 -14 -11 4 -15 0 -15 -17 0 -16 -3 -20 -11
-12 -11 11 -2 63 12 63 4 0 13 -9 19 -20z m-53 -102 c21 -34 11 -58 -25 -58
-34 0 -55 -20 -46 -44 4 -9 0 -18 -9 -22 -15 -6 -12 -44 4 -44 5 0 9 -5 9 -10
0 -6 -11 -3 -25 6 -15 10 -25 26 -25 40 0 12 -5 26 -12 30 -7 5 -4 10 10 15
13 5 20 14 16 23 -4 11 6 16 41 22 33 4 43 10 36 17 -14 14 -14 60 0 55 6 -2
18 -15 26 -30z m-142 -48 c-3 -5 -12 -10 -18 -10 -7 0 -6 4 3 10 19 12 23 12
15 0z m212 -25 c-5 -30 -3 -35 14 -35 10 0 19 -7 19 -15 0 -8 -7 -15 -15 -15
-9 0 -18 7 -21 15 -4 8 -18 15 -32 15 l-25 0 21 23 c12 13 22 29 22 35 0 7 5
12 11 12 8 0 10 -12 6 -35z m98 -5 c-3 -5 -15 -10 -26 -10 -11 0 -17 5 -14 10
3 6 15 10 26 10 11 0 17 -4 14 -10z m-105 -94 c0 -3 -4 -8 -10 -11 -5 -3 -10
-1 -10 4 0 6 5 11 10 11 6 0 10 -2 10 -4z m6670 -331 c0 -8 -2 -15 -4 -15 -2
0 -6 7 -10 15 -3 8 -1 15 4 15 6 0 10 -7 10 -15z m-5630 -181 c0 -2 -12 -4
-27 -4 -21 0 -24 3 -14 9 13 8 41 5 41 -5z m4870 -292 c0 -7 -4 -10 -10 -7 -5
3 -10 16 -10 28 0 18 2 19 10 7 5 -8 10 -21 10 -28z m680 22 c0 -8 -4 -12 -10
-9 -5 3 -10 10 -10 16 0 5 5 9 10 9 6 0 10 -7 10 -16z m-654 -191 c-10 -10
-19 5 -10 18 6 11 8 11 12 0 2 -7 1 -15 -2 -18z m54 13 c0 -3 -4 -8 -10 -11
-5 -3 -10 -1 -10 4 0 6 5 11 10 11 6 0 10 -2 10 -4z m-4350 -52 c0 -8 -4 -12
-10 -9 -5 3 -10 10 -10 16 0 5 5 9 10 9 6 0 10 -7 10 -16z m4397 -86 c-3 -8
-6 -5 -6 6 -1 11 2 17 5 13 3 -3 4 -12 1 -19z m391 -143 l14 -30 -21 22 c-11
12 -21 32 -20 45 0 15 3 18 6 8 3 -8 12 -28 21 -45z m-341 -87 c-3 -8 -6 -5
-6 6 -1 11 2 17 5 13 3 -3 4 -12 1 -19z m22 -70 c1 -5 -3 -8 -9 -8 -5 0 -10
12 -9 28 0 24 1 25 9 7 5 -11 9 -23 9 -27z m59 -205 c12 -24 17 -43 12 -43
-12 0 -50 77 -42 84 3 4 6 5 7 4 1 -2 11 -22 23 -45z m217 -15 c4 -17 3 -28
-3 -28 -12 0 -22 24 -22 53 0 27 16 11 25 -25z m-219 -236 c-10 -10 -39 25
-31 38 5 8 12 5 22 -10 8 -12 12 -24 9 -28z m38 -38 c4 -9 4 -19 2 -21 -8 -8
-26 8 -26 23 0 19 16 18 24 -2z m-34 -27 c0 -5 -4 -5 -10 -2 -5 3 -10 14 -10
23 0 15 2 15 10 2 5 -8 10 -19 10 -23z m-3440 -11 c0 -3 -4 -8 -10 -11 -5 -3
-10 -1 -10 4 0 6 5 11 10 11 6 0 10 -2 10 -4z m3460 -68 c0 -11 5 -28 10 -39
7 -13 8 -25 1 -37 -9 -14 -10 -13 -11 11 0 17 -5 27 -15 27 -11 0 -15 11 -15
41 0 36 2 40 15 29 8 -7 15 -21 15 -32z m-2763 -30 c-3 -8 -6 -5 -6 6 -1 11 2
17 5 13 3 -3 4 -12 1 -19z m2808 -158 c-3 -5 -10 -10 -16 -10 -5 0 -9 5 -9 10
0 6 7 10 16 10 8 0 12 -4 9 -10z m41 -35 c6 -24 0 -44 -10 -34 -11 11 -17 59
-7 59 6 0 13 -11 17 -25z m-3398 -11 c14 -15 14 -16 -3 -13 -10 2 -20 10 -23
17 -5 17 6 15 26 -4z m2053 -45 c-9 -23 -10 -23 -10 -2 -1 12 2 30 6 40 6 15
8 15 11 2 1 -8 -2 -26 -7 -40z m-1534 -66 c-3 -10 -5 -4 -5 12 0 17 2 24 5 18
2 -7 2 -21 0 -30z m2837 0 c7 3 23 -7 35 -23 27 -38 27 -53 0 -45 -20 7 -21 5
-16 -24 5 -23 3 -31 -8 -31 -11 0 -15 11 -15 40 0 27 -4 40 -14 40 -17 0 -26
32 -18 62 l5 22 9 -23 c5 -14 14 -21 22 -18z m-3199 -172 c0 -23 -22 -24 -28
-1 -4 16 -1 20 11 18 9 -2 17 -10 17 -17z m322 -373 c-3 -8 -6 -5 -6 6 -1 11
2 17 5 13 3 -3 4 -12 1 -19z"/>
<path d="M4560 14339 c0 -5 5 -7 10 -4 6 3 10 8 10 11 0 2 -4 4 -10 4 -5 0
-10 -5 -10 -11z"/>
<path d="M4510 14310 c20 -13 63 -13 55 0 -3 6 -21 10 -38 10 -24 0 -28 -3
-17 -10z"/>
<path d="M4355 14281 l-40 -7 40 -12 c49 -14 75 -15 75 -2 0 6 19 7 48 4 37
-4 43 -3 30 6 -23 14 -102 20 -153 11z"/>
<path d="M4480 14185 c0 -9 71 -37 78 -31 3 3 3 6 0 6 -3 0 -22 7 -42 15 -20
8 -36 13 -36 10z"/>
<path d="M4610 14120 c0 -5 5 -10 10 -10 6 0 10 5 10 10 0 6 -4 10 -10 10 -5
0 -10 -4 -10 -10z"/>
<path d="M4170 13408 c-25 -5 -67 -12 -93 -17 -27 -4 -52 -12 -55 -17 -13 -18
-87 -69 -96 -66 -5 2 -6 -4 -2 -13 3 -9 6 -21 6 -26 0 -15 29 -10 84 15 99 45
279 98 361 105 53 5 72 9 55 14 -43 10 -213 14 -260 5z"/>
<path d="M4133 13290 c-62 -14 -94 -65 -92 -142 1 -24 4 -33 6 -20 2 12 11 22
19 22 16 0 18 -18 4 -54 -12 -32 -1 -39 26 -17 16 13 20 25 17 51 l-4 35 26
-29 26 -29 37 20 c34 18 37 23 34 57 l-3 38 33 -7 c41 -9 50 -14 43 -25 -3 -4
18 3 45 17 27 14 52 28 54 31 2 4 -52 8 -120 10 -96 2 -130 -1 -153 -13 -34
-17 -41 -18 -41 -7 0 5 19 19 41 32 37 20 50 22 118 17 51 -4 70 -3 59 4 -23
13 -134 18 -175 9z m47 -100 c0 -5 -2 -10 -4 -10 -3 0 -8 5 -11 10 -3 6 -1 10
4 10 6 0 11 -4 11 -10z m40 -14 c0 -3 -4 -8 -10 -11 -5 -3 -10 -1 -10 4 0 6 5
11 10 11 6 0 10 -2 10 -4z m-45 -34 c-3 -3 -11 0 -18 7 -9 10 -8 11 6 5 10 -3
15 -9 12 -12z"/>
<path d="M5030 13271 c0 -5 5 -13 10 -16 6 -3 10 -2 10 4 0 5 -4 13 -10 16 -5
3 -10 2 -10 -4z"/>
<path d="M5010 13220 c0 -5 5 -10 10 -10 6 0 10 5 10 10 0 6 -4 10 -10 10 -5
0 -10 -4 -10 -10z"/>
<path d="M3560 13063 c-43 -30 -53 -44 -52 -74 0 -16 -5 -29 -11 -29 -8 0 -7
-4 2 -9 8 -5 16 -17 17 -27 2 -9 14 -29 28 -43 25 -25 26 -25 26 -4 0 19 4 21
35 16 39 -6 44 0 49 63 3 42 1 41 71 30 l40 -6 -33 15 c-39 18 -149 26 -174
13 -33 -16 -19 10 16 31 39 24 89 27 129 7 15 -8 27 -11 27 -7 0 12 -81 41
-116 41 -16 0 -41 -8 -54 -17z m70 -93 c0 -5 -4 -10 -10 -10 -5 0 -10 5 -10
10 0 6 5 10 10 10 6 0 10 -4 10 -10z m5 -50 c-3 -5 -14 -10 -23 -9 -14 0 -13
2 3 9 27 11 27 11 20 0z"/>
<path d="M3770 12966 c0 -12 -5 -16 -15 -12 -9 3 -15 0 -15 -9 0 -19 11 -19
36 -1 15 12 17 17 7 27 -11 11 -13 9 -13 -5z"/>
<path d="M4147 12594 c-24 -21 -34 -23 -85 -18 -62 6 -109 -6 -118 -31 -10
-24 4 -30 24 -12 13 12 37 17 85 17 60 0 70 3 99 29 40 35 35 49 -5 15z"/>
<path d="M3955 12480 c-16 -7 -17 -9 -3 -9 9 -1 20 4 23 9 7 11 7 11 -20 0z"/>
<path d="M4460 12473 c0 -5 -29 -17 -65 -28 -36 -10 -65 -22 -65 -26 0 -4 -23
-7 -51 -5 -29 1 -57 -3 -62 -9 -6 -6 -21 -10 -33 -7 -12 2 -44 -6 -70 -18 -27
-12 -73 -30 -102 -41 -63 -22 -112 -55 -112 -75 0 -7 15 -24 34 -36 18 -12 42
-38 52 -56 27 -51 55 -65 114 -60 50 5 119 43 179 100 26 23 12 40 -14 18 -8
-6 -18 -9 -23 -6 -6 3 -15 -1 -22 -9 -7 -8 -18 -15 -26 -15 -7 0 -29 -9 -48
-21 -33 -19 -56 -19 -56 1 0 5 6 10 13 12 24 6 177 92 177 99 0 5 -25 -5 -56
-22 -31 -16 -64 -29 -74 -29 -10 0 -23 -7 -30 -15 -7 -8 -21 -15 -31 -15 -10
0 -21 -4 -24 -10 -3 -6 -18 1 -33 15 -25 24 -26 25 -7 38 10 8 34 20 54 27 20
7 50 23 68 36 17 13 39 24 49 24 10 0 26 8 36 17 16 14 22 15 40 4 11 -7 17
-8 13 -2 -8 14 39 35 60 27 13 -4 15 -13 11 -31 l-6 -25 37 20 c53 28 118 130
83 130 -5 0 -10 -3 -10 -7z m-50 -67 c0 -15 -18 -31 -26 -23 -7 7 7 37 17 37
5 0 9 -6 9 -14z m-230 -46 c-20 -13 -33 -13 -25 0 3 6 14 10 23 10 15 0 15 -2
2 -10z m-40 -19 c0 -5 -13 -14 -29 -19 -23 -8 -31 -7 -35 4 -3 8 -2 13 3 9 5
-3 20 -1 33 4 12 6 24 10 26 10 1 1 2 -3 2 -8z m-110 -161 c0 -5 -4 -10 -9
-10 -6 0 -13 5 -16 10 -3 6 1 10 9 10 9 0 16 -4 16 -10z"/>
<path d="M3900 12460 c0 -5 5 -10 10 -10 6 0 10 5 10 10 0 6 -4 10 -10 10 -5
0 -10 -4 -10 -10z"/>
<path d="M5071 12384 c0 -11 3 -14 6 -6 3 7 2 16 -1 19 -3 4 -6 -2 -5 -13z"/>
<path d="M4290 12321 c0 -11 4 -21 9 -21 18 0 21 18 6 30 -13 10 -15 9 -15 -9z"/>
<path d="M4885 11990 c-4 -6 5 -10 19 -10 14 0 26 5 26 10 0 6 -9 10 -19 10
-11 0 -23 -4 -26 -10z"/>
<path d="M5020 11986 c0 -22 17 -28 24 -10 9 22 8 24 -9 24 -8 0 -15 -6 -15
-14z"/>
<path d="M4745 11910 c-3 -5 1 -10 9 -10 9 0 16 5 16 10 0 6 -4 10 -9 10 -6 0
-13 -4 -16 -10z"/>
<path d="M3820 14590 c0 -5 7 -10 16 -10 8 0 12 5 9 10 -3 6 -10 10 -16 10 -5
0 -9 -4 -9 -10z"/>
<path d="M4540 14590 c0 -5 5 -10 10 -10 6 0 10 5 10 10 0 6 -4 10 -10 10 -5
0 -10 -4 -10 -10z"/>
<path d="M4660 14559 c0 -5 -8 -10 -17 -10 -21 -2 32 -16 65 -18 34 -2 26 14
-13 26 -20 6 -35 7 -35 2z"/>
<path d="M4850 14460 c0 -6 7 -10 15 -10 8 0 15 2 15 4 0 2 -7 6 -15 10 -8 3
-15 1 -15 -4z"/>
<path d="M3990 14439 c0 -5 5 -7 10 -4 6 3 10 8 10 11 0 2 -4 4 -10 4 -5 0
-10 -5 -10 -11z"/>
<path d="M4963 14418 c-35 -17 -27 -27 12 -16 19 6 32 15 29 20 -6 10 -13 9
-41 -4z"/>
<path d="M5320 14205 c7 -8 17 -15 22 -15 6 0 5 7 -2 15 -7 8 -17 15 -22 15
-6 0 -5 -7 2 -15z"/>
<path d="M2475 14159 c-10 -15 3 -25 16 -12 7 7 7 13 1 17 -6 3 -14 1 -17 -5z"/>
<path d="M5125 14131 c-3 -5 -1 -12 5 -16 5 -3 10 1 10 9 0 18 -6 21 -15 7z"/>
<path d="M3360 14053 c-19 -10 -36 -21 -38 -25 -2 -4 -11 -8 -20 -8 -10 0 -23
-9 -30 -20 -7 -12 -17 -18 -22 -15 -11 7 -53 -19 -44 -27 8 -8 68 15 77 30 4
6 13 12 20 12 7 0 39 16 72 35 62 36 51 49 -15 18z"/>
<path d="M3345 13987 l-20 -20 25 13 c32 16 33 17 23 23 -4 2 -17 -5 -28 -16z"/>
<path d="M1650 13955 c-7 -9 -11 -17 -9 -20 3 -2 10 5 17 15 14 24 10 26 -8 5z"/>
<path d="M3273 13954 c-18 -8 -33 -16 -33 -19 0 -7 60 16 66 26 6 11 7 11 -33
-7z"/>
<path d="M1720 13934 c0 -14 3 -14 15 -4 8 7 15 14 15 16 0 2 -7 4 -15 4 -8 0
-15 -7 -15 -16z"/>
<path d="M1735 13910 c-3 -5 -12 -7 -20 -4 -11 5 -35 -22 -35 -39 0 -3 23 6
50 20 28 14 50 27 50 29 0 8 -39 4 -45 -6z"/>
<path d="M2820 13902 c0 -11 10 -27 21 -38 l22 -19 -14 25 c-7 14 -12 31 -11
38 2 6 -2 12 -8 12 -5 0 -10 -8 -10 -18z"/>
<path d="M3118 13903 c7 -3 16 -2 19 1 4 3 -2 6 -13 5 -11 0 -14 -3 -6 -6z"/>
<path d="M1614 13864 c-18 -15 -18 -15 6 -10 14 3 28 6 33 6 4 0 7 5 7 10 0
15 -24 12 -46 -6z"/>
<path d="M1770 13873 c-8 -3 -33 -13 -55 -23 -22 -10 -53 -23 -69 -29 -21 -9
-26 -15 -18 -23 8 -8 15 -8 24 -1 7 6 29 13 49 16 46 7 134 -31 144 -62 10
-32 25 -25 21 9 -4 35 -2 33 -40 45 -16 6 -28 15 -25 20 4 11 13 11 44 0 13
-4 8 4 -15 24 -36 33 -36 33 -60 24z"/>
<path d="M1431 13801 c-8 -5 -9 -11 -3 -15 5 -3 12 1 16 9 6 17 6 18 -13 6z"/>
<path d="M1382 13610 c-7 -12 -18 -17 -27 -13 -13 4 -15 0 -9 -23 4 -16 8 -31
10 -33 5 -6 29 23 41 51 14 32 3 46 -15 18z"/>
<path d="M1302 13564 c-7 -8 -12 -22 -10 -32 3 -13 8 -9 20 16 17 34 12 42
-10 16z"/>
<path d="M1272 13490 c-7 -11 -19 -20 -27 -20 -8 0 -15 -4 -15 -10 0 -5 11
-10 24 -10 17 0 26 7 30 26 9 33 4 39 -12 14z"/>
<path d="M1205 13430 c-3 -5 -1 -10 4 -10 6 0 11 5 11 10 0 6 -2 10 -4 10 -3
0 -8 -4 -11 -10z"/>
<path d="M774 13335 c-16 -12 -16 -14 -3 -15 9 0 22 7 29 15 16 19 0 19 -26 0z"/>
<path d="M726 13304 c-11 -7 -16 -17 -13 -21 4 -4 15 1 24 10 22 21 14 30 -11
11z"/>
<path d="M675 13240 c-3 -6 1 -7 9 -4 18 7 21 14 7 14 -6 0 -13 -4 -16 -10z"/>
<path d="M980 13225 c-13 -14 -19 -25 -14 -25 8 1 50 50 41 50 -2 0 -14 -11
-27 -25z"/>
<path d="M599 13213 c-13 -17 -13 -17 6 -3 11 8 22 16 24 17 2 2 0 3 -6 3 -6
0 -17 -8 -24 -17z"/>
<path d="M1014 13186 c-10 -8 -16 -17 -13 -20 3 -3 14 1 25 8 10 8 16 17 13
20 -3 3 -14 -1 -25 -8z"/>
<path d="M925 13180 c-3 -5 -1 -10 4 -10 6 0 11 5 11 10 0 6 -2 10 -4 10 -3 0
-8 -4 -11 -10z"/>
<path d="M521 13155 c-16 -18 -19 -25 -9 -25 15 0 48 30 48 43 0 14 -15 6 -39
-18z"/>
<path d="M6025 13170 c3 -5 8 -10 11 -10 2 0 4 5 4 10 0 6 -5 10 -11 10 -5 0
-7 -4 -4 -10z"/>
<path d="M845 13110 c-3 -5 3 -10 15 -10 12 0 18 5 15 10 -3 6 -10 10 -15 10
-5 0 -12 -4 -15 -10z"/>
<path d="M6081 13074 c0 -11 3 -14 6 -6 3 7 2 16 -1 19 -3 4 -6 -2 -5 -13z"/>
<path d="M430 13065 c-7 -9 -11 -17 -8 -20 2 -2 12 4 21 15 9 11 13 20 8 20
-5 0 -14 -7 -21 -15z"/>
<path d="M812 13038 c-19 -16 -31 -32 -28 -36 4 -3 21 8 38 26 41 41 33 49
-10 10z"/>
<path d="M6100 13046 c0 -2 7 -7 16 -10 8 -3 12 -2 9 4 -6 10 -25 14 -25 6z"/>
<path d="M3292 12940 c0 -19 2 -27 5 -17 2 9 2 25 0 35 -3 9 -5 1 -5 -18z"/>
<path d="M357 12943 c-4 -3 -7 -11 -7 -17 0 -6 5 -5 12 2 6 6 9 14 7 17 -3 3
-9 2 -12 -2z"/>
<path d="M2276 12774 c-9 -24 -2 -26 12 -4 7 11 8 20 3 20 -5 0 -12 -7 -15
-16z"/>
<path d="M170 12699 c0 -5 5 -7 10 -4 6 3 10 8 10 11 0 2 -4 4 -10 4 -5 0 -10
-5 -10 -11z"/>
<path d="M6246 12695 c4 -8 10 -15 15 -15 5 0 9 7 9 15 0 8 -7 15 -15 15 -9 0
-12 -6 -9 -15z"/>
<path d="M173 12626 c-23 -17 -44 -40 -48 -51 -16 -51 -22 -85 -15 -85 5 0 13
19 17 42 7 37 13 43 43 51 27 7 37 5 46 -8 9 -12 14 -13 20 -4 4 7 2 15 -4 17
-8 2 -5 12 8 29 11 14 18 29 14 32 -3 3 -11 -2 -18 -12 -7 -9 -19 -17 -27 -17
-12 0 -12 2 0 9 7 5 12 13 10 19 -2 5 -23 -5 -46 -22z"/>
<path d="M2140 12579 c0 -5 5 -7 10 -4 6 3 10 8 10 11 0 2 -4 4 -10 4 -5 0
-10 -5 -10 -11z"/>
<path d="M6274 12575 c10 -8 23 -12 29 -8 11 7 -12 23 -33 23 -12 -1 -11 -4 4
-15z"/>
<path d="M6330 12561 c0 -6 4 -13 10 -16 6 -3 7 1 4 9 -7 18 -14 21 -14 7z"/>
<path d="M2125 12539 c-4 -6 -5 -12 -2 -15 2 -3 7 2 10 11 7 17 1 20 -8 4z"/>
<path d="M2070 12449 c0 -5 5 -7 10 -4 6 3 10 8 10 11 0 2 -4 4 -10 4 -5 0
-10 -5 -10 -11z"/>
<path d="M1880 12240 c0 -5 5 -10 10 -10 6 0 10 5 10 10 0 6 -4 10 -10 10 -5
0 -10 -4 -10 -10z"/>
<path d="M6485 12219 c11 -51 27 -61 23 -15 -2 22 -9 41 -17 44 -10 3 -12 -3
-6 -29z"/>
<path d="M1846 12193 c8 -59 11 -63 24 -29 12 33 3 76 -17 76 -11 0 -13 -9 -7
-47z"/>
<path d="M6567 12056 c-6 -14 31 -51 41 -41 4 4 -1 11 -11 16 -9 6 -15 14 -12
19 3 5 1 11 -4 14 -5 3 -11 0 -14 -8z"/>
<path d="M6350 11921 c0 -12 6 -21 15 -21 8 0 15 4 15 9 0 5 -7 14 -15 21 -13
10 -15 9 -15 -9z"/>
<path d="M42 11900 c0 -14 2 -19 5 -12 2 6 2 18 0 25 -3 6 -5 1 -5 -13z"/>
<path d="M6450 11818 c0 -20 27 -55 35 -46 4 4 -2 19 -14 34 -13 16 -21 21
-21 12z"/>
<path d="M6534 11765 c21 -16 32 -13 21 4 -3 6 -14 11 -23 11 -15 -1 -15 -2 2
-15z"/>
<path d="M6577 11730 c6 -22 23 -38 23 -21 0 17 -12 41 -20 41 -5 0 -6 -9 -3
-20z"/>
<path d="M6540 11730 c0 -5 5 -10 11 -10 5 0 7 5 4 10 -3 6 -8 10 -11 10 -2 0
-4 -4 -4 -10z"/>
<path d="M2520 11687 c0 -15 41 -27 58 -18 13 8 14 10 2 11 -8 0 -25 3 -37 6
-13 4 -23 4 -23 1z"/>
<path d="M6556 11667 c4 -12 11 -23 15 -25 5 -2 9 -10 9 -18 0 -22 17 -16 23
8 7 25 -5 44 -34 51 -17 4 -19 2 -13 -16z m39 -17 c3 -5 2 -10 -4 -10 -5 0
-13 5 -16 10 -3 6 -2 10 4 10 5 0 13 -4 16 -10z"/>
<path d="M3129 11658 c-4 -13 -7 -79 -3 -76 12 12 22 68 13 73 -5 4 -9 5 -10
3z"/>
<path d="M2239 11622 c7 -12 16 -22 21 -22 6 0 10 -6 10 -13 0 -19 57 -83 66
-75 10 10 -43 85 -79 110 l-29 21 11 -21z"/>
<path d="M2498 11623 c6 -2 18 -2 25 0 6 3 1 5 -13 5 -14 0 -19 -2 -12 -5z"/>
<path d="M6760 11604 c0 -20 -4 -25 -16 -20 -8 3 -12 2 -9 -4 3 -6 15 -10 26
-10 14 0 19 7 19 30 0 17 -4 30 -10 30 -5 0 -10 -12 -10 -26z"/>
<path d="M2340 11595 c7 -8 17 -12 22 -9 6 4 5 10 -3 15 -22 14 -33 10 -19 -6z"/>
<path d="M2715 11600 c3 -5 8 -10 11 -10 2 0 4 5 4 10 0 6 -5 10 -11 10 -5 0
-7 -4 -4 -10z"/>
<path d="M2505 11590 c3 -5 8 -10 11 -10 2 0 4 5 4 10 0 6 -5 10 -11 10 -5 0
-7 -4 -4 -10z"/>
<path d="M2885 11550 c-19 -8 -19 -9 3 -9 12 -1 22 4 22 9 0 6 -1 10 -2 9 -2
0 -12 -4 -23 -9z"/>
<path d="M6790 11520 c0 -5 5 -10 10 -10 6 0 10 5 10 10 0 6 -4 10 -10 10 -5
0 -10 -4 -10 -10z"/>
<path d="M2966 11484 c-4 -20 -5 -38 -3 -40 3 -3 8 11 11 32 4 20 5 38 3 40
-3 3 -8 -11 -11 -32z"/>
<path d="M6769 11453 c12 -24 31 -39 31 -25 0 5 -10 17 -21 28 -22 19 -22 19
-10 -3z"/>
<path d="M6720 11452 c0 -10 43 -52 54 -52 4 0 -2 14 -14 30 -20 29 -40 39
-40 22z"/>
<path d="M3142 11410 c0 -14 2 -19 5 -12 2 6 2 18 0 25 -3 6 -5 1 -5 -13z"/>
<path d="M3036 11348 c-3 -13 -6 -27 -6 -33 1 -15 30 27 30 42 0 22 -17 15
-24 -9z"/>
<path d="M3140 11258 c1 -68 2 -71 15 -48 7 14 10 29 6 35 -4 5 -6 25 -5 42 1
18 -2 35 -7 39 -5 3 -9 -26 -9 -68z"/>
<path d="M6801 11274 c13 -16 29 -19 29 -5 0 5 -9 11 -21 14 -16 4 -18 3 -8
-9z"/>
<path d="M3026 11265 c-3 -8 -1 -15 4 -15 6 0 10 7 10 15 0 8 -2 15 -4 15 -2
0 -6 -7 -10 -15z"/>
<path d="M2970 11230 c-8 -5 -11 -12 -7 -16 4 -4 13 -2 19 4 15 15 7 24 -12
12z"/>
<path d="M6938 11233 c6 -2 18 -2 25 0 6 3 1 5 -13 5 -14 0 -19 -2 -12 -5z"/>
<path d="M6838 11223 c12 -2 30 -2 40 0 9 3 -1 5 -23 4 -22 0 -30 -2 -17 -4z"/>
<path d="M3020 11171 c0 -23 2 -41 4 -41 8 0 12 71 4 76 -4 3 -8 -13 -8 -35z"/>
<path d="M7100 11120 c0 -13 28 -25 38 -16 3 4 0 11 -8 16 -20 13 -30 12 -30
0z"/>
<path d="M3103 11045 c0 -22 2 -30 4 -17 2 12 2 30 0 40 -3 9 -5 -1 -4 -23z"/>
<path d="M7331 10979 c16 -18 32 -30 34 -27 7 6 -41 58 -54 58 -5 0 4 -14 20
-31z"/>
<path d="M7385 10940 c3 -5 8 -10 11 -10 2 0 4 5 4 10 0 6 -5 10 -11 10 -5 0
-7 -4 -4 -10z"/>
<path d="M7448 10943 c6 -2 18 -2 25 0 6 3 1 5 -13 5 -14 0 -19 -2 -12 -5z"/>
<path d="M7470 10900 c0 -5 5 -10 10 -10 6 0 10 5 10 10 0 6 -4 10 -10 10 -5
0 -10 -4 -10 -10z"/>
<path d="M7549 10873 c12 -18 24 -33 27 -33 9 0 -15 37 -33 51 -12 10 -11 5 6
-18z"/>
<path d="M7462 10859 c3 -8 18 -15 34 -17 33 -4 24 11 -15 23 -17 5 -22 4 -19
-6z"/>
<path d="M7490 10822 c0 -12 61 -55 68 -48 7 7 -26 39 -50 49 -10 3 -18 3 -18
-1z"/>
<path d="M7911 10224 c0 -11 3 -14 6 -6 3 7 2 16 -1 19 -3 4 -6 -2 -5 -13z"/>
<path d="M7940 10106 c0 -9 5 -16 10 -16 6 0 10 4 10 9 0 6 -4 13 -10 16 -5 3
-10 -1 -10 -9z"/>
<path d="M7900 10091 c0 -5 5 -13 10 -16 6 -3 10 -2 10 4 0 5 -4 13 -10 16 -5
3 -10 2 -10 -4z"/>
<path d="M8077 9713 c-4 -7 1 -31 13 -55 11 -23 20 -49 20 -57 0 -13 2 -14 9
-2 9 14 -5 71 -19 81 -4 3 -9 14 -12 25 -2 14 -6 16 -11 8z"/>
<path d="M8114 9510 c-6 -6 -8 -25 -6 -43 4 -27 6 -29 12 -12 7 18 10 16 24
-15 18 -42 21 -16 4 41 -12 41 -17 46 -34 29z"/>
<path d="M8056 9289 c3 -6 1 -15 -7 -19 -9 -6 -10 -12 -2 -22 6 -7 16 -29 22
-48 l10 -35 -5 41 c-3 25 -1 45 5 48 12 8 -7 46 -22 46 -4 0 -5 -5 -1 -11z"/>
<path d="M8090 9236 c0 -8 5 -18 10 -21 6 -3 10 1 10 9 0 8 -4 18 -10 21 -5 3
-10 -1 -10 -9z"/>
<path d="M8150 9202 c0 -5 7 -15 15 -22 8 -7 15 -8 15 -2 0 5 -7 15 -15 22 -8
7 -15 8 -15 2z"/>
<path d="M8186 9026 c21 -15 30 -14 19 3 -3 6 -14 11 -23 11 -13 0 -13 -2 4
-14z"/>
<path d="M8245 9000 c3 -5 8 -10 11 -10 2 0 4 5 4 10 0 6 -5 10 -11 10 -5 0
-7 -4 -4 -10z"/>
<path d="M8198 8956 c2 -19 13 -43 24 -53 20 -18 21 -18 9 4 -6 12 -11 35 -11
52 0 19 -5 31 -13 31 -9 0 -12 -11 -9 -34z"/>
<path d="M8240 8952 c0 -10 33 -42 43 -42 14 0 5 16 -18 33 -14 10 -25 14 -25
9z"/>
<path d="M8310 8865 c7 -8 17 -15 22 -15 5 0 3 7 -6 15 -8 8 -18 15 -22 15 -3
0 -1 -7 6 -15z"/>
<path d="M8325 8820 c10 -11 20 -18 23 -15 7 6 -18 35 -31 35 -5 0 -2 -9 8
-20z"/>
<path d="M8295 8800 c3 -5 8 -10 11 -10 2 0 4 5 4 10 0 6 -5 10 -11 10 -5 0
-7 -4 -4 -10z"/>
<path d="M8240 8790 c0 -5 5 -10 11 -10 5 0 7 5 4 10 -3 6 -8 10 -11 10 -2 0
-4 -4 -4 -10z"/>
<path d="M8310 8771 c0 -6 5 -13 10 -16 6 -3 10 1 10 9 0 9 -4 16 -10 16 -5 0
-10 -4 -10 -9z"/>
<path d="M8349 8765 c-1 -6 0 -14 1 -20 1 -5 4 -25 7 -44 4 -38 42 -116 43
-88 0 9 5 17 10 17 6 0 10 5 10 11 0 8 -4 8 -14 0 -12 -10 -16 -8 -22 11 -4
13 -8 40 -9 60 -1 33 -23 77 -26 53z"/>
<path d="M8410 8680 c0 -5 5 -10 11 -10 5 0 7 5 4 10 -3 6 -8 10 -11 10 -2 0
-4 -4 -4 -10z"/>
<path d="M8447 8569 c8 -16 17 -28 19 -26 7 7 -15 57 -25 57 -5 0 -3 -14 6
-31z"/>
<path d="M820 8533 c0 -5 5 -15 10 -23 8 -12 10 -11 10 8 0 12 -4 22 -10 22
-5 0 -10 -3 -10 -7z"/>
<path d="M8330 8502 c0 -4 9 -13 20 -20 22 -13 27 -3 8 16 -14 14 -28 16 -28
4z"/>
<path d="M8410 8402 c0 -4 11 -12 25 -19 14 -6 25 -8 25 -4 0 4 -11 13 -25 19
-14 6 -25 8 -25 4z"/>
<path d="M8610 8226 c0 -2 7 -9 15 -16 9 -7 15 -8 15 -2 0 5 -7 12 -15 16 -8
3 -15 4 -15 2z"/>
<path d="M8667 8214 c-9 -10 2 -24 18 -24 9 0 12 6 9 15 -6 16 -17 19 -27 9z"/>
<path d="M8660 7343 c0 -12 5 -25 11 -28 17 -11 18 -2 4 25 -14 24 -14 24 -15
3z"/>
<path d="M8600 6950 c0 -5 5 -10 10 -10 6 0 10 5 10 10 0 6 -4 10 -10 10 -5 0
-10 -4 -10 -10z"/>
<path d="M8485 6564 c-33 -47 -66 -92 -74 -101 -13 -13 -12 -23 3 -72 10 -31
22 -63 27 -71 5 -8 12 -22 15 -30 3 -8 12 -28 20 -45 l14 -30 -6 33 c-4 26 -2
32 11 32 15 0 17 7 11 49 -5 37 -3 53 9 65 14 13 13 17 -6 34 -13 13 -17 22
-10 27 6 3 11 15 11 25 0 10 4 20 9 22 8 2 33 138 27 145 -1 1 -28 -37 -61
-83z m5 -244 c0 -5 -4 -12 -10 -15 -5 -3 -10 -4 -10 -1 0 2 -3 12 -6 20 -5 12
-2 15 10 10 9 -3 16 -10 16 -14z"/>
<path d="M8525 6450 c-3 -5 -1 -10 4 -10 6 0 11 5 11 10 0 6 -2 10 -4 10 -3 0
-8 -4 -11 -10z"/>
<path d="M8392 6340 c0 -14 2 -19 5 -12 2 6 2 18 0 25 -3 6 -5 1 -5 -13z"/>
<path d="M8427 5873 c-12 -12 -7 -22 8 -17 8 4 15 10 15 15 0 11 -14 12 -23 2z"/>
<path d="M8016 5806 c-12 -22 -16 -41 -11 -53 7 -14 9 -11 15 17 4 19 11 43
15 53 12 30 0 19 -19 -17z"/>
<path d="M7915 5689 c-33 -26 -66 -48 -72 -49 -7 0 -13 -4 -13 -8 0 -4 -18
-19 -40 -32 -22 -14 -40 -27 -40 -30 0 -3 20 -7 44 -8 46 -2 108 18 107 34 -1
5 5 9 12 9 6 0 23 6 36 14 18 10 20 15 10 21 -10 7 -9 16 6 49 10 23 16 43 14
45 -2 2 -31 -18 -64 -45z m25 -53 c0 -3 -4 -8 -10 -11 -5 -3 -10 -1 -10 4 0 6
5 11 10 11 6 0 10 -2 10 -4z"/>
<path d="M7987 5683 c-4 -3 -7 -11 -7 -17 0 -6 5 -5 12 2 6 6 9 14 7 17 -3 3
-9 2 -12 -2z"/>
<path d="M8010 5640 c-8 -5 -12 -11 -9 -14 3 -3 14 1 25 9 21 16 8 20 -16 5z"/>
<path d="M7327 5107 c-4 -10 -7 -26 -7 -35 1 -15 2 -15 11 1 6 10 9 25 7 35
-3 16 -4 15 -11 -1z"/>
<path d="M7310 5033 c0 -14 19 -38 25 -32 8 8 -5 39 -16 39 -5 0 -9 -3 -9 -7z"/>
<path d="M7334 4803 c-5 -10 -8 -26 -6 -35 3 -16 5 -16 18 -4 15 15 20 56 6
56 -4 0 -12 -8 -18 -17z"/>
<path d="M680 4500 c0 -5 5 -10 11 -10 5 0 7 5 4 10 -3 6 -8 10 -11 10 -2 0
-4 -4 -4 -10z"/>
<path d="M7090 4500 c0 -5 5 -10 10 -10 6 0 10 5 10 10 0 6 -4 10 -10 10 -5 0
-10 -4 -10 -10z"/>
<path d="M540 4289 c-7 -11 -9 -23 -6 -26 8 -9 36 17 36 33 0 21 -18 17 -30
-7z"/>
<path d="M617 4257 c23 -13 23 -13 3 -30 -11 -9 -20 -24 -20 -32 0 -8 -5 -15
-12 -15 -6 0 -9 -3 -5 -6 9 -9 65 49 69 72 2 15 -4 20 -27 22 -29 2 -29 2 -8
-11z"/>
<path d="M510 4206 c-5 -15 -13 -39 -16 -54 -4 -15 -13 -40 -21 -56 -11 -21
-12 -27 -2 -24 14 5 16 9 50 86 17 39 20 55 11 64 -8 8 -14 4 -22 -16z"/>
<path d="M585 4090 c-3 -5 -2 -10 4 -10 5 0 13 5 16 10 3 6 2 10 -4 10 -5 0
-13 -4 -16 -10z"/>
<path d="M626 4004 c-21 -20 -20 -34 2 -34 11 0 17 8 18 25 2 29 1 30 -20 9z"/>
<path d="M553 3943 c-15 -6 -17 -33 -3 -33 5 0 14 9 20 20 11 20 6 23 -17 13z"/>
<path d="M7146 3748 c4 -7 16 -23 27 -35 11 -13 17 -26 14 -30 -4 -3 -14 2
-22 13 -9 11 -14 14 -15 6 0 -7 10 -24 23 -37 l22 -24 0 32 c0 34 -28 87 -46
87 -6 0 -7 -6 -3 -12z"/>
<path d="M7070 3691 c0 -12 5 -21 10 -21 6 0 10 6 10 14 0 8 -4 18 -10 21 -5
3 -10 -3 -10 -14z"/>
<path d="M7127 3683 c-3 -5 -5 -37 -3 -72 2 -53 6 -67 25 -82 26 -21 41 -24
41 -9 0 6 -4 10 -10 10 -5 0 -10 7 -10 16 0 8 5 12 10 9 6 -4 1 10 -10 30 -24
43 -26 63 -5 45 10 -9 15 -9 15 -1 0 6 -4 11 -10 11 -5 0 -16 12 -23 26 -8 15
-17 23 -20 17z"/>
<path d="M7140 3488 c0 -7 5 -20 10 -28 8 -12 10 -11 10 7 0 12 -4 25 -10 28
-5 3 -10 0 -10 -7z"/>
<path d="M7016 2612 c-3 -5 -8 -29 -11 -53 l-5 -44 21 44 c13 28 17 47 11 53
-6 6 -12 6 -16 0z"/>
<path d="M7030 2524 c0 -10 5 -26 10 -34 8 -11 9 -7 4 15 -8 37 -14 45 -14 19z"/>
<path d="M1837 2025 c-9 -20 -17 -41 -17 -48 1 -20 50 43 50 64 0 30 -15 23
-33 -16z"/>
<path d="M1915 1970 c9 -30 13 -35 21 -27 3 3 -2 16 -11 29 l-17 23 7 -25z"/>
<path d="M6776 1325 c4 -8 8 -15 10 -15 2 0 4 7 4 15 0 8 -4 15 -10 15 -5 0
-7 -7 -4 -15z"/>
<path d="M6595 1010 c10 -35 25 -49 25 -23 0 11 -7 27 -16 34 -15 12 -16 11
-9 -11z"/>
<path d="M6695 980 c3 -5 8 -10 11 -10 2 0 4 5 4 10 0 6 -5 10 -11 10 -5 0 -7
-4 -4 -10z"/>
<path d="M6680 939 c0 -8 9 -20 20 -27 11 -7 20 -8 20 -4 0 5 -9 17 -20 27
-15 14 -20 15 -20 4z"/>
<path d="M6626 932 c-3 -6 -1 -14 5 -17 14 -9 20 -2 10 14 -6 8 -11 9 -15 3z"/>
</g>
</svg>
