<?xml version="1.0" standalone="no"?>
<!DOCTYPE svg PUBLIC "-//W3C//DTD SVG 20010904//EN"
 "http://www.w3.org/TR/2001/REC-SVG-20010904/DTD/svg10.dtd">
<svg version="1.0" xmlns="http://www.w3.org/2000/svg"
 width="1500.000000pt" height="756.000000pt" viewBox="0 0 1500.000000 756.000000"
 preserveAspectRatio="xMidYMid meet">

<g transform="translate(0.000000,756.000000) scale(0.100000,-0.100000)"
fill="#000000" stroke="none">
<path d="M5930 7474 c-8 -16 -15 -40 -15 -54 -2 -39 -60 -262 -132 -509 -9
-29 -17 -79 -18 -110 -2 -31 -8 -69 -14 -85 -6 -16 -9 -31 -7 -34 3 -2 -1 -11
-9 -19 -8 -8 -15 -26 -15 -41 0 -14 -10 -46 -22 -70 -12 -25 -24 -61 -28 -81
-10 -51 -41 -172 -50 -196 -5 -11 -20 -72 -35 -135 -25 -110 -63 -247 -119
-430 -15 -47 -33 -107 -41 -135 -9 -27 -27 -85 -40 -127 -14 -42 -25 -88 -25
-102 0 -14 -4 -28 -10 -31 -5 -3 -10 -17 -10 -29 0 -13 -6 -28 -13 -34 -7 -6
-12 -28 -12 -49 1 -21 -4 -43 -10 -50 -7 -6 -15 -31 -19 -54 -4 -24 -12 -49
-17 -55 -6 -7 -16 -35 -23 -62 -12 -44 -46 -99 -154 -251 -37 -52 -194 -288
-207 -311 -10 -17 23 9 71 56 26 27 95 78 179 134 13 8 61 41 108 72 47 32 98
64 114 70 15 7 36 21 45 31 10 9 24 17 32 17 8 0 27 11 43 23 15 13 107 63
203 111 245 121 395 199 413 214 9 8 20 11 25 8 5 -3 34 6 63 21 63 30 173 70
244 87 28 7 57 15 65 18 50 19 126 38 150 38 15 0 50 6 76 14 59 17 245 49
265 45 8 -2 24 2 36 9 13 7 67 14 120 17 54 2 116 6 138 9 22 3 104 8 183 11
79 2 147 7 153 11 5 3 17 0 25 -7 13 -10 17 -10 24 1 6 10 14 11 32 4 22 -10
107 -11 125 -2 15 8 267 0 333 -10 36 -6 103 -14 150 -17 46 -4 88 -9 93 -12
5 -3 12 -1 16 5 4 7 22 7 51 2 29 -5 50 -4 58 2 9 8 20 8 35 1 41 -19 93 -33
121 -33 15 0 40 -6 54 -14 27 -13 89 -31 167 -47 102 -20 137 -29 156 -39 11
-6 52 -17 92 -25 40 -8 93 -21 118 -29 24 -8 71 -20 104 -26 33 -7 68 -17 78
-22 12 -6 23 -6 32 2 9 7 15 8 20 1 9 -16 105 -59 105 -48 0 6 8 3 18 -5 22
-20 48 -29 97 -35 22 -2 47 -10 55 -18 32 -27 134 -75 151 -70 11 4 29 -5 49
-25 17 -16 39 -30 50 -30 10 0 22 -4 25 -10 3 -5 14 -10 24 -10 10 0 28 -11
41 -25 16 -17 30 -23 43 -19 14 4 27 -4 48 -29 16 -20 46 -41 67 -47 20 -7 46
-20 57 -30 11 -10 47 -31 80 -48 122 -60 193 -105 254 -163 35 -32 69 -59 77
-59 8 0 14 -5 14 -10 0 -19 61 -71 78 -67 10 2 16 9 15 15 -4 18 31 14 58 -7
13 -10 39 -26 57 -35 18 -9 65 -48 105 -86 39 -38 76 -70 80 -70 11 0 71 -43
80 -57 4 -7 14 -13 22 -13 8 0 21 -10 29 -22 11 -16 25 -22 51 -21 24 1 35 -3
35 -13 0 -8 11 -20 25 -26 14 -6 25 -19 25 -30 0 -10 6 -18 13 -18 7 0 24 -19
37 -41 12 -23 31 -50 41 -60 11 -11 19 -23 19 -29 0 -5 7 -10 15 -10 8 0 15
-7 15 -16 0 -9 8 -14 18 -13 35 3 42 -2 42 -31 0 -24 4 -30 21 -30 17 0 20 -5
17 -25 -3 -14 -1 -28 4 -31 4 -3 6 -10 2 -15 -11 -18 64 -108 91 -109 6 0 26
-14 45 -30 42 -36 35 -29 109 -110 33 -36 69 -74 81 -86 11 -12 20 -25 20 -30
0 -11 51 -87 73 -109 10 -9 15 -21 12 -26 -4 -5 1 -6 9 -3 10 4 16 1 16 -9 0
-9 7 -23 16 -31 8 -9 12 -21 8 -27 -5 -9 0 -10 14 -7 18 5 22 2 23 -20 1 -15
1 -30 0 -34 0 -5 6 -8 15 -8 11 0 14 -6 9 -20 -5 -16 -2 -20 19 -20 25 0 25
-2 20 -46 -3 -31 -2 -44 5 -39 7 3 11 -2 11 -14 0 -14 6 -21 19 -21 16 0 18
-5 15 -30 -3 -18 -1 -30 6 -30 6 0 10 -8 8 -17 -4 -26 10 -43 28 -36 13 5 15
-1 13 -28 -2 -19 -8 -37 -14 -42 -6 -4 -1 -9 12 -13 23 -6 38 -44 21 -55 -6
-4 -7 -12 -3 -19 5 -8 14 -5 31 11 13 12 24 26 24 31 0 9 17 26 99 97 28 24
51 48 51 53 0 14 82 87 98 88 7 0 15 7 18 15 4 8 11 15 18 15 6 0 17 9 24 20
7 11 17 20 22 20 6 0 23 12 38 27 15 16 40 36 56 47 25 16 28 22 23 57 -3 21
-1 39 4 39 5 0 9 -7 9 -15 0 -8 5 -15 10 -15 7 0 7 7 0 21 -6 11 -9 25 -6 32
2 7 8 2 11 -10 11 -35 25 -27 18 9 -4 22 -3 29 5 24 8 -5 12 1 12 14 0 13 4
19 11 14 8 -4 9 4 5 27 -7 34 -7 34 8 9 28 -46 18 6 -14 76 -24 52 -52 89
-139 177 -110 110 -145 159 -55 76 138 -129 194 -199 216 -272 7 -25 16 -36
25 -33 7 3 13 -1 13 -9 0 -7 5 -17 11 -21 7 -4 9 0 6 12 -4 11 -9 33 -12 49
l-7 30 17 -30 c23 -42 25 -42 19 1 -5 39 -5 39 11 14 l16 -25 -6 35 c-6 35 -6
35 9 10 15 -25 15 -24 10 15 l-5 40 15 -30 15 -30 -5 40 c-4 31 -3 37 6 25 9
-12 11 -10 7 12 -2 16 0 25 5 22 6 -4 7 -22 3 -41 -7 -38 1 -73 17 -73 5 0 33
23 61 51 29 27 76 66 105 85 28 19 52 39 52 45 0 5 6 9 14 9 23 0 27 71 5 96
-11 11 -19 25 -19 31 0 6 -7 14 -16 17 -11 4 -14 14 -10 33 5 21 -3 43 -29 86
-19 32 -35 64 -35 72 0 8 -5 17 -11 21 -9 5 -10 -1 -5 -20 4 -18 3 -25 -4 -21
-5 3 -10 17 -10 30 0 13 -8 30 -17 37 -22 16 -53 70 -53 92 0 9 -6 16 -12 16
-7 0 -22 14 -33 30 -11 16 -23 30 -27 30 -5 0 -8 7 -8 15 0 9 -7 18 -15 21
-10 4 -13 14 -9 30 4 15 2 24 -5 24 -6 0 -11 7 -11 15 0 8 -4 15 -10 15 -14 0
-13 -13 2 -28 6 -6 9 -14 6 -17 -3 -4 -19 11 -34 33 -96 133 -523 580 -699
733 -149 129 -258 217 -330 267 -22 15 -45 32 -51 38 -7 6 -45 33 -85 60 -41
27 -76 51 -79 54 -3 3 -18 14 -35 24 -16 11 -34 23 -40 28 -5 4 -41 29 -80 54
-38 26 -86 58 -105 73 -19 15 -57 41 -84 57 -28 16 -64 38 -82 49 -17 11 -64
40 -105 65 -41 24 -99 64 -130 87 -30 23 -76 52 -101 66 -25 13 -61 36 -79 49
-19 14 -50 29 -69 33 -19 4 -78 29 -130 55 -52 27 -111 53 -130 58 -19 6 -82
27 -140 47 -58 20 -157 50 -220 66 -63 16 -128 33 -145 39 -16 5 -41 12 -55
14 -14 3 -68 14 -120 26 -52 11 -115 25 -140 30 -25 4 -57 13 -72 19 -30 11
-378 54 -588 72 -188 16 -728 16 -945 0 -188 -14 -426 -41 -580 -65 -49 -8
-133 -21 -185 -30 -183 -29 -665 -146 -845 -205 -111 -36 -262 -105 -317 -145
-36 -25 -69 -46 -73 -46 -23 0 -310 -233 -365 -296 -16 -19 -11 -16 15 8 42
39 62 54 185 139 87 61 312 179 339 179 11 0 43 11 72 24 29 14 56 23 61 20 5
-3 36 4 70 16 33 11 67 19 73 16 7 -2 31 2 54 10 23 8 57 16 75 18 17 3 50 11
72 19 118 44 412 117 467 117 16 0 36 4 46 10 10 5 45 11 77 14 33 3 97 10
144 17 47 7 105 13 130 14 25 1 63 5 85 8 22 4 94 10 160 13 66 4 152 8 190
10 39 2 211 6 382 8 307 3 618 -13 843 -44 41 -5 102 -14 135 -18 33 -4 66
-11 73 -16 8 -5 39 -12 70 -17 103 -15 197 -36 219 -47 12 -7 39 -12 61 -12
22 0 53 -7 68 -15 16 -8 45 -15 64 -15 20 0 45 -6 56 -14 11 -8 38 -17 60 -21
21 -4 54 -16 72 -26 18 -10 43 -19 55 -19 12 0 43 -11 69 -25 26 -14 55 -25
65 -25 10 0 36 -11 58 -25 22 -13 48 -25 57 -25 22 0 88 -31 88 -41 0 -4 15
-10 33 -14 50 -10 85 -25 91 -40 3 -8 22 -17 43 -21 21 -3 47 -15 58 -25 11
-10 40 -25 64 -34 23 -8 56 -26 73 -40 16 -14 36 -25 43 -25 8 0 29 -13 47
-29 18 -15 43 -31 55 -35 12 -4 38 -20 58 -36 21 -17 46 -30 55 -30 9 0 34
-15 54 -34 20 -19 46 -38 58 -42 13 -4 40 -22 61 -40 20 -19 43 -34 51 -34 7
0 26 -12 41 -26 16 -15 43 -33 61 -40 18 -8 39 -22 46 -32 7 -11 32 -29 56
-41 23 -12 42 -26 42 -31 0 -5 25 -25 55 -45 30 -19 55 -39 55 -45 0 -5 15
-17 33 -26 17 -9 49 -32 70 -50 20 -19 42 -34 48 -34 11 0 43 -26 144 -115 50
-45 253 -246 302 -302 21 -22 44 -47 51 -55 8 -7 27 -26 43 -43 16 -16 44 -44
61 -62 18 -18 29 -35 26 -39 -4 -4 13 -22 37 -41 25 -19 45 -39 45 -45 0 -6
-15 1 -32 15 -44 35 -537 367 -545 367 -3 0 2 -9 12 -20 10 -11 22 -20 27 -20
13 0 108 -64 108 -74 0 -13 -22 -1 -130 69 -56 37 -103 65 -105 63 -3 -2 26
-24 63 -48 183 -120 302 -199 347 -233 28 -20 55 -37 60 -37 13 0 -21 27 -138
106 -54 37 -96 69 -93 71 2 3 67 -36 143 -86 182 -119 244 -163 238 -169 -2
-3 -24 8 -47 24 -67 45 -68 46 -63 32 3 -8 29 -28 58 -45 66 -41 121 -87 92
-79 -27 8 72 -84 116 -107 39 -21 40 -23 -55 57 -44 36 -58 64 -19 36 10 -7
-4 9 -32 34 -53 49 -53 62 1 21 51 -39 66 -56 60 -71 -3 -8 -2 -14 2 -14 16
-1 73 -58 76 -77 3 -11 16 -32 31 -47 15 -15 25 -32 23 -38 -3 -7 13 -28 34
-47 24 -23 34 -37 26 -42 -7 -5 5 -22 33 -48 24 -22 39 -41 34 -41 -6 0 -33
23 -60 51 -31 31 -42 48 -30 44 21 -7 -70 85 -130 131 -65 49 -46 18 27 -46
40 -34 75 -67 77 -72 2 -6 -7 -1 -20 10 -13 11 -55 46 -94 79 -78 65 -169 133
-179 133 -9 0 -129 83 -138 95 -4 5 -10 6 -14 2 -4 -4 -5 -8 -3 -10 2 -2 54
-36 114 -77 121 -81 152 -105 333 -262 145 -127 174 -159 178 -200 2 -17 11
-39 20 -49 9 -10 14 -25 11 -33 -4 -9 0 -31 8 -50 17 -40 19 -58 5 -36 -7 11
-10 11 -10 2 0 -7 -5 -10 -11 -6 -8 4 -7 9 2 14 15 10 -32 92 -84 151 -42 46
-180 168 -287 253 -47 37 -93 74 -102 81 -9 7 -27 19 -40 26 -12 7 -28 18 -35
25 -7 6 -29 22 -50 35 -21 13 -61 40 -89 61 -28 21 -56 38 -62 38 -7 0 -12 4
-12 8 0 5 -18 18 -40 31 -22 12 -40 19 -40 14 1 -6 108 -81 228 -158 9 -5 27
-20 41 -32 14 -13 29 -23 34 -23 4 0 36 -22 71 -48 191 -147 396 -340 434
-410 31 -57 21 -53 -17 6 -31 49 -129 148 -210 212 -24 19 -49 40 -55 45 -48
45 -141 120 -187 152 -31 21 -93 64 -139 96 -45 32 -84 57 -86 54 -3 -3 19
-22 48 -43 29 -21 58 -42 63 -46 6 -4 43 -31 84 -60 41 -29 95 -71 120 -94 25
-22 69 -58 96 -79 118 -93 208 -181 255 -252 27 -41 50 -80 50 -86 0 -7 -14
10 -31 37 -37 59 -51 54 -15 -7 14 -24 26 -50 26 -58 0 -14 -5 -8 -44 62 -43
77 -178 203 -396 369 -40 30 -90 69 -111 85 -21 17 -61 47 -89 69 -28 21 -49
41 -46 43 14 14 511 -385 585 -468 24 -28 46 -48 49 -45 10 10 -67 93 -155
167 -48 41 -90 76 -93 80 -14 15 -176 140 -238 184 -40 28 -84 60 -100 72 -15
13 -30 23 -34 23 -14 0 -81 60 -115 103 -7 8 -23 23 -35 32 -15 11 -19 19 -11
22 8 3 -8 21 -38 44 -27 22 -53 48 -56 57 -4 8 -22 29 -40 45 -18 16 -33 35
-33 43 0 7 -18 24 -40 36 -22 13 -43 32 -46 43 -3 12 -25 33 -50 48 -59 36
-57 55 4 21 76 -44 103 -56 108 -51 3 2 -48 31 -113 64 -73 37 -122 68 -128
81 -5 12 -26 28 -46 36 -20 8 -46 26 -56 40 -11 14 -33 31 -49 38 -16 7 -47
27 -68 45 -22 18 -45 33 -52 33 -7 0 -21 11 -31 24 -11 13 -38 33 -61 45 -24
12 -46 29 -49 37 -3 8 -27 26 -54 39 -26 14 -52 31 -56 38 -4 7 -29 23 -55 36
-27 13 -48 27 -48 31 0 5 -19 15 -42 25 -23 9 -54 27 -70 40 -15 13 -41 26
-56 30 -31 6 -76 50 -67 65 3 5 1 11 -5 15 -5 3 -10 -1 -10 -9 0 -20 -19 -31
-33 -17 -6 6 -19 11 -28 11 -10 0 -20 6 -22 13 -4 7 -6 6 -6 -4 -1 -9 10 -24
24 -33 14 -9 25 -24 25 -33 0 -9 12 -29 27 -45 14 -15 23 -31 20 -35 -8 -7
-47 31 -47 46 0 5 -7 12 -16 15 -8 3 -12 10 -9 16 3 5 1 10 -4 10 -6 0 -17 16
-25 35 -10 22 -22 35 -33 35 -16 0 -18 -7 -15 -41 4 -36 2 -40 -14 -37 -16 3
-19 12 -17 58 3 53 2 56 -34 78 -21 13 -52 26 -70 29 -19 3 -36 10 -39 14 -3
5 -13 9 -22 8 -12 0 -11 -3 6 -9 12 -5 22 -14 22 -20 0 -13 -4 -13 -47 5 -44
19 -53 19 -53 0 0 -8 18 -24 40 -35 22 -11 40 -25 40 -30 0 -5 9 -12 20 -15
11 -3 20 -10 20 -15 0 -10 -44 2 -85 24 -16 9 -38 16 -48 16 -16 0 -18 8 -16
62 3 70 -13 91 -78 103 -21 3 -49 13 -61 22 -22 13 -96 42 -164 63 -40 12 -36
-8 12 -63 31 -35 50 -47 81 -52 48 -8 63 0 25 14 -29 12 -34 26 -10 35 29 11
54 -12 54 -50 0 -25 -3 -33 -12 -28 -9 6 -9 3 0 -9 12 -14 11 -16 -9 -12 -13
3 -27 11 -31 20 -5 8 -21 15 -37 15 -46 0 -131 74 -131 114 0 30 -60 77 -100
78 -39 1 -43 -3 -44 -54 -1 -32 -5 -44 -18 -46 -16 -3 -18 5 -18 62 0 73 -3
77 -70 87 -25 4 -56 11 -69 15 -20 6 -23 4 -18 -10 6 -15 4 -15 -21 -3 -15 8
-42 17 -59 20 l-33 7 0 -45 c0 -25 -3 -45 -7 -45 -23 1 -32 22 -35 80 -3 62
-4 65 -28 62 -13 -1 -40 4 -60 11 -19 8 -70 18 -113 22 -76 7 -77 7 -74 -16 2
-13 10 -25 18 -27 8 -3 28 -10 44 -18 17 -7 39 -14 49 -16 11 -2 21 -9 24 -16
3 -10 -8 -11 -50 -6 -29 4 -69 12 -88 19 -31 11 -36 16 -40 55 l-5 44 -57 15
c-32 8 -60 12 -63 9 -3 -3 -8 -18 -11 -34 -8 -47 -12 -54 -34 -54 -12 0 -20 6
-19 13 1 6 1 31 0 55 l-1 42 -70 0 -70 0 0 -45 c0 -29 -4 -45 -12 -45 -18 0
-39 15 -37 26 9 51 -11 66 -93 68 -46 2 -48 1 -48 -26 0 -23 -4 -28 -25 -28
-23 0 -25 4 -25 43 l0 42 -55 13 c-71 17 -95 6 -95 -43 0 -21 -5 -35 -12 -36
-23 -1 -382 -1 -400 0 -13 1 -18 10 -18 35 0 32 -2 34 -43 39 -46 6 -204 -6
-214 -17 -4 -4 -7 -21 -7 -39 -1 -25 -5 -32 -21 -32 -16 0 -19 6 -17 31 4 41
-14 46 -138 38 -113 -8 -130 -15 -130 -53 0 -27 -15 -41 -42 -41 -6 0 -8 15
-6 36 l4 36 -35 -6 c-19 -3 -37 -10 -41 -16 -5 -9 -18 -8 -49 1 -49 14 -60 8
-70 -43 -5 -24 -13 -34 -29 -36 -19 -3 -22 1 -22 27 0 31 -1 31 -52 31 -65 0
-73 -6 -82 -52 -6 -33 -21 -48 -48 -48 -6 0 -8 13 -4 35 6 28 3 37 -10 42 -10
4 -19 2 -22 -5 -2 -7 -10 -12 -18 -12 -8 0 -14 -7 -14 -16 0 -10 -6 -14 -14
-11 -37 15 -99 28 -104 23 -3 -3 2 -6 12 -6 16 0 16 -1 2 -16 -9 -8 -16 -29
-16 -45 0 -25 -4 -29 -26 -29 -24 0 -26 3 -20 31 l6 30 -49 -5 c-64 -7 -76
-13 -89 -42 -7 -13 -16 -24 -21 -24 -6 0 -30 -14 -54 -31 -56 -39 -162 -53
-190 -24 -14 14 -24 15 -60 7 -68 -16 -151 -49 -158 -64 -4 -7 -12 -25 -18
-40 -7 -18 -18 -28 -31 -28 -17 0 -19 4 -14 27 7 26 7 26 -36 19 -24 -4 -55
-13 -69 -21 -14 -7 -66 -33 -116 -56 -49 -23 -115 -57 -145 -77 -30 -19 -80
-51 -110 -71 -108 -69 -166 -118 -292 -245 -71 -70 -128 -123 -128 -117 0 6
15 28 33 48 19 21 62 76 97 123 74 98 203 251 250 295 17 17 49 67 71 111 21
45 56 101 78 125 22 24 41 47 41 52 0 4 8 15 18 25 27 29 52 81 52 108 0 14 5
35 12 47 6 12 12 33 14 47 1 14 7 43 14 65 6 22 14 51 17 65 2 14 7 32 10 40
3 8 5 23 4 33 -1 10 3 24 9 32 6 7 10 19 9 27 -2 13 7 59 18 88 4 8 5 19 4 24
-1 5 1 16 5 25 4 9 8 25 9 36 2 11 6 31 9 45 3 14 11 51 18 82 8 31 16 60 20
63 4 4 4 13 1 21 -3 8 -1 20 5 27 5 6 13 36 17 64 4 29 11 55 16 59 5 3 9 15
9 28 0 12 3 26 8 30 4 4 8 20 9 34 3 42 12 93 20 105 7 12 9 19 19 80 3 20 11
37 16 37 6 0 8 10 5 21 -3 12 -2 29 3 38 8 15 70 279 70 298 0 12 -130 32
-257 40 l-99 6 -14 -29z m6640 -3541 c72 -55 266 -216 308 -257 54 -51 118
-137 140 -189 19 -44 13 -46 -9 -4 -25 48 -36 42 -14 -8 20 -50 14 -54 -10 -7
-23 43 -71 109 -100 135 -11 10 -42 40 -70 66 -27 26 -104 90 -170 143 -130
103 -150 122 -141 137 3 5 -12 24 -34 41 -22 17 -40 36 -40 42 0 5 28 -12 62
-39 34 -26 69 -53 78 -60z m190 -240 c110 -92 192 -184 218 -247 20 -47 7 -40
-21 11 -30 55 -95 129 -103 120 -4 -3 12 -27 34 -52 45 -51 82 -116 82 -143 0
-9 -13 8 -28 38 -29 59 -131 169 -249 269 -40 34 -73 67 -73 72 0 11 92 -64
172 -140 26 -25 50 -42 54 -38 3 3 0 12 -8 19 -56 52 -120 108 -157 138 -74
59 -121 102 -121 112 0 8 28 -14 200 -159z m507 125 c-3 -8 -6 -5 -6 6 -1 11
2 17 5 13 3 -3 4 -12 1 -19z m-377 -403 c27 -40 46 -85 36 -85 -3 0 -15 18
-26 39 -11 22 -51 73 -90 115 -38 42 -70 81 -70 88 0 16 112 -101 150 -157z
m-9 -50 c16 -27 29 -57 29 -65 0 -8 -7 -1 -15 15 -9 17 -35 57 -60 90 -25 33
-45 64 -45 70 1 15 58 -54 91 -110z m-18 -24 c28 -51 33 -66 18 -56 -9 5 -61
92 -61 101 0 2 4 4 8 4 5 0 21 -22 35 -49z m6 -83 l11 -33 -20 25 c-21 27 -25
40 -11 40 5 0 14 -15 20 -32z"/>
<path d="M12521 3934 c7 -9 40 -37 74 -62 146 -111 292 -243 352 -317 18 -22
32 -35 33 -28 0 7 -22 38 -48 70 -63 74 -131 134 -368 321 -45 34 -65 42 -43
16z"/>
<path d="M6828 7313 c7 -3 16 -2 19 1 4 3 -2 6 -13 5 -11 0 -14 -3 -6 -6z"/>
<path d="M6865 7310 c-3 -5 -1 -10 4 -10 6 0 11 5 11 10 0 6 -2 10 -4 10 -3 0
-8 -4 -11 -10z"/>
<path d="M6938 7303 c7 -3 16 -2 19 1 4 3 -2 6 -13 5 -11 0 -14 -3 -6 -6z"/>
<path d="M6905 7290 c3 -6 15 -10 26 -10 10 0 19 -4 19 -10 0 -13 -6 -13 -62
5 -42 12 -48 12 -48 0 0 -9 18 -19 45 -26 25 -6 45 -16 45 -21 0 -5 -10 -6
-21 -3 -12 4 -27 8 -33 9 -6 1 -26 8 -44 15 -25 11 -35 11 -47 1 -23 -19 -11
-27 70 -45 41 -9 75 -19 75 -21 0 -3 -7 -34 -16 -69 l-16 -65 -37 6 c-20 3
-40 9 -46 12 -17 11 -59 11 -72 0 -14 -11 -17 -48 -7 -85 5 -17 14 -23 33 -23
37 0 101 -19 101 -30 0 -13 -5 -13 -70 5 -81 22 -88 20 -99 -22 -6 -21 -11
-42 -11 -47 -1 -6 31 -17 70 -27 39 -9 73 -19 77 -23 15 -15 -7 -14 -75 3 -40
10 -74 16 -76 13 -7 -6 20 -32 33 -32 6 0 11 -4 11 -10 0 -5 -14 -10 -31 -10
-55 0 -26 -23 45 -37 71 -13 84 -18 72 -30 -3 -4 -37 1 -74 10 -66 16 -67 16
-84 -4 -10 -12 -16 -25 -13 -29 3 -5 31 -14 63 -20 31 -6 68 -15 81 -21 44
-18 13 -21 -65 -5 -42 9 -79 14 -82 12 -6 -7 24 -36 37 -36 6 0 11 -5 11 -11
0 -6 -7 -9 -15 -6 -8 4 -17 2 -20 -4 -4 -5 -11 -7 -16 -4 -5 4 -9 0 -9 -8 0
-9 23 -18 70 -27 67 -13 90 -23 73 -33 -5 -2 -39 2 -77 10 -63 13 -69 13 -81
-4 -17 -23 -12 -30 25 -38 16 -3 48 -25 71 -47 39 -37 40 -41 23 -51 -11 -6
-21 -14 -24 -18 -9 -14 -88 -20 -95 -8 -5 7 -13 4 -26 -7 -21 -19 -22 -23 -11
-42 7 -10 20 -8 63 9 30 13 58 26 63 31 6 4 18 8 27 8 9 0 22 7 29 15 7 9 15
14 17 11 3 -2 20 2 38 10 19 8 50 14 68 14 19 0 37 3 41 7 3 4 17 8 29 10 12
2 48 13 81 24 32 11 86 22 120 24 34 2 75 9 92 16 16 6 76 12 134 14 144 4
140 3 140 23 0 9 7 49 16 87 43 193 78 416 70 449 -4 18 -13 26 -29 26 -12 0
-28 4 -36 9 -9 6 -24 5 -39 0 -20 -8 -23 -7 -18 7 4 11 0 18 -14 21 -11 3 -20
9 -20 14 0 5 -7 9 -15 9 -9 0 -12 -6 -8 -17 6 -15 5 -16 -9 -3 -9 8 -15 19
-15 24 1 5 -4 11 -11 13 -8 3 -10 -1 -5 -14 6 -15 4 -16 -9 -6 -8 7 -18 10
-21 6 -4 -3 -7 3 -7 14 0 34 -50 37 -125 7 -18 -7 -18 -6 -7 9 12 14 12 19 -2
32 -9 9 -16 12 -16 6 0 -6 -13 -9 -30 -8 -31 2 -39 12 -17 20 6 2 1 5 -13 5
-46 0 -110 15 -110 24 0 5 -15 9 -32 7 -18 -1 -41 1 -50 5 -40 14 -49 15 -43
6z m195 -60 c0 -5 -2 -10 -4 -10 -3 0 -8 5 -11 10 -3 6 -1 10 4 10 6 0 11 -4
11 -10z m81 -37 c13 -16 12 -17 -3 -4 -10 7 -18 15 -18 17 0 8 8 3 21 -13z
m-10 -30 c13 -16 12 -17 -3 -4 -10 7 -18 15 -18 17 0 8 8 3 21 -13z m106 -5
c-3 -8 -6 -5 -6 6 -1 11 2 17 5 13 3 -3 4 -12 1 -19z"/>
<path d="M6770 7184 c0 -15 7 -23 25 -26 13 -3 22 -1 19 4 -3 5 -1 15 5 22 9
11 5 15 -19 18 -26 4 -30 1 -30 -18z"/>
<path d="M6863 7182 c-6 -4 -15 -28 -21 -54 -9 -47 -9 -48 15 -48 19 0 24 4
19 16 -3 9 -3 21 1 27 21 33 11 74 -14 59z"/>
<path d="M6757 7128 c-9 -33 21 -50 42 -24 9 11 8 18 -4 30 -22 22 -32 20 -38
-6z"/>
<path d="M6655 6840 c-3 -5 -1 -10 4 -10 6 0 11 5 11 10 0 6 -2 10 -4 10 -3 0
-8 -4 -11 -10z"/>
<path d="M6598 6443 c-6 -45 2 -52 56 -48 57 3 56 3 56 20 0 8 -3 15 -7 15 -5
0 -21 11 -37 25 -43 37 -63 33 -68 -12z"/>
<path d="M6520 6441 c0 -5 5 -13 10 -16 6 -3 10 -2 10 4 0 5 -4 13 -10 16 -5
3 -10 2 -10 -4z"/>
<path d="M8470 5985 c-8 -2 -33 -7 -55 -11 -39 -7 -38 -8 29 -15 76 -8 88 -6
79 16 -5 14 -19 17 -53 10z"/>
<path d="M8255 5973 c-27 -2 -54 -9 -60 -15 -7 -7 6 -9 45 -4 30 3 65 6 78 6
12 0 22 5 22 10 0 6 -8 9 -17 8 -10 -1 -40 -3 -68 -5z"/>
<path d="M8298 5933 c-60 -2 -108 -8 -108 -13 0 -13 22 -17 57 -9 18 4 89 5
158 3 74 -2 125 1 125 7 0 5 -15 9 -34 9 -18 0 -46 1 -62 3 -16 2 -77 2 -136
0z"/>
<path d="M7088 5873 c7 -3 16 -2 19 1 4 3 -2 6 -13 5 -11 0 -14 -3 -6 -6z"/>
<path d="M6666 5771 c-3 -5 -40 -19 -81 -32 -72 -23 -92 -40 -59 -53 36 -14
164 51 164 84 0 13 -17 13 -24 1z"/>
<path d="M10155 5670 c3 -5 -2 -10 -12 -11 -10 0 -13 -3 -6 -6 7 -2 23 3 35
11 l22 16 -22 0 c-13 0 -20 -4 -17 -10z"/>
<path d="M10245 5660 c-3 -5 3 -10 15 -10 12 0 18 5 15 10 -3 6 -10 10 -15 10
-5 0 -12 -4 -15 -10z"/>
<path d="M10327 5604 c6 -16 19 -18 27 -5 3 5 -3 11 -13 14 -14 3 -18 1 -14
-9z"/>
<path d="M10495 5550 c-3 -5 3 -10 14 -10 12 0 21 5 21 10 0 6 -6 10 -14 10
-8 0 -18 -4 -21 -10z"/>
<path d="M10604 5526 c31 -18 56 -22 41 -7 -6 5 -23 13 -40 16 l-30 7 29 -16z"/>
<path d="M10705 5480 c3 -5 11 -10 16 -10 6 0 7 5 4 10 -3 6 -11 10 -16 10 -6
0 -7 -4 -4 -10z"/>
<path d="M10763 5418 c-2 -27 0 -29 7 -13 11 26 12 45 2 45 -4 0 -8 -15 -9
-32z"/>
<path d="M10850 5400 c-22 -6 -23 -8 -7 -15 10 -4 21 -5 24 -1 4 3 14 -1 24
-10 10 -9 24 -14 33 -12 11 2 6 9 -17 24 -22 14 -40 18 -57 14z"/>
<path d="M11380 5090 c0 -5 5 -10 11 -10 5 0 7 5 4 10 -3 6 -8 10 -11 10 -2 0
-4 -4 -4 -10z"/>
<path d="M11380 5060 c0 -5 5 -10 11 -10 5 0 7 5 4 10 -3 6 -8 10 -11 10 -2 0
-4 -4 -4 -10z"/>
<path d="M11627 5049 c7 -7 15 -10 18 -7 3 3 -2 9 -12 12 -14 6 -15 5 -6 -5z"/>
<path d="M11807 5019 c7 -7 15 -10 18 -7 3 3 -2 9 -12 12 -14 6 -15 5 -6 -5z"/>
<path d="M11790 4796 c0 -2 7 -6 15 -10 8 -3 15 -1 15 4 0 6 -7 10 -15 10 -8
0 -15 -2 -15 -4z"/>
<path d="M11754 4781 c3 -5 20 -14 38 -20 38 -13 26 0 -15 17 -16 7 -26 8 -23
3z"/>
<path d="M11830 4780 c0 -5 5 -10 11 -10 5 0 7 5 4 10 -3 6 -8 10 -11 10 -2 0
-4 -4 -4 -10z"/>
<path d="M12000 4787 c3 -3 22 -17 43 -31 41 -28 65 -35 32 -10 -21 16 -84 51
-75 41z"/>
<path d="M12100 4780 c0 -5 4 -10 9 -10 5 0 18 -3 28 -6 16 -6 16 -5 -2 9 -23
19 -35 21 -35 7z"/>
<path d="M12160 4776 c0 -2 7 -7 16 -10 8 -3 12 -2 9 4 -6 10 -25 14 -25 6z"/>
<path d="M12019 4740 c13 -11 27 -20 32 -20 17 0 9 9 -23 24 l-33 16 24 -20z"/>
<path d="M11965 4740 c3 -5 8 -10 11 -10 2 0 4 5 4 10 0 6 -5 10 -11 10 -5 0
-7 -4 -4 -10z"/>
<path d="M11860 4730 c0 -5 5 -10 11 -10 5 0 7 5 4 10 -3 6 -8 10 -11 10 -2 0
-4 -4 -4 -10z"/>
<path d="M11930 4733 c0 -10 40 -36 46 -30 3 2 -7 12 -21 21 -14 9 -25 13 -25
9z"/>
<path d="M12140 4737 c0 -9 91 -70 96 -64 3 2 -7 12 -21 21 -14 9 -36 23 -50
32 -14 9 -25 14 -25 11z"/>
<path d="M11995 4720 c3 -5 11 -10 16 -10 6 0 7 5 4 10 -3 6 -11 10 -16 10 -6
0 -7 -4 -4 -10z"/>
<path d="M12100 4726 c0 -2 7 -7 16 -10 8 -3 12 -2 9 4 -6 10 -25 14 -25 6z"/>
<path d="M11835 4706 c11 -7 43 -24 70 -38 84 -41 179 -98 206 -124 14 -13 28
-24 31 -24 4 0 37 -21 73 -46 37 -25 70 -43 73 -40 7 7 21 -3 -148 107 -80 52
-182 114 -227 137 -80 42 -116 54 -78 28z"/>
<path d="M11907 4705 c24 -17 73 -37 73 -30 0 6 -76 45 -87 45 -4 0 2 -7 14
-15z"/>
<path d="M12082 4704 c10 -10 20 -16 22 -13 3 3 -5 11 -17 18 -21 13 -21 12
-5 -5z"/>
<path d="M12220 4713 c0 -5 10 -15 23 -22 97 -61 121 -67 32 -7 -30 20 -55 33
-55 29z"/>
<path d="M12150 4696 c0 -2 18 -15 40 -30 22 -14 40 -23 40 -19 0 5 -16 18
-35 31 -34 21 -45 26 -45 18z"/>
<path d="M12120 4683 c0 -5 19 -20 43 -33 23 -13 44 -27 47 -30 9 -13 122 -82
126 -78 4 5 -80 68 -91 68 -3 0 -21 11 -38 24 -55 41 -87 59 -87 49z"/>
<path d="M12020 4641 c19 -17 43 -32 53 -34 29 -8 9 10 -41 37 l-47 26 35 -29z"/>
<path d="M12250 4661 c0 -5 13 -14 29 -21 28 -11 82 -60 67 -60 -4 0 -20 8
-34 19 -15 10 -38 24 -52 31 -36 18 -12 -7 34 -34 19 -12 61 -40 95 -64 33
-23 69 -45 78 -48 10 -4 0 6 -22 22 -22 15 -44 32 -50 36 -5 5 -19 16 -30 24
-19 15 -19 15 -1 9 19 -6 19 -5 1 15 -24 26 -115 83 -115 71z"/>
<path d="M12125 4575 c34 -31 85 -59 85 -48 0 8 -20 22 -80 56 l-35 20 30 -28z"/>
<path d="M11960 4576 c0 -2 28 -22 63 -44 34 -22 78 -51 97 -65 64 -43 185
-121 210 -135 14 -7 35 -23 47 -34 13 -12 25 -19 28 -16 5 5 -67 68 -78 68 -2
0 -44 26 -93 58 -49 32 -110 71 -136 88 -45 27 -59 44 -39 44 5 0 84 -51 176
-112 92 -62 190 -127 217 -144 27 -18 60 -40 72 -50 33 -28 87 -57 93 -50 3 3
-6 11 -21 17 -14 7 -26 16 -26 21 0 4 -5 8 -11 8 -6 0 -41 21 -78 47 -36 26
-133 91 -216 146 -82 54 -169 112 -192 128 -40 27 -58 28 -31 1 19 -19 -3 -14
-40 8 -33 20 -42 24 -42 16z"/>
<path d="M12355 4520 c8 -13 65 -43 65 -34 0 3 -10 14 -22 25 -24 19 -53 26
-43 9z"/>
<path d="M12225 4511 c3 -6 32 -28 63 -49 31 -21 93 -63 137 -93 93 -65 149
-96 100 -56 -65 53 -311 215 -300 198z"/>
<path d="M12070 4471 c0 -5 26 -26 58 -46 31 -21 76 -50 99 -66 23 -16 44 -29
47 -29 6 0 169 -110 176 -119 9 -11 89 -61 99 -61 5 0 11 -3 13 -7 2 -5 33
-30 70 -58 37 -27 68 -54 68 -58 0 -4 -24 10 -52 31 -73 54 -295 203 -405 272
-162 102 -100 48 90 -78 270 -180 309 -207 374 -264 33 -29 91 -79 130 -111
68 -56 148 -136 206 -207 21 -26 25 -28 16 -10 -6 14 -20 37 -30 52 -23 32
-25 45 -4 28 8 -7 15 -8 15 -3 0 12 -113 127 -185 186 -33 27 -62 53 -65 56
-14 17 -123 103 -175 138 -33 22 -85 57 -115 78 -30 20 -113 76 -185 123 -71
47 -156 102 -187 123 -32 21 -58 35 -58 30z m795 -580 c63 -56 115 -107 115
-113 0 -6 -26 13 -57 43 -80 75 -193 173 -204 177 -5 2 -9 8 -9 13 0 15 27 -6
155 -120z"/>
<path d="M12440 4465 c6 -8 33 -26 58 -40 l47 -25 -35 30 c-19 16 -41 30 -47
30 -7 0 -13 5 -13 10 0 6 -5 10 -11 10 -8 0 -8 -4 1 -15z"/>
<path d="M3760 4450 c0 -5 5 -10 11 -10 5 0 7 5 4 10 -3 6 -8 10 -11 10 -2 0
-4 -4 -4 -10z"/>
<path d="M3885 4435 c-27 -6 -88 -24 -135 -38 -47 -14 -130 -37 -185 -51 -55
-14 -145 -37 -200 -52 -96 -25 -270 -64 -290 -64 -5 0 0 -9 12 -21 17 -18 24
-19 43 -9 17 9 25 9 38 -3 13 -11 31 -12 77 -6 104 13 197 28 310 49 61 11
146 25 190 30 44 6 109 15 145 21 36 6 96 12 135 15 38 3 73 8 77 12 10 11
-11 99 -28 112 -20 17 -130 20 -189 5z"/>
<path d="M7610 4422 c-46 -5 -79 -24 -83 -45 -4 -21 -4 -21 -6 1 -1 16 -5 21
-13 16 -16 -10 -138 -13 -143 -3 -3 4 -34 -2 -70 -12 -45 -14 -80 -18 -117
-14 -29 3 -61 6 -70 6 -10 0 -18 4 -18 10 0 16 -28 10 -42 -9 -18 -25 -46 -34
-69 -22 -16 9 -19 7 -19 -9 0 -11 3 -21 8 -24 4 -2 1 -2 -5 -1 -7 2 -13 -5
-13 -16 0 -21 19 -27 36 -10 12 12 56 16 239 25 71 4 136 10 145 14 8 5 62 7
119 5 71 -3 107 0 112 7 5 8 15 7 38 -4 27 -13 37 -14 82 -2 28 8 57 11 65 8
15 -6 44 13 44 29 0 6 -7 5 -16 -3 -13 -10 -17 -10 -25 2 -5 8 -9 18 -9 22 0
4 -6 7 -12 5 -7 -1 -24 4 -38 12 -25 14 -70 18 -120 12z"/>
<path d="M12320 4411 c0 -11 69 -55 76 -48 3 3 -7 14 -23 24 -44 31 -53 35
-53 24z"/>
<path d="M8158 4388 c-3 -7 -25 -11 -63 -10 -32 1 -62 -1 -67 -4 -13 -9 12
-34 33 -34 11 0 19 -5 19 -12 0 -6 8 -4 19 6 17 15 23 16 43 5 26 -15 34 -17
138 -23 41 -2 86 -8 100 -13 31 -12 72 -3 62 14 -7 11 -61 24 -104 24 -11 0
-18 8 -18 20 0 11 -5 17 -10 14 -6 -4 -24 1 -42 9 -37 19 -105 21 -110 4z"/>
<path d="M7965 4370 c-4 -6 -15 -10 -26 -10 -10 0 -19 -5 -19 -11 0 -8 11 -9
31 -5 17 3 35 6 40 6 5 0 9 4 9 9 0 13 -28 22 -35 11z"/>
<path d="M12410 4353 c1 -13 90 -77 97 -69 7 7 11 4 -49 45 -27 18 -48 28 -48
24z"/>
<path d="M8490 4297 c0 -14 9 -17 48 -17 78 0 80 -1 85 -19 3 -14 16 -18 61
-20 31 -1 56 2 56 8 0 5 -8 7 -18 4 -10 -2 -24 3 -31 11 -8 9 -23 16 -34 16
-11 0 -25 7 -32 17 -9 12 -29 16 -74 17 -52 1 -61 -2 -61 -17z"/>
<path d="M12590 4261 c43 -37 29 -41 -23 -5 -21 14 -41 24 -43 21 -3 -3 22
-22 56 -43 44 -27 59 -42 55 -54 -3 -11 8 -27 36 -49 22 -18 43 -30 46 -27 5
5 -7 17 -66 63 -9 7 -11 13 -5 13 6 0 17 -7 24 -15 7 -8 18 -15 25 -15 8 0 15
-3 17 -8 6 -14 128 -115 133 -110 8 8 -166 158 -183 158 -14 0 -37 30 -37 48
0 9 -16 24 -35 35 l-35 19 35 -31z"/>
<path d="M8817 4250 c-9 -11 -17 -28 -17 -38 0 -13 2 -14 9 -3 6 9 11 10 15 2
12 -19 28 -12 21 9 -4 11 -2 20 4 20 6 0 11 -9 11 -20 0 -11 5 -20 10 -20 13
0 13 10 -2 43 -15 32 -28 34 -51 7z"/>
<path d="M8762 4229 c2 -6 8 -10 13 -10 5 0 11 4 13 10 2 6 -4 11 -13 11 -9 0
-15 -5 -13 -11z"/>
<path d="M12300 4210 c14 -10 27 -17 29 -14 6 5 -31 33 -44 33 -5 1 1 -8 15
-19z"/>
<path d="M9111 4136 c-12 -15 -12 -15 52 -32 27 -8 20 10 -12 29 -24 14 -30
15 -40 3z"/>
<path d="M6102 4000 c-42 -14 -68 -33 -135 -102 -45 -46 -117 -113 -160 -148
-72 -58 -77 -65 -61 -77 16 -12 14 -13 -16 -7 -33 6 -34 6 -15 -9 11 -9 15
-17 8 -17 -7 0 -13 -18 -15 -42 -2 -32 -8 -45 -26 -54 -37 -18 -38 -24 -9 -49
17 -14 24 -26 18 -30 -6 -3 -11 -1 -11 4 0 6 -4 11 -9 11 -5 0 -11 -23 -13
-50 -4 -35 -12 -57 -27 -71 -11 -11 -21 -23 -21 -28 0 -4 -23 -31 -51 -59 -42
-42 -58 -52 -85 -52 -30 0 -34 -3 -34 -25 0 -23 -4 -25 -42 -25 -32 0 -39 -3
-28 -10 8 -5 11 -10 6 -10 -5 0 -17 7 -26 15 -14 13 -22 14 -44 4 -14 -7 -26
-17 -26 -23 0 -6 -13 -25 -30 -42 -16 -18 -27 -34 -24 -37 10 -10 -152 -159
-198 -183 -27 -13 -48 -29 -48 -34 0 -6 -9 -10 -21 -10 -27 0 -79 -31 -79 -47
0 -19 19 -26 36 -12 11 9 18 9 32 -3 9 -8 28 -15 41 -16 13 0 28 -7 33 -14 8
-10 11 -10 15 0 2 6 16 12 29 12 21 0 24 -4 24 -40 0 -36 3 -40 25 -40 25 0
33 -14 15 -25 -5 -3 -10 -19 -10 -34 0 -26 -3 -28 -33 -26 -19 2 -40 -1 -48
-6 -9 -5 35 -9 114 -9 83 0 127 4 127 11 0 5 5 7 11 3 11 -7 166 -6 409 2 74
2 151 4 170 3 19 0 69 4 110 10 41 6 122 16 180 22 58 6 114 13 125 14 11 2
23 4 28 4 11 1 8 31 -3 31 -5 0 -10 9 -10 20 0 11 -11 49 -25 86 -14 36 -25
76 -25 88 0 22 -31 149 -49 201 -18 52 -34 142 -27 153 3 5 0 12 -7 15 -7 3
-19 31 -27 63 -7 33 -17 67 -22 76 -11 23 -21 422 -13 513 6 63 9 72 36 91 41
29 25 35 -39 14z"/>
<path d="M9350 4015 c0 -5 103 -55 115 -55 5 0 -4 14 -20 30 -21 22 -38 30
-62 30 -18 0 -33 -2 -33 -5z"/>
<path d="M13170 4003 c0 -5 8 -17 17 -28 14 -18 15 -18 9 -2 -3 10 -6 23 -6
28 0 5 -4 9 -10 9 -5 0 -10 -3 -10 -7z"/>
<path d="M4150 3990 c20 -13 40 -13 40 0 0 6 -12 10 -27 10 -22 0 -25 -2 -13
-10z"/>
<path d="M3975 3953 c15 -16 55 -26 55 -14 0 6 -6 11 -14 11 -8 0 -23 3 -33 6
-12 5 -15 4 -8 -3z"/>
<path d="M4075 3950 c28 -12 55 -12 55 0 0 6 -17 10 -37 9 -31 0 -34 -2 -18
-9z"/>
<path d="M3700 3930 c0 -5 6 -10 13 -10 6 0 23 -3 37 -6 17 -5 22 -3 15 3 -15
15 -65 25 -65 13z"/>
<path d="M3805 3930 c28 -12 47 -12 40 0 -3 6 -18 10 -33 9 -24 0 -25 -1 -7
-9z"/>
<path d="M3868 3933 c7 -3 16 -2 19 1 4 3 -2 6 -13 5 -11 0 -14 -3 -6 -6z"/>
<path d="M3950 3930 c0 -5 5 -10 10 -10 6 0 10 5 10 10 0 6 -4 10 -10 10 -5 0
-10 -4 -10 -10z"/>
<path d="M3630 3920 c8 -5 24 -9 35 -9 l20 0 -20 9 c-11 5 -27 9 -35 9 -13 1
-13 0 0 -9z"/>
<path d="M3506 3909 c4 -8 -4 -9 -27 -4 -19 4 -30 4 -26 -1 10 -10 107 -12
107 -3 0 6 -35 19 -53 19 -5 0 -5 -5 -1 -11z"/>
<path d="M3585 3910 c27 -12 43 -12 25 0 -8 5 -22 9 -30 9 -10 0 -8 -3 5 -9z"/>
<path d="M3315 3890 c17 -7 16 -9 -9 -9 -16 -1 -27 -4 -23 -7 10 -10 138 7
132 17 -4 5 -32 9 -63 8 -41 0 -51 -3 -37 -9z"/>
<path d="M9550 3890 c0 -5 6 -10 13 -10 7 0 22 -10 33 -22 11 -13 38 -39 60
-59 23 -20 44 -43 47 -52 6 -17 57 -25 57 -9 -1 4 -19 21 -40 37 -21 17 -39
35 -40 40 0 10 -110 85 -123 85 -4 0 -7 -4 -7 -10z"/>
<path d="M3035 3870 c-3 -5 -20 -7 -38 -4 -28 4 -29 3 -9 -6 12 -5 44 -7 69
-3 36 5 43 8 28 14 -28 11 -43 11 -50 -1z"/>
<path d="M3160 3870 c19 -13 30 -13 30 0 0 6 -10 10 -22 10 -19 0 -20 -2 -8
-10z"/>
<path d="M2857 3843 c19 -7 32 -8 40 -1 7 5 26 7 44 3 21 -5 29 -4 25 3 -4 7
-34 10 -72 9 -59 -2 -63 -3 -37 -14z"/>
<path d="M4140 3854 c-8 -1 -60 -6 -114 -9 -57 -4 -94 -10 -85 -15 16 -9 234
11 245 23 7 7 -16 8 -46 1z"/>
<path d="M2280 3830 c0 -5 5 -10 10 -10 6 0 10 5 10 10 0 6 -4 10 -10 10 -5 0
-10 -4 -10 -10z"/>
<path d="M2795 3830 c3 -5 11 -10 16 -10 6 0 7 5 4 10 -3 6 -11 10 -16 10 -6
0 -7 -4 -4 -10z"/>
<path d="M2315 3823 c16 -15 97 -43 156 -53 30 -5 65 -12 79 -16 17 -5 22 -4
15 4 -12 12 -174 62 -225 69 -22 3 -31 2 -25 -4z"/>
<path d="M2595 3820 c28 -12 47 -12 40 0 -3 6 -18 10 -33 9 -24 0 -25 -1 -7
-9z"/>
<path d="M3760 3822 c0 -4 18 -6 40 -4 22 2 40 6 40 8 0 2 -18 4 -40 4 -22 0
-40 -3 -40 -8z"/>
<path d="M3548 3803 c6 -2 18 -2 25 0 6 3 1 5 -13 5 -14 0 -19 -2 -12 -5z"/>
<path d="M3360 3790 c0 -6 16 -8 43 -4 58 9 59 14 4 14 -26 0 -47 -5 -47 -10z"/>
<path d="M3268 3783 c12 -2 32 -2 45 0 12 2 2 4 -23 4 -25 0 -35 -2 -22 -4z"/>
<path d="M3095 3770 l-40 -7 35 -1 c19 0 53 3 75 7 l40 9 -35 -1 c-19 0 -53
-3 -75 -7z"/>
<path d="M3218 3773 c7 -3 16 -2 19 1 4 3 -2 6 -13 5 -11 0 -14 -3 -6 -6z"/>
<path d="M2958 3753 c6 -2 18 -2 25 0 6 3 1 5 -13 5 -14 0 -19 -2 -12 -5z"/>
<path d="M2848 3743 c6 -2 18 -2 25 0 6 3 1 5 -13 5 -14 0 -19 -2 -12 -5z"/>
<path d="M13440 3600 c0 -5 4 -10 9 -10 6 0 13 5 16 10 3 6 -1 10 -9 10 -9 0
-16 -4 -16 -10z"/>
<path d="M5558 3563 c6 -2 18 -2 25 0 6 3 1 5 -13 5 -14 0 -19 -2 -12 -5z"/>
<path d="M5512 3540 c-7 -11 -10 -20 -6 -20 7 0 34 27 34 34 0 13 -16 5 -28
-14z"/>
<path d="M14777 3549 c8 -8 16 -8 30 0 16 9 14 10 -11 11 -22 0 -27 -3 -19
-11z"/>
<path d="M14698 3473 c7 -3 16 -2 19 1 4 3 -2 6 -13 5 -11 0 -14 -3 -6 -6z"/>
<path d="M14595 3460 c-4 -6 5 -10 20 -10 15 0 24 4 20 10 -3 6 -12 10 -20 10
-8 0 -17 -4 -20 -10z"/>
<path d="M5450 3400 c-9 -6 -10 -10 -3 -10 6 0 15 5 18 10 8 12 4 12 -15 0z"/>
<path d="M5600 3384 c0 -8 5 -12 10 -9 6 3 10 10 10 16 0 5 -4 9 -10 9 -5 0
-10 -7 -10 -16z"/>
<path d="M10050 3310 c0 -5 5 -10 10 -10 6 0 10 5 10 10 0 6 -4 10 -10 10 -5
0 -10 -4 -10 -10z"/>
<path d="M12970 3300 c1 -8 7 -24 15 -34 19 -25 19 -16 0 20 -8 16 -15 22 -15
14z"/>
<path d="M10160 3291 c0 -5 -3 -17 -7 -27 -4 -11 -3 -15 5 -10 6 3 13 2 17 -4
3 -5 11 -10 17 -10 6 0 4 8 -5 18 -13 14 -14 21 -5 30 9 9 8 12 -5 12 -9 0
-17 -4 -17 -9z"/>
<path d="M9940 3269 c0 -17 27 -39 49 -39 12 0 21 3 21 8 -1 11 -70 43 -70 31z"/>
<path d="M12915 3210 c3 -5 8 -10 11 -10 2 0 4 5 4 10 0 6 -5 10 -11 10 -5 0
-7 -4 -4 -10z"/>
<path d="M10242 3114 c10 -10 20 -15 24 -12 3 4 -5 12 -18 18 -22 12 -22 12
-6 -6z"/>
<path d="M14540 3120 c0 -5 5 -10 10 -10 6 0 10 5 10 10 0 6 -4 10 -10 10 -5
0 -10 -4 -10 -10z"/>
<path d="M10045 3110 c3 -5 11 -10 16 -10 6 0 7 5 4 10 -3 6 -11 10 -16 10 -6
0 -7 -4 -4 -10z"/>
<path d="M10145 3080 c4 -6 11 -8 16 -5 14 9 11 15 -7 15 -8 0 -12 -5 -9 -10z"/>
<path d="M10488 3053 c6 -2 18 -2 25 0 6 3 1 5 -13 5 -14 0 -19 -2 -12 -5z"/>
<path d="M10598 3043 c7 -3 16 -2 19 1 4 3 -2 6 -13 5 -11 0 -14 -3 -6 -6z"/>
<path d="M10081 2945 c-1 -19 14 -33 44 -40 29 -7 29 -7 10 8 -11 9 -25 17
-32 17 -6 0 -14 6 -16 13 -3 6 -6 8 -6 2z"/>
<path d="M10865 2940 c3 -5 8 -10 11 -10 2 0 4 5 4 10 0 6 -5 10 -11 10 -5 0
-7 -4 -4 -10z"/>
<path d="M10950 2920 c14 -4 34 -8 45 -9 16 -1 17 1 5 9 -8 5 -28 9 -45 9 -29
-1 -29 -1 -5 -9z"/>
<path d="M10165 2910 c3 -5 8 -10 11 -10 2 0 4 5 4 10 0 6 -5 10 -11 10 -5 0
-7 -4 -4 -10z"/>
<path d="M10698 2913 c7 -3 16 -2 19 1 4 3 -2 6 -13 5 -11 0 -14 -3 -6 -6z"/>
<path d="M10757 2858 c-40 -41 -58 -46 -35 -9 10 16 10 23 0 33 -9 9 -12 7
-12 -10 0 -19 -6 -22 -36 -22 -41 0 -43 -23 -3 -28 13 -2 29 -8 36 -14 8 -6
19 -5 34 3 17 9 24 9 27 0 5 -16 23 -14 37 6 16 21 35 9 35 -23 0 -27 12 -31
34 -9 19 20 22 19 22 -5 0 -14 -7 -20 -24 -20 -13 0 -20 -4 -17 -10 8 -13 76
-13 95 1 11 8 12 12 3 16 -14 5 -18 23 -5 23 5 0 14 -11 21 -24 8 -13 26 -26
41 -29 16 -4 30 -14 33 -26 5 -21 37 -30 37 -11 0 6 9 10 20 10 22 0 27 -16 8
-22 -7 -3 -6 -7 5 -11 11 -4 17 -1 17 9 0 11 6 13 19 9 11 -3 22 -1 26 5 3 5
11 10 17 10 7 0 7 -4 -1 -13 -8 -11 -5 -17 14 -27 14 -7 25 -19 25 -26 0 -7 8
-15 18 -17 9 -3 38 -10 65 -17 26 -7 47 -17 47 -22 0 -5 9 -7 19 -3 16 5 24
-3 43 -45 16 -36 29 -50 43 -50 35 0 95 -26 110 -47 19 -27 97 -66 105 -52 4
6 12 4 20 -6 14 -17 80 -21 80 -5 0 6 -4 10 -10 10 -5 0 -10 6 -10 14 0 9 -7
12 -19 9 -11 -3 -30 2 -43 11 -12 9 -35 16 -50 16 -21 0 -28 5 -28 19 0 18
-45 71 -61 71 -5 0 -9 11 -9 24 0 16 -7 27 -20 31 -11 3 -20 12 -20 19 0 8 -7
19 -15 26 -8 7 -15 20 -15 29 0 9 -13 35 -30 58 -16 22 -27 42 -25 45 3 3 -1
11 -9 17 -8 7 -12 19 -9 27 7 18 -17 18 -52 0 -14 -8 -53 -14 -86 -15 -33 0
-64 -3 -70 -6 -5 -4 -12 1 -15 9 -4 11 -14 14 -29 10 -17 -4 -26 0 -35 15 -6
12 -18 21 -26 21 -8 0 -25 5 -37 12 -29 15 -77 20 -77 8 0 -5 11 -12 25 -16
14 -3 25 -10 25 -14 0 -4 -11 -5 -25 -2 -14 2 -25 9 -25 14 0 6 -7 8 -14 5
-10 -4 -13 -1 -10 7 4 9 -2 14 -18 13 -13 0 -35 3 -50 7 -22 7 -28 5 -28 -8 0
-18 -8 -20 -29 -7 -8 5 -11 16 -8 25 12 30 -27 15 -66 -26z m243 -58 c0 -5 -6
-10 -14 -10 -8 0 -18 5 -21 10 -3 6 3 10 14 10 12 0 21 -4 21 -10z m76 -42 c4
-5 -4 -8 -17 -6 -12 1 -24 8 -26 15 -5 14 34 6 43 -9z m48 -13 c-4 -8 -11 -15
-16 -15 -6 0 -5 6 2 15 7 8 14 15 16 15 2 0 1 -7 -2 -15z"/>
<path d="M10050 2879 c0 -5 5 -7 10 -4 6 3 10 8 10 11 0 2 -4 4 -10 4 -5 0
-10 -5 -10 -11z"/>
<path d="M14585 2880 c-3 -5 -1 -10 4 -10 6 0 11 5 11 10 0 6 -2 10 -4 10 -3
0 -8 -4 -11 -10z"/>
<path d="M10438 2873 c7 -3 16 -2 19 1 4 3 -2 6 -13 5 -11 0 -14 -3 -6 -6z"/>
<path d="M10245 2860 c3 -5 13 -10 21 -10 8 0 14 5 14 10 0 6 -9 10 -21 10
-11 0 -17 -4 -14 -10z"/>
<path d="M14545 2850 c-16 -7 -17 -9 -3 -9 9 -1 20 4 23 9 7 11 7 11 -20 0z"/>
<path d="M10395 2840 c3 -5 8 -10 11 -10 2 0 4 5 4 10 0 6 -5 10 -11 10 -5 0
-7 -4 -4 -10z"/>
<path d="M10585 2840 c3 -5 14 -10 23 -10 15 0 15 2 2 10 -20 13 -33 13 -25 0z"/>
<path d="M10156 2825 c4 -8 11 -15 16 -15 6 0 5 6 -2 15 -7 8 -14 15 -16 15
-2 0 -1 -7 2 -15z"/>
<path d="M14485 2810 c3 -5 13 -10 21 -10 8 0 12 5 9 10 -3 6 -13 10 -21 10
-8 0 -12 -4 -9 -10z"/>
<path d="M14445 2800 c-8 -13 4 -32 16 -25 12 8 12 35 0 35 -6 0 -13 -4 -16
-10z"/>
<path d="M14390 2780 c0 -12 -11 -22 -35 -30 -37 -12 -44 -24 -20 -34 9 -3 19
3 25 15 6 11 15 17 21 14 10 -7 39 18 39 33 0 6 -7 12 -15 16 -10 3 -15 -1
-15 -14z"/>
<path d="M10750 2774 c0 -8 5 -12 10 -9 6 3 10 10 10 16 0 5 -4 9 -10 9 -5 0
-10 -7 -10 -16z"/>
<path d="M10796 2775 c-3 -9 0 -15 9 -15 16 0 20 16 6 24 -5 3 -11 -1 -15 -9z"/>
<path d="M4850 2766 c0 -2 7 -6 15 -10 8 -3 15 -1 15 4 0 6 -7 10 -15 10 -8 0
-15 -2 -15 -4z"/>
<path d="M10548 2763 c7 -3 16 -2 19 1 4 3 -2 6 -13 5 -11 0 -14 -3 -6 -6z"/>
<path d="M14295 2720 c-3 -5 -1 -10 4 -10 6 0 11 5 11 10 0 6 -2 10 -4 10 -3
0 -8 -4 -11 -10z"/>
<path d="M14233 2696 c-7 -8 -18 -16 -25 -19 -7 -2 -9 -8 -5 -13 4 -5 12 -2
17 6 6 8 10 11 10 5 0 -5 5 -3 10 5 8 13 13 13 31 2 27 -17 39 -6 13 13 -24
18 -36 18 -51 1z"/>
<path d="M14145 2650 c-27 -6 -28 -8 -10 -15 11 -5 25 -16 32 -24 8 -10 12
-11 13 -4 0 6 -5 15 -12 19 -7 5 -5 11 7 21 20 14 16 15 -30 3z"/>
<path d="M14220 2650 c0 -5 5 -10 10 -10 6 0 10 5 10 10 0 6 -4 10 -10 10 -5
0 -10 -4 -10 -10z"/>
<path d="M14077 2613 c-3 -5 6 -16 19 -26 13 -10 24 -13 24 -7 0 5 -5 10 -11
10 -6 0 -9 7 -5 15 5 15 -19 22 -27 8z"/>
<path d="M14010 2580 c-14 -11 -35 -20 -47 -20 -25 0 -31 -15 -10 -23 16 -6
28 -8 25 -4 -6 7 33 39 39 33 7 -7 33 13 33 25 0 14 -13 10 -40 -11z"/>
<path d="M14056 2561 c-4 -7 -5 -15 -2 -18 9 -9 19 4 14 18 -4 11 -6 11 -12 0z"/>
<path d="M13898 2522 c-16 -7 -16 -8 3 -21 19 -11 21 -11 16 2 -3 9 -1 18 6
21 7 2 8 4 2 5 -5 0 -18 -4 -27 -7z"/>
<path d="M13841 2486 c-7 -8 -8 -17 -3 -19 4 -3 13 3 20 14 14 22 0 26 -17 5z"/>
<path d="M13767 2463 c-23 -6 -17 -27 9 -32 10 -2 16 0 12 4 -4 5 -3 14 3 22
12 13 8 14 -24 6z"/>
<path d="M13706 2421 c-14 -5 -16 -10 -7 -15 15 -9 41 -1 41 14 0 11 -7 12
-34 1z"/>
<path d="M12138 2393 c-16 -8 -28 -18 -28 -23 0 -21 18 -17 51 11 36 30 23 37
-23 12z"/>
<path d="M13610 2390 c0 -5 7 -10 15 -10 8 0 15 5 15 10 0 6 -7 10 -15 10 -8
0 -15 -4 -15 -10z"/>
<path d="M13550 2362 c0 -12 22 -32 35 -32 7 0 12 7 12 15 0 8 -4 12 -9 9 -4
-3 -8 0 -8 5 0 6 -7 11 -15 11 -8 0 -15 -4 -15 -8z"/>
<path d="M11790 2353 c1 -5 21 -18 46 -31 28 -14 44 -17 42 -10 -2 7 -14 17
-26 23 -12 5 -22 13 -22 17 0 5 -9 8 -20 8 -11 0 -20 -3 -20 -7z"/>
<path d="M11967 2344 c-11 -12 3 -24 28 -24 13 0 26 4 29 9 10 15 -43 29 -57
15z"/>
<path d="M13480 2320 c20 -13 33 -13 25 0 -3 6 -14 10 -23 10 -15 0 -15 -2 -2
-10z"/>
<path d="M11930 2300 c20 -13 40 -13 40 0 0 6 -12 10 -27 10 -22 0 -25 -2 -13
-10z"/>
<path d="M13415 2301 c-3 -5 -1 -12 5 -16 12 -7 30 2 30 16 0 12 -27 12 -35 0z"/>
<path d="M13362 2260 c-8 -13 -8 -20 -2 -20 6 0 13 7 17 15 9 24 -1 27 -15 5z"/>
<path d="M13222 2181 c4 -13 18 -16 19 -4 0 4 -5 9 -11 12 -7 2 -11 -2 -8 -8z"/>
<path d="M13085 2100 c3 -5 8 -10 11 -10 2 0 4 5 4 10 0 6 -5 10 -11 10 -5 0
-7 -4 -4 -10z"/>
<path d="M9925 830 c-3 -5 -1 -10 4 -10 6 0 11 5 11 10 0 6 -2 10 -4 10 -3 0
-8 -4 -11 -10z"/>
<path d="M9855 810 c3 -5 8 -10 11 -10 2 0 4 5 4 10 0 6 -5 10 -11 10 -5 0 -7
-4 -4 -10z"/>
<path d="M9705 760 c3 -5 10 -10 16 -10 5 0 9 5 9 10 0 6 -7 10 -16 10 -8 0
-12 -4 -9 -10z"/>
<path d="M9665 750 c3 -5 8 -10 11 -10 2 0 4 5 4 10 0 6 -5 10 -11 10 -5 0 -7
-4 -4 -10z"/>
<path d="M9465 720 c3 -5 10 -10 16 -10 5 0 9 5 9 10 0 6 -7 10 -16 10 -8 0
-12 -4 -9 -10z"/>
<path d="M9386 695 c4 -8 10 -15 15 -15 5 0 9 7 9 15 0 8 -7 15 -15 15 -9 0
-12 -6 -9 -15z"/>
<path d="M9310 680 c0 -5 5 -10 10 -10 6 0 10 5 10 10 0 6 -4 10 -10 10 -5 0
-10 -4 -10 -10z"/>
<path d="M9216 666 c8 -20 36 -17 41 4 4 13 3 13 -5 1 -9 -12 -13 -13 -26 -1
-14 11 -16 10 -10 -4z"/>
<path d="M9120 650 c0 -5 5 -10 11 -10 5 0 7 5 4 10 -3 6 -8 10 -11 10 -2 0
-4 -4 -4 -10z"/>
<path d="M9035 640 c-3 -5 -1 -10 4 -10 6 0 11 5 11 10 0 6 -2 10 -4 10 -3 0
-8 -4 -11 -10z"/>
<path d="M9163 635 c-6 -6 -8 -18 -3 -24 5 -9 9 -5 13 10 7 28 6 31 -10 14z"/>
<path d="M8946 621 c-3 -5 0 -11 8 -14 8 -3 17 1 20 9 6 15 -19 20 -28 5z"/>
<path d="M9073 616 c-10 -11 -9 -15 3 -20 9 -3 12 -1 9 4 -3 6 1 10 9 10 9 0
16 5 16 10 0 14 -23 12 -37 -4z"/>
<path d="M8850 596 c0 -2 7 -9 15 -16 12 -10 15 -10 15 4 0 9 -7 16 -15 16 -8
0 -15 -2 -15 -4z"/>
<path d="M8775 570 c3 -5 10 -10 16 -10 5 0 9 5 9 10 0 6 -7 10 -16 10 -8 0
-12 -4 -9 -10z"/>
<path d="M8910 570 c-8 -5 -11 -12 -7 -16 4 -4 13 -2 19 4 15 15 7 24 -12 12z"/>
<path d="M8590 530 c0 -5 4 -10 9 -10 6 0 13 5 16 10 3 6 -1 10 -9 10 -9 0
-16 -4 -16 -10z"/>
<path d="M8745 530 c3 -5 -2 -10 -11 -10 -10 0 -15 -3 -11 -6 9 -9 48 6 42 17
-4 5 -11 9 -16 9 -6 0 -7 -4 -4 -10z"/>
<path d="M8500 510 c0 -5 5 -10 11 -10 5 0 7 5 4 10 -3 6 -8 10 -11 10 -2 0
-4 -4 -4 -10z"/>
<path d="M8400 496 c0 -2 7 -9 15 -16 9 -7 15 -8 15 -2 0 5 -7 12 -15 16 -8 3
-15 4 -15 2z"/>
<path d="M8345 480 c3 -5 8 -10 11 -10 2 0 4 5 4 10 0 6 -5 10 -11 10 -5 0 -7
-4 -4 -10z"/>
<path d="M8316 472 c-3 -5 1 -15 9 -22 21 -17 27 -9 10 13 -7 10 -16 14 -19 9z"/>
<path d="M8540 472 c0 -5 7 -13 16 -16 10 -4 14 -1 12 6 -5 15 -28 23 -28 10z"/>
<path d="M8450 451 c0 -5 7 -12 16 -15 14 -5 15 -4 4 9 -14 17 -20 19 -20 6z"/>
<path d="M7780 390 c0 -5 5 -10 10 -10 6 0 10 5 10 10 0 6 -4 10 -10 10 -5 0
-10 -4 -10 -10z"/>
<path d="M8070 360 c0 -5 5 -10 11 -10 5 0 7 5 4 10 -3 6 -8 10 -11 10 -2 0
-4 -4 -4 -10z"/>
<path d="M4616 302 c-9 -14 29 -31 45 -20 11 8 10 9 -3 4 -12 -3 -18 0 -18 9
0 16 -16 20 -24 7z"/>
<path d="M4800 290 c0 -5 5 -10 11 -10 5 0 7 5 4 10 -3 6 -8 10 -11 10 -2 0
-4 -4 -4 -10z"/>
<path d="M4844 255 c23 -18 33 -19 41 -5 3 5 0 7 -8 4 -8 -3 -18 -1 -22 5 -3
6 -12 11 -18 11 -7 0 -3 -7 7 -15z"/>
<path d="M5170 220 c0 -5 5 -10 10 -10 6 0 10 5 10 10 0 6 -4 10 -10 10 -5 0
-10 -4 -10 -10z"/>
<path d="M5585 220 c3 -5 8 -10 11 -10 2 0 4 5 4 10 0 6 -5 10 -11 10 -5 0 -7
-4 -4 -10z"/>
</g>
</svg>
